<?xml version="1.0" encoding="utf-8"?>
<!-- Generator: Adobe Illustrator 24.3.0, SVG Export Plug-In . SVG Version: 6.00 Build 0)  -->
<svg version="1.1" id="Layer_1" xmlns="http://www.w3.org/2000/svg" xmlns:xlink="http://www.w3.org/1999/xlink" x="0px" y="0px"
	 viewBox="0 0 504 504" style="enable-background:new 0 0 504 504;" xml:space="preserve">
<style type="text/css">
	.st0{fill:#FFFFFF;}
</style>
<g>
	<path class="st0" d="M258.62,269.89c0,63.25-39.45,86.72-91.58,86.72s-94.36-23.26-94.36-86.51s42.23-142.54,94.36-142.54
		S258.62,206.64,258.62,269.89z"/>
	<g>
		<path d="M254.27,271.05c-0.01,11.57-1.36,23.23-4.96,34.27c-2.99,9.15-7.35,17.37-13.65,24.59c-0.75,0.86-1.52,1.7-2.31,2.52
			c-0.36,0.38-0.73,0.75-1.11,1.12c-0.19,0.18-0.37,0.37-0.56,0.55c-0.11,0.11-0.68,0.65-0.47,0.45c0.24-0.22-0.29,0.27-0.38,0.35
			c-0.19,0.18-0.39,0.35-0.58,0.52c-0.46,0.4-0.92,0.8-1.38,1.19c-0.83,0.7-1.68,1.38-2.55,2.03c-0.9,0.68-1.82,1.35-2.76,1.99
			c-0.43,0.3-0.87,0.58-1.31,0.87c-0.59,0.39,0.52-0.32-0.08,0.05c-0.3,0.19-0.59,0.37-0.89,0.56c-1.92,1.17-3.9,2.26-5.91,3.26
			c-0.48,0.24-0.96,0.46-1.45,0.7c-0.42,0.2,0.39-0.18,0.38-0.18c-0.11,0.02-0.26,0.12-0.37,0.17c-0.29,0.13-0.57,0.26-0.86,0.38
			c-1.07,0.47-2.16,0.92-3.25,1.35c-1.1,0.43-2.22,0.84-3.34,1.23c-0.26,0.09-0.52,0.18-0.78,0.27c-0.61,0.21-0.53,0.12,0.09-0.03
			c-0.58,0.13-1.15,0.37-1.72,0.54c-2.34,0.71-4.71,1.33-7.1,1.87c-0.28,0.06-0.56,0.13-0.84,0.19c-0.17,0.04-1.13,0.24-0.4,0.09
			c0.73-0.16-0.23,0.05-0.4,0.08c-0.33,0.07-0.66,0.13-0.99,0.19c-1.24,0.24-2.49,0.45-3.74,0.65c-2.5,0.4-5.02,0.71-7.54,0.96
			c-0.3,0.03-0.6,0.06-0.9,0.09c-0.47,0.05,0.32-0.03,0.33-0.03c-0.15,0.01-0.3,0.03-0.45,0.04c-0.71,0.06-1.42,0.11-2.13,0.16
			c-1.28,0.09-2.57,0.16-3.85,0.22c-2.67,0.12-5.35,0.17-8.02,0.15c-1.37-0.01-2.74-0.03-4.1-0.07c-0.63-0.02-1.25-0.04-1.88-0.06
			c-0.19-0.01-1.24-0.06-0.45-0.02c-0.36-0.02-0.72-0.04-1.09-0.06c-5.15-0.29-10.3-0.83-15.39-1.69
			c-5.17-0.87-9.02-1.75-14.04-3.31c-8.99-2.79-17.25-6.68-24.7-12.24c-7.33-5.47-13.58-12.38-18.15-20.31
			c-5.26-9.13-8.39-19.34-9.93-29.72c-1.76-11.81-1.6-23.86-0.21-35.7c1.4-12.02,4.06-23.9,7.74-35.43
			c3.69-11.56,8.41-22.81,14.21-33.48c5.42-9.97,11.86-19.45,19.45-27.89c3.72-4.14,6.99-7.32,11.16-10.73
			c1.95-1.59,3.97-3.11,6.06-4.53c0.48-0.33,0.97-0.64,1.46-0.97c-0.54,0.36-0.1,0.06,0.17-0.11c0.29-0.18,0.57-0.36,0.86-0.53
			c1.06-0.64,2.13-1.26,3.22-1.85c1.08-0.58,2.18-1.11,3.27-1.66c0.42-0.21-0.36,0.17-0.36,0.16c0.11-0.07,0.26-0.12,0.38-0.17
			c0.25-0.11,0.51-0.23,0.77-0.34c0.55-0.24,1.11-0.47,1.67-0.7c1.09-0.44,2.31-0.73,3.37-1.24c-0.56,0.27-0.72,0.23-0.09,0.03
			c0.26-0.08,0.52-0.16,0.79-0.24c0.61-0.18,1.22-0.36,1.84-0.52c0.53-0.14,1.06-0.27,1.59-0.39c0.26-0.06,0.54-0.09,0.8-0.18
			c0.04-0.01-1,0.2-0.51,0.11c0.18-0.03,0.36-0.07,0.53-0.11c1.16-0.22,2.32-0.41,3.49-0.55c0.27-0.03,0.54-0.07,0.81-0.09
			c0.18-0.02,1.04-0.02,0.4-0.04c-0.64-0.03,0.23-0.02,0.41-0.03c0.32-0.02,0.63-0.04,0.95-0.06c1.18-0.06,2.37-0.09,3.56-0.07
			c0.27,0,0.55,0.01,0.82,0.02c0.37,0.01,0.77,0.05,0.14,0c0.63,0.04,1.27,0.08,1.9,0.14c1.13,0.1,2.25,0.24,3.36,0.42
			c1.16,0.18,2.31,0.41,3.46,0.66c0.35,0.08-0.07-0.02-0.12-0.03c0.13,0.03,0.26,0.06,0.39,0.1c0.26,0.07,0.53,0.13,0.79,0.2
			c0.57,0.15,1.13,0.31,1.7,0.47c4.39,1.3,8.95,3.28,12.7,5.45c8.85,5.11,16.52,12.08,23.15,19.81
			c7.36,8.59,13.47,18.18,18.62,28.23c5.5,10.74,9.93,22.04,13.35,33.61c3.42,11.57,5.83,23.46,7.06,35.46
			C253.96,259.83,254.26,265.44,254.27,271.05c0,0.61,1.27,0.88,1.61,0.93c1.01,0.15,2.24-0.02,3.21-0.3
			c1.37-0.39,3.87-1.19,3.87-2.96c-0.01-12.1-1.41-24.19-3.86-36.04c-2.52-12.14-6.15-24.06-10.85-35.53
			c-4.58-11.19-10.21-21.96-17.03-31.96c-6.14-9.01-13.32-17.42-21.81-24.31c-7.69-6.23-16.58-11.28-26.23-13.68
			c-10.26-2.56-20.98-2.28-31.16,0.61c-10.35,2.94-19.89,8.28-28.21,15.06c-8.78,7.17-16.32,15.79-22.78,25.08
			c-7,10.07-12.83,20.96-17.6,32.25c-4.85,11.47-8.62,23.4-11.22,35.58c-2.54,11.89-3.96,24.07-3.9,36.24
			c0.06,11.8,1.61,23.71,5.61,34.85c3.36,9.35,8.51,18.1,15.33,25.34c6.55,6.96,14.57,12.4,23.22,16.42
			c9.18,4.27,19.09,6.89,29.07,8.41c10.91,1.66,22.07,2.05,33.08,1.41c10.76-0.62,21.56-2.25,31.84-5.55
			c9.65-3.09,18.9-7.45,26.97-13.64c7.67-5.89,13.96-13.28,18.65-21.73c5.18-9.33,8.17-19.72,9.65-30.26
			c0.86-6.15,1.21-12.38,1.22-18.59C262.96,266.64,254.27,268.08,254.27,271.05z"/>
	</g>
</g>
<g>
	<ellipse class="st0" cx="165.64" cy="283.78" rx="58.46" ry="56.11"/>
	<g>
		<path d="M219.75,284.29c-0.04,11.41-3.54,22.26-10.19,31.4c-1.81,2.49-3.03,3.92-5.15,6.05c-0.96,0.97-1.96,1.9-2.99,2.79
			c-0.54,0.47-1.08,0.92-1.63,1.37c-0.26,0.21-0.51,0.41-0.77,0.61c-0.13,0.1-0.26,0.2-0.39,0.3c0.29-0.22,0.28-0.21,0,0
			c-2.28,1.66-4.65,3.16-7.12,4.52c-0.15,0.08-0.29,0.16-0.44,0.24c0.8-0.44,0.26-0.14,0.09-0.05c-0.3,0.15-0.6,0.3-0.9,0.45
			c-0.65,0.32-1.31,0.62-1.98,0.91c-1.34,0.59-2.7,1.11-4.07,1.62c-0.49,0.18,0.31-0.12,0.33-0.11c-0.1-0.02-0.38,0.13-0.48,0.16
			c-0.32,0.11-0.65,0.21-0.97,0.31c-0.71,0.22-1.42,0.43-2.13,0.62c-0.72,0.19-1.44,0.38-2.16,0.54c-0.34,0.08-0.67,0.15-1.01,0.22
			c-0.17,0.04-0.34,0.07-0.51,0.11c-0.68,0.14,0.05,0.1,0.16-0.03c-0.23,0.27-1.68,0.29-2.06,0.35c-0.81,0.12-1.62,0.23-2.43,0.32
			c-0.7,0.08-1.4,0.14-2.11,0.2c-0.35,0.03-0.71,0.05-1.06,0.07c-0.07,0-0.66,0.04-0.16,0.01c0.51-0.03-0.25,0.01-0.34,0.01
			c-1.55,0.05-3.11,0.04-4.66-0.03c-0.71-0.03-1.42-0.07-2.13-0.13c-0.41-0.03-0.82-0.07-1.23-0.11c-0.18-0.02-0.35-0.04-0.53-0.05
			c-0.07-0.01-0.77-0.09-0.38-0.04c0.3,0.04-0.57-0.08-0.73-0.1c-0.35-0.05-0.69-0.1-1.03-0.16c-0.74-0.12-1.48-0.25-2.22-0.4
			c-1.46-0.29-2.91-0.63-4.35-1.03c-2.81-0.78-4.82-1.5-7.63-2.76c-2.63-1.18-5.18-2.55-7.62-4.1c-4.55-2.9-8.76-6.59-12.37-10.82
			c-7.27-8.53-11.74-19.16-12.69-30.33c-0.95-11.22,1.89-22.6,7.73-32c1.49-2.4,3.16-4.69,4.99-6.83c-0.31,0.36,0.21-0.24,0.3-0.34
			c0.22-0.24,0.44-0.48,0.66-0.72c0.48-0.52,0.97-1.03,1.47-1.53c1-1,2.04-1.97,3.11-2.9c0.5-0.43,1-0.85,1.51-1.26
			c0.26-0.21,0.51-0.41,0.77-0.61c0.13-0.1,0.26-0.2,0.39-0.3c-0.6,0.47,0.01-0.01,0.14-0.1c1.11-0.81,2.24-1.59,3.41-2.33
			c1.22-0.77,2.46-1.48,3.73-2.17c0.73-0.4-0.53,0.26,0.21-0.11c0.3-0.15,0.6-0.3,0.9-0.45c0.7-0.34,1.41-0.67,2.13-0.98
			c1.29-0.56,2.6-1.06,3.92-1.55c0.49-0.18-0.31,0.12-0.33,0.11c0.1,0.02,0.38-0.13,0.48-0.16c0.38-0.12,0.75-0.25,1.13-0.36
			c0.71-0.22,1.42-0.42,2.13-0.61c0.66-0.18,1.33-0.34,2-0.5c0.34-0.08,0.67-0.15,1.01-0.22c0.17-0.04,0.34-0.07,0.51-0.11
			c1.11-0.23-0.64,0.11,0.01,0c1.44-0.24,2.87-0.47,4.32-0.63c0.76-0.08,1.52-0.15,2.28-0.21c0.35-0.03,0.71-0.04,1.06-0.07
			c0.49-0.04-0.16,0-0.21,0.01c0.24-0.01,0.48-0.02,0.71-0.02c1.55-0.04,3.11-0.03,4.66,0.04c0.71,0.03,1.42,0.08,2.12,0.14
			c0.35,0.03,0.7,0.06,1.05,0.09c0.18,0.02,0.35,0.04,0.53,0.05c0.07,0.01,0.77,0.09,0.38,0.04c-0.3-0.04,0.57,0.08,0.73,0.1
			c0.4,0.06,0.8,0.12,1.21,0.18c0.74,0.12,1.48,0.26,2.22,0.4c5.81,1.17,10.57,2.89,15.85,5.75c4.91,2.66,9.12,5.82,13.07,9.81
			c7.9,7.98,13.22,18.18,15.04,29.27C219.49,278.83,219.74,281.57,219.75,284.29c0.01,1.92,2.23,2.21,3.79,1.99
			c1.15-0.16,2.3-0.5,3.29-1.13c0.59-0.37,1.63-1.12,1.63-1.9c-0.04-12.23-3.87-23.97-11.19-33.8c-7.3-9.79-17.65-16.96-29.15-20.91
			c-12.48-4.28-26.31-4.49-39.01-1.05c-12.19,3.3-23.58,10.05-31.91,19.6c-7.98,9.16-13.2,20.58-14.19,32.75
			c-1,12.21,2.01,24.27,8.53,34.63c6.34,10.08,15.97,18.07,26.9,22.74c12.42,5.31,26.18,6.44,39.39,3.86
			c12.45-2.44,24.35-8.55,33.37-17.51c8.53-8.47,14.54-19.43,16.53-31.32c0.5-2.96,0.73-5.96,0.74-8.97
			c0.01-1.92-2.24-2.21-3.79-1.99c-1.15,0.16-2.3,0.5-3.29,1.13C220.8,282.77,219.75,283.52,219.75,284.29z"/>
	</g>
</g>
<g>
	<path d="M305.05,172.6c0.2,0,0.27-0.27,0.54-0.27h0.14c0.07,0.75,2.24,1.29,2.04,1.16c0.34,0.2,1.77,1.49,1.77,1.49
		c0.27,0,0.27-0.27,0.61-0.27c0.07,0,1.49,2.04,1.9,2.51c-0.14,0.14-0.14,0.14-0.14,0.2c0,0.41,0.34,0.75,0.34,1.08
		c0,0.2-0.2,0.07-0.2,0.27c0.07,0.68,0.27,1.56,0.41,2.31c0,0.14-0.07,0.27-0.07,0.54c0,0.95,1.5,1.43,1.5,1.56
		c0.81,0.34,0.75,1.56,1.56,1.83c0,1.29,0.54,2.04,0.54,3.26c0,0.54-0.14,1.9-0.34,2.58c0,0.14-0.2,0-0.2,0.34
		c-0.07,1.02-1.02,3.4-1.02,3.53c0,0.14,0,0.27,0.07,0.54c-0.41,0.07-0.88,1.56-0.88,1.36c-0.07,0.48-0.75,0.54-0.75,1.22
		c0,0.14-0.68,1.76-1.29,1.83c0,0.14,0.07,0.14,0.07,0.27c0,1.16-1.43,1.97-1.43,1.97v0.27c0,0.2-0.61,0.27-0.61,0.82v0.27
		c-0.34,0-0.27,0.34-0.68,0.34h-0.14c0,1.42-1.76,2.31-2.24,3.12c-0.54,0.75-2.38,2.51-3.4,2.58c-0.34,0.07-0.41,0.41-0.41,0.75
		h-0.2c-0.48,0-0.75,0.88-1.23,0.88c-0.54,0.07-0.81,0.82-2.51,1.16h-0.27c-0.14,0-0.41,0.48-0.47,0.48
		c-0.61,0.2-1.63,0.27-2.58,0.27c-0.75,0-1.56-0.07-2.51-0.07h-0.07c-0.61,0-1.63-1.97-1.7-1.7v-0.14c-1.36,0-1.56-0.41-1.56-1.22
		h-0.2c-0.41,0-0.2-0.61-0.68-0.61h-0.2c0-1.15-0.88-2.31-0.88-2.31s-0.75-1.22-0.75-1.09c0-0.14,0.14-0.48,0.14-0.68
		c0,0.07-0.54-1.63-0.54-2.85c0-0.2,0.14-0.61,0.14-0.82c0-0.48-0.34-1.56-0.41-1.49c0.07-0.2,0.48-0.68,0.48-0.82
		c0-0.14-0.14-0.27-0.14-0.48c0-0.41,0.41-1.36,0.41-1.63c0-0.41-0.27-0.68-0.27-1.02c0.34,0,0.68-2.72,1.09-2.99v-0.41
		c0-0.27,0-0.48-0.27-0.48c0.41-0.48,0.88-1.49,0.88-1.97v-0.34c0-1.02,1.22-2.65,1.22-2.58v-0.27c0.48-0.61,0.75-1.15,0.75-1.9
		c0-0.07-0.07-0.2-0.07-0.41c0.54-0.07,1.29-2.04,1.29-1.97c0-0.82,0.82-0.82,0.82-1.43c0.07-0.34,0.88-0.95,1.22-1.22v-0.07
		c0-1.7,2.17-1.97,2.17-3.4v-0.14c0.88-0.34,1.43-0.82,1.56-1.63c0.95,0,0.88-0.88,1.83-0.88c0.07,0,0.14,0,0.14,0.14
		c0.14-0.07,0.14-0.34,0.14-0.48v-0.41c0.07,0.07,0.14,0.07,0.2,0.07c0.34,0,0.95-1.09,1.77-1.09h0.41c0.54,0,0.61-0.2,1.16-0.2
		c0.61,0,1.42,0.14,1.7,0.61C304.78,172.6,304.98,172.6,305.05,172.6z M303.08,177.01h-0.27c-0.2,0-0.2,0.34-0.34,0.34h-0.27
		c-0.34,0-0.34,0.41-0.61,0.41h-0.14v0.14c0,0.75-1.77,2.17-2.11,2.31c0,0-0.34-0.34-0.54-0.34c-0.07,0-0.14,0.34-0.27,0.34
		c-0.2,0-0.47-0.2-0.75-0.2c-0.41,0-0.68,0-0.68,0.48c0,0.07,0.07,0.27,0.07,0.34c0,0.34-0.34,0.41-0.34,1.02
		c0,0.41-0.34,0.07-0.34,0.41c0.07,0.07,0.14,0.2,0.14,0.27c0,0.2-0.07,0.34-0.07,0.61c0,0,0,0.2,0.14,0.34
		c-0.61,0.14-0.54,0.75-0.61,1.15h-0.27c-1.43,0-1.97,3.81-2.17,4.28c-0.34-0.07-0.88-0.27-1.29-0.27c-0.61,0-0.75,1.56-0.75,2.45
		v0.47c-0.2,0-0.2,0.34-0.2,0.54c-0.27,0.48-1.02,0.41-1.02,1.16c0,0.14,0.27,0.2,0.27,0.61c0,0.2-0.48,0.07-0.48,0.95
		c0,0.27,0.07,0.61,0.07,0.95c0,0.54-0.27,0.41-0.27,0.82v0.54c0,0.27-0.2,0.27-0.2,0.61v0.54c0,0.48-0.48,1.43-0.48,2.44
		c0,2.17,0.48,4.08,1.02,6.05c0.54,0.2,1.02,0.68,1.29,1.09c0.48,1.15,0.54,0.47,0.82,0.95c0.14,0,0,0.48,0.2,0.54h1.43
		c0.27,0.61,1.22,0.48,1.77,0.75c0.75-0.75,2.24-0.75,2.65-0.75c0.07-0.68,1.09-0.48,1.22-1.02h0.2c1.15,0,2.58-2.1,3.87-3.26
		c0.14-0.14,0.41-0.07,0.61-0.2c0.07-0.07,1.15-1.22,1.15-1.43c0.07-0.41,0.68-0.48,0.88-0.75c0-0.07,0.48-1.16,0.54-1.22v-0.2
		c0.34-0.14,2.65-2.1,2.65-3.87c0,0.07,0.07,0.07,0.14,0.07c1.02,0,0.48-2.65,2.04-3.46c0-0.14-0.07-0.34-0.07-0.54
		c0-0.61,0.54-1.29,0.54-1.97v-0.68c0-0.54,0.14-0.54,0.2-1.09c0-1.02-0.2-1.56-0.2-1.76v-0.48c0-0.27-0.48-0.34-0.48-0.68v-0.48
		c0-0.14,0-0.2-0.07-0.2c-0.82,0-1.5,1.49-1.5,1.49c-0.07,0-1.49,1.76-1.83,1.97c-0.07,0.95-0.88,1.22-1.22,1.77
		c-0.61-0.14-0.41-1.43-0.95-1.43c-0.27,0-0.27,0.41-0.34,0.41c-0.07,0-0.07,0-0.14-0.14c0.14-1.02,0.14-1.9,1.09-2.04
		c0-0.81-0.14-0.88,0.34-1.7c0.41-0.61,0.48-0.48,0.61-1.02c0-0.34,0.14-0.48,0.14-0.61c0-0.14-0.14-0.2-0.14-0.34
		c0-0.2,0.27-0.61,0.27-0.95v-0.54c0-0.34,0-0.68,0.2-0.95c-0.48-0.14-0.48-0.27-0.48-0.27c-0.14,0-0.14,0-0.2,0.07
		c0-0.41-1.63-0.68-1.63-1.63c0.14-0.41,0.82-0.41,0.88-1.02c0.07,0,0.2,0.07,0.27,0.07c0.41,0,0.68-0.14,0.68-0.54v-0.2
		c0-0.54-0.61-0.27-0.61-0.75c0-0.07,0.07-0.14,0.07-0.2c0-0.41-0.41-0.34-0.41-0.82v-0.2c-0.88-0.27-2.1-0.14-2.92-0.41
		C303.76,176.47,303.15,177.01,303.08,177.01z M294.93,183.47c0.41,0,0.68-0.34,0.68-0.75c0-0.2-0.07-0.48-0.34-0.48
		c-0.07,0.34-0.61,0.54-0.61,0.88c0,0.07,0.07,0.2,0.14,0.34H294.93z M295.2,184.35c0.27,0,0.27-0.2,0.27-0.34
		c0-0.27,0-0.41-0.27-0.41c-0.27,0-0.14,0.48-0.14,0.68C295.13,184.35,295.2,184.35,295.2,184.35z"/>
	<path d="M346.16,193.72c-0.54-0.14-1.02-0.34-1.49-0.34c-1.43,0-1.16,1.36-2.04,1.36c-0.07,0.27-0.07,0.54-0.34,0.75
		c-0.07,0.14-0.54,0-0.75,0.61h-0.14c-0.95,0-0.41,0.61-0.61,1.09c-0.41,0.27-0.68,0.41-0.61,0.95c-0.54,0.27-1.16,0.61-1.02,1.02
		v0.14c-0.07,0-0.14-0.07-0.14-0.07c-0.88,0-0.48,1.02-0.48,1.09c-0.14,0.07-0.61,0.07-0.54,0.48c0,0.07,0.07,0.14,0.14,0.2
		c0,0.14-0.14,0.2-0.34,0.2h-0.2c0.2,0.82-0.41,0.48-0.48,1.22h-0.27c-0.2,0-0.68,0.41-0.68,0.41c0.27,0.68-0.68,1.9-0.68,2.1
		c-0.27,0.07-0.48,0.34-0.48,0.48l0.07,0.14c-0.2,0.14-0.34,0.34-0.61,0.41v0.2c0.07,0.34-0.27,0.34-0.2,0.68
		c0,0.07,0.14,0.14,0.14,0.2c-0.27,0.14-0.54,0.14-0.48,0.68c0.14,0.54-0.07,0.34,0.14,0.82c0,0.41-1.22,1.77-1.97,2.31
		c0.07,0.14,0.07,0.27,0.07,0.27c0.2,0.61-0.61,2.11-1.09,2.24h-0.41c-0.41,0-0.75-0.14-1.02-0.14c-0.34,0-0.27,0.27-0.41,0.48
		c-0.2-0.07-0.41-0.07-0.54-0.07c-0.34,0-0.54,0-0.88,0.07c-0.48-0.48-1.09-0.75-1.76-0.95c-0.34-0.75-1.22-1.36-1.84-1.83
		l-0.14-0.34c-0.2-0.54-0.48-1.09-0.81-1.63c-0.07-0.61,0-1.08-0.34-1.9c-0.07-0.07-0.27-0.54-0.41-0.54
		c-0.07-0.14,0.2-0.34,0.14-0.61c0-0.68-0.41-1.49-0.61-2.38c0-0.07-0.2-1.23,0.07-1.36c-0.14-0.14-0.2-0.34-0.27-0.54
		c-0.2-0.34-0.07-0.88-0.27-1.5l-0.14-0.48c0,0,0.2,0,0.14-0.07c0-0.14-0.14-0.2-0.27-0.2h-0.07c0-0.48,0.34-0.41,0.07-1.02
		l-0.07-0.48c-0.27-0.54,0.2-0.82,0.14-1.02c0-0.07-0.34-0.41-0.41-0.61c-0.14-0.2,0.2-0.68,0.14-1.09
		c-0.14-0.2-0.34-0.27-0.34-0.34c-0.07-0.07,0-0.07-0.07-0.27c-0.07-0.41-0.27-0.75-0.34-1.02c-0.81-2.31,0.75-3.12,0.61-3.12
		c-0.07-0.14-0.14-0.2-0.14-0.27c-0.14-0.61,0.27-1.02,0.14-1.43l-0.14-0.2c0-0.2,0.34-0.2,0.2-0.34c-0.14-0.07-0.34-0.2-0.48-0.41
		c-0.07-0.41,0.75-0.82,0.75-0.88h0.07c0.07,0,0.07,0.14,0.07,0.14c0.34,0,0.61-0.07,0.95-0.07c0.88,0,1.36,0.61,1.56,0.61
		c0.34,0.2,0.88,0.2,1.29,0.34c0.27,0.2,0.48,0.48,0.95,0.61v0.14c0.14,0.2,0.27,0.27,0.27,0.41c0,0.14,0.07,0.14-0.2,0.2
		c0.2,0.34,0.75,0.34,0.82,0.54c0,0-0.14,0-0.14,0.14c0,0.07,0.27,0,0.34,0.14c0.14,0.48-0.34,0.61-0.07,1.22
		c-0.34,0.41-0.68,0.14-0.95,0.48l0.07,0.34c0.34,0.82-0.27,1.09,0,1.9c-0.2,0.2-0.82,0.27-0.61,0.75c0,0.14,0,0.14,0.07,0.2
		c-0.88,0-0.41,1.09-1.56,1.36c0.27,0.82,1.09,1.7,0.34,1.7l0.2,0.14c-0.07,0.14,0.14,0.34,0.14,0.48c0.2,0.54-0.61,0.27-0.48,0.61
		c-0.07,0.14,0.14,0.2,0.2,0.34c0.07,0.14-0.34,0.14-0.27,0.2c0.07,0.14,0.27,0.2,0.34,0.41c-0.07,0.2-0.2,0.27,0,0.34
		c0,0.14,0,0.27,0.27,0.41c-0.34,0.07,0,0.34-0.34,0.34c0.2,0.34,0.48,0.41,0.61,0.75c-0.07,0.41-0.34,0.68-0.07,1.22
		c0.07,0.2,0.14,0.48,0.41,0.75c-0.41,0-0.34,0.2-0.34,0.61l0.88,1.5c0,0.14-0.14,0.27-0.14,0.41c0.07,0,0.2,0.07,0.2,0.07
		c0,0.2-0.14,0.07-0.14,0.27c0.2,0.27,0.68,0.75,0.88,0.95c0,0.34,0.2,0.61,0.27,0.88c0.2,0.54,0.68,2.11,1.36,2.11
		c1.23,0,0.14-1.36,1.16-1.36c0-0.2,0.27-0.34,0.2-0.68l-0.2-0.07c0.34,0,0.2-0.34,0.48-0.34h0.2c0-0.14-0.14-0.88,0.07-0.88h0.2
		c0.27,0,0.07-0.54,0.07-0.61c0.41-0.07,0.48-0.34,0.82-0.54c-0.2-0.07-0.2-0.07-0.2-0.2c-0.07-0.48,0.48-0.95,0.41-1.09l0.07-0.07
		c-0.14-0.14,0.07,0.07,0-0.14v-0.14c0.07-0.14,0.47-0.82,0.47-0.82c0.14,0,0.2,0.14,0.34,0.14c-0.07-0.2,0.75-1.49,0.68-1.49
		c0.48,0,0.2-0.48,0.82-0.48c-0.07-0.07-0.07-0.07-0.07-0.14c-0.2-0.48,0.27-0.95,0.88-1.16v-0.14c-0.2-0.95,1.29-0.95,1.23-1.42
		l-0.2-0.41c-0.27-1.02,1.22-1.09,1.02-1.63c0-0.07-0.14-0.07-0.14-0.2c0.88-0.14,1.5-2.24,2.24-2.31c0-1.02,1.29-1.16,0.95-2.17
		c0.27-0.27,0.88-0.27,0.75-0.88l-0.07-0.14c0.2,0,0.68,0,0.75-0.2c-0.14-0.54,0.2-0.07,0.75-0.75c0.14-0.14,0.68-0.54,0.75-0.82
		c0,0.07,0.07,0.07,0.14,0.07c0.07,0,0.2,0,0.2-0.07c0.34-0.54,2.24-1.36,3.19-0.68c0.75,0.54,0.88,2.38,1.22,2.38
		c1.09,0.88,1.56,1.43,2.51,2.38c0.68,0,1.16,1.16,0.68,1.23c-0.14,0.07,0.48,0.41,0.27,0.48c-0.07,0.07-0.2,0.07-0.27,0.41
		c-0.41,0-1.77,0.88-2.11,0C348.06,194.81,346.5,194.54,346.16,193.72z"/>
	<path d="M369.07,203.09c0-0.27,0-0.48-0.2-0.54c0.14-0.48,0.54-0.82,0.61-1.22c0-0.07-0.14,0.14-0.27-0.14
		c-0.68,0.54-1.02,2.45-2.24,2.31c0,0.34-0.27,0.47-0.27,0.75v0.27c0,0.14-0.41-0.07-0.48,0.07c-0.14,0.07-0.07,0.41-0.27,0.54
		c-0.07,0-0.54,0.48-0.54,0.61c0,0.07,0.07,0.2,0.07,0.27c0,0.07,0,0.07-0.07,0.07h-0.2c-0.48,0-1.29,0.82-1.29,1.09
		c0,0.07,0,0.14,0.07,0.34c-0.61,0.68-1.36,0.61-1.43,1.56c0,0-0.54,0.48-0.41,0.54c-0.54,0.34-1.7,1.43-1.56,1.22
		c-0.14,0.2-0.41,0.48-0.54,0.82c0,0.41-2.58,1.36-2.58,1.16c0,0.2,0.2,0.34,0.2,0.47c0,0-0.07,0-0.2-0.07c-0.14,0-0.14,0-0.14,0.07
		c0,0.07-0.2,0.14-0.2,0.2c-0.07,0.14-1.16,0.48-1.22,0.41c-0.48-0.14-0.61-0.27-0.88-0.34c-0.68,0.2-1.56,0.48-2.31,0.54
		c-0.88-0.48-2.04-1.15-1.97-2.17c-0.82-0.07,0.68-2.65,0.07-2.99c0-1.29,0.41-1.22,0.54-2.24c0-0.68,0.41-0.75,0.41-1.63
		c0.41-0.14,1.29-1.56,0.61-2.1c0-0.34,0.41-1.09,0.48-2.38c-0.07,0-0.07-0.07-0.07-0.07c0.07-0.27,0.41-0.14,0.48-0.34
		c0-0.07-0.07-0.2-0.07-0.41c0-0.27,0.68-0.48,0.68-1.02c0-0.27,0.14-0.61,0.2-1.02c0.2,0,0.27-0.07,0.27-0.34
		c0-0.07-0.07-0.2-0.07-0.27c0.07-0.61,0.41-0.34,0.41-0.61c0-0.2,0.61-1.7,0.61-1.84c0.07-0.2,0.41-0.27,0.41-0.54
		c0-0.2-0.2-0.48-0.14-0.68c0.2-0.2,0.54-0.48,0.61-1.02c0-0.34,0.2-0.41,0.2-0.75c0-0.14,0.07-0.2,0.07-0.2
		c-0.07,0,0.61-1.22,0.54-1.22c0.14,0-0.14-0.41-0.07-0.41c0.34-0.14,0.27-0.54,0.41-1.15c1.15-0.14,0,0,0.95-0.41
		c0.48,0.14,0.68,0.41,1.36,0.41c0.07,0,0.14,0,0.27,0.07c0.61,1.09,1.9,1.5,1.77,3.53c0,0.48-0.54,0.61-0.95,1.9
		c0,0.2-1.49,1.77-1.56,1.84c-0.82,0.61-1.49,2.99-1.29,2.85c-0.54,0.41-0.48,1.02-1.02,1.9c0,0.07-0.07,0.82-0.07,0.88
		c0,0.41-0.41,0.75-0.41,1.09v0.34c0,0-0.2,0.41-0.61,0.75c0.14,0.14,0.14,0.34,0.14,0.48c0,0.27-0.07,0.54-0.41,0.68
		c0.14,0.07,0,1.9,0,2.17c0,0.34-0.2,0.82-0.2,1.09c-0.2,0.48-0.41,1.29,0.68,1.29c0.34,0,0.95,0.07,1.02-0.34V209
		c0.48,0.2,0.68-0.14,1.36-0.54c0.2-0.14,0.61-0.2,0.82-0.41c0.61-0.27,0.41,0,1.56-0.82c1.22-1.42,1.83-1.42,2.17-1.83
		c0.54-0.48,1.43-0.88,1.49-1.76v-0.2c0.75,0,2.04-1.56,2.17-2.1c0-0.34,0.95-0.68,1.02-1.09c0-0.07-0.07-0.14-0.07-0.2
		c0.07-0.34,1.02-1.02,1.02-1.36c0-0.07-0.07-0.14-0.07-0.2c1.49-0.61,0.68-1.36,1.43-1.97v-0.34c0.07-1.5,0.88-1.77,2.24-1.56
		c0.27,0,0.68,0.14,1.02,0.2c-0.07,0.07-0.07,0.14-0.07,0.2c0,0.27,0.54,0.27,0.54,0.68v0.07c0,0.48,0.82,0.34,0.75,0.75
		c0,0.34-0.27,0.2-0.34,0.48c0.2,0.14,0.34,0.41,0.27,0.75c-0.07,1.22-0.95,0.54-1.09,1.15c0,0.41,0.48,0.68,0.48,0.82
		c0,0.14-0.2,0.2-0.2,0.27c0,0.14,0.14,0.14,0.14,0.27c0,0.34-0.2,0.54-0.61,0.75c0.07,0.34,0.14,0.54,0.14,0.81
		c-0.07,0.2-0.34,0.14-0.34,0.27c0,0.07,0.14,0.27,0.14,0.48c0,0.07-0.07,0.14-0.14,0.27c0,0.14-0.34,0.2-0.34,0.41
		c0,0.2,0.14,0.88,0.14,1.22v0.61c0,0.2,0,0.48,0.2,0.61c-0.2,0.61-0.48,1.22-0.48,1.76c0,0.2,0.07,0.41,0.27,0.48
		c-0.14,0.2-0.2,0.54-0.2,0.75c0,0.68,0.48,1.22,0.75,1.77c0.82-0.14,1.76,0,2.31-0.34c0.14-0.14,1.63-0.75,1.49-0.75
		c1.5-0.48,0.61-0.27,2.17-1.22c1.09-0.68,2.11-1.36,3.19-2.44c0.07,0,0.14,0.07,0.27,0.07c0.14,0,0.2-0.2,0.27-0.34
		c0.75-0.41,0.75,0.14,1.5-1.02h0.27c0.34,0,0-0.82,0.41-0.82c0.2,0,0.27,0,0.27,0.2c1.22-0.82,2.44-2.24,2.85-2.24
		c0.41-0.27,0.68-0.75,1.02-1.15c0.14-0.2,1.42-0.95,1.36-0.95h0.14c-0.07-0.14-0.07-0.2-0.07-0.27c0-0.27,1.77-1.97,2.58-2.45v-0.2
		c0-0.41,0.61,0.2,0.61-0.14c0,0,0.61,0.2,0.61,0.14c-0.27,0.2-0.27,1.22-0.54,1.36c-0.27,0.2-0.27-0.07-0.41,0.07
		c-0.07,0-0.14,0.14-0.2,0.2c-0.14,0.14,0.14,0.48-0.41,0.82c-0.27,0.27-0.82,0.27-0.68,0.34c0,0.07-0.95,1.49-1.43,2.04
		c-0.61,0.81-1.97,1.63-1.9,1.63c-0.54,0-0.95,0.95-1.16,1.49c-0.27,0.07-1.15,0.54-0.95,0.54c-0.07,0-0.07,0-0.14-0.07
		c-0.61,0.75-0.95,0.75-1.56,1.43v0.14c0,0.34-0.68,0.27-0.68,0.41v0.14c-0.2,0.34-1.16,0.48-1.16,1.09
		c-0.14,0.41-1.02,0.68-1.16,0.81c-1.42,0.68-2.92,2.17-2.72,1.97c-0.14,0.14-0.2,0.2-0.2,0.27c-0.07,0-0.61,0.27-0.95,0.27
		c-0.14,0-0.27,0-0.34-0.07c-0.95,0.82-1.77,1.02-2.38,1.56h-0.2c0,0-0.75,0.54-2.1,0.54c-0.61,0-0.27-0.41-0.68-0.41
		c-0.14,0-0.27,0.07-0.48,0.07c0.07,0-1.15-0.75-1.15-0.75v-0.27c0-0.34-0.82-0.48-0.75-0.54h-0.14v-0.34c0-0.07-0.34-0.07-0.34-0.2
		v-0.27c0-0.14-0.27-0.14-0.27-0.2c-0.14-0.14-0.34-1.22-0.34-1.02l-0.07-0.07c0-0.07,0.07-0.07,0.07-0.14
		c-0.07,0-0.41-1.16-0.54-1.77c0-0.34,0.2-0.48,0.2-0.82c0-0.41-0.27-0.68-0.27-1.08c0-0.34,0.34-0.75,0.34-1.09v-0.75
		C368.73,203.71,369,203.71,369.07,203.09z"/>
	<path d="M425.4,209.82h0.14c0.48-0.2,0.88-0.48,1.02-1.09c0.07,0.07,0.2,0.07,0.27,0.07c1.02,0,1.22-1.42,1.83-1.83
		c0.82-0.2,1.29-0.61,1.77-1.09c0.68,0.14,0.68,0.68,1.16,0.95c-1.5,0.34-1.5,2.1-2.58,2.78c-1.15,0.48-0.48,1.56-1.7,1.56
		c-0.61,0-1.76,1.63-2.1,1.63c-0.48,0.41-1.63,0.81-2.31,0.81c-0.95,0-1.56-0.41-2.31-0.68v-0.2c0-0.14-0.34-0.34-0.41-0.41h-0.07
		c-0.27-0.48-0.34-1.43-0.34-1.9c0-0.07,0.14,0,0.14-0.27c0-0.07-0.14-0.41-0.14-0.41c0-0.2,0.27-0.07,0.34-0.2v-1.7
		c0-0.48,0.07-0.95,0.2-1.02c-0.07-0.41-0.2-0.95-0.2-1.49c0-0.2,0-0.34,0.07-0.54v-0.14c0-0.07-0.07-0.07-0.07-0.27
		c0-0.27,0.2-0.82,0.47-0.95c-0.14-0.14-0.2-0.68-0.2-1.02c0-0.81,0.2-1.42,0.27-2.1c0-0.07-0.07-0.14-0.07-0.27
		c0-0.14,0.14-0.2,0.14-0.34c0-0.48-0.14-0.61-0.14-0.82c0.07,0,0.2-1.09,0.2-1.56c0-0.41-0.2-0.88-0.2-1.22
		c0-0.2,0.07-0.41,0.27-0.48c-0.14-0.14-0.14-0.27-0.2-0.48l-0.07-0.81c-0.07-0.07-0.14-0.48-0.41-0.48c-0.07,0-0.54,0.61-0.48,0.61
		h-0.27c-0.82,0-1.02,1.15-1.02,1.29c0,0.14,0.14,0.27,0.27,0.54v0.14h-0.2c-0.82,0-0.75,0.68-1.36,0.82
		c0.14,0.14,0.2,0.07,0.2,0.27c0,0.95-1.63,1.9-2.24,2.44c0,0.34,0.14,0.41,0.14,0.41c0,0.07-0.61,0.48-0.61,1.15v0.54h-0.07
		c-0.34,0-0.2,0.2-0.54,0.2l-0.14-0.07c0,0.14-0.07,0.2-0.07,0.27c0.07,0.34,0.27,0.34,0.34,0.68h-0.07c-0.14,0-1.22,1.02-1.22,1.76
		c0,0.2,0.14,0.2,0.14,0.34c-1.56,0.2-1.84,3.74-1.9,4.01c-0.14,0.14-0.61,0.07-0.61,0.27c0,0.07,0.07,0.27,0.07,0.27
		c0,0.07-0.2,0.14-0.2,0.34c-0.75-0.14-0.88-0.88-1.7-0.88c-0.41,0-0.88,0.34-1.09,0.68c-0.34-0.14-0.75-0.2-0.88-0.61
		c-0.14,0-0.2,0.07-0.2,0.07c-1.09,0-1.02-1.15-1.02-1.02c0-0.14,0.07-0.34,0.07-0.48c-0.07-0.2-0.07-0.27-0.41-0.27
		c0.2-0.34,0.2-0.54,0.2-0.75v-0.41c0-0.41,0.27-0.41,0.27-0.61c0-0.34-0.14-1.15-0.14-1.49c0-1.29,0.34-2.38,0.34-2.72
		c0-0.54-0.14-1.15-0.14-1.63c0-0.34,0.27-0.68,0.27-0.88c0-0.2-0.34-0.34-0.34-0.61c0-0.2,0.2-0.41,0.27-0.95
		c0-0.14-0.14-0.2-0.14-0.27c0-0.27,0.14-0.61,0.14-1.56c0-0.07-0.14-0.14-0.14-0.2c0,0,0-0.48,0.2-0.68
		c-0.07,0-0.34-0.27-0.34-0.41v-0.14c0.07-0.07,0.14-0.27,0.14-0.48c0-0.54-0.27-1.36-0.27-1.84c-0.75,0-1.15,0.41-1.22,0.61h-0.07
		c-0.48,0-0.81,1.29-1.76,1.56c-1.16,2.58-2.11,1.9-2.11,2.72c0,0.07,0.07,0.27,0.14,0.41c-0.61,0-0.47,0.48-0.61,0.88
		c-0.75,0.41-1.42,1.22-1.42,1.56v0.07c0,0.2-0.27,0.41-0.27,0.75c0,0.07,0.14,0.14,0.14,0.2c-0.54,0-0.95,0.14-0.95,0.75v0.2
		c-0.61,0.41-1.77,2.65-1.77,3.06c0,0.27,0.07,0.48,0.07,0.68c0,0.27-0.48,0.88-0.48,0.82v0.2h-0.2l0.07,0.07h-0.34
		c-0.61,1.15-1.16,1.97-1.09,3.12c-0.41,0.54-1.23,0.95-1.23,1.76c0,0.2,0.07,0.48,0.14,0.61c-0.14,0.14-0.48,0.2-0.61,0.2
		c0,0.14,0.07,0.27,0.07,0.34c0,1.15-1.15,0.82-1.22,1.22c-0.27,0-0.48-0.2-0.54-0.48v-0.14h-0.07c-0.61,0-0.48,0.41-1.16,0.41
		c0-0.14-1.97-0.07-1.97-1.97c0-0.41,0.41-1.09,0.61-1.16c-0.07-0.27-0.07-0.34-0.07-0.54c0-0.41,0.14-0.75,0.41-0.95
		c-0.14-0.07-0.2-0.14-0.2-0.2v-0.75c0.54,0,0.27-0.61,0.75-0.68c-0.14-0.07-0.14-0.14-0.14-0.2c0-0.14,0.2-0.88,0.34-0.88
		c0-0.07-0.07-0.2-0.07-0.41c0-0.34,0.34-0.34,0.34-0.75c0-0.14-0.07-0.07-0.07-0.2c0-0.2,0.07-0.2,0.07-0.27
		c0-0.14,0.14-0.68,0.54-0.68c-0.14-0.07-0.14-0.2-0.14-0.2c0-0.27,0.2-0.34,0.2-0.41c0-0.07-0.07-0.07-0.14-0.07
		c0-0.07,0.14-0.41,0.14-0.48v-0.27c0.2-0.07,0.14-0.34,0.48-0.34h0.14v-0.2c0-0.75,0.61-1.09,0.61-1.77v-0.2
		c0.75-0.54,0.41-2.72,1.22-2.72c-0.07,0-0.07-0.14-0.07-0.14c0-0.2,0.2-0.27,0.27-0.34c0.34-1.36-0.2-1.29,0.68-1.63
		c0-0.07-0.07-0.2-0.07-0.34c0-1.02,0.68-2.17,1.02-2.58v-0.48c0-0.07,0.2,0.14,0.2-0.41v-0.54c0-0.75,0.34-0.27,0.41-0.61
		c0-0.07-0.07-0.2-0.07-0.2s0.48-0.68,0.68-0.75c0-0.82,0.07-0.68,0.61-1.77v-2.31c0.27-0.27,0.61-0.41,0.75-0.82
		c0.27,0.14,1.29,0.27,1.29,0.27c0.2,0.07,0.2,0.2,0.41,0.2c0.2,0.2,2.31,0.54,2.31,2.04c0.07,0.14,0.14,0.2,0.14,0.34
		c-0.14,0.54-1.16,3.4-1.29,3.4c-0.41,0-1.29,0.82-1.43,1.16v0.14c0,0.68-0.34,1.63-0.54,1.63c-1.02,0-1.29,1.43-1.29,1.63
		c0.07,0-0.2,1.56-0.2,1.7c-0.07,0.07-0.14,0.2-0.34,0.34c-0.95,0.81-1.42,1.36-1.42,2.24v0.34c0,0.34,0,0.54-0.2,0.54
		c-0.2,0-0.61,1.49-0.88,1.49c-0.34,2.65-1.7,1.83-1.84,3.67c-0.27,0.07-0.34,0.34-0.34,0.68c0,0.14-0.07,0.48,0.27,0.48
		c0.34,0,0.41-0.2,0.41-0.34c0-0.14-0.07-0.27-0.07-0.48c1.02-0.2,0.61-0.88,1.02-1.02c0.75,0,1.22-2.38,2.58-2.78
		c0-0.07-0.07-0.07-0.07-0.2c0-0.2,0.14-0.27,0.34-0.27c-0.07-0.07-0.07-0.14-0.07-0.27c0-0.54,0.68-0.68,0.68-1.29v-0.14
		c0.34-0.34,0.68-0.68,1.09-0.88c0-0.14-0.07-0.34-0.07-0.41c0-0.34,0.34-0.41,0.34-0.82h0.07c0.2,0,0.2-0.34,0.41-0.34h0.2
		c0.48-0.47,1.09-1.02,1.09-1.83c0-0.14,0-0.27-0.07-0.41c0.27,0,0.2-0.2,0.27-0.27c0.07,0,0.14,0.07,0.27,0.07
		c0,0,0.14,0,0.14-0.07c0-0.07-0.07-0.14-0.07-0.14c0-0.2,0.41-0.14,0.48-0.27c0.41-0.14,0.14-0.61,0.41-0.82h0.07
		c0,0,0.54-0.75,0.75-1.15c0-0.07,0.95-1.36,1.36-1.36c0.54-1.09,1.7-2.24,1.7-2.38v-0.27c0.14-0.14,0.81-0.07,1.02-0.07
		c0.41,0.14,0.75,0.2,0.75,0.27h0.27c0,0-0.07,0.07-0.07,0.14c0.07,0.07,0.14,0.07,0.14,0.07h0.27v0.14c0,0.07,1.09,0.48,1.22,0.54
		c0.27,0.75,1.22,1.29,1.22,1.9c0,0.2-0.2,0.2-0.2,0.34c0.2,0.27,0.68,1.77,0.68,1.77c0,0.14-0.14,0.07-0.14,0.2
		c0,0.54,0.14,0.95,0.14,1.15c0,0.54-0.34,0.2-0.54,0.61c0.07,0.14,0.07,0.34,0.07,0.41c0,0.34-0.27,0.48-0.27,0.68
		c0,1.36,0.27,0.95,0.27,2.65c0,0.54-0.2,1.09-0.2,1.5c0,0.34,0.54,1.22,0.54,1.22v0.14c0,0.48-0.48,0.61-0.48,0.82
		c0.07,0.07,0.07,0.34,0.07,0.34c-0.27,0.41-0.95,0.14-0.54,0.88c0.68-0.14,0.68-0.82,1.29-1.09c0-0.07-0.07-0.14-0.07-0.27
		c0-0.34,1.29-1.29,1.29-1.83c0-0.07-0.07-0.14-0.07-0.27c0.34,0,1.49-1.29,1.49-1.49v-0.41c0.2-0.07,0.14-0.41,0.34-0.41h0.2
		c0.07,0,0.14-0.07,0.14-0.2v-0.14c0-0.07,0-0.14,0.07-0.14h0.14c0.14,0,0.34-0.27,0.34-0.27c0-0.07,0-0.2-0.07-0.27
		c0-0.14,0.34-0.07,0.41-0.14c0.14-0.07,0.34-1.02,0.41-1.02h0.14c-0.34-0.14,1.02-1.29,1.02-1.22c0-0.14-0.07-0.2-0.07-0.27
		c0.82-0.2,1.22-0.75,1.43-1.29c0.07,0,0.14,0.07,0.14,0.07c0.68,0,1.09-1.76,1.5-1.76h0.2c0.14,0,0.14,0,0.14-0.07v-0.41h0.41
		c0,0,0.27-0.41,0.88-0.41c0.2,0,0.48,0.14,0.54,0.14c0,0,0-0.14,0.14-0.14c1.56,0,2.51,1.77,2.51,2.31v0.41
		c0,0.2,0.41,0.75,0.54,1.22c-0.14,0.2-0.14,0.2-0.27,0.2s-0.27-0.07-0.48-0.07c0,0-0.07,0-0.14,0.07c0.48,0.75,0.88,1.02,0.95,2.1
		c-0.14-0.14-0.61,1.63-0.14,3.26c0.07,0.2-0.07,0.34-0.68,1.16c0.27,0.2,0.27,0.48,0.41,0.61c0,0.14,0,0.61-0.07,0.61h-0.14
		c-0.07,0-0.07,0.07-0.07,0.2c0,0.41,0.07,0.61,0.07,0.61c-0.68,1.09-0.2,2.58-0.2,5.23c0,0.34-0.2,0.61-0.2,0.88
		c0,0.61,1.22,0.68,1.36,0.68c0.2,0,0.41-0.14,0.61-0.27C425.12,210.09,425.26,209.82,425.4,209.82z"/>
	<path d="M332.08,250.98h-0.48c-0.61-0.14-1.49-0.27-3.26-0.27c-1.22,0-2.17,0.41-3.6,0.41c-1.02,0-2.17-0.14-2.99-0.14
		c0.07,0-1.09,0.95-1.09,0.75c-0.14,0-0.27-0.07-0.34-0.07c-0.34,0-0.68,0.14-1.02,0.14c-0.27,0-0.48,0-0.61-0.48
		c-0.2,0-0.41,0.61-0.81,0.61c-0.07,0-0.14-0.2-0.27-0.2c-0.27,0,0,0.48-1.02,0.48c-1.16,0-1.9,0.68-1.9,1.49v0.27
		c0,0.68-1.9,2.58-1.9,2.58c-0.68,0.75-1.97,2.04-1.97,2.85c-1.22,0.48-1.9,2.11-2.72,2.11h-0.14c-1.23,1.9-1.9,1.56-2.31,2.51
		c-0.88,0.41-1.63,0.88-1.76,1.97h-0.27c-0.14,0-0.48,0.07-0.48,0.2v0.27c0,0.07,0,0.14-0.07,0.14c-0.07,0-0.07-0.07-0.14-0.07
		c-0.68,0.48-1.29,1.02-1.9,1.36c-0.61,0-1.43,1.22-1.43,1.36h-0.34v0.2H299c-0.34,0-0.34,0.14-1.09,0.14c0,0-0.34,0.41-0.54,0.41
		c-0.07,0-0.2-0.07-0.2-0.2c-0.27,0.07-0.27,0.2-0.27,0.27v0.27c0,0.07-2.99,1.56-3.19,1.56c-0.41,0.07-1.76,1.29-4.07,1.29
		c-0.75,0-1.77-0.34-2.78-0.34c-0.34,0-0.68,0.07-1.02,0.2c-0.48-0.41-1.09-0.68-1.56-1.15c-0.14,0.14-0.2,0.2-0.34,0.2
		c-0.2,0-0.41-0.2-0.75-0.2h-0.2c-0.48-0.41-0.68-1.36-1.36-1.5v-0.14c0-0.34-0.2-0.41-0.2-0.61v-0.54c0-0.34-0.27-0.41-0.27-0.68
		c0-0.41,0.48-0.41,0.48-0.95c-0.2-0.34-0.41-0.48-0.68-0.48c-0.14,0-0.41,0.07-0.68,0.14v-0.14c0-0.2-1.16-0.54-1.16-1.83
		c0-2.72,3.06-2.65,3.06-5.3v-0.27c0.68-0.14,0.34-1.36,1.22-1.36h0.14c-0.14-0.2-0.14-0.34-0.14-0.48c0-1.02,1.16-1.56,1.16-2.65
		v-0.27c0-0.34,0.75-1.77,1.49-2.17c-0.14-0.2-0.14-0.41-0.14-0.54c0-0.34,0.41-2.17,1.49-2.92c0-1.63,1.63-3.53,2.11-4.42
		c0.34-0.75,0.75-2.72,1.9-3.06c0-1.09,0.34-2.51,0.75-2.51c0.14-0.2,0.61-0.95,0.61-1.22v-0.34c0,0,0.07,0.07,0.14,0.07
		c0.07,0,0.07-0.07,0.07-0.07c0-0.07-0.07-0.2-0.07-0.27s0.07-0.07,0.07-0.07h0.2c0-0.07-0.07-0.2-0.07-0.27
		c0-0.2,0.61-0.41,0.61-0.95v-0.27c0-0.14,0.14-0.07,0.2-0.07c0-0.07-0.07-0.2-0.07-0.27c0-0.07,0.07-0.14,0.07-0.14
		s0.07,0.07,0.14,0.07c0.07,0,0.07-0.07,0.07-0.07c0-0.07-0.07-0.2-0.07-0.27c0-0.07,0.07-0.07,0.07-0.07h0.2
		c0-0.07-0.07-0.2-0.07-0.27c0-0.2,0.2,0,0.2-0.27v-0.27c0.07,0,0.14,0.07,0.14,0.07c0.07,0,0.07-0.07,0.07-0.14v-0.2
		c0-0.68,0.41-0.68,0.61-0.88c0.14-0.27,0.07-0.68,0.2-0.95c0-0.14,0.34-0.07,0.34-0.27v-0.2c0-0.07,0-0.07,0.07-0.07h0.14
		c1.36-2.72,1.36-3.74,1.9-3.87c-0.14-0.2-0.68-0.54-1.02-0.54c-0.14,0-0.2,0.07-0.27,0.14c-0.41-0.2-0.68-0.48-1.02-0.75
		c-0.34,0-0.41,0.2-0.75,0.2c-0.14-0.48-2.24-1.29-1.97-1.16c-0.61-0.2-2.58-0.41-3.81-0.95h-0.34c-0.14-0.07-0.2-0.14-0.34-0.14
		h-0.2c-1.02,0-1.49-1.02-3.06-1.02h-0.27c0-0.14,0-0.2-0.07-0.2h-0.34c-0.14-0.14-1.97-0.61-2.31-0.75v0.07
		c0,0-0.07,0.14-0.14,0.14c-0.2,0-0.2-0.41-0.68-0.41H281c-0.27-0.48-1.02-0.41-1.15-0.95c-0.34,0-0.61,0.2-1.02,0.2
		c-0.48,0-1.49-0.61-2.58-0.61h-0.2c-1.09-0.41-2.92-0.95-2.85-1.02c-0.2,0.07-0.34,0.27-0.61,0.27c-0.14-0.34-0.47-0.61-0.81-0.61
		s-0.34,0.2-0.75,0.2c-0.34-0.88-1.77-0.14-2.92-1.56c-0.14-0.54-0.95-0.41-1.29-0.75v-0.2c0-0.54-0.41-0.88-0.41-1.36
		c0-0.61,0.54-0.88,0.75-1.49c0,0.07,0.07,0.07,0.14,0.07c0.27,0,0.68-0.41,0.95-0.41c0.41,0,0.27,0.48,0.88,0.48h0.54
		c0.54,0,1.43,1.16,1.56,1.16c0.07-0.07,0.2-0.14,0.2-0.14c0.2,0,0.2,0.27,0.54,0.34c0.27,0,0.41-0.2,0.41-0.54v-0.2
		c0.27,0,0.34,0.27,0.34,0.54v0.41c0,0.2,1.76,1.22,1.83,1.22c0.14,0,0.27-0.07,0.34-0.07c0.41,0.2,0.2,0.27,0.54,0.27
		s0.68-0.07,1.02-0.07c0.88,0,1.56,0.61,2.04,0.95h0.48c1.29,0,1.77,0.75,2.99,0.75h0.41c0.14,0.2,0.41,0.2,0.41,0.54v0.07h0.27
		c0.61,0,0.75,0.34,1.16,0.34c0.14,0,0.27-0.07,0.48-0.14c0.75,0.61,2.04,0.61,3.26,0.75c0.48,0.61,2.92,1.83,3.26,1.83
		c0.34,0,0.54-0.27,0.81-0.27c0.07,0,0.27,0.2,0.41,0.2c0.14,0,0.07-0.2,0.27-0.2c0.48,0,0.41,0.48,0.82,0.54
		c3.12,0,3.33,1.15,3.74,1.15h0.34c0,0-0.07,0.07-0.07,0.14c0,0.2,0.88,0.34,1.02,0.34c0.2,0,0.95-0.14,0.95-0.54v-0.2
		c0-0.2,0.41-0.2,0.41-0.41v-0.54c0-0.34,0.41-0.14,0.41-0.82c0-0.27-0.07-0.54-0.07-0.81c0-0.34,0.2-0.14,0.2-0.54v-0.27
		c0.61-0.61,0.41-1.16,1.36-1.16c0.88,0,1.7,0.2,2.17,0.2h0.27c0.2,0,0.27,0.68,0.61,0.68c0.07,0,0.14,0,0.2-0.07
		c0,0.54,0.07,0.82,0.07,1.09c0,0.2-0.07,0.34-0.27,0.61c0.14,0.07,0.2,0.2,0.2,0.27c0,0.14-0.2,0.34-0.2,0.54
		c0,0,0.2,0.34,0.2,0.54c0,0.95-1.15,1.5-1.15,2.51h-0.2c-0.34,0-0.48,0.14-0.54,0.34c0,0.75,2.92,2.24,3.87,2.31
		c0.07,0.34,0.27,0.54,0.34,0.82h0.2c0.82,0,0.61,0.61,0.95,0.61c0.07,0,0.2-0.07,0.27-0.07c0.14,0,0.14,0.61,1.09,0.61
		c0,0.75,1.63,1.9,1.77,1.97c0.27,0.27,1.7,1.29,1.7,1.76v0.2c0,0.07,0,0.07,0.07,0.07h0.27c0.2,0,0.14,0.47,0.2,0.61
		c2.17,2.24,1.77,3.4,2.51,3.67c0.14,0.54,0.41,2.04,0.41,1.9c0,0.07-0.07,0.27-0.07,0.41c0,0.41,0.48,0.14,0.48,0.75v0.54
		c0,0.68,0.2,0.75,0.2,1.22c0,0.07-0.14,0.34-0.2,0.34c0,0,0.14,0.2,0.14,0.34c0,0.61-0.2,0.54-0.2,1.22c0,0.48,0.14,0.41,0.14,0.54
		c0,0.14-0.2,0.2-0.27,0.61c-0.2,0.82-0.07,1.77-0.41,2.65c0,0.2,0.27,0.27,0.61,0.27c1.36,0,1.56-0.75,4.08-0.75
		c0.14,0,0.27,0.07,0.34,0.27c0.27-0.2,0.88-0.48,1.9-0.48c0.07,0,0.14,0.14,0.61,0.14c0.41-0.07,0.88-0.34,1.29-0.41
		c2.24-0.27,3.94-0.34,4.01-0.34c0.82,0,1.63,0.14,2.45,0.14h0.34c0.07,0,0.14,0.07,0.2,0.07c0.34,0,0.95-0.41,1.02-0.41
		c0.2,0,0.34,0.2,0.68,0.2c0.27-0.07,0.34-0.2,0.54-0.2c0.2,0,0.34,0.27,0.75,0.27c0.27,0,0.48-0.2,0.54-0.2
		c0.88,0,2.65,1.36,2.38,1.23c0,0.27-0.2,0.54-0.2,0.88c0,0.2,0.2,0.34,0.2,0.61c0,0.41-1.7,0.34-2.31,0.48
		c-0.48,0.48-0.75,0.34-1.9,0.34C333.44,250.91,332.02,250.98,332.08,250.98z M313.34,249.22c0.2-0.41,0.2-0.82,0.41-0.95
		c0-0.07-0.07-0.2-0.07-0.27c0-0.61,0.41-1.16,0.41-1.77c0-0.34-0.07-0.54-0.07-0.68c0-0.07,0.07-0.14,0.07-0.27V245
		c0.07-0.2,0.14-0.34,0.14-0.41c0-0.07-0.2-0.48-0.2-0.82c0-0.27,0.07-0.48,0.07-0.68c0-0.95-0.14-1.49-0.2-1.76v-0.27
		c0-0.48-1.02-1.42-1.02-1.97c0-0.07,0.07-0.2,0.07-0.27c-0.48-0.27-0.82-0.61-0.82-0.68c0-0.07,0.07-0.2,0.07-0.27
		c-0.34-1.09-1.22-1.43-1.22-1.77c0-0.14,0.07-0.27,0.07-0.41v-0.14c-0.68-0.07-1.83-1.56-1.77-1.56c-1.49-1.02-1.56-1.77-2.85-1.9
		c-0.34-0.75-1.16-1.36-1.29-1.36h-0.34c-0.2,0-0.2-0.34-0.27-0.34c-0.61-0.34-1.09-0.41-1.09-0.41h-0.27c0-0.07,0.07-0.2-0.07-0.2
		h-0.27c-0.41,0-0.07-0.48-0.95-0.48h-0.61h-0.2c-0.27,0.88-1.02,1.09-1.36,1.43c-0.54,1.49-0.68,3.06-2.51,4.08
		c0,1.42-0.82,2.51-0.82,2.99c0,0.07,0.07,0.2,0.07,0.27c-1.09,1.09-1.29,1.9-1.16,1.7c0,0.81-1.15,1.29-1.15,1.76
		c0,0.2-0.14,0.07-0.2,0.2c-0.48,1.02-0.14,2.51-1.56,3.26c0.07,0.14,0.07,0.2,0.07,0.34c0,0.27-0.75,1.97-0.82,1.97
		c0,0.54,0.14,1.63-0.2,1.7c-0.2-0.07-0.2-0.41-0.48-0.41c-0.61,0,0,1.36-0.88,1.36h-0.2c0.07,0.2,0.07,0.34,0.07,0.48
		c0,1.63-0.82,2.24-1.22,2.24h-0.14c0,0.68-0.48,1.02-0.48,1.7c0,0.14,0,0.27,0.07,0.41H288c-0.68,0-1.02,2.51-1.02,3.67
		c-1.09,0.75-1.83,1.77-1.9,3.47c-0.14,0.61-0.61,0-0.61,1.56c1.43-0.14,4.08-2.58,4.42-3.26c0.07,0.07,0.14,0.07,0.2,0.07
		c0.14,0,1.56-1.09,1.63-1.09h0.2c0.27,0,0.82-0.75,1.09-0.75c0,0,0,0.27,0.07,0.27c0.48,0,1.83-1.56,1.63-1.43
		c0.2-0.14,0.88-0.54,1.7-0.54h0.61c0.2-0.88,2.17-1.15,1.76-1.15c1.22-0.82,2.65-0.68,3.81-1.56c0.61-0.41,1.15-0.27,1.56-0.61
		c0.34-0.14,0.14-0.54,0.54-0.54c1.43-0.2,3.53-1.36,4.28-1.36c0.68-0.2,1.49-0.14,1.7-0.41c0.07,0,0.2,0.07,0.27,0.07
		c0.27,0,0.14-0.27,0.34-0.41c0,0,1.15-0.41,1.02-0.41h0.34c0,0-0.07-0.07-0.07-0.14l0.07-0.07c0,0,0.14,0.07,0.2,0.07
		c0.61,0,1.29-0.48,1.29-0.81C313.13,249.22,313.27,249.35,313.34,249.22z M306.2,254.85c0,0.41-2.99,1.15-3.47,1.49
		c-0.75,0.54-1.56,0.95-2.38,0.95h-0.27c-0.34,0.75-1.7,1.15-1.97,1.15c-1.36,0-2.72,1.23-2.51,1.16c-0.14,0.14-0.41,0.07-0.54,0.2
		c-0.61,0.48-1.77,1.56-2.72,1.56c-0.41,1.42-2.78,2.04-2.78,2.51c0,0.27,0.27,0.27,0.27,0.75c-0.27,0-0.54,0-0.75,0.2v0.14
		c0,0.27-1.15,1.56-0.95,1.36c0,0-0.07,0.07-0.14,0.07c-0.07,0-0.2-0.07-0.27-0.07c-0.07,0.07-0.41,0.61-0.41,0.68
		c0,0,0.07,0.07,0.07,0.14h-0.27c-0.54,0-0.88,1.02-0.88,1.23c0,0.34,0.34,0.54,0.34,1.02v0.2c0.2,0,0.34,0.07,0.54,0.07
		c0.34,0,0.68-0.07,1.02-0.07c0.14,0,0.14,0.2,0.27,0.2c0.07,0,0.14-0.2,0.14-0.2c0.27,0.07,0.48,0.07,0.61,0.07
		c2.58,0,2.72-0.48,2.85-0.61s1.02-0.41,1.02-0.41h0.2c0.75,0,4.89-3.26,5.57-3.26h0.14c0.07-0.68,2.85-2.72,3.46-2.72h0.14
		c0.47-0.88,1.83-2.1,2.72-2.44c0-0.07-0.07-0.14-0.07-0.2c0-0.34,0.27-0.41,0.27-0.81c0.2,0.07,0.34,0.2,0.61,0.2
		c0.48,0,0.95-1.49,1.9-1.49c0.07-0.34,0.48-1.36,0.81-1.36h0.27c0.07,0,0.07,0,0.07-0.07v-0.27c0-0.2,0.48-0.07,0.54-0.27
		c0.14-0.95,0.88-1.23,0.95-2.11c-0.54,0.14-1.16,0-1.5,0.2C308.58,254.38,306.2,254.38,306.2,254.85z M299.68,269.25
		c-0.07,0.07-0.07,0.07-0.07,0H299.68z M311.64,232.1c0.07,0.07,0.07,0.07,0,0.07V232.1z"/>
	<path d="M373.62,261.44c0-0.27,0-0.48-0.2-0.54c0.14-0.48,0.54-0.82,0.61-1.22c0-0.07-0.14,0.14-0.27-0.14
		c-0.68,0.54-1.02,2.45-2.24,2.31c0,0.34-0.27,0.47-0.27,0.75v0.27c0,0.14-0.41-0.07-0.48,0.07c-0.14,0.07-0.07,0.41-0.27,0.54
		c-0.07,0-0.54,0.48-0.54,0.61c0,0.07,0.07,0.2,0.07,0.27c0,0.07,0,0.07-0.07,0.07h-0.2c-0.47,0-1.29,0.82-1.29,1.09
		c0,0.07,0,0.14,0.07,0.34c-0.61,0.68-1.36,0.61-1.42,1.56c0,0-0.54,0.48-0.41,0.54c-0.54,0.34-1.7,1.43-1.56,1.22
		c-0.14,0.2-0.41,0.48-0.54,0.82c0,0.41-2.58,1.36-2.58,1.16c0,0.2,0.2,0.34,0.2,0.47c0,0-0.07,0-0.2-0.07c-0.14,0-0.14,0-0.14,0.07
		c0,0.07-0.2,0.14-0.2,0.2c-0.07,0.14-1.15,0.48-1.22,0.41c-0.48-0.14-0.61-0.27-0.88-0.34c-0.68,0.2-1.56,0.48-2.31,0.54
		c-0.88-0.48-2.04-1.15-1.97-2.17c-0.82-0.07,0.68-2.65,0.07-2.99c0-1.29,0.41-1.22,0.54-2.24c0-0.68,0.41-0.75,0.41-1.63
		c0.41-0.14,1.29-1.56,0.61-2.1c0-0.34,0.41-1.09,0.48-2.38c-0.07,0-0.07-0.07-0.07-0.07c0.07-0.27,0.41-0.14,0.48-0.34
		c0-0.07-0.07-0.2-0.07-0.41c0-0.27,0.68-0.48,0.68-1.02c0-0.27,0.14-0.61,0.2-1.02c0.2,0,0.27-0.07,0.27-0.34
		c0-0.07-0.07-0.2-0.07-0.27c0.07-0.61,0.41-0.34,0.41-0.61c0-0.14,0.34-1.09,0.54-1.56c-0.82,0.14-1.36,0.48-2.04,0.61
		c-0.41,0.14-0.88,0.07-1.22,0.2c-0.41,0.07-0.68,0.27-1.09,0.41c-0.27,0.07-0.61,0-0.95,0.07l-1.29,0.27l-0.34-0.14
		c-0.27,0.14-1.29,0-1.49,0.27c-0.07-0.07-0.34,0.27-0.41,0.2c0.07-0.07-0.34-0.14-0.41-0.14c-0.2-0.07-0.2,0.2-0.54,0.07h-0.07
		c0.14,0.75,0.2,1.63-0.34,2.1c0.14,1.16-0.88,0.82-0.68,1.77h-0.14c-0.2,0-0.27,0.75-0.61,0.75c-0.34,0-0.61,0.61-0.61,0.2
		c-0.34,0.41-1.43,1.36-1.09,1.36c-0.34,0.34-1.08-0.2-1.08,1.16c-0.41,0.07-1.7,2.1-1.7,1.76c-0.2,0.2-0.54,0.07-0.54,0.41
		c-1.16,0.47-2.38,2.04-2.38,2.78c0,0.07,0.14,0,0.14,0.14c0,0.41-0.75,0.75-1.09,0.75c0,0-0.14,0-0.2-0.07
		c-0.61,0.34,0.2,1.16-1.29,1.16c-0.34,0.07-0.61,0.95-0.68,0.95c-1.09,0-1.63,0.95-2.58,0.95c-0.61,0-1.02-0.14-1.63-0.2
		c-0.68,0-0.88,0.48-1.29,0.54c-0.54,0-0.95-0.54-1.09-0.54c-1.22-0.61-1.16-0.07-2.58-1.49v-0.27c0-0.14,0-0.2-0.07-0.2h-0.14
		v-0.41h-0.14v-0.48c0,0-0.14,0.07-0.2,0.07c-0.07,0-0.07-0.07-0.07-0.14v-0.27c0-0.14-0.14-0.2-0.14-0.2c0-0.14,0.14-0.2,0.14-0.41
		c-0.88-0.88-0.07-1.83-0.88-2.51c0.2-0.54,0.14-1.5,0.61-1.84c-0.2-0.41-0.41-0.75-0.41-1.02c0,0,0.2-0.14,0.2-0.27
		c0-0.27-0.07-0.27-0.2-0.34c0.14-0.14,1.09-2.17,1.09-2.17c0-0.2-0.14-0.34-0.14-0.48c0-0.34,1.63-2.17,1.63-2.24v-0.47
		c0-0.48,0.41-0.54,0.88-2.24c0-0.48,0.41-0.61,0.41-1.09c0-0.27-1.02-1.56-0.2-1.56c0-0.07-0.14-1.22,0.2-1.43
		c0.07-0.07,0.14-0.07,0.2-0.07v-0.14l-0.07-0.07c0.07-0.07,0.14-0.07,0.41-0.07c0.27-0.34,0-2.31,0.48-2.58c0,0,0.2-0.07,0.27-0.14
		c0.14-0.07,0.41-0.68,0.68-0.68c0.41,0,0.41,0.07,0.68,0.07c0.07,0,0.34-0.34,0.34-0.34c0.14,0,0.41,0.27,0.68,0.27
		c0.48,0,0.68-0.41,1.09-0.54c0-0.14,0-0.2,0.07-0.34c0-0.41,0.14-0.48,0.34-0.68c0.27,0,0.14-0.34,0.41-0.54
		c0.75-0.34,1.02-0.14,1.22,0.2c0.2,0,0.68,0.14,0.82,0.2c0.2,0.2,0.27,0.34,0.54,0.2c0.27,0.68,0.82,0.82,0.82,1.43
		c1.16,0.75,1.09,1.15,2.04,2.31c-0.07,0.27,0.27,0.27,0.48,0.41h0.14c1.02,0,1.49,1.63,2.51,1.63c0.2,0,0.27,0,0.48-0.07
		c0.14,0.27,0.61,0.88,0.88,0.88c1.36,0,1.29-0.88,1.97,0.07c0,0.34,0.75,0.34,0.41,0.54c-0.07,0.07,0,0.2,0.14,0.34
		c0.41,0.07,0.95,0.27,0.88,0.2c0.34,0.2,0.34,0.07,0.75,0.2h0.14c0.27,0,0.27-0.27,0.27-0.14c0.07,0,0.2,0,0.34,0.07l0.27-0.14
		c0.2-0.14,1.49-0.34,1.7-0.41c0.27-0.07,1.02,0.14,0.88,0.14c0.14,0,0.2-0.2,0.27-0.27c0.14,0,0.41,0.2,0.61,0.07
		c0.07,0,0.27-0.07,0.41-0.14c0.2,0,0.2,0.07,0.2,0.07s0.07-0.07,0.27-0.14c0.27,0,0.41,0.07,0.68-0.07c0.14,0,0.2-0.07,0.27-0.07
		c0.07,0,0.27,0.07,0.41,0.07c0.27-0.07,0.54-0.27,0.61-0.34c0.2-0.07,0.27,0.14,0.48,0.07c0.34,0,0.34-0.14,0.95-0.75
		c0,0.07,0,0.07,0.14,0.07c0.14,0,0.82-0.34,1.16-0.34c0.07,0,0,0.14,0.2,0.14v-0.2c0-0.14,0.07-0.2,0.07-0.2
		c-0.07,0,0.61-1.22,0.54-1.22c0.14,0-0.14-0.41-0.07-0.41c0.34-0.14,0.27-0.54,0.41-1.15c1.16-0.14,0,0,0.95-0.41
		c0.48,0.14,0.68,0.41,1.36,0.41c0.07,0,0.14,0,0.27,0.07c0.61,1.09,1.9,1.5,1.76,3.53c0,0.48-0.54,0.61-0.95,1.9
		c0,0.2-1.49,1.77-1.56,1.84c-0.81,0.61-1.49,2.99-1.29,2.85c-0.54,0.41-0.48,1.02-1.02,1.9c0,0.07-0.07,0.82-0.07,0.88
		c0,0.41-0.41,0.75-0.41,1.09v0.34c0,0-0.2,0.41-0.61,0.75c0.14,0.14,0.14,0.34,0.14,0.48c0,0.27-0.07,0.54-0.41,0.68
		c0.14,0.07,0,1.9,0,2.17c0,0.34-0.2,0.82-0.2,1.09c-0.2,0.48-0.41,1.29,0.68,1.29c0.34,0,0.95,0.07,1.02-0.34v-0.2
		c0.48,0.2,0.68-0.14,1.36-0.54c0.2-0.14,0.61-0.2,0.81-0.41c0.61-0.27,0.41,0,1.56-0.82c1.22-1.42,1.84-1.42,2.17-1.83
		c0.54-0.48,1.43-0.88,1.5-1.76v-0.2c0.75,0,2.04-1.56,2.17-2.1c0-0.34,0.95-0.68,1.02-1.09c0-0.07-0.07-0.14-0.07-0.2
		c0.07-0.34,1.02-1.02,1.02-1.36c0-0.07-0.07-0.14-0.07-0.2c1.5-0.61,0.68-1.36,1.43-1.97v-0.34c0.07-1.5,0.88-1.77,2.24-1.56
		c0.27,0,0.68,0.14,1.02,0.2c-0.07,0.07-0.07,0.14-0.07,0.2c0,0.27,0.54,0.27,0.54,0.68v0.07c0,0.48,0.82,0.34,0.75,0.75
		c0,0.34-0.27,0.2-0.34,0.48c0.2,0.14,0.34,0.41,0.27,0.75c-0.07,1.22-0.95,0.54-1.09,1.15c0,0.41,0.48,0.68,0.48,0.82
		c0,0.14-0.2,0.2-0.2,0.27c0,0.14,0.14,0.14,0.14,0.27c0,0.34-0.2,0.54-0.61,0.75c0.07,0.34,0.14,0.54,0.14,0.81
		c-0.07,0.2-0.34,0.14-0.34,0.27c0,0.07,0.14,0.27,0.14,0.48c0,0.07-0.07,0.14-0.14,0.27c0,0.14-0.34,0.2-0.34,0.41
		c0,0.2,0.14,0.88,0.14,1.22v0.61c0,0.2,0,0.48,0.2,0.61c-0.2,0.61-0.48,1.22-0.48,1.76c0,0.2,0.07,0.41,0.27,0.48
		c-0.14,0.2-0.2,0.54-0.2,0.75c0,0.68,0.48,1.22,0.75,1.77c0.82-0.14,1.77,0,2.31-0.34c0.14-0.14,1.63-0.75,1.5-0.75
		c1.49-0.48,0.61-0.27,2.17-1.22c1.09-0.68,2.1-1.36,3.19-2.44c0.07,0,0.14,0.07,0.27,0.07c0.14,0,0.2-0.2,0.27-0.34
		c0.75-0.41,0.75,0.14,1.49-1.02h0.27c0.34,0,0-0.82,0.41-0.82c0.2,0,0.27,0,0.27,0.2c1.22-0.82,2.44-2.24,2.85-2.24
		c0.41-0.27,0.68-0.75,1.02-1.15c0.14-0.2,1.43-0.95,1.36-0.95h0.14c-0.07-0.14-0.07-0.2-0.07-0.27c0-0.27,1.76-1.97,2.58-2.45v-0.2
		c0-0.41,0.61,0.2,0.61-0.14c0,0,0.61,0.2,0.61,0.14c-0.27,0.2-0.27,1.22-0.54,1.36c-0.27,0.2-0.27-0.07-0.41,0.07
		c-0.07,0-0.14,0.14-0.2,0.2c-0.14,0.14,0.14,0.48-0.41,0.82c-0.27,0.27-0.81,0.27-0.68,0.34c0,0.07-0.95,1.49-1.43,2.04
		c-0.61,0.81-1.97,1.63-1.9,1.63c-0.54,0-0.95,0.95-1.15,1.49c-0.27,0.07-1.09,0.54-1.02,0.54c0,0-0.07,0-0.07-0.07
		c-0.61,0.75-0.95,0.75-1.56,1.43v0.14c0,0.34-0.68,0.27-0.68,0.41v0.14c-0.2,0.34-1.16,0.48-1.16,1.09
		c-0.14,0.41-1.02,0.68-1.15,0.81c-1.43,0.68-2.92,2.17-2.72,1.97c-0.14,0.14-0.2,0.2-0.2,0.27c-0.07,0-0.61,0.27-0.95,0.27
		c-0.14,0-0.27,0-0.34-0.07c-0.95,0.82-1.77,1.02-2.38,1.56h-0.2c0,0-0.75,0.54-2.11,0.54c-0.61,0-0.27-0.41-0.68-0.41
		c-0.14,0-0.27,0.07-0.48,0.07c0.07,0-1.16-0.75-1.16-0.75v-0.27c0-0.34-0.82-0.48-0.75-0.54h-0.14v-0.34c0-0.07-0.34-0.07-0.34-0.2
		v-0.27c0-0.14-0.27-0.14-0.27-0.2c-0.14-0.14-0.34-1.22-0.34-1.02l-0.07-0.07c0-0.07,0.07-0.07,0.07-0.14
		c-0.07,0-0.41-1.16-0.54-1.77c0-0.34,0.2-0.48,0.2-0.82c0-0.41-0.27-0.68-0.27-1.08c0-0.34,0.34-0.75,0.34-1.09v-0.75
		C373.28,262.05,373.55,262.05,373.62,261.44z M345.22,254.11c-0.41-0.2-0.81-0.54-1.36-0.48c0,0-2.44-0.95-2.44-1.02
		c0-0.54-0.82-0.61-0.95-0.68c-0.2,0.07-0.41-0.14-0.68-0.14c-0.07,0-0.27-0.07-0.48-0.2c-0.14,0-0.27-0.07-0.34-0.07
		c-0.2,0.14-0.48,0.14-0.75,0.14c-0.34-0.34-0.68-0.48-1.02-0.48c-0.41,0-1.43,2.44-1.49,2.44c-0.07,0.07-0.34,0.27-0.27,0.34
		c-0.61,0.2-0.27,0.61-0.88,0.88c0,0.54-0.27,0.81-0.27,1.02c0,0-1.5,3.67-2.72,4.75c0,0.41,0.07,0.68,0.2,0.95
		c-0.54,0.14-0.95,1.43-0.95,1.29c0,0.48,0.07,0.61,0.07,0.95c0,0.61-0.27,0.41-0.27,1.02c0-0.14,0.54,4.21,1.56,4.21
		c0.61,0,0.95-0.54,1.02-0.54c0.2,0,0.14,0.07,0.34,0.07c1.02,0,0.68-0.61,1.49-0.61c0.14,0,0.34,0.27,0.82,0.27v-0.34
		c0-1.23,1.7-1.23,2.04-1.5c1.63-1.15,1.9-2.78,4.28-3.94c0.27-0.34,0.34-0.68,0.34-1.09v-0.2c1.29-0.68,1.83-2.44,2.78-3.6
		c-0.27-0.2,0.2-0.95,0.2-1.56C345.49,255.26,345.15,254.65,345.22,254.11z"/>
	<path d="M398.31,272.04c-0.07,0-0.14,0.07-0.27,0c-0.07,0-0.82-0.61-1.43-0.61h-0.14c0-0.75-0.41-1.22-0.95-1.7
		c0-1.16-0.27-2.38-0.27-3.47c0-0.68,0.07-1.22,0.41-1.7c0-0.14-0.07-0.2-0.07-0.34c0-0.14,0.07-0.41,0.07-0.54
		c-0.07-0.2-0.14-0.07-0.14-0.2c0-0.07,0.14-0.07,0.14-0.07c0-0.2-0.07-0.88-0.07-1.36c0-0.27,0-0.48,0.14-0.48h0.14
		c0-0.07-0.07-0.2-0.07-0.34c0-0.88,0.34-0.61,0.34-1.22c0-0.27,0.2-1.9,0-2.17c0.2,0,0.34-1.29,0.48-1.29
		c0.27-0.95,0.54-1.84,0.68-2.85c0.34,0,0.48-0.14,0.48-0.34v-0.14c0-0.07,0.2-0.07,0.2-0.27s-0.14-0.27-0.2-0.34
		c0.27-0.07,0.41-1.22,0.61-1.77c0-0.07-0.07-0.14-0.07-0.2c0-0.27,0.41-0.48,0.41-0.75c0-0.2-0.07-0.34-0.07-0.54
		c0-0.27,0.2-0.14,0.2-0.34c0-0.07-0.07-0.2-0.07-0.34c0-0.14,0.07-0.2,0.07-0.2c0.14-0.14,0.2-0.88,0.68-1.36v-0.27
		c0-0.95,0.95-2.78,0.95-2.72c0,0,0.07-0.07,0.07-0.14c0-0.27-0.07-0.48-0.07-0.68c0-0.41,0.14,0.14,0.54-1.49
		c0-0.14,0.14-0.48,0.34-0.68c0.07,0,0.07-0.14,0.14-0.14c0.07-0.27,0.27-1.7,0.34-1.63c0-0.41,0.61-1.02,0.68-1.36
		c0-0.88,0.95-3.4,1.5-3.74c-0.14,0-0.14-0.07-0.14-0.2c0-0.47,0.54-1.76,0.68-1.83v-0.14c0-0.88,1.16-1.77,1.16-1.83
		c0-0.14-0.2-0.07-0.2-0.2c0-0.41,0.82-1.36,0.82-1.29c0-0.75,0.41-1.16,0.41-1.77h0.07c0.34,0,0.2-0.54,0.41-0.54
		c0.14,0,0.34,0.07,0.48,0.07c0.2,0,0.34-0.2,0.34-0.2c0.07,0,0.14,0.14,0.48,0.14c0,0,0.27-0.14,0.34-0.14c0.47,0,0.88,0,1.02,0.54
		h0.27c0.2,0,0.48,0.07,0.54,0.14v0.2c0,0.54,0.41,0.95,0.41,1.49c0,0.48-0.07,1.63-0.75,2.17h-0.34v0.27c0,0.54-1.02-0.41-1.02,1.5
		c-0.82,0,0,1.56-1.43,1.83c-0.14,0.95-0.27,3.06-0.75,3.06h-0.07v0.34h-0.2l-0.07,0.07c0,0.07,0.07,0.2,0.07,0.2
		s-0.54,1.09-0.54,1.5v0.27c0,0.27-0.07,0.41-0.27,0.41c-0.27,0-0.34-0.07-0.34-0.34v-0.14c-1.09,0-0.82-0.07-1.22,1.02
		c0,0.14-0.27,0.2-0.27,0.27c-0.2,0.48-0.2,2.17-0.88,2.58v0.82c0,0.68-0.34,0.75-0.34,1.49v1.29c0,1.16-1.29-0.07-1.29,2.04v0.14
		c0,0.54-0.82,2.38-0.68,2.24h-0.14c-0.14,0-0.14,0.68-0.34,0.81v0.61c0,0.81-0.2,1.36-0.54,1.9v3.47c-0.41,0-0.75,0-1.02,0.2
		c0.14,0.61,0.34,1.63,0.34,2.31c0,0.34,0,0.82-0.14,1.15v0.27c0,0.07,0,0.07-0.14,0.07h-0.2c-0.07,0-0.07,0.07-0.07,0.14
		c0,0.2,0.07,0.34,0.07,0.41c0,0.34-0.41,0.75-0.54,0.95c0,0.54,0.61,0.88,0.88,1.08l-0.54,1.02c0.41,2.24,0.54,2.65,0.82,2.65
		c0.61,0.2,1.9,0.48,2.51-0.07c0.14-0.14,1.56-0.88,1.43-0.88c1.49-0.48,0.68-0.07,2.31-1.22c0.95-0.75,1.9-1.5,2.92-2.72
		c0.07-0.07,0.14,0,0.27,0.07c0.14,0,0.2-0.2,0.27-0.34c0.75-0.48,0.75,0.07,1.36-1.09h0.27c0.34,0-0.07-0.82,0.34-0.75
		c0.27-0.07,0.34-0.14,0.27,0.14c1.22-0.95,2.58-2.51,2.99-2.58c0.41-0.34,0.41-0.82,0.68-1.29c0.14-0.2,1.36-0.95,1.29-0.95h0.14
		c-0.07-0.14-0.07-0.2-0.07-0.27c0-0.27,1.63-2.17,2.38-2.65c0-0.07,0.07-0.2,0.07-0.2c-0.14-0.41,0.54,0.14,0.61-0.2
		c0,0,0.61,0.2,0.61,0.14c-0.34,0.2-0.27,1.56-0.54,1.7c-0.2,0.27-0.27,0-0.41,0.14c-0.07,0-0.07,0.14-0.14,0.2
		c-0.14,0.14,0.14,0.88-0.27,1.22c-0.34,0.27-0.88,0.27-0.75,0.34c0,0.07-0.82,1.7-1.29,2.24c-0.61,0.82-1.63,1.7-1.56,1.7
		c-0.54,0.07-0.95,0.68-1.09,1.22c-0.27,0-1.02,0.54-0.95,0.54c0,0-0.07,0-0.07-0.07c-0.54,0.82-1.09,0.95-1.7,1.77v0.14
		c0.07,0.34-0.61,0.2-0.54,0.34v0.14c-0.2,0.41-1.16,0.54-1.02,1.15c-0.27,0.41-1.09,0.68-1.23,0.82c-1.36,0.82-2.78,2.44-2.58,2.24
		c-0.14,0.14-0.2,0.2-0.2,0.27c-0.07,0-0.81,0.54-1.15,0.61c-0.14,0-0.27,0-0.34-0.07c-0.88,0.81-1.49,0.68-2.17,1.36h-0.2
		c0,0-0.68,0.2-2.04,0.27c-0.61,0.07-0.68,0-1.09,0C398.44,272.1,398.37,272.04,398.31,272.04z"/>
	<path d="M429.09,250.84c-0.68,0-1.29-0.48-1.42-1.09c-0.07-0.07-0.07-0.14-0.07-0.2c-0.41,0-0.48-0.41-0.88-0.41
		c-0.88,0-0.61,0.54-0.95,0.82c-0.54,0.14-1.7,1.22-1.63,1.83h-0.14c-0.48,0-0.2,0.48-0.68,0.48h-0.14
		c-0.14,0.07,0.07,2.11-0.68,1.83c0.07,1.56-1.9,0.68-1.7,2.17c-0.54,0.41-0.61,0.34-0.61,1.16c0,0.14,0,0.14,0.07,0.27
		c0,1.22-1.83,1.29-1.83,2.17c0,0.07,0.14,0.27,0.14,0.41c0.07,0.2-0.14,0.27-0.14,0.41c-0.41,0.54-0.2,1.9-0.61,2.58
		c-0.14,0.27-0.27,2.17-0.27,2.24c0,0.14,0.14,0.34,0.14,0.54c0.07,0.48-0.07,1.02-0.07,1.43c0.07,0.27,0.34,0.75,0.68,0.75
		c0.2,0,0.27-0.34,0.41-0.48c0.2-0.54,1.22-0.41,1.29-1.42c0.07-0.2,0.41-0.27,0.82-0.48c-0.07,0-0.14-0.07-0.14-0.14
		c-0.14-1.09,1.49-1.63,1.09-1.63l0.34-0.82c-0.07-0.07,0.68-0.88,0.88-0.88c0,0,0-0.2-0.07-0.27c-0.07-0.34,0.54-0.54,0.48-0.82
		v-0.2c0-0.07,0.27,0.07,0.27-0.07c-0.07-0.07-0.07-0.14-0.07-0.2c-0.07-0.14,0.14-0.14,0.2-0.2c0-0.07-0.07-0.2-0.07-0.2
		c0-0.2,0.34-0.2,0.34-0.27c0-0.14-0.07-0.34,0.27-0.34h0.14c-0.14-0.88,0.88-1.16,0.75-1.63c-0.14-0.88,1.43-1.15,1.36-1.83v-0.2
		l-0.07-0.07c0.14-0.07,0.2-0.54,0.27-0.88c0-0.07,0-0.14-0.07-0.27v-0.07c0.14-0.82,0.61-1.9,0.81-1.9h0.34
		c0.2,0,0.27-0.07,0.34-0.07c0.2,0,0.48,0.07,0.82,0.07h0.61c-0.07,0,1.63,0.75,1.76,1.22c0,0.2,0,0.41,0.07,0.48
		c0.07,0.54,0.61,0.68,0.61,0.95c0,0.14,0.07,0.27,0.07,0.41c0,0.34,0.14,0.34,0.2,0.68c0,0.34-0.27,0.54-0.14,1.15
		c0,0.27,0.2,0.75,0.27,1.16c0,0,0.14,0.07,0.14,0.14c0,0.2,0,0.68,0.07,1.29c0.07,0.07,0.07,0.14,0.07,0.14s-0.07,0-0.07,0.07
		c0.14,0.75,0.75,1.23,0.95,2.45c0.14,0.48,0.2,0.88,0.54,1.29c0,0.2,0.07,0.41,0.07,0.61c0.07,0.41,0.34,0.82,0.41,1.29
		c0.07,0.2,0.07,0.27-0.07,0.48c0.27,0.2,0.41,0.54,0.82,0.61c0.27,0.14,0.27,0.48,0.54,0.61c1.02,0.54,1.43,0.68,1.77,0.68
		c0.27,0,0.41-0.14,0.61-0.14c0.41,0,0.54,0.07,0.88,0.07c0.41,0,2.51-0.34,2.58-0.61c0.48,0.2,0.95,0.48,1.29,0.68
		c0,0.41-0.48,0.54-0.88,0.61c0.07,0.14,0.2,0.2,0.2,0.27c0.07,0.82-0.68,0.54-0.95,0.75v0.07c0,0.07-3.06,0.41-3.33,0.48
		c-0.07,0-0.14-0.07-0.2-0.07h-0.48c-0.68,0-3.53-0.48-3.8-1.63c-1.36-0.07-1.56-1.43-2.51-1.97l-0.14-0.27
		c-0.14-1.15-1.22-2.65-1.09-2.51c-0.14-0.48-0.48-1.49-0.54-1.9c0-0.07,0-0.14-0.07-0.54c0-0.27-0.14-0.27-0.14-0.48
		c0,0,0.07-0.07,0.07-0.14c0,0-0.14,0-0.14-0.07c-0.07-0.34-0.07-0.61-0.07-0.88c0-0.2-0.14-0.41-0.34-0.54
		c-0.82,0.2-1.22,1.29-1.7,2.1c-0.68,0.2-1.63,0.75-1.63,1.29c0.14,0.41,0.68,0.27,0.75,0.68c-0.2,0-0.14,0.41-0.14,0.48
		c-0.07,0.07-0.27,0.07-0.27,0.14v0.14c0,0.14-0.27,0.14-0.41,0.2c-0.82,0.75-1.22,1.77-1.97,2.31c0.2,1.09-0.68,0.68-0.48,1.7v0.2
		c-0.75,0.34-1.63,1.77-2.24,1.77c-0.14,0-0.2-0.14-0.48-0.2c-0.34,0-0.88,0.61-0.88,0.54c-0.41,0-1.43,0-1.36,0.27
		c0,0-0.34-0.14-0.47-0.14c-0.27,0-0.34,0.14-0.54,0.14c-0.2-0.07-0.34-0.27-0.54-0.27h-0.27c-1.09,0-1.83-1.63-1.83-1.63
		c0-0.07-0.07-0.14-0.07-0.27c-0.2-0.14-0.54-0.2-0.54-0.41c-0.07-0.41,0.2-0.68,0.14-1.09c-0.07-0.27-0.07-0.48-0.07-0.61
		c-0.07-0.2,0.07-0.27,0.07-0.41c0,0-0.2-0.07-0.2-0.2c-0.07-0.34,0.34-1.49,0.34-1.9v-0.07c-0.07-0.2,0.2-0.27,0.2-0.48v-0.2
		c-0.07-0.34,0.27-0.61,0.14-1.49c0-0.07-0.07-0.27-0.07-0.27c0.81-0.34,0.41-1.43,0.88-1.7c-0.07,0.14,0.41-1.63,0.82-1.7
		c0.07-0.07,0.07-0.14,0.07-0.14c-0.07-0.2-0.34-0.34-0.34-0.34c0-0.54,1.16-1.7,1.02-1.56c0.07-0.27,0.27-0.61,0.27-0.95H417
		c1.09,0,0.07-1.9,1.43-2.04c0,0-0.07-0.07-0.07-0.14c-0.07-0.2,0.34-0.2,0.34-0.61c0,0,0-0.14-0.07-0.2c0.2,0,0.2-0.14,0.48-0.14
		h0.14c0-0.07-0.07-0.14-0.07-0.14c0-0.14,0-0.2-0.07-0.34c0,0,0.2-0.48,0.41-0.48h0.2c0.14,0,0-0.48,0.14-0.68
		c0.95-0.61,0.07,0.2,1.36-1.84c-0.07-0.14,0.75-0.41,1.02-1.09c1.16-0.54,1.56-1.7,2.51-1.7c0.07,0,0.27,0.07,0.34,0.07
		c0-0.2,0.61-0.54,0.88-0.54c0.14,0,0.14,0.14,0.2,0.14c0-0.07,0.68-0.2,1.02-0.2c0.41,0,0.2,0.2,0.34,0.2h0.34
		c1.63,0.34,2.31,1.5,2.24,1.43c0,0.07-0.07,0.07-0.07,0.14c0.07,0.14,0.48,0.61,0.48,0.82c0.07,0.41-0.2,0.68-0.14,1.09
		c0,0.14,0,0.2,0.14,0.27c-0.75,0.2-1.09,1.02-1.15,1.02C429.29,250.84,429.22,250.84,429.09,250.84z M438.19,270.88
		c-0.14,0-0.14-0.07-0.07-0.07L438.19,270.88z"/>
	<path d="M328.15,320.21c-0.2-0.48,0.27-0.41,0.2-0.95c-0.2-0.07-0.14-0.34-0.2-0.68c0,0-0.48-0.88-0.14-1.29h0.2
		c-0.07-0.27-0.34-0.41-0.41-0.61c-0.2-0.88,0.2-1.63,0.41-2.38c0.14-0.54,0.14-1.16,0.27-1.49c0-0.07,0.14,0,0.14-0.2
		c0-0.14,0.34-0.54,0.41-0.88c0.07-0.48-0.2-0.48-0.2-0.68c0,0.07,0.14-0.14,0.2-0.2c0-0.14,0.48-1.09,0.54-1.36
		c-0.34,0-0.61,0-0.61,0.27c0,0.41-0.48,0.07-0.75,0.41c-0.27,0.07-0.07,0.34-0.34,0.54c0,0.2-0.81,0.48-0.61,1.16
		c-1.22,0.14-0.82,1.76-1.97,1.9c-0.07,0.95-0.68,1.43-1.22,1.9c-0.34,0.27-0.48,0.54-0.82,0.54c0.2,0.75-0.41,0.81-0.48,1.36
		c-0.54,0.2-1.02,0.54-1.56,0.82v1.36c-0.2,0.2-0.34,0.75-0.95,0.88c-0.34,0-0.27,0.41-0.34,0.61c-0.14,0.14-0.68,0-0.61,0.41
		c-0.88,0.07-1.49,0.61-2.38,1.02c-0.14,0.07-0.68-0.27-0.68,0.27c-0.61-0.14-1.22-0.41-1.7-0.95c-0.34,0-0.34,0.27-0.75,0.2
		c-0.61-0.54-0.75-1.63-1.29-2.44c-0.27-0.41-0.27-1.16-0.41-1.9c-0.07-0.14-0.14-0.27-0.14-0.48c0-0.41,0.34-0.95,0.41-1.29
		c0-0.27-0.27-0.68-0.2-0.95c0,0.07,0.2-0.14,0.2-0.2c0,0-0.07-0.2,0-0.27c0.07-0.41,0.27-0.88,0.41-1.29
		c0.07-0.14,0.07-0.34,0.07-0.48v0.07c-0.07,0.14-1.09,1.36-1.63,1.29l-0.07,0.27c-0.27,1.09-1.83,1.42-1.83,1.42
		c0,0.07,0,0.2-0.07,0.27c0,0.14-0.61,0.07-0.75,0.54l-0.14,0.27c-0.27-0.07-0.34,0.27-0.68,0.2l-0.07-0.07
		c-0.41,1.29-2.24,1.63-2.92,2.17c-0.68,0.61-2.17,1.9-3.12,1.7c-0.82,0.54-4.42,1.49-4.15,1.49h-0.75
		c-0.14,0.07-0.27,0.34-0.48,0.34c-0.14,0-0.27-0.34-0.68-0.27c-0.07,0-0.2,0.14-0.2,0.2l0.14,0.14c-0.14,0-0.14,0.07-0.27,0.07
		c-0.14,0.07-0.27,0-0.41,0c-0.07,0.07-0.07,0.14-0.07,0.14c-0.2,0.07-0.48-0.27-1.09-0.2c-0.14,0.07-0.75,0.27-0.75,0.54
		c-0.54,0-1.02-0.54-1.97-0.41c-0.2,0-0.34,0-0.54,0.14c-0.41-0.48-1.36-0.88-1.5-0.88c-0.27,0-0.41,0.34-0.47,0.41
		c-0.48,0-0.27-0.82-0.61-0.75h-0.27c-0.07-0.34-2.85-0.68-3.06-2.17v-0.34c-0.68-0.41-1.09-0.88-1.29-1.9
		c0-0.54-0.88-0.27-0.82-1.09c-0.2-0.34-0.14-0.75-0.47-1.7c-0.34-1.16-0.61-0.41-0.95-3.4c-0.14-0.95,0.14-0.82,0.14-0.95
		c0-0.07-0.2-0.07-0.27-0.41c-0.14-1.43,0.41-3.67,0.61-5.1c0.27,0,0.61-2.92,0.61-3.12c0-0.34,0.41-0.81,0.75-1.36
		c0-0.07-0.2-0.2-0.27-0.2c0-0.41,0.41-0.2,0.61-0.54c0.07-0.27,0-0.68,0.07-1.09c0.2-0.2,0.82-0.34,0.75-0.61v-0.34
		c-0.07-0.54,1.77-2.72,1.84-2.92v-0.27c-0.07-0.34,0.95-1.56,1.36-1.56h0.34c0.48-1.56,1.7-3.12,2.99-3.33
		c-0.07-0.14-0.07-0.14-0.07-0.27c-0.14-0.75,1.49-0.88,1.56-1.63c1.56-0.2,1.97-0.95,2.38-2.1c2.58-2.17,2.65-1.16,4.28-1.77
		c0.07,0,0.34,0.07,0.41,0.07c0.14,0,0-0.27,0.14-0.27c0.27-0.07,0.48,0.14,0.48,0.14c0.82-0.2,0.27-0.48,1.36-0.61
		c1.36-0.14,4.21,0.27,3.94,0.27h0.54c0.14,0,0.14,0.14,0.14,0.14c0,0.07,0.07,0.14,0.07,0.14h0.07c0.14-0.07,0.27-0.07,0.41-0.07
		c0.07,0,0.27,0.14,0.61,0.2c0.54-0.27,0.68,0.68,1.84,0.54h0.2c0.68,0.75,0.54,1.83,2.44,1.83c0.61,1.16,1.97,1.83,2.11,3.06
		c0.14,0.61-0.61,0.68-0.61,1.29v0.27c0.34,2.72-0.61,3.33-1.36,5.91c0,0.41-0.61,0.54-0.82,0.61c-0.82,0.07-1.63-0.34-2.17-0.48
		c0-0.34,0.07-0.54,0-0.75c-0.07-0.68-0.34-1.29-0.41-2.1c0-0.2-0.07-0.48,0-0.75v-0.14c-0.07-0.47,0.41-0.34,0.34-0.75
		c0-0.07-0.07-0.34-0.07-0.41c0-0.2,0.48-0.2,0.41-0.34c0-0.34-0.48-0.41-0.48-0.54c0-0.07,0.2-0.41,0.14-0.68
		c-0.07-0.34-0.27-0.41-0.27-0.61c0-0.2,0.14-0.48,0.14-0.75c-0.14-1.29-1.49-2.24-2.44-2.85c-0.54,0.2-0.75,0.61-1.16,0.88
		c-0.41,0-0.68,0-1.15,0.07c-0.75,0.07-1.63-0.14-2.78,0c-0.27,0.07-1.77,1.09-1.7,0.82c-0.14,0-0.14-0.07-0.14-0.07
		c-0.07-0.14,0.07-0.2,0.07-0.41c-0.07-0.34-1.09,0.61-1.15,0.2c-0.75,0.61-0.82,2.79-1.56,2.79c-0.2,0.07-0.61,0-0.88,0h-0.2v0.2
		c0,0-1.36,0.61-1.56,0.82c-0.27,0.2-1.9,2.44-2.78,2.51c-0.82,0.68-0.34,2.1-1.77,2.24v0.34c0.14,0.68-0.34,2.58-1.43,2.65
		c-0.07,1.63-1.9,2.85-1.76,3.47v0.82c0.14,1.02-0.41,0.81-0.34,1.76c0,0.41,0.14,0.61,0.14,1.09c0.2,1.43-0.88,1.36-1.09,2.31
		c0.34,0.88,0.88,1.97,0.88,2.58c0.07,0.41-0.34,0.81-0.34,1.09c0.07,0.34,0.48,0.2,0.48,0.27c0.07,0.41-0.2,0.48-0.2,0.48
		c0.48,2.17,2.1,4.82,2.17,4.62v0.2c0.07,0.27,1.02,0.14,1.36,0.34c0.41,0.27,0.68,1.02,1.09,0.95c0.14,0,0.41-0.07,0.54-0.07
		c0.27,0.07,0.75,0.82,2.92,0.61c0.27-0.07,0.61-0.07,1.15-0.14c0.2,0,0.48-0.07,0.68-0.07c0.27,0,0.27-0.2,0.27-0.27
		c0.2,0,0.48,0.2,0.61,0.14c0.54-0.2,1.09-0.61,1.63-0.61h0.54c1.09,0.27,2.65-1.09,4.14-1.83c0.14-0.07,0.41,0.07,0.61,0
		c0.07-0.07,1.36-0.82,1.43-1.02c0.2-0.34,0.82-0.27,1.02-0.48c0-0.07,0.88-1.15,0.88-0.95v-0.2c0.34,0,2.92-1.09,3.4-2.78
		c0,0.07,0.07,0.07,0.14,0.07c0.95,0.27,1.16-2.31,2.85-2.65c0-0.14,0-0.27,0.07-0.47c0.14-0.61,1.7-0.88,1.9-1.56
		c0-0.07,0.14-0.07,0.34-0.07v-0.07c0.07-0.34,0.41-0.47,0.41-0.68c0,0,0.14-0.48,0.2-0.54l0.34-0.2c0.14-0.2,0.07-0.48,0.2-0.75
		c0.07-0.14,0.54-0.07,0.61-0.2c0.07-0.14,0.07-0.41,0.14-0.48c0.27-0.27,0.54-0.54,0.95-0.68c-0.14-0.54,0.2-0.54,0.14-1.15
		c0.61,0.07,0.41-0.61,1.15-0.61c0.14-0.14,0.14-0.61,0.27-0.88c0.54,0,0.75-0.27,0.88-0.61c2.04-0.2,3.12-0.54,4.82,0
		c0.2-0.07,1.56,0.54,1.76,0.27c0.14,0.2,1.16,0.2,1.5,0.41c-0.07,0.41,0.68-0.2,0.75,0.2c0.07,0.2,0.27,0.48,0.54,0.54
		c0,0,0.27-0.07,0.34,0c0.14,0.07,0.14,0.48,0.27,0.54c0.68,0,0.75,0,1.02-0.27c0,0,0.48-0.14,0.48-0.2c0,0-0.07-0.2,0-0.27
		c0.2-0.34,0.54-0.81,0.75-1.22c0.14-0.07,0.2,0.14,0.2-0.2v-0.2c0.14-0.41,0-0.27,0.27-0.95c0.61,0.07,0.95-0.27,1.43-0.34
		c0.27,0,0.27,0.14,0.54,0.2c0.34,0.07,0.75,0,0.95,0.14c0.14,0.2,0.34,0.48,0.68,0.75c0.14,0.07,0.34-0.07,0.41,0
		c0.07,0.2,0.27,0.61,0.68,0.82c-0.14,1.02-0.75,1.7-0.88,2.58c-0.2,0.14-0.41,0.27-0.61,0.27c-0.07,0.88-1.02,1.36-0.54,2.1
		c-0.41,0.2-0.48,0.61-1.16,0.41c-0.07,0.27,0,0.48-0.2,0.75c-0.07,0.07-0.34,0.2-0.34,0.27c-0.07,0.41,0,0.88,0,1.22
		c-0.07,0.2-0.54,0.54,0,0.61c-0.48,0.41-0.75,0.88-0.61,1.77c-0.48,0.27-0.61,0.88-0.88,1.15c0.07,0.54-0.2,1.16-0.27,1.56
		c-0.07,0.41-0.34,0.54-0.34,0.82c-0.07,0.34,0.14,0.61,0.2,1.02c0,0.14-0.07,0.34,0,0.54c0.07,0.27-0.07,0.88,0,1.49
		c0,0.2-0.07,1.09,0.07,1.16c0.07,0.54,0.41,0.34,0.54,0.95c0.07,0.2,0.41,0.2,0.61,0.34c0.68,0,1.56-0.41,1.97-0.68
		c1.7-0.61,3.6-2.04,3.6-1.9c0.95-1.22,1.63-0.68,1.9-1.7c0-0.07,0.07-0.14,0.07-0.14c0.75-0.14,0.81-0.48,1.7-1.09h0.2
		c0.2,0.07,0.34-0.41,0.41-0.41c0.68-0.47,1.7-0.81,2.04-1.56c0.27-0.07,0.41-0.2,0.61-0.14h0.14c0.2-0.14,0.41-0.75,0.68-0.61
		c0.14,0,0.07-0.07,0.14-0.2c0-0.07,0.07-0.07,0.07,0v0.14c0.07-0.07,0.07-0.2,0.07-0.27v-0.14c0,0,0.07,0.07,0.14,0.07
		c0.07,0,0.48-0.61,0.61-0.75c0.07-0.07,0.41-0.27,0.54-0.48v-0.14c1.09-0.27,1.7-1.16,2.31-1.63c0.07,0,0.68-0.75,0.75-0.82
		c0.27-0.27,1.02-1.08,1.09-1.29v-0.34h0.07c0.27,0.14,0.75-0.95,1.02-0.68h0.14v-0.2c0.14,0,0.34,0.07,0.54,0.2
		c0.68,0.14,1.09,0.41,0.68,1.63c-1.22,0.95,0.27,1.02-0.88,1.09c-0.2,0.27-0.2,0.48-0.34,0.68c-0.14,0.2-0.95,0.47-1.36,0.88
		c-0.27,0.2-0.95,0.54-0.75,0.75c0.27,0.14-0.34,0.27-0.88,0.75c-0.07-0.07-0.14,0.34-0.27,0.27c-0.07-0.07-0.27-0.14-0.34-0.14v0.2
		c-0.34,0.27-0.82,0.82-1.56,1.36c-0.07,0.07-0.07,0.14-0.07,0.2c-0.07,0.2-0.75,0.27-0.88,0.82v0.07c-0.48,0-1.22,0.48-1.22,0.75
		l-0.14,0.07c0,0.14-0.2,0-0.2,0c-0.2-0.07-0.27,0.54-0.48,0.68c-0.27,0.2-0.75,0.07-1.02,0.54c0.07,0.2,0,0.27-0.07,0.2
		c0,0-0.07,0.07-0.14-0.07c-0.07,0.34-0.34,0.2-0.41,0.41v0.2c-0.61,0-0.75,0.54-1.16,0.75c-0.61,0.54-2.24,1.97-2.31,1.76
		c-0.14,0.27-0.61,0.34-0.75,0.82c0-0.07-0.2,0-0.2,0c-0.41-0.14-0.07,0.48-0.48,0.27l-0.07-0.14v0.14c0,0.14-0.2,0.27-0.2,0.34
		c-0.14,0.41-2.38,1.29-2.78,1.29c0,0.07-0.07,0.14-0.07,0.14c-0.2,0.41-0.27,0.41-0.41,0.81c0-0.07-0.07-0.14-0.07-0.14
		c-0.41-0.07-1.09,0.61-1.22,0.82c-0.07,0.07-0.2,0-0.27,0.14c0.07,0.14-0.07,0.07-0.2,0c-0.07-0.07,0,0.07-0.2-0.07
		c-0.41,0-1.56,0.48-2.11,0.34c-0.34-0.14-0.54-0.2-0.88-0.41c-0.14-0.41-0.61-0.34-0.82-0.41
		C329.44,321.23,328.62,320.89,328.15,320.21z M313.14,312.46h0.07H313.14z M327.4,304.31c-0.14-0.07-0.07-0.61-0.07-0.68
		c-0.34-0.07-0.68,0.07-0.95,0c0,0-0.07-0.2-0.14-0.27h-0.2c-0.14,0-0.07-0.2-0.14-0.2c-0.68-0.14-1.36-0.14-1.83-0.2
		c-0.54-0.07-0.54,0.34-0.88,0.41c-0.41,0.27-0.75,0.27-1.16,0.27c-0.41,0.88-1.43,1.09-1.49,2.1c-0.27,0.27-0.75,0.2-0.68,0.95
		c-0.34,0-0.27,0.41-0.41,0.68c-0.54,0.2-0.54,0.81-0.75,1.09c-0.41,0.54-0.68,0.75-0.88,1.36c-0.07,0.27,0.07,0.61-0.07,1.09
		c-0.68,0.41-0.34,1.43-0.75,1.83c-0.48,0.82-0.41,2.38-0.61,3.4c-0.41,0.14-0.2,0.54-0.2,0.88h-0.61c0.07,0.2,0,0.34-0.07,0.41
		c0.07,0.2,0.14,0.14,0.14,0.2c0.27,0.82,0.27,1.9,1.22,1.9c0.61-0.34,0.88-1.09,1.63-1.22c-0.2-0.82,0.41-0.88,0.61-1.02
		c0.2-0.2,0-0.54,0.2-0.48c0.48-0.2,0.75-0.34,1.36-0.41c-0.41-0.41,0.27-0.61,0.41-0.88c0.07,0,0-0.14,0-0.14
		c0.07-0.27,0.14-0.14,0.14-0.2c0.07-0.14,0.07-0.54,0.34-0.75c0.48-0.61,1.22-0.88,1.7-1.43c0.07-0.07,0-0.34,0-0.48
		c0-0.07,0.34-0.14,0.41-0.2c0.14-0.2,0.07-0.54,0.2-0.82c0-0.07,0.14-0.14,0.2-0.27c0.2-0.2,0.68-0.41,0.75-0.54v-0.68
		c0.27-0.34,1.02-0.68,1.09-0.88c0.14-0.2,0.14-0.48,0.2-0.68c0.14-0.14,0.48-0.14,0.54-0.2c0.2-0.07,0.2-0.41,0.61-0.27
		c0.07-0.68,0.41-1.16,0.68-1.63c0.54-0.41,0.82-0.68,1.02-1.49c-0.41,0-0.61-0.41-1.02-0.54
		C327.88,304.18,327.54,304.31,327.4,304.31z"/>
	<path d="M355.15,311.65c0.07-0.41-0.2-0.34,0.14-0.48c0.34-0.14,1.36-1.36,1.63-1.43c0.14-0.41-0.27-0.68,0.54-0.68
		c0.2-0.41,1.09-0.95,1.83-1.02c0.07-0.48,0.82-1.22,1.43-1.29c0.61-0.68,1.56-1.02,2.04-1.9c0.75-0.14,1.02-0.75,1.56-0.95
		c0.07-0.27,0.2-0.27,0.41-0.34c0.27-0.2,0.68-0.48,0.88-0.88c0.2,0,0.2-0.14,0.27-0.14c0.41-0.27,0.68-0.54,1.02-0.75l0.88-0.41
		l1.22-0.82c0.07,0,0.27,0.07,0.27,0c0.2-0.07,0.41-0.27,0.61-0.48c0.27,0,0.48,0.14,0.81,0.07c0.2-0.07,0.2-0.34,0.27-0.41
		c0.2-0.07,0.48,0.07,0.61,0c0.41-0.14,0.75,0.81,1.02,0.47c0.34-0.14,0.41,0.41,0.68,0.61c0,0,0.27-0.07,0.34,0v0.07h0.27
		c0.07,0,0,0.14,0,0.14c0.41,0.41,0.61,1.02,1.22,1.09c-0.34,0.27,0.07,0.54,0.27,0.88c0.07,0.27,0.07,0.68,0.2,0.95
		c0.14,0.41-0.2,0.54-0.2,0.82c-0.2,0.61,0.07,1.22-0.27,1.63c-0.14,0.14-0.61,0.34-0.68,0.75c-1.02-0.07-1.09-0.07-1.97,0
		c0-0.27-0.54-0.14-0.75-0.27c-0.07,0,0-0.14,0-0.14c-0.14-0.2-0.41-0.47-0.61-0.54c0-0.88-0.41-1.36-0.75-1.7
		c-0.75-0.07-0.88-0.54-1.09-0.07c-0.68-0.07-0.88,0.34-1.16,0.75c-0.75-0.07-1.09,0.34-1.29,0.68h-0.95c-0.41,0.14,0.2,0.41,0,0.75
		c-0.48,0-0.95,0.61-1.36,0.34c-0.14,0,0,0.48-0.2,0.54c-0.54,0.14-0.95,0.68-1.36,1.02c-0.27,0.2-0.48,0.34-0.81,0.27
		c-0.2,0.61-0.82,0-0.82,0.61c-0.48,0.14-0.68,0.48-1.02,0.68c0.07,0.54-1.22,0.75-1.09,1.36c-0.48,0.07-1.29,1.02-1.63,1.36
		c-0.14,0.27-1.02,0.88-1.16,1.02c0,0.07-0.2,0.07-0.2,0.14c-0.41,0.34-0.75,0.95-0.88,1.09l-0.68,0.75
		c-0.27,0.27-0.41,0.54-0.68,0.88c-0.07,0-0.07,0.2-0.34,0.27c-0.07,0.34-0.14,0.54-0.27,0.68v0.07c0,0.07-0.2,0.61-0.2,0.68
		c-0.54,0.54-0.41,0.81-0.41,1.49c-0.27,0.14-0.27,0.54-0.61,0.61c0,1.02-0.48,1.49-0.61,2.31c-0.27,0.27-0.2-0.07-0.68,0
		c0.07,0.27-0.34,0.2-0.54,0.27c0,0.14-0.07,0.2-0.34,0.14c0.07,0-0.07-0.2-0.2-0.14c0,0.14-0.14,0.41-0.41,0.47
		c-0.54-0.41-1.16-0.75-1.5-1.42c-0.07-0.07-0.14,0.07-0.14-0.2c0-0.2,0-0.41-0.14-0.41l0.27-0.88c0-0.07,0.27-0.2,0.34-0.27
		c0,0-0.07-0.2,0-0.27c0.14-0.2,0-0.48,0.14-0.68c0.27-0.2,0.2-0.82,0.75-1.29c0-0.48,0-0.75,0.07-1.09l0.41-0.88
		c0-0.07,0.14,0,0.14-0.2v-0.41c0-0.07,0.27-0.07,0.27-0.14c0.07-0.2-0.07-0.34,0-0.41c0-0.07,0.2-0.07,0.2-0.2
		c0-0.34,0-0.48,0.07-0.68c0.07-0.2,0.27-0.41,0.41-0.68c0-0.27,0-0.48,0.2-0.82c0.07-0.14,0.07-0.41,0.14-0.48
		c0.07-0.07,0.48-0.34,0.48-0.54c0.07-0.41,0.48-0.95,0.68-1.29c-0.2-0.54,0.2-0.88-0.14-1.5c0.34,0,0.14-0.61,0.41-0.61
		c0-0.81,0.34-1.43,0.48-2.17c0.07-0.34,0-0.81,0.2-1.15c0-0.07-0.07-0.27,0-0.34c0.2-0.07-0.14-0.07,0-0.41l0.27-0.82v-0.27
		c0-0.27,0.27-0.34,0.27-0.48c0.14-0.34,0-0.75,0.2-1.16c-0.2-0.61-0.14-0.75,0.2-1.09c0-0.41,0.2-0.54-0.34-0.88l-0.14-0.41
		c0,0-0.2-0.48-0.2-0.54c0.27-0.07-0.07-0.14,0.2-0.2c0.41-0.2,0.14-0.41,0.75-0.54c0.07,0,0.2,0.07,0.27,0v-0.14
		c0.54-0.14,0.75-0.2,1.43,0c0.14,0,0.41,0.07,0.61,0.14c0.07,0.07,0.07,0.27,0.14,0.34c0.07,0,0.27-0.07,0.27,0
		c0.07,0.07,0.07,0.27,0.34,0.27c0.48,0.07,0.27,0.48,0.88,0.54c0.07,0.14,0,0.34,0,0.48c0.07,0.14,0.2,0.27,0.14,0.75
		c0,0-0.2,0.07-0.14,0.07c0.2,0.2,0,0.14,0,0.48c0,0,0.14,0,0.14,0.2c0,0-0.14,0.14-0.14,0.41c0,0.2-0.07,0.41-0.14,0.54
		c0,0.14-0.2,0.41-0.48,0.54c0,0.68,0,0.82-0.14,1.22c0,0.07,0.07,0.34,0,0.34c-0.34,0.14,0,0,0,0.54l-0.14,0.07v0.54
		c0.14,0.27-0.27,0.2-0.41,0.27c0.07,0.81-0.68,1.97-1.16,2.85c0,0.14-0.81,2.17-0.61,2.17
		C355.02,310.36,354.06,312.94,355.15,311.65z"/>
	<path d="M376.7,316.07c0-0.34,0.07-1.29,0.07-1.63l0.34-2.31c0.07-0.75,0.34-1.16,0.54-1.9v-0.82c0-0.07,0.61-1.15,1.42-2.99
		c0-0.07-0.07-0.2-0.07-0.27c0-0.07,0.07-0.07,0.14-0.07h0.14c0-0.07-0.07-0.2,0-0.27c0-0.2,0.14-0.14,0.27-0.14
		c0-0.07-0.07-0.2-0.07-0.27c0-0.14,0.48-0.41,0.68-1.09c1.56-3.33,1.97-2.72,4.14-4.75c0.34-0.27,0.75-0.68,0.88-0.68
		c0.2,0,0.48-0.54,0.88-0.54c0.07-0.27,0.41-0.34,0.75-0.34h0.61c0.27,0,0.81,0,0.81-0.27c0.07,0,0.61,0.34,0.95,0.34
		c0.14,0,0.41-0.14,0.68-0.14c0.41,0,1.29,1.09,1.29,0.95h0.14c0.41,0,0.75,0.34,0.81,0.41c0.14,0,0.2-0.14,0.2-0.2
		c0.07,0,2.31,1.7,2.24,2.92c0,0.48-0.2,0.68-0.41,0.68c-0.07,0-0.14,0.88-0.27,0.82v0.2c0,0.34-0.2,0.41-0.27,0.75
		c0,0.07,0.07,0.14,0.07,0.2c-1.09,0-1.29,0.61-1.36,0.61c-0.14,0-0.2-0.07-0.27-0.07c-1.16,0.81-1.63,1.83-2.24,1.83
		c-0.07,0-0.14-0.07-0.2-0.07c-0.07,0.34-0.2,0.54-0.54,0.54h-0.14c-0.48,0.54-0.75,1.22-1.29,1.76c-0.41,0.34-1.29,0.2-1.36,0.88
		c0,0.07-0.07,0.2-0.07,0.27c-1.02,0-3.06,2.1-3.12,2.17v0.34h-0.14c0.07,0-0.61,0.2-0.68,0.41v0.27c0,0.27-0.75,0.2-0.82,0.82v0.2
		c-0.54,0.14-1.49-0.34-1.56,0c0,0.41,0.2,0.81,0.2,1.15c-0.07,0.07-0.27,0.34-0.27,0.54c0,0.41,0.54,0.2,0.48,0.75
		c0,0.27-0.07,0.48-0.27,0.68l0.61,0.81c-0.07,0.14,0.07,0.41,0.07,0.48c-0.07,0.27,0.34,0.27,0.34,0.61v0.2
		c0.41,0.82,1.83,1.09,3.06,1.09c2.78,0,2.72-1.63,4.55-1.9c0.41-0.14,0.54-0.54,0.82-0.95h0.14c1.09,0,0.95-1.15,2.04-1.15
		c0-0.07,0-0.07,0.07-0.14c0-0.34,0.41-0.27,0.41-0.61c-0.07-0.14,0.68-0.75,0.68-0.82c0.27-0.75,1.22-1.36,1.09-1.29
		c-0.07-0.07-0.07-0.14-0.07-0.2c0.07-0.27,0.68-1.84,1.56-1.9c0.81,0.07,0.61,1.15,0.2,2.31c0,0.2-0.27,0.61-0.07,0.61
		c-0.68,0.75-1.77,3.47-2.85,3.74c-1.56,1.29-2.17,1.63-2.24,2.24c0,0.07-1.02,0.61-1.02,0.68c-1.49,0.34-2.72,1.56-2.78,1.56
		c-0.61,0-1.49,0.54-2.1,0.54c-0.2,0-0.41-0.07-0.54-0.34c-0.14,0.14-0.34,0.34-0.41,0.54c-0.27-0.14-1.16-0.34-1.02-0.34
		c-0.14,0-0.2,0.14-0.34,0.14c-0.07,0-0.07-0.14-0.2-0.14h-0.14c-1.56-0.88-1.56,0.14-2.99-1.49c-0.2-0.27-0.61-0.27-0.61-0.54
		c0.07-0.14,0.14-0.27,0.14-0.41c0-0.14-0.75-0.41-0.75-1.02c-0.41-0.27-0.2-1.16-0.82-1.36c-0.14-0.2,0.14-1.23-0.14-1.23
		C376.77,317.49,376.63,316.07,376.7,316.07z M386.75,301.26c-0.07,0-0.2-0.07-0.34-0.07c-0.75,0.68-1.43,1.9-2.38,2.92v0.41
		c-0.14,1.9-1.77,0.75-1.84,1.97c-0.07,0.34,0.07,0.54,0.07,0.95c-0.07,0.34-0.34,0.34-0.34,0.61c0,0.07,0.07,0.2,0.07,0.27
		c-0.41,0.14-1.43,1.77-1.43,1.97c0,0.07-0.07,0.68,0.2,0.68c1.22,0,2.72-2.78,4.41-3.06c0.2-0.41,0.41-0.75,0.54-1.29
		c0.14,0,0.2,0.07,0.27,0.07c1.29,0,1.02-1.49,2.44-1.49c0.07-0.07,0.07-0.07,0.07-0.2c0.14-1.83,2.04-0.88,2.17-2.65
		c0-0.48-0.07-1.77-0.82-1.77c-1.09,0-2.24,0.27-2.58,0.48C386.89,301.05,386.96,301.26,386.75,301.26z"/>
</g>
</svg>
