<svg xmlns="http://www.w3.org/2000/svg" id="Layer_1" x="0" y="0" version="1.1" viewBox="0 0 504 504" xml:space="preserve">
  <path d="M257.87 268.94c0 38.59-24.07 52.91-55.88 52.91s-57.57-14.19-57.57-52.78 25.77-86.97 57.57-86.97 55.88 48.25 55.88 86.84z" class="st0"/>
  <path d="M255.21 269.65c-.03 12.72-2.78 26.05-11.33 35.88-3.51 4.04-7.71 7.12-12.4 9.45-4.65 2.31-9.95 3.78-15.24 4.61-11.76 1.84-24.8 1.36-36.37-2.27-10.74-3.37-20.34-9.98-26.01-19.88-6.83-11.92-7.71-26.41-6.16-39.79 1.69-14.52 6.25-28.83 13.18-41.69 6.06-11.25 14.47-22.49 25.88-28.73 2.41-1.32 4.78-2.29 7.17-2.93 2.39-.64 4.72-.95 7.51-.9 5.31.09 10.83 1.92 15.5 4.65 11.34 6.62 19.52 17.9 25.39 29.41 6.61 12.98 10.83 27.33 12.33 41.82.36 3.45.55 6.91.55 10.37 0 1.28 5.31.39 5.3-1.42-.03-15.06-3.39-30.18-9.14-44.07-5.32-12.84-12.98-25.58-24.01-34.31-4.77-3.78-10.25-6.73-16.2-8.12-6.13-1.43-12.57-1.16-18.6.61-13.05 3.82-23.36 13.61-30.95 24.57-8.61 12.45-14.47 26.88-17.57 41.67-2.96 14.12-3.78 29.72 1.33 43.45 4.23 11.37 12.72 20.14 23.73 25.14 11.69 5.32 25.18 6.58 37.88 5.79 12.52-.77 25.43-3.93 35.53-11.69 10.05-7.73 15.53-19.36 17.26-31.74.52-3.75.73-7.53.74-11.31.01-1.26-5.29-.39-5.3 1.43z"/>
  <ellipse cx="201.14" cy="277.41" class="st0" rx="35.67" ry="34.23"/>
  <path d="M234.15 277.73c-.07 13.64-8.7 26.08-21.61 30.61-6.14 2.15-13.32 2.27-19.82.44-6.52-1.83-12.43-5.68-16.8-10.84-8.93-10.54-10.3-26-3.04-37.81 7.19-11.69 20.87-17.44 34.18-14.7 13.44 2.77 24.4 13.64 26.66 27.27.27 1.66.43 3.35.43 5.03.01 1.19 1.36 1.33 2.31 1.22.78-.09 3.01-.71 3-1.85-.04-7.49-2.37-14.66-6.86-20.67-4.47-5.99-10.82-10.35-17.87-12.75-14.91-5.07-32.67-.58-43.1 11.3-4.9 5.58-8.09 12.58-8.71 20.02-.62 7.44 1.22 14.81 5.18 21.13 8.47 13.48 25.13 19.28 40.42 16.26 14.87-2.94 27.85-14.43 30.46-29.69.32-1.85.46-3.71.47-5.59.01-1.19-1.37-1.32-2.31-1.22-.78.08-2.98.7-2.99 1.84z"/>
  <g>
    <path d="M44.48 288.11c.13 0 .17-.17.35-.17h.09c.04.48 1.43.83 1.3.74.22.13 1.13.96 1.13.96.17 0 .17-.17.39-.17.04 0 .96 1.3 1.22 1.61-.09.09-.09.09-.09.13 0 .26.22.48.22.69 0 .13-.13.04-.13.17.04.43.17 1 .26 1.48 0 .09-.04.17-.04.35 0 .61.96.91.96 1 .52.22.48 1 1 1.17 0 .83.35 1.3.35 2.08 0 .35-.09 1.22-.22 1.65 0 .09-.13 0-.13.22-.04.65-.65 2.17-.65 2.26 0 .09 0 .17.04.35-.26.04-.56 1-.56.87-.04.3-.48.35-.48.78 0 .09-.43 1.13-.82 1.17 0 .09.04.09.04.17 0 .74-.91 1.26-.91 1.26v.17c0 .13-.39.17-.39.52v.17c-.22 0-.17.22-.43.22h-.09c0 .91-1.13 1.48-1.43 2-.35.48-1.52 1.61-2.17 1.65-.22.04-.26.26-.26.48h-.13c-.3 0-.48.57-.78.57-.35.04-.52.52-1.61.74h-.17c-.09 0-.26.3-.3.3-.39.13-1.04.17-1.65.17-.48 0-1-.04-1.61-.04h-.04c-.39 0-1.04-1.26-1.09-1.09v-.09c-.87 0-1-.26-1-.78h-.13c-.26 0-.13-.39-.43-.39h-.13c0-.74-.56-1.48-.56-1.48s-.48-.78-.48-.7c0-.09.09-.3.09-.43 0 .04-.35-1.04-.35-1.82 0-.13.09-.39.09-.52 0-.3-.22-1-.26-.96.04-.13.3-.43.3-.52 0-.09-.09-.17-.09-.3 0-.26.26-.87.26-1.04 0-.26-.17-.43-.17-.65.22 0 .43-1.74.69-1.91v-.26c0-.17 0-.3-.17-.3.26-.3.56-.96.56-1.26v-.22c0-.65.78-1.69.78-1.65v-.17c.3-.39.48-.74.48-1.22 0-.04-.04-.13-.04-.26.35-.04.83-1.3.83-1.26 0-.52.52-.52.52-.91.04-.22.56-.61.78-.78v-.04c0-1.08 1.39-1.26 1.39-2.17v-.09c.56-.22.91-.52 1-1.04.61 0 .56-.56 1.17-.56.04 0 .09 0 .09.09.09-.04.09-.22.09-.3v-.26c.04.04.09.04.13.04.22 0 .61-.7 1.13-.7h.26c.35 0 .39-.13.74-.13.39 0 .91.09 1.09.39 0 .02.13.02.17.02zm-1.26 2.82h-.17c-.13 0-.13.22-.22.22h-.17c-.22 0-.22.26-.39.26h-.09v.09c0 .48-1.13 1.39-1.35 1.48 0 0-.22-.22-.35-.22-.04 0-.09.22-.17.22-.13 0-.3-.13-.48-.13-.26 0-.43 0-.43.3 0 .04.04.17.04.22 0 .22-.22.26-.22.65 0 .26-.22.04-.22.26.04.04.09.13.09.17 0 .13-.04.22-.04.39 0 0 0 .13.09.22-.39.09-.35.48-.39.74h-.17c-.91 0-1.26 2.43-1.39 2.74-.22-.04-.56-.17-.83-.17-.39 0-.48 1-.48 1.56v.3c-.13 0-.13.22-.13.35-.17.3-.65.26-.65.74 0 .09.17.13.17.39 0 .13-.3.04-.3.61 0 .17.04.39.04.61 0 .35-.17.26-.17.52v.35c0 .17-.13.17-.13.39v.35c0 .3-.3.91-.3 1.56 0 1.39.3 2.61.65 3.86.35.13.65.43.83.7.3.74.35.3.52.61.09 0 0 .3.13.35h.91c.17.39.78.3 1.13.48.48-.48 1.43-.48 1.69-.48.04-.43.7-.3.78-.65h.13c.74 0 1.65-1.35 2.48-2.08.09-.09.26-.04.39-.13.04-.04.74-.78.74-.91.04-.26.43-.3.56-.48 0-.04.3-.74.35-.78v-.13c.22-.09 1.69-1.35 1.69-2.48 0 .04.04.04.09.04.65 0 .3-1.69 1.3-2.21 0-.09-.04-.22-.04-.35 0-.39.35-.83.35-1.26v-.43c0-.35.09-.35.13-.69 0-.65-.13-1-.13-1.13v-.3c0-.17-.3-.22-.3-.43v-.3c0-.09 0-.13-.04-.13-.52 0-.96.96-.96.96-.04 0-.96 1.13-1.17 1.26-.04.61-.56.78-.78 1.13-.39-.09-.26-.91-.61-.91-.17 0-.17.26-.22.26-.04 0-.04 0-.09-.09.09-.65.09-1.22.7-1.3 0-.52-.09-.56.22-1.09.26-.39.3-.3.39-.65 0-.22.09-.3.09-.39s-.09-.13-.09-.22c0-.13.17-.39.17-.61v-.35c0-.22 0-.43.13-.61-.3-.09-.3-.17-.3-.17-.09 0-.09 0-.13.04 0-.26-1.04-.43-1.04-1.04.09-.26.52-.26.56-.65.04 0 .13.04.17.04.26 0 .43-.09.43-.35v-.13c0-.35-.39-.17-.39-.48 0-.04.04-.09.04-.13 0-.26-.26-.22-.26-.52v-.13c-.56-.17-1.35-.09-1.87-.26-.09.18-.48.53-.52.53zm-5.21 4.13c.26 0 .43-.22.43-.48 0-.13-.04-.3-.22-.3-.04.22-.39.35-.39.56 0 .04.04.13.09.22h.09zm.17.56c.17 0 .17-.13.17-.22 0-.17 0-.26-.17-.26s-.09.3-.09.43c.05.05.09.05.09.05zM70.75 301.61c-.35-.09-.65-.22-.96-.22-.91 0-.74.87-1.3.87-.04.17-.04.35-.22.48-.04.09-.35 0-.48.39h-.09c-.61 0-.26.39-.39.69-.26.17-.43.26-.39.61-.35.17-.74.39-.65.65v.09c-.04 0-.09-.04-.09-.04-.56 0-.3.65-.3.7-.09.04-.39.04-.35.3 0 .04.04.09.09.13 0 .09-.09.13-.22.13h-.13c.13.52-.26.3-.3.78h-.17c-.13 0-.43.26-.43.26.17.43-.43 1.22-.43 1.35-.17.04-.3.22-.3.3l.04.09c-.13.09-.22.22-.39.26v.13c.04.22-.17.22-.13.43 0 .04.09.09.09.13-.17.09-.35.09-.3.43.09.35-.04.22.09.52 0 .26-.78 1.13-1.26 1.48.04.09.04.17.04.17.13.39-.39 1.35-.7 1.43h-.26c-.26 0-.48-.09-.65-.09-.22 0-.17.17-.26.3-.13-.04-.26-.04-.35-.04-.22 0-.35 0-.56.04-.3-.3-.7-.48-1.13-.61-.22-.48-.78-.87-1.17-1.17l-.09-.22c-.13-.35-.3-.7-.52-1.04-.04-.39 0-.69-.22-1.22-.04-.04-.17-.35-.26-.35-.04-.09.13-.22.09-.39 0-.43-.26-.96-.39-1.52 0-.04-.13-.78.04-.87-.09-.09-.13-.22-.17-.35-.13-.22-.04-.56-.17-.96l-.09-.3s.13 0 .09-.04c0-.09-.09-.13-.17-.13h-.04c0-.3.22-.26.04-.65l-.04-.3c-.17-.35.13-.52.09-.65 0-.04-.22-.26-.26-.39-.09-.13.13-.43.09-.7-.09-.13-.22-.17-.22-.22-.04-.04 0-.04-.04-.17-.04-.26-.17-.48-.22-.65-.52-1.48.48-2 .39-2-.04-.09-.09-.13-.09-.17-.09-.39.17-.65.09-.91l-.09-.13c0-.13.22-.13.13-.22-.09-.04-.22-.13-.3-.26-.04-.26.48-.52.48-.56h.04c.04 0 .04.09.04.09.22 0 .39-.04.61-.04.56 0 .87.39 1 .39.22.13.56.13.83.22.17.13.3.3.61.39v.09c.09.13.17.17.17.26s.04.09-.13.13c.13.22.48.22.52.35 0 0-.09 0-.09.09 0 .04.17 0 .22.09.09.3-.22.39-.04.78-.22.26-.43.09-.61.3l.04.22c.22.52-.17.7 0 1.22-.13.13-.52.17-.39.48 0 .09 0 .09.04.13-.57 0-.26.69-1 .87.17.52.69 1.09.22 1.09l.13.09c-.04.09.09.22.09.3.13.35-.39.17-.3.39-.04.09.09.13.13.22.04.09-.22.09-.17.13.04.09.17.13.22.26-.04.13-.13.17 0 .22 0 .09 0 .17.17.26-.22.04 0 .22-.22.22.13.22.3.26.39.48-.04.26-.22.43-.04.78.04.13.09.3.26.48-.26 0-.22.13-.22.39l.56.96c0 .09-.09.17-.09.26.04 0 .13.04.13.04 0 .13-.09.04-.09.17.13.17.43.48.57.61 0 .22.13.39.17.56.13.35.43 1.35.87 1.35.78 0 .09-.87.74-.87 0-.13.17-.22.13-.43l-.13-.04c.22 0 .13-.22.3-.22h.13c0-.09-.09-.56.04-.56h.13c.17 0 .04-.35.04-.39.26-.04.3-.22.52-.35-.13-.04-.13-.04-.13-.13-.04-.3.3-.61.26-.7l.04-.04c-.09-.09.04.04 0-.09v-.09c.04-.09.3-.52.3-.52.09 0 .13.09.22.09-.04-.13.48-.96.43-.96.3 0 .13-.3.52-.3-.04-.04-.04-.04-.04-.09-.13-.3.17-.61.56-.74v-.1c-.13-.61.83-.61.78-.91l-.13-.26c-.17-.65.78-.69.65-1.04 0-.04-.09-.04-.09-.13.56-.09.96-1.43 1.43-1.48 0-.65.83-.74.61-1.39.17-.17.56-.17.48-.57l-.04-.09c.13 0 .43 0 .48-.13-.09-.35.13-.04.48-.48.09-.09.43-.35.48-.52 0 .04.04.04.09.04.04 0 .13 0 .13-.04.22-.35 1.43-.87 2.04-.43.48.35.57 1.52.78 1.52.69.56 1 .91 1.61 1.52.43 0 .74.74.43.78-.09.04.3.26.17.3-.04.04-.13.04-.17.26-.26 0-1.13.56-1.35 0-.48-.64-1.48-.82-1.7-1.34zM85.39 307.61c0-.17 0-.3-.13-.35.09-.3.35-.52.39-.78 0-.04-.09.09-.17-.09-.43.35-.65 1.56-1.43 1.48 0 .22-.17.3-.17.48v.17c0 .09-.26-.04-.3.04-.09.04-.04.26-.17.35-.04 0-.35.3-.35.39 0 .04.04.13.04.17 0 .04 0 .04-.04.04h-.13c-.3 0-.83.52-.83.69 0 .04 0 .09.04.22-.39.43-.87.39-.91 1 0 0-.35.3-.26.35-.35.22-1.08.91-1 .78-.09.13-.26.3-.35.52 0 .26-1.65.87-1.65.74 0 .13.13.22.13.3 0 0-.04 0-.13-.04-.09 0-.09 0-.09.04s-.13.09-.13.13c-.04.09-.74.3-.78.26-.3-.09-.39-.17-.56-.22-.43.13-1 .3-1.48.35-.56-.3-1.3-.74-1.26-1.39-.52-.04.43-1.69.04-1.91 0-.82.26-.78.35-1.43 0-.43.26-.48.26-1.04.26-.09.83-1 .39-1.35 0-.22.26-.69.3-1.52-.04 0-.04-.04-.04-.04.04-.17.26-.09.3-.22 0-.04-.04-.13-.04-.26 0-.17.43-.3.43-.65 0-.17.09-.39.13-.65.13 0 .17-.04.17-.22 0-.04-.04-.13-.04-.17.04-.39.26-.22.26-.39 0-.13.39-1.09.39-1.17.04-.13.26-.17.26-.35 0-.13-.13-.3-.09-.43.13-.13.35-.3.39-.65 0-.22.13-.26.13-.48 0-.09.04-.13.04-.13-.04 0 .39-.78.35-.78.09 0-.09-.26-.04-.26.22-.09.17-.35.26-.74.74-.09 0 0 .61-.26.3.09.43.26.87.26.04 0 .09 0 .17.04.39.7 1.22.96 1.13 2.26 0 .3-.35.39-.61 1.22 0 .13-.96 1.13-1 1.17-.52.39-.96 1.91-.83 1.82-.35.26-.3.65-.65 1.22 0 .04-.04.52-.04.56 0 .26-.26.48-.26.7v.22s-.13.26-.39.48c.09.09.09.22.09.3 0 .17-.04.35-.26.43.09.04 0 1.22 0 1.39 0 .22-.13.52-.13.7-.13.3-.26.83.43.83.22 0 .61.04.65-.22v-.13c.3.13.43-.09.87-.35.13-.09.39-.13.52-.26.39-.17.26 0 1-.52.78-.91 1.17-.91 1.39-1.17.35-.3.91-.56.96-1.13v-.13c.48 0 1.3-1 1.39-1.35 0-.22.61-.43.65-.7 0-.04-.04-.09-.04-.13.04-.22.65-.65.65-.87 0-.04-.04-.09-.04-.13.96-.39.43-.87.91-1.26v-.22c.04-.96.56-1.13 1.43-1 .17 0 .43.09.65.13-.04.04-.04.09-.04.13 0 .17.35.17.35.43v.04c0 .3.52.22.48.48 0 .22-.17.13-.22.3.13.09.22.26.17.48-.04.78-.61.35-.69.74 0 .26.3.43.3.52s-.13.13-.13.17c0 .09.09.09.09.17 0 .22-.13.35-.39.48.04.22.09.35.09.52-.04.13-.22.09-.22.17 0 .04.09.17.09.3 0 .04-.04.09-.09.17 0 .09-.22.13-.22.26s.09.56.09.78v.39c0 .13 0 .3.13.39-.13.39-.3.78-.3 1.13 0 .13.04.26.17.3-.09.13-.13.35-.13.48 0 .43.3.78.48 1.13.52-.09 1.13 0 1.48-.22.09-.09 1.04-.48.96-.48.96-.3.39-.17 1.39-.78.69-.43 1.35-.87 2.04-1.56.04 0 .09.04.17.04.09 0 .13-.13.17-.22.48-.26.48.09.96-.65h.17c.22 0 0-.52.26-.52.13 0 .17 0 .17.13.78-.52 1.56-1.43 1.82-1.43.26-.17.43-.48.65-.74.09-.13.91-.61.87-.61h.09c-.04-.09-.04-.13-.04-.17 0-.17 1.13-1.26 1.65-1.56v-.13c0-.26.39.13.39-.09 0 0 .39.13.39.09-.17.13-.17.78-.35.87-.17.13-.17-.04-.26.04-.04 0-.09.09-.13.13-.09.09.09.3-.26.52-.17.17-.52.17-.43.22 0 .04-.61.96-.91 1.3-.39.52-1.26 1.04-1.22 1.04-.35 0-.61.61-.74.96-.17.04-.74.35-.61.35-.04 0-.04 0-.09-.04-.39.48-.61.48-1 .91v.09c0 .22-.43.17-.43.26v.09c-.13.22-.74.3-.74.7-.09.26-.65.43-.74.52-.91.43-1.87 1.39-1.74 1.26-.09.09-.13.13-.13.17-.04 0-.39.17-.61.17-.09 0-.17 0-.22-.04-.61.52-1.13.65-1.52 1h-.13s-.48.35-1.35.35c-.39 0-.17-.26-.43-.26-.09 0-.17.04-.3.04.04 0-.74-.48-.74-.48v-.17c0-.22-.52-.3-.48-.35h-.09v-.22c0-.04-.22-.04-.22-.13v-.17c0-.09-.17-.09-.17-.13-.09-.09-.22-.78-.22-.65l-.04-.04c0-.04.04-.04.04-.09-.04 0-.26-.74-.35-1.13 0-.22.13-.3.13-.52 0-.26-.17-.43-.17-.69 0-.22.22-.48.22-.7v-.48c.01-.06.19-.06.23-.45z"/>
    <path d="M121.39 311.91h.09c.3-.13.56-.3.65-.7.04.04.13.04.17.04.65 0 .78-.91 1.17-1.17.52-.13.82-.39 1.13-.7.43.09.43.43.74.61-.96.22-.96 1.35-1.65 1.78-.74.3-.3 1-1.09 1-.39 0-1.13 1.04-1.35 1.04-.3.26-1.04.52-1.48.52-.61 0-1-.26-1.48-.43v-.13c0-.09-.22-.22-.26-.26H118c-.17-.3-.22-.91-.22-1.22 0-.04.09 0 .09-.17 0-.04-.09-.26-.09-.26 0-.13.17-.04.22-.13v-1.09c0-.3.04-.61.13-.65-.04-.26-.13-.61-.13-.96 0-.13 0-.22.04-.35v-.09c0-.04-.04-.04-.04-.17 0-.17.13-.52.3-.61-.09-.09-.13-.43-.13-.65 0-.52.13-.91.17-1.35 0-.04-.04-.09-.04-.17s.09-.13.09-.22c0-.3-.09-.39-.09-.52.04 0 .13-.69.13-1 0-.26-.13-.56-.13-.78 0-.13.04-.26.17-.3-.09-.09-.09-.17-.13-.3l-.04-.52c-.04-.04-.09-.3-.26-.3-.04 0-.35.39-.3.39h-.17c-.52 0-.65.74-.65.83 0 .09.09.17.17.35v.09h-.13c-.52 0-.48.43-.87.52.09.09.13.04.13.17 0 .61-1.04 1.22-1.43 1.56 0 .22.09.26.09.26 0 .04-.39.3-.39.74v.35h-.04c-.22 0-.13.13-.35.13l-.09-.04c0 .09-.04.13-.04.17.04.22.17.22.22.43h-.04c-.09 0-.78.65-.78 1.13 0 .13.09.13.09.22-1 .13-1.17 2.39-1.22 2.56-.09.09-.39.04-.39.17 0 .04.04.17.04.17 0 .04-.13.09-.13.22-.48-.09-.56-.56-1.09-.56-.26 0-.56.22-.69.43-.22-.09-.48-.13-.56-.39-.09 0-.13.04-.13.04-.69 0-.65-.74-.65-.65 0-.09.04-.22.04-.3-.04-.13-.04-.17-.26-.17.13-.22.13-.35.13-.48v-.26c0-.26.17-.26.17-.39 0-.22-.09-.74-.09-.96 0-.83.22-1.52.22-1.74 0-.35-.09-.74-.09-1.04 0-.22.17-.43.17-.56s-.22-.22-.22-.39c0-.13.13-.26.17-.61 0-.09-.09-.13-.09-.17 0-.17.09-.39.09-1 0-.04-.09-.09-.09-.13 0 0 0-.3.13-.43-.04 0-.22-.17-.22-.26v-.1c.04-.04.09-.17.09-.3 0-.35-.17-.87-.17-1.17-.48 0-.74.26-.78.39h-.04c-.3 0-.52.83-1.13 1-.74 1.65-1.35 1.22-1.35 1.74 0 .04.04.17.09.26-.39 0-.3.3-.39.56-.48.26-.91.78-.91 1v.04c0 .13-.17.26-.17.48 0 .04.09.09.09.13-.35 0-.61.09-.61.48v.13c-.39.26-1.13 1.69-1.13 1.95 0 .17.04.3.04.43 0 .17-.3.56-.3.52v.13h-.13l.04.04h-.22c-.39.74-.74 1.26-.7 2-.26.35-.78.61-.78 1.13 0 .13.04.3.09.39-.09.09-.3.13-.39.13 0 .09.04.17.04.22 0 .74-.74.52-.78.78-.17 0-.3-.13-.35-.3v-.09h-.04c-.39 0-.3.26-.74.26 0-.09-1.26-.04-1.26-1.26 0-.26.26-.69.39-.74-.04-.17-.04-.22-.04-.35 0-.26.09-.48.26-.61-.09-.04-.13-.09-.13-.13v-.48c.35 0 .17-.39.48-.43-.09-.04-.09-.09-.09-.13 0-.09.13-.56.22-.56 0-.04-.04-.13-.04-.26 0-.22.22-.22.22-.48 0-.09-.04-.04-.04-.13 0-.13.04-.13.04-.17 0-.09.09-.43.35-.43-.09-.04-.09-.13-.09-.13 0-.17.13-.22.13-.26 0-.04-.04-.04-.09-.04 0-.04.09-.26.09-.3v-.17c.13-.04.09-.22.3-.22h.09v-.13c0-.48.39-.7.39-1.13v-.13c.48-.35.26-1.74.78-1.74-.04 0-.04-.09-.04-.09 0-.13.13-.17.17-.22.22-.87-.13-.83.43-1.04 0-.04-.04-.13-.04-.22 0-.65.43-1.39.65-1.65v-.3c0-.04.13.09.13-.26v-.35c0-.48.22-.17.26-.39 0-.04-.04-.13-.04-.13s.3-.43.43-.48c0-.52.04-.43.39-1.13v-1.48c.17-.17.39-.26.48-.52.17.09.83.17.83.17.13.04.13.13.26.13.13.13 1.48.35 1.48 1.3.04.09.09.13.09.22-.09.35-.74 2.17-.82 2.17-.26 0-.83.52-.91.74v.09c0 .43-.22 1.04-.35 1.04-.65 0-.83.91-.83 1.04.04 0-.13 1-.13 1.09-.04.04-.09.13-.22.22-.61.52-.91.87-.91 1.43v.22c0 .22 0 .35-.13.35s-.39.96-.56.96c-.22 1.69-1.09 1.17-1.17 2.34-.17.04-.22.22-.22.43 0 .09-.04.3.17.3.22 0 .26-.13.26-.22s-.04-.17-.04-.3c.65-.13.39-.56.65-.65.48 0 .78-1.52 1.65-1.78 0-.04-.04-.04-.04-.13 0-.13.09-.17.22-.17-.04-.04-.04-.09-.04-.17 0-.35.43-.43.43-.83v-.09c.22-.22.43-.43.7-.56 0-.09-.04-.22-.04-.26 0-.22.22-.26.22-.52h.04c.13 0 .13-.22.26-.22h.13c.3-.3.7-.65.7-1.17 0-.09 0-.17-.04-.26.17 0 .13-.13.17-.17.04 0 .09.04.17.04 0 0 .09 0 .09-.04s-.04-.09-.04-.09c0-.13.26-.09.3-.17.26-.09.09-.39.26-.52h.04s.35-.48.48-.74c0-.04.61-.87.87-.87.35-.69 1.08-1.43 1.08-1.52v-.17c.09-.09.52-.04.65-.04.26.09.48.13.48.17h.17s-.04.04-.04.09c.04.04.09.04.09.04h.17v.09c0 .04.69.3.78.35.17.48.78.83.78 1.22 0 .13-.13.13-.13.22.13.17.43 1.13.43 1.13 0 .09-.09.04-.09.13 0 .35.09.61.09.74 0 .35-.22.13-.35.39.04.09.04.22.04.26 0 .22-.17.3-.17.43 0 .87.17.61.17 1.69 0 .35-.13.7-.13.96 0 .22.35.78.35.78v.09c0 .3-.3.39-.3.52.04.04.04.22.04.22-.17.26-.61.09-.35.56.43-.09.43-.52.83-.69 0-.04-.04-.09-.04-.17 0-.22.83-.83.83-1.17 0-.04-.04-.09-.04-.17.22 0 .96-.83.96-.96v-.26c.13-.04.09-.26.22-.26h.13c.04 0 .09-.04.09-.13v-.09c0-.04 0-.09.04-.09h.09c.09 0 .22-.17.22-.17 0-.04 0-.13-.04-.17 0-.09.22-.04.26-.09.09-.04.22-.65.26-.65h.09c-.22-.09.65-.83.65-.78 0-.09-.04-.13-.04-.17.52-.13.78-.48.91-.83.04 0 .09.04.09.04.43 0 .7-1.13.96-1.13h.13c.09 0 .09 0 .09-.04v-.26h.26s.17-.26.56-.26c.13 0 .3.09.35.09 0 0 0-.09.09-.09 1 0 1.61 1.13 1.61 1.48v.26c0 .13.26.48.35.78-.09.13-.09.13-.17.13s-.17-.04-.3-.04c0 0-.04 0-.09.04.3.48.56.65.61 1.35-.09-.09-.39 1.04-.09 2.08.04.13-.04.22-.43.74.17.13.17.3.26.39 0 .09 0 .39-.04.39h-.09c-.04 0-.04.04-.04.13 0 .26.04.39.04.39-.43.69-.13 1.65-.13 3.34 0 .22-.13.39-.13.56 0 .39.78.43.87.43.13 0 .26-.09.39-.17.06-.06.14-.23.23-.23zM314.41 303.77h-.3c-.39-.09-.96-.17-2.08-.17-.78 0-1.39.26-2.3.26-.65 0-1.39-.09-1.91-.09.04 0-.7.61-.7.48-.09 0-.17-.04-.22-.04-.22 0-.43.09-.65.09-.17 0-.3 0-.39-.3-.13 0-.26.39-.52.39-.04 0-.09-.13-.17-.13-.17 0 0 .3-.65.3-.74 0-1.22.43-1.22.96v.17c0 .43-1.22 1.65-1.22 1.65-.43.48-1.26 1.3-1.26 1.82-.78.3-1.22 1.35-1.74 1.35h-.09c-.78 1.22-1.22 1-1.48 1.61-.57.26-1.04.56-1.13 1.26h-.17c-.09 0-.3.04-.3.13v.17c0 .04 0 .09-.04.09s-.04-.04-.09-.04c-.43.3-.83.65-1.22.87-.39 0-.91.78-.91.87h-.22v.13h-.17c-.22 0-.22.09-.7.09 0 0-.22.26-.35.26-.04 0-.13-.04-.13-.13-.17.04-.17.13-.17.17v.17c0 .04-1.91 1-2.04 1-.26.04-1.13.83-2.61.83-.48 0-1.13-.22-1.78-.22-.22 0-.43.04-.65.13-.3-.26-.7-.43-1-.74-.09.09-.13.13-.22.13-.13 0-.26-.13-.48-.13H283c-.3-.26-.43-.87-.87-.96v-.09c0-.22-.13-.26-.13-.39v-.35c0-.22-.17-.26-.17-.43 0-.26.3-.26.3-.61-.13-.22-.26-.3-.43-.3-.09 0-.26.04-.43.09v-.09c0-.13-.74-.35-.74-1.17 0-1.74 1.95-1.69 1.95-3.39v-.17c.43-.09.22-.87.78-.87h.09c-.09-.13-.09-.22-.09-.3 0-.65.74-1 .74-1.69v-.17c0-.22.48-1.13.96-1.39-.09-.13-.09-.26-.09-.35 0-.22.26-1.39.96-1.87 0-1.04 1.04-2.26 1.35-2.82.22-.48.48-1.74 1.22-1.95 0-.69.22-1.61.48-1.61.09-.13.39-.61.39-.78v-.22s.04.04.09.04c.04 0 .04-.04.04-.04 0-.04-.04-.13-.04-.17 0-.04.04-.04.04-.04h.13c0-.04-.04-.13-.04-.17 0-.13.39-.26.39-.61v-.17c0-.09.09-.04.13-.04 0-.04-.04-.13-.04-.17 0-.04.04-.09.04-.09s.04.04.09.04c.04 0 .04-.04.04-.04 0-.04-.04-.13-.04-.17 0-.04.04-.04.04-.04h.13c0-.04-.04-.13-.04-.17 0-.13.13 0 .13-.17v-.17c.04 0 .09.04.09.04.04 0 .04-.04.04-.09v-.13c0-.43.26-.43.39-.56.09-.17.04-.43.13-.61 0-.09.22-.04.22-.17v-.13c0-.04 0-.04.04-.04h.09c.87-1.74.87-2.39 1.22-2.48-.09-.13-.43-.35-.65-.35-.09 0-.13.04-.17.09-.26-.13-.43-.3-.65-.48-.22 0-.26.13-.48.13-.09-.3-1.43-.83-1.26-.74-.39-.13-1.65-.26-2.43-.61h-.22c-.09-.04-.13-.09-.22-.09h-.13c-.65 0-.96-.65-1.95-.65h-.17c0-.09 0-.13-.04-.13h-.22c-.09-.09-1.26-.39-1.48-.48v.04s-.04.09-.09.09c-.13 0-.13-.26-.43-.26h-.22c-.17-.3-.65-.26-.74-.61-.22 0-.39.13-.65.13-.3 0-.96-.39-1.65-.39h-.13c-.69-.26-1.87-.61-1.82-.65-.13.04-.22.17-.39.17-.09-.22-.3-.39-.52-.39-.22 0-.22.13-.48.13-.22-.56-1.13-.09-1.87-1-.09-.35-.61-.26-.83-.48v-.13c0-.35-.26-.56-.26-.87 0-.39.35-.56.48-.96 0 .04.04.04.09.04.17 0 .43-.26.61-.26.26 0 .17.3.56.3h.35c.35 0 .91.74 1 .74.04-.04.13-.09.13-.09.13 0 .13.17.35.22.17 0 .26-.13.26-.35v-.13c.17 0 .22.17.22.35v.26c0 .13 1.13.78 1.17.78.09 0 .17-.04.22-.04.26.13.13.17.35.17s.43-.04.65-.04c.56 0 1 .39 1.3.61h.3c.83 0 1.13.48 1.91.48h.26c.09.13.26.13.26.35v.04h.17c.39 0 .48.22.74.22.09 0 .17-.04.3-.09.48.39 1.3.39 2.08.48.3.39 1.87 1.17 2.08 1.17.22 0 .35-.17.52-.17.04 0 .17.13.26.13s.04-.13.17-.13c.3 0 .26.3.52.35 2 0 2.13.74 2.39.74h.22s-.04.04-.04.09c0 .13.56.22.65.22.13 0 .61-.09.61-.35v-.13c0-.13.26-.13.26-.26v-.35c0-.22.26-.09.26-.52 0-.17-.04-.35-.04-.52 0-.22.13-.09.13-.35v-.17c.39-.39.26-.74.87-.74.56 0 1.09.13 1.39.13h.17c.13 0 .17.43.39.43.04 0 .09 0 .13-.04 0 .35.04.52.04.7 0 .13-.04.22-.17.39.09.04.13.13.13.17 0 .09-.13.22-.13.35 0 0 .13.22.13.35 0 .61-.74.96-.74 1.61h-.13c-.22 0-.3.09-.35.22 0 .48 1.87 1.43 2.48 1.48.04.22.17.35.22.52h.13c.52 0 .39.39.61.39.04 0 .13-.04.17-.04.09 0 .09.39.7.39 0 .48 1.04 1.22 1.13 1.26.17.17 1.09.83 1.09 1.13v.07c0 .04 0 .04.04.04h.17c.13 0 .09.3.13.39 1.39 1.43 1.13 2.17 1.61 2.35.09.35.26 1.3.26 1.22 0 .04-.04.17-.04.26 0 .26.3.09.3.48v.35c0 .43.13.48.13.78 0 .04-.09.22-.13.22 0 0 .09.13.09.22 0 .39-.13.35-.13.78 0 .3.09.26.09.35s-.13.13-.17.39c-.13.52-.04 1.13-.26 1.69 0 .13.17.17.39.17.87 0 1-.48 2.61-.48.09 0 .17.04.22.17.17-.13.56-.3 1.22-.3.04 0 .09.09.39.09.26-.04.56-.22.83-.26 1.43-.17 2.52-.22 2.56-.22.52 0 1.04.09 1.56.09h.22c.04 0 .09.04.13.04.22 0 .61-.26.65-.26.13 0 .22.13.43.13.17-.04.22-.13.35-.13.13 0 .22.17.48.17.17 0 .3-.13.35-.13.56 0 1.69.87 1.52.78 0 .17-.13.35-.13.56 0 .13.13.22.13.39 0 .26-1.09.22-1.48.3-.3.3-.48.22-1.22.22-.46-.13-1.38-.08-1.33-.08zm-11.99-1.13c.13-.26.13-.52.26-.61 0-.04-.04-.13-.04-.17 0-.39.26-.74.26-1.13 0-.22-.04-.35-.04-.43 0-.04.04-.09.04-.17v-.17c.04-.13.09-.22.09-.26 0-.04-.13-.3-.13-.52 0-.17.04-.3.04-.43 0-.61-.09-.96-.13-1.13v-.17c0-.3-.65-.91-.65-1.26 0-.04.04-.13.04-.17-.3-.17-.52-.39-.52-.43 0-.04.04-.13.04-.17-.22-.7-.78-.91-.78-1.13 0-.09.04-.17.04-.26v-.09c-.43-.04-1.17-1-1.13-1-.96-.65-1-1.13-1.82-1.22-.22-.48-.74-.87-.83-.87h-.22c-.13 0-.13-.22-.17-.22-.39-.22-.7-.26-.7-.26h-.17c0-.04.04-.13-.04-.13h-.17c-.26 0-.04-.3-.61-.3h-.52c-.17.57-.65.7-.87.91-.35.96-.43 1.95-1.61 2.61 0 .91-.52 1.61-.52 1.91 0 .04.04.13.04.17-.7.69-.83 1.22-.74 1.09 0 .52-.74.83-.74 1.13 0 .13-.09.04-.13.13-.3.65-.09 1.61-1 2.08.04.09.04.13.04.22 0 .17-.48 1.26-.52 1.26 0 .35.09 1.04-.13 1.08-.13-.04-.13-.26-.3-.26-.39 0 0 .87-.56.87h-.13c.04.13.04.22.04.3 0 1.04-.52 1.43-.78 1.43h-.09c0 .43-.3.65-.3 1.08 0 .09 0 .17.04.26h-.09c-.43 0-.65 1.61-.65 2.35-.7.48-1.17 1.13-1.22 2.21-.09.39-.39 0-.39 1 .91-.09 2.61-1.65 2.82-2.08.04.04.09.04.13.04.09 0 1-.69 1.04-.69h.13c.17 0 .52-.48.69-.48 0 0 0 .17.04.17.3 0 1.17-1 1.04-.91.13-.09.56-.35 1.09-.35h.39c.13-.56 1.39-.74 1.13-.74.78-.52 1.69-.43 2.43-1 .39-.26.74-.17 1-.39.22-.09.09-.35.35-.35.91-.13 2.26-.87 2.74-.87.43-.13.96-.09 1.09-.26.04 0 .13.04.17.04.17 0 .09-.17.22-.26 0 0 .74-.26.65-.26h.22s-.04-.04-.04-.09l.04-.04s.09.04.13.04c.39 0 .83-.3.83-.52.01-.13.1-.04.14-.13zm-4.56 3.6c0 .26-1.91.74-2.21.96-.48.35-1 .61-1.52.61h-.17c-.22.48-1.09.74-1.26.74-.87 0-1.74.78-1.61.74-.09.09-.26.04-.35.13-.39.3-1.13 1-1.74 1-.26.91-1.78 1.3-1.78 1.61 0 .17.17.17.17.48-.17 0-.35 0-.48.13v.09c0 .17-.74 1-.61.87 0 0-.04.04-.09.04-.04 0-.13-.04-.17-.04-.04.04-.26.39-.26.43 0 0 .04.04.04.09h-.17c-.35 0-.57.65-.57.78 0 .22.22.35.22.65v.13c.13 0 .22.04.35.04.22 0 .43-.04.65-.04.09 0 .09.13.17.13.04 0 .09-.13.09-.13.17.04.3.04.39.04 1.65 0 1.74-.3 1.82-.39s.65-.26.65-.26h.13c.48 0 3.13-2.08 3.56-2.08h.09c.04-.43 1.82-1.74 2.21-1.74h.09c.3-.56 1.17-1.35 1.74-1.56 0-.04-.04-.09-.04-.13 0-.22.17-.26.17-.52.13.04.22.13.39.13.3 0 .61-.96 1.22-.96.04-.22.3-.87.52-.87h.17c.04 0 .04 0 .04-.04v-.17c0-.13.3-.04.35-.17.09-.61.56-.78.61-1.35-.35.09-.74 0-.96.13-.33.2-1.85.2-1.85.5zm-4.17 9.21c-.04.04-.04.04-.04 0h.04zm7.65-23.75c.04.04.04.04 0 .04v-.04z"/>
    <path d="M340.95 310.46c0-.17 0-.3-.13-.35.09-.3.35-.52.39-.78 0-.04-.09.09-.17-.09-.43.35-.65 1.56-1.43 1.48 0 .22-.17.3-.17.48v.17c0 .09-.26-.04-.3.04-.09.04-.04.26-.17.35-.04 0-.35.3-.35.39 0 .04.04.13.04.17 0 .04 0 .04-.04.04h-.13c-.3 0-.83.52-.83.69 0 .04 0 .09.04.22-.39.43-.87.39-.91 1 0 0-.35.3-.26.35-.35.22-1.09.91-1 .78-.09.13-.26.3-.35.52 0 .26-1.65.87-1.65.74 0 .13.13.22.13.3 0 0-.04 0-.13-.04-.09 0-.09 0-.09.04s-.13.09-.13.13c-.04.09-.74.3-.78.26-.3-.09-.39-.17-.56-.22-.43.13-1 .3-1.48.35-.56-.3-1.3-.74-1.26-1.39-.52-.04.43-1.69.04-1.91 0-.82.26-.78.35-1.43 0-.43.26-.48.26-1.04.26-.09.83-1 .39-1.35 0-.22.26-.69.3-1.52-.04 0-.04-.04-.04-.04.04-.17.26-.09.3-.22 0-.04-.04-.13-.04-.26 0-.17.43-.3.43-.65 0-.17.09-.39.13-.65.13 0 .17-.04.17-.22 0-.04-.04-.13-.04-.17.04-.39.26-.22.26-.39 0-.09.22-.7.35-1-.52.09-.87.3-1.3.39-.26.09-.56.04-.78.13-.26.04-.43.17-.7.26-.17.04-.39 0-.61.04l-.83.17-.22-.09c-.17.09-.83 0-.96.17-.04-.04-.22.17-.26.13.04-.04-.22-.09-.26-.09-.13-.04-.13.13-.35.04h-.04c.09.48.13 1.04-.22 1.35.09.74-.56.52-.43 1.13h-.09c-.13 0-.17.48-.39.48s-.39.39-.39.13c-.22.26-.91.87-.7.87-.22.22-.69-.13-.69.74-.26.04-1.09 1.35-1.09 1.13-.13.13-.35.04-.35.26-.74.3-1.52 1.3-1.52 1.78 0 .04.09 0 .09.09 0 .26-.48.48-.7.48 0 0-.09 0-.13-.04-.39.22.13.74-.83.74-.22.04-.39.61-.43.61-.69 0-1.04.61-1.65.61-.39 0-.65-.09-1.04-.13-.43 0-.56.3-.83.35-.35 0-.61-.35-.69-.35-.78-.39-.74-.04-1.65-.96v-.17c0-.09 0-.13-.04-.13h-.09v-.26h-.09v-.3s-.09.04-.13.04c-.04 0-.04-.04-.04-.09v-.17c0-.09-.09-.13-.09-.13 0-.09.09-.13.09-.26-.56-.56-.04-1.17-.56-1.61.13-.35.09-.96.39-1.17-.13-.26-.26-.48-.26-.65 0 0 .13-.09.13-.17 0-.17-.04-.17-.13-.22.09-.09.7-1.39.7-1.39 0-.13-.09-.22-.09-.3 0-.22 1.04-1.39 1.04-1.43v-.3c0-.3.26-.35.56-1.43 0-.3.26-.39.26-.7 0-.17-.65-1-.13-1 0-.04-.09-.78.13-.91.04-.04.09-.04.13-.04v-.09l-.04-.04c.04-.04.09-.04.26-.04.17-.22 0-1.48.3-1.65 0 0 .13-.04.17-.09.09-.04.26-.43.43-.43.26 0 .26.04.43.04.04 0 .22-.22.22-.22.09 0 .26.17.43.17.3 0 .43-.26.7-.35 0-.09 0-.13.04-.22 0-.26.09-.3.22-.43.17 0 .09-.22.26-.35.48-.22.65-.09.78.13.13 0 .43.09.52.13.13.13.17.22.35.13.17.43.52.52.52.91.74.48.69.74 1.3 1.48-.04.17.17.17.3.26h.09c.65 0 .96 1.04 1.61 1.04.13 0 .17 0 .3-.04.09.17.39.56.56.56.87 0 .83-.56 1.26.04 0 .22.48.22.26.35-.04.04 0 .13.09.22.26.04.61.17.56.13.22.13.22.04.48.13h.09c.17 0 .17-.17.17-.09.04 0 .13 0 .22.04l.17-.09c.13-.09.96-.22 1.09-.26.17-.04.65.09.56.09.09 0 .13-.13.17-.17.09 0 .26.13.39.04.04 0 .17-.04.26-.09.13 0 .13.04.13.04s.04-.04.17-.09c.17 0 .26.04.43-.04.09 0 .13-.04.17-.04.04 0 .17.04.26.04.17-.04.35-.17.39-.22.13-.04.17.09.3.04.22 0 .22-.09.61-.48 0 .04 0 .04.09.04s.52-.22.74-.22c.04 0 0 .09.13.09v-.13c0-.09.04-.13.04-.13-.04 0 .39-.78.35-.78.09 0-.09-.26-.04-.26.22-.09.17-.35.26-.74.74-.09 0 0 .61-.26.3.09.43.26.87.26.04 0 .09 0 .17.04.39.7 1.22.96 1.13 2.26 0 .3-.35.39-.61 1.22 0 .13-.96 1.13-1 1.17-.52.39-.96 1.91-.83 1.82-.35.26-.3.65-.65 1.22 0 .04-.04.52-.04.56 0 .26-.26.48-.26.7v.22s-.13.26-.39.48c.09.09.09.22.09.3 0 .17-.04.35-.26.43.09.04 0 1.22 0 1.39 0 .22-.13.52-.13.7-.13.3-.26.83.43.83.22 0 .61.04.65-.22v-.13c.3.13.43-.09.87-.35.13-.09.39-.13.52-.26.39-.17.26 0 1-.52.78-.91 1.17-.91 1.39-1.17.35-.3.91-.56.96-1.13v-.13c.48 0 1.3-1 1.39-1.35 0-.22.61-.43.65-.7 0-.04-.04-.09-.04-.13.04-.22.65-.65.65-.87 0-.04-.04-.09-.04-.13.96-.39.43-.87.91-1.26V306c.04-.96.56-1.13 1.43-1 .17 0 .43.09.65.13-.04.04-.04.09-.04.13 0 .17.35.17.35.43v.04c0 .3.52.22.48.48 0 .22-.17.13-.22.3.13.09.22.26.17.48-.04.78-.61.35-.7.74 0 .26.3.43.3.52s-.13.13-.13.17c0 .09.09.09.09.17 0 .22-.13.35-.39.48.04.22.09.35.09.52-.04.13-.22.09-.22.17 0 .04.09.17.09.3 0 .04-.04.09-.09.17 0 .09-.22.13-.22.26s.09.56.09.78v.39c0 .13 0 .3.13.39-.13.39-.3.78-.3 1.13 0 .13.04.26.17.3-.09.13-.13.35-.13.48 0 .43.3.78.48 1.13.52-.09 1.13 0 1.48-.22.09-.09 1.04-.48.96-.48.96-.3.39-.17 1.39-.78.7-.43 1.35-.87 2.04-1.56.04 0 .09.04.17.04s.13-.13.17-.22c.48-.26.48.09.96-.65h.17c.22 0 0-.52.26-.52.13 0 .17 0 .17.13.78-.52 1.56-1.43 1.82-1.43.26-.17.43-.48.65-.74.09-.13.91-.61.87-.61h.09c-.04-.09-.04-.13-.04-.17 0-.17 1.13-1.26 1.65-1.56v-.13c0-.26.39.13.39-.09 0 0 .39.13.39.09-.17.13-.17.78-.35.87-.17.13-.17-.04-.26.04-.04 0-.09.09-.13.13-.09.09.09.3-.26.52-.17.17-.52.17-.43.22 0 .04-.61.96-.91 1.3-.39.52-1.26 1.04-1.22 1.04-.35 0-.61.61-.74.96-.17.04-.69.35-.65.35 0 0-.04 0-.04-.04-.39.48-.61.48-1 .91v.09c0 .22-.43.17-.43.26v.09c-.13.22-.74.3-.74.7-.09.26-.65.43-.74.52-.91.43-1.87 1.39-1.74 1.26-.09.09-.13.13-.13.17-.04 0-.39.17-.61.17-.09 0-.17 0-.22-.04-.61.52-1.13.65-1.52 1h-.13s-.48.35-1.35.35c-.39 0-.17-.26-.43-.26-.09 0-.17.04-.3.04.04 0-.74-.48-.74-.48v-.17c0-.22-.52-.3-.48-.35h-.09v-.22c0-.04-.22-.04-.22-.13v-.17c0-.09-.17-.09-.17-.13-.09-.09-.22-.78-.22-.65l-.04-.04c0-.04.04-.04.04-.09-.04 0-.26-.74-.35-1.13 0-.22.13-.3.13-.52 0-.26-.17-.43-.17-.69 0-.22.22-.48.22-.7v-.48c.06-.04.23-.04.28-.43zm-18.16-4.69c-.26-.13-.52-.35-.87-.3 0 0-1.56-.61-1.56-.65 0-.35-.52-.39-.61-.43-.13.04-.26-.09-.43-.09-.04 0-.17-.04-.3-.13-.09 0-.17-.04-.22-.04-.13.09-.3.09-.48.09-.22-.22-.43-.3-.65-.3-.26 0-.91 1.56-.96 1.56-.04.04-.22.17-.17.22-.39.13-.17.39-.56.56 0 .35-.17.52-.17.65 0 0-.96 2.34-1.74 3.04 0 .26.04.43.13.61-.35.09-.61.91-.61.83 0 .3.04.39.04.61 0 .39-.17.26-.17.65 0-.09.35 2.69 1 2.69.39 0 .61-.35.65-.35.13 0 .09.04.22.04.65 0 .43-.39.96-.39.09 0 .22.17.52.17v-.22c0-.78 1.09-.78 1.3-.96 1.04-.74 1.22-1.78 2.74-2.52.17-.22.22-.43.22-.69v-.13c.83-.43 1.17-1.56 1.78-2.3-.17-.13.13-.61.13-1-.01-.49-.23-.88-.19-1.22z"/>
    <path d="M356.71 317.23c-.04 0-.09.04-.17 0-.04 0-.52-.39-.91-.39h-.09c0-.48-.26-.78-.61-1.09 0-.74-.17-1.52-.17-2.21 0-.43.04-.78.26-1.08 0-.09-.04-.13-.04-.22s.04-.26.04-.35c-.04-.13-.09-.04-.09-.13 0-.04.09-.04.09-.04 0-.13-.04-.56-.04-.87 0-.17 0-.3.09-.3h.09c0-.04-.04-.13-.04-.22 0-.56.22-.39.22-.78 0-.17.13-1.22 0-1.39.13 0 .22-.83.3-.83.17-.61.35-1.17.43-1.82.22 0 .3-.09.3-.22v-.09c0-.04.13-.04.13-.17s-.09-.17-.13-.22c.17-.04.26-.78.39-1.13 0-.04-.04-.09-.04-.13 0-.17.26-.3.26-.48 0-.13-.04-.22-.04-.35 0-.17.13-.09.13-.22 0-.04-.04-.13-.04-.22s.04-.13.04-.13c.09-.09.13-.56.43-.87v-.17c0-.61.61-1.78.61-1.74 0 0 .04-.04.04-.09 0-.17-.04-.3-.04-.43 0-.26.09.09.35-.96 0-.09.09-.3.22-.43.04 0 .04-.09.09-.09.04-.17.17-1.09.22-1.04 0-.26.39-.65.43-.87 0-.56.61-2.17.96-2.39-.09 0-.09-.04-.09-.13 0-.3.35-1.13.43-1.17v-.09c0-.56.74-1.13.74-1.17 0-.09-.13-.04-.13-.13 0-.26.52-.87.52-.83 0-.48.26-.74.26-1.13h.04c.22 0 .13-.35.26-.35.09 0 .22.04.3.04.13 0 .22-.13.22-.13.04 0 .09.09.3.09 0 0 .17-.09.22-.09.3 0 .56 0 .65.35h.17c.13 0 .3.04.35.09v.13c0 .35.26.61.26.96 0 .3-.04 1.04-.48 1.39h-.22v.17c0 .35-.65-.26-.65.96-.52 0 0 1-.91 1.17-.09.61-.17 1.95-.48 1.95h-.04v.22h-.13l-.04.04c0 .04.04.13.04.13s-.35.7-.35.96v.17c0 .17-.04.26-.17.26-.17 0-.22-.04-.22-.22v-.09c-.69 0-.52-.04-.78.65 0 .09-.17.13-.17.17-.13.3-.13 1.39-.56 1.65v.52c0 .43-.22.48-.22.96v.83c0 .74-.83-.04-.83 1.3v.09c0 .35-.52 1.52-.43 1.43h-.09c-.09 0-.09.43-.22.52v.39c0 .52-.13.87-.35 1.22v2.21c-.26 0-.48 0-.65.13.09.39.22 1.04.22 1.48 0 .22 0 .52-.09.74v.17c0 .04 0 .04-.09.04h-.13c-.04 0-.04.04-.04.09 0 .13.04.22.04.26 0 .22-.26.48-.35.61 0 .35.39.56.56.69l-.35.65c.26 1.43.35 1.69.52 1.69.39.13 1.22.3 1.61-.04.09-.09 1-.56.91-.56.96-.3.43-.04 1.48-.78.61-.48 1.22-.96 1.87-1.74.04-.04.09 0 .17.04.09 0 .13-.13.17-.22.48-.3.48.04.87-.69h.17c.22 0-.04-.52.22-.48.17-.04.22-.09.17.09.78-.61 1.65-1.61 1.91-1.65.26-.22.26-.52.43-.83.09-.13.87-.61.83-.61h.09c-.04-.09-.04-.13-.04-.17 0-.17 1.04-1.39 1.52-1.69 0-.04.04-.13.04-.13-.09-.26.35.09.39-.13 0 0 .39.13.39.09-.22.13-.17 1-.35 1.09-.13.17-.17 0-.26.09-.04 0-.04.09-.09.13-.09.09.09.56-.17.78-.22.17-.56.17-.48.22 0 .04-.52 1.09-.83 1.43-.39.52-1.04 1.09-1 1.09-.35.04-.61.43-.7.78-.17 0-.65.35-.61.35 0 0-.04 0-.04-.04-.35.52-.7.61-1.09 1.13v.09c.04.22-.39.13-.35.22v.09c-.13.26-.74.35-.65.74-.17.26-.69.43-.78.52-.87.52-1.78 1.56-1.65 1.43-.09.09-.13.13-.13.17-.04 0-.52.35-.74.39-.09 0-.17 0-.22-.04-.56.52-.96.43-1.39.87h-.13s-.43.13-1.3.17c-.39.04-.43 0-.69 0 .03-.04-.01-.08-.06-.08z"/>
    <path d="M376.39 303.68c-.43 0-.83-.3-.91-.69-.04-.04-.04-.09-.04-.13-.26 0-.3-.26-.56-.26-.56 0-.39.35-.61.52-.35.09-1.09.78-1.04 1.17h-.09c-.3 0-.13.3-.43.3h-.09c-.09.04.04 1.35-.43 1.17.04 1-1.22.43-1.09 1.39-.35.26-.39.22-.39.74 0 .09 0 .09.04.17 0 .78-1.17.83-1.17 1.39 0 .04.09.17.09.26.04.13-.09.17-.09.26-.26.35-.13 1.22-.39 1.65-.09.17-.17 1.39-.17 1.43 0 .09.09.22.09.35.04.3-.04.65-.04.91.04.17.22.48.43.48.13 0 .17-.22.26-.3.13-.35.78-.26.83-.91.04-.13.26-.17.52-.3-.04 0-.09-.04-.09-.09-.09-.7.96-1.04.69-1.04l.22-.52c-.04-.04.43-.56.56-.56 0 0 0-.13-.04-.17-.04-.22.35-.35.3-.52v-.13c0-.04.17.04.17-.04-.04-.04-.04-.09-.04-.13-.04-.09.09-.09.13-.13 0-.04-.04-.13-.04-.13 0-.13.22-.13.22-.17 0-.09-.04-.22.17-.22h.09c-.09-.56.56-.74.48-1.04-.09-.56.91-.74.87-1.17v-.13l-.04-.04c.09-.04.13-.35.17-.56 0-.04 0-.09-.04-.17v-.04c.09-.52.39-1.22.52-1.22h.22c.13 0 .17-.04.22-.04.13 0 .3.04.52.04h.39c-.04 0 1.04.48 1.13.78 0 .13 0 .26.04.3.04.35.39.43.39.61 0 .09.04.17.04.26 0 .22.09.22.13.43 0 .22-.17.35-.09.74 0 .17.13.48.17.74 0 0 .09.04.09.09 0 .13 0 .43.04.83.04.04.04.09.04.09s-.04 0-.04.04c.09.48.48.78.61 1.56.09.3.13.57.35.83 0 .13.04.26.04.39.04.26.22.52.26.82.04.13.04.17-.04.3.17.13.26.35.52.39.17.09.17.3.35.39.65.35.91.43 1.13.43.17 0 .26-.09.39-.09.26 0 .35.04.56.04.26 0 1.61-.22 1.65-.39.3.13.61.3.83.43 0 .26-.3.35-.56.39.04.09.13.13.13.17.04.52-.43.35-.61.48v.04c0 .04-1.95.26-2.13.3-.04 0-.09-.04-.13-.04h-.3c-.43 0-2.26-.3-2.43-1.04-.87-.04-1-.91-1.61-1.26l-.09-.17c-.09-.74-.78-1.69-.69-1.61-.09-.3-.3-.96-.35-1.22 0-.04 0-.09-.04-.35 0-.17-.09-.17-.09-.3 0 0 .04-.04.04-.09 0 0-.09 0-.09-.04-.04-.22-.04-.39-.04-.56 0-.13-.09-.26-.22-.35-.52.13-.78.83-1.08 1.35-.43.13-1.04.48-1.04.83.09.26.43.17.48.43-.13 0-.09.26-.09.3-.04.04-.17.04-.17.09v.09c0 .09-.17.09-.26.13-.52.48-.78 1.13-1.26 1.48.13.69-.43.43-.3 1.08v.13c-.48.22-1.04 1.13-1.43 1.13-.09 0-.13-.09-.3-.13-.22 0-.56.39-.56.35-.26 0-.91 0-.87.17 0 0-.22-.09-.3-.09-.17 0-.22.09-.35.09-.13-.04-.22-.17-.35-.17h-.17c-.69 0-1.17-1.04-1.17-1.04 0-.04-.04-.09-.04-.17-.13-.09-.35-.13-.35-.26-.04-.26.13-.43.09-.69-.04-.17-.04-.3-.04-.39-.04-.13.04-.17.04-.26 0 0-.13-.04-.13-.13-.04-.22.22-.96.22-1.22v-.04c-.04-.13.13-.17.13-.3v-.13c-.04-.22.17-.39.09-.96 0-.04-.04-.17-.04-.17.52-.22.26-.91.56-1.09-.04.09.26-1.04.52-1.09.04-.04.04-.09.04-.09-.04-.13-.22-.22-.22-.22 0-.35.74-1.09.65-1 .04-.17.17-.39.17-.61h.09c.69 0 .04-1.22.91-1.3 0 0-.04-.04-.04-.09-.04-.13.22-.13.22-.39 0 0 0-.09-.04-.13.13 0 .13-.09.3-.09h.09c0-.04-.04-.09-.04-.09 0-.09 0-.13-.04-.22 0 0 .13-.3.26-.3h.13c.09 0 0-.3.09-.43.61-.39.04.13.87-1.17-.04-.09.48-.26.65-.69.74-.35 1-1.09 1.61-1.09.04 0 .17.04.22.04 0-.13.39-.35.57-.35.09 0 .09.09.13.09 0-.04.43-.13.65-.13.26 0 .13.13.22.13h.22c1.04.22 1.48.96 1.43.91 0 .04-.04.04-.04.09.04.09.3.39.3.52.04.26-.13.43-.09.7 0 .09 0 .13.09.17-.48.13-.7.65-.74.65-.11.03-.16.03-.24.03zm5.81 12.81c-.09 0-.09-.04-.04-.04l.04.04zM428.24 314.45c-.13-.3.17-.26.13-.61-.13-.04-.09-.22-.13-.43 0 0-.3-.56-.09-.83h.13c-.04-.17-.22-.26-.26-.39-.13-.56.13-1.04.26-1.52.09-.35.09-.74.17-.96 0-.04.09 0 .09-.13 0-.09.22-.35.26-.56.04-.3-.13-.3-.13-.43 0 .04.09-.09.13-.13 0-.09.3-.7.35-.87-.22 0-.39 0-.39.17 0 .26-.3.04-.48.26-.17.04-.04.22-.22.35 0 .13-.52.3-.39.74-.78.09-.52 1.13-1.26 1.22-.04.61-.43.91-.78 1.22-.22.17-.3.35-.52.35.13.48-.26.52-.3.87-.35.13-.65.35-1 .52v.87c-.13.13-.22.48-.61.56-.22 0-.17.26-.22.39-.09.09-.43 0-.39.26-.56.04-.96.39-1.52.65-.09.04-.43-.17-.43.17-.39-.09-.78-.26-1.09-.61-.22 0-.22.17-.48.13-.39-.35-.48-1.04-.83-1.56-.17-.26-.17-.74-.26-1.22-.04-.09-.09-.17-.09-.3 0-.26.22-.61.26-.83 0-.17-.17-.43-.13-.61 0 .04.13-.09.13-.13 0 0-.04-.13 0-.17.04-.26.17-.56.26-.83.04-.09.04-.22.04-.3v.04c-.04.09-.7.87-1.04.83l-.04.17c-.17.69-1.17.91-1.17.91 0 .04 0 .13-.04.17 0 .09-.39.04-.48.35l-.09.17c-.17-.04-.22.17-.43.13l-.04-.04c-.26.83-1.43 1.04-1.87 1.39-.43.39-1.39 1.22-2 1.09-.52.35-2.82.96-2.65.96h-.48c-.09.04-.17.22-.3.22-.09 0-.17-.22-.43-.17-.04 0-.13.09-.13.13l.09.09c-.09 0-.09.04-.17.04-.09.04-.17 0-.26 0-.04.04-.04.09-.04.09-.13.04-.3-.17-.69-.13-.09.04-.48.17-.48.35-.35 0-.65-.35-1.26-.26-.13 0-.22 0-.35.09-.26-.3-.87-.56-.96-.56-.17 0-.26.22-.3.26-.3 0-.17-.52-.39-.48h-.17c-.04-.22-1.82-.43-1.95-1.39v-.22c-.43-.26-.7-.56-.83-1.22 0-.35-.56-.17-.52-.69-.13-.22-.09-.48-.3-1.09-.22-.74-.39-.26-.61-2.17-.09-.61.09-.52.09-.61 0-.04-.13-.04-.17-.26-.09-.91.26-2.34.39-3.26.17 0 .39-1.87.39-2 0-.22.26-.52.48-.87 0-.04-.13-.13-.17-.13 0-.26.26-.13.39-.35.04-.17 0-.43.04-.7.13-.13.52-.22.48-.39v-.22c-.04-.35 1.13-1.74 1.17-1.87v-.17c-.04-.22.61-1 .87-1h.22c.3-1 1.09-2 1.91-2.13-.04-.09-.04-.09-.04-.17-.09-.48.96-.56 1-1.04 1-.13 1.26-.61 1.52-1.35 1.65-1.39 1.69-.74 2.74-1.13.04 0 .22.04.26.04.09 0 0-.17.09-.17.17-.04.3.09.3.09.52-.13.17-.3.87-.39.87-.09 2.69.17 2.52.17h.35c.09 0 .09.09.09.09 0 .04.04.09.04.09h.04c.09-.04.17-.04.26-.04.04 0 .17.09.39.13.35-.17.43.43 1.17.35h.13c.43.48.35 1.17 1.56 1.17.39.74 1.26 1.17 1.35 1.96.09.39-.39.43-.39.82v.17c.22 1.74-.39 2.13-.87 3.78 0 .26-.39.35-.52.39-.52.04-1.04-.22-1.39-.3 0-.22.04-.35 0-.48-.04-.43-.22-.83-.26-1.35 0-.13-.04-.3 0-.48v-.09c-.04-.3.26-.22.22-.48 0-.04-.04-.22-.04-.26 0-.13.3-.13.26-.22 0-.22-.3-.26-.3-.35 0-.04.13-.26.09-.43-.04-.22-.17-.26-.17-.39s.09-.3.09-.48c-.09-.83-.96-1.43-1.56-1.82-.35.13-.48.39-.74.57-.26 0-.43 0-.74.04-.48.04-1.04-.09-1.78 0-.17.04-1.13.7-1.09.52-.09 0-.09-.04-.09-.04-.04-.09.04-.13.04-.26-.04-.22-.7.39-.74.13-.48.39-.52 1.78-1 1.78-.13.04-.39 0-.56 0h-.13v.13s-.87.39-1 .52c-.17.13-1.22 1.56-1.78 1.61-.52.43-.22 1.35-1.13 1.43v.22c.09.43-.22 1.65-.91 1.69-.04 1.04-1.22 1.82-1.13 2.21v.52c.09.65-.26.52-.22 1.13 0 .26.09.39.09.7.13.91-.56.87-.69 1.48.22.56.56 1.26.56 1.65.04.26-.22.52-.22.7.04.22.3.13.3.17.04.26-.13.3-.13.3.3 1.39 1.35 3.08 1.39 2.95v.13c.04.17.65.09.87.22.26.17.43.65.69.61.09 0 .26-.04.35-.04.17.04.48.52 1.87.39.17-.04.39-.04.74-.09.13 0 .3-.04.43-.04.17 0 .17-.13.17-.17.13 0 .3.13.39.09.35-.13.69-.39 1.04-.39h.35c.69.17 1.69-.69 2.65-1.17.09-.04.26.04.39 0 .04-.04.87-.52.91-.65.13-.22.52-.17.65-.3 0-.04.56-.74.56-.61v-.13c.22 0 1.87-.7 2.17-1.78 0 .04.04.04.09.04.61.17.74-1.48 1.82-1.69 0-.09 0-.17.04-.3.09-.39 1.09-.56 1.22-1 0-.04.09-.04.22-.04v-.04c.04-.22.26-.3.26-.43 0 0 .09-.3.13-.35l.22-.13c.09-.13.04-.3.13-.48.04-.09.35-.04.39-.13.04-.09.04-.26.09-.3.17-.17.35-.35.61-.43-.09-.35.13-.35.09-.74.39.04.26-.39.74-.39.09-.09.09-.39.17-.56.35 0 .48-.17.56-.39 1.3-.13 2-.35 3.08 0 .13-.04 1 .35 1.13.17.09.13.74.13.96.26-.04.26.43-.13.48.13.04.13.17.3.35.35 0 0 .17-.04.22 0 .09.04.09.3.17.35.43 0 .48 0 .65-.17 0 0 .3-.09.3-.13 0 0-.04-.13 0-.17.13-.22.35-.52.48-.78.09-.04.13.09.13-.13v-.13c.09-.26 0-.17.17-.61.39.04.61-.17.91-.22.17 0 .17.09.35.13.22.04.48 0 .61.09.09.13.22.3.43.48.09.04.22-.04.26 0 .04.13.17.39.43.52-.09.65-.48 1.09-.56 1.65-.13.09-.26.17-.39.17-.04.56-.65.87-.35 1.35-.26.13-.3.39-.74.26-.04.17 0 .3-.13.48-.04.04-.22.13-.22.17-.04.26 0 .56 0 .78-.04.13-.35.35 0 .39-.3.26-.48.56-.39 1.13-.3.17-.39.56-.56.74.04.35-.13.74-.17 1-.04.26-.22.35-.22.52-.04.22.09.39.13.65 0 .09-.04.22 0 .35.04.17-.04.56 0 .96 0 .13-.04.7.04.74.04.35.26.22.35.61.04.13.26.13.39.22.43 0 1-.26 1.26-.43 1.09-.39 2.3-1.3 2.3-1.22.61-.78 1.04-.43 1.22-1.08 0-.04.04-.09.04-.09.48-.09.52-.3 1.08-.7h.13c.13.04.22-.26.26-.26.43-.3 1.08-.52 1.3-1 .17-.04.26-.13.39-.09h.09c.13-.09.26-.48.43-.39.09 0 .04-.04.09-.13 0-.04.04-.04.04 0v.09c.04-.04.04-.13.04-.17v-.09s.04.04.09.04c.04 0 .3-.39.39-.48.04-.04.26-.17.35-.3v-.09c.7-.17 1.09-.74 1.48-1.04.04 0 .43-.48.48-.52.17-.17.65-.69.7-.82v-.22h.04c.17.09.48-.61.65-.43h.09v-.13c.09 0 .22.04.35.13.43.09.7.26.43 1.04-.78.61.17.65-.56.69-.13.17-.13.3-.22.43s-.61.3-.87.56c-.17.13-.61.35-.48.48.17.09-.22.17-.56.48-.04-.04-.09.22-.17.17-.04-.04-.17-.09-.22-.09v.13c-.22.17-.52.52-1 .87-.04.04-.04.09-.04.13-.04.13-.48.17-.56.52v.04c-.3 0-.78.3-.78.48l-.09.04c0 .09-.13 0-.13 0-.13-.04-.17.35-.3.43-.17.13-.48.04-.65.35.04.13 0 .17-.04.13 0 0-.04.04-.09-.04-.04.22-.22.13-.26.26v.13c-.39 0-.48.35-.74.48-.39.35-1.43 1.26-1.48 1.13-.09.17-.39.22-.48.52 0-.04-.13 0-.13 0-.26-.09-.04.3-.3.17l-.04-.09v.09c0 .09-.13.17-.13.22-.09.26-1.52.83-1.78.83 0 .04-.04.09-.04.09-.13.26-.17.26-.26.52 0-.04-.04-.09-.04-.09-.26-.04-.69.39-.78.52-.04.04-.13 0-.17.09.04.09-.04.04-.13 0-.04-.04 0 .04-.13-.04-.26 0-1 .3-1.35.22-.22-.09-.35-.13-.57-.26-.09-.26-.39-.22-.52-.26-.13-.71-.65-.93-.95-1.36zm-9.6-4.95h.04-.04zm9.12-5.21c-.09-.04-.04-.39-.04-.43-.22-.04-.43.04-.61 0 0 0-.04-.13-.09-.17h-.13c-.09 0-.04-.13-.09-.13-.43-.09-.87-.09-1.17-.13-.35-.04-.35.22-.56.26-.26.17-.48.17-.74.17-.26.56-.91.69-.96 1.35-.17.17-.48.13-.43.61-.22 0-.17.26-.26.43-.35.13-.35.52-.48.69-.26.35-.43.48-.56.87-.04.17.04.39-.04.69-.43.26-.22.91-.48 1.17-.3.52-.26 1.52-.39 2.17-.26.09-.13.35-.13.56h-.39c.04.13 0 .22-.04.26.04.13.09.09.09.13.17.52.17 1.22.78 1.22.39-.22.56-.7 1.04-.78-.13-.52.26-.56.39-.65.13-.13 0-.35.13-.3.3-.13.48-.22.87-.26-.26-.26.17-.39.26-.56.04 0 0-.09 0-.09.04-.17.09-.09.09-.13.04-.09.04-.35.22-.48.3-.39.78-.56 1.08-.91.04-.04 0-.22 0-.3 0-.04.22-.09.26-.13.09-.13.04-.35.13-.52 0-.04.09-.09.13-.17.13-.13.43-.26.48-.35v-.43c.17-.22.65-.43.7-.56.09-.13.09-.3.13-.43.09-.09.3-.09.35-.13.13-.04.13-.26.39-.17.04-.43.26-.74.43-1.04.35-.26.52-.43.65-.96-.26 0-.39-.26-.65-.35-.06-.11-.27-.02-.36-.02z"/>
    <path d="M445.48 308.98c.04-.26-.13-.22.09-.3.22-.09.87-.87 1.04-.91.09-.26-.17-.43.35-.43.13-.26.69-.61 1.17-.65.04-.3.52-.78.91-.83.39-.43 1-.65 1.3-1.22.48-.09.65-.48 1-.61.04-.17.13-.17.26-.22.17-.13.43-.3.56-.56.13 0 .13-.09.17-.09.26-.17.43-.35.65-.48l.56-.26.78-.52c.04 0 .17.04.17 0 .13-.04.26-.17.39-.3.17 0 .3.09.52.04.13-.04.13-.22.17-.26.13-.04.3.04.39 0 .26-.09.48.52.65.3.22-.09.26.26.43.39 0 0 .17-.04.22 0v.04h.17c.04 0 0 .09 0 .09.26.26.39.65.78.7-.22.17.04.35.17.56.04.17.04.43.13.61.09.26-.13.35-.13.52-.13.39.04.78-.17 1.04-.09.09-.39.22-.43.48-.65-.04-.7-.04-1.26 0 0-.17-.35-.09-.48-.17-.04 0 0-.09 0-.09-.09-.13-.26-.3-.39-.35 0-.56-.26-.87-.48-1.09-.48-.04-.56-.35-.7-.04-.43-.04-.56.22-.74.48-.48-.04-.69.22-.83.43h-.61c-.26.09.13.26 0 .48-.3 0-.61.39-.87.22-.09 0 0 .3-.13.35-.35.09-.61.43-.87.65-.17.13-.3.22-.52.17-.13.39-.52 0-.52.39-.3.09-.43.3-.65.43.04.35-.78.48-.69.87-.3.04-.83.65-1.04.87-.09.17-.65.56-.74.65 0 .04-.13.04-.13.09-.26.22-.48.61-.56.7l-.43.48c-.17.17-.26.35-.43.56-.04 0-.04.13-.22.17-.04.22-.09.35-.17.43v.04c0 .04-.13.39-.13.43-.35.35-.26.52-.26.96-.17.09-.17.35-.39.39 0 .65-.3.96-.39 1.48-.17.17-.13-.04-.43 0 .04.17-.22.13-.35.17 0 .09-.04.13-.22.09.04 0-.04-.13-.13-.09 0 .09-.09.26-.26.3-.35-.26-.74-.48-.96-.91-.04-.04-.09.04-.09-.13 0-.13 0-.26-.09-.26l.17-.56c0-.04.17-.13.22-.17 0 0-.04-.13 0-.17.09-.13 0-.3.09-.43.17-.13.13-.52.48-.83 0-.3 0-.48.04-.7l.26-.56c0-.04.09 0 .09-.13v-.26c0-.04.17-.04.17-.09.04-.13-.04-.22 0-.26 0-.04.13-.04.13-.13 0-.22 0-.3.04-.43s.17-.26.26-.43c0-.17 0-.3.13-.52.04-.09.04-.26.09-.3.04-.04.3-.22.3-.35.04-.26.3-.61.43-.83-.13-.35.13-.56-.09-.96.22 0 .09-.39.26-.39 0-.52.22-.91.3-1.39.04-.22 0-.52.13-.74 0-.04-.04-.17 0-.22.13-.04-.09-.04 0-.26l.17-.52v-.17c0-.17.17-.22.17-.3.09-.22 0-.48.13-.74-.13-.39-.09-.48.13-.69 0-.26.13-.35-.22-.56l-.09-.26s-.13-.3-.13-.35c.17-.04-.04-.09.13-.13.26-.13.09-.26.48-.35.04 0 .13.04.17 0v-.09c.35-.09.48-.13.91 0 .09 0 .26.04.39.09.04.04.04.17.09.22.04 0 .17-.04.17 0 .04.04.04.17.22.17.3.04.17.3.56.35.04.09 0 .22 0 .3.04.09.13.17.09.48 0 0-.13.04-.09.04.13.13 0 .09 0 .3 0 0 .09 0 .09.13 0 0-.09.09-.09.26 0 .13-.04.26-.09.35 0 .09-.13.26-.3.35 0 .43 0 .52-.09.78 0 .04.04.22 0 .22-.22.09 0 0 0 .35l-.09.04v.35c.09.17-.17.13-.26.17.04.52-.43 1.26-.74 1.82 0 .09-.52 1.39-.39 1.39-.05 0-.65 1.65.04.83zM459.25 311.8c0-.22.04-.83.04-1.04l.22-1.48c.04-.48.22-.74.35-1.22v-.52c0-.04.39-.74.91-1.91 0-.04-.04-.13-.04-.17 0-.04.04-.04.09-.04h.09c0-.04-.04-.13 0-.17 0-.13.09-.09.17-.09 0-.04-.04-.13-.04-.17 0-.09.3-.26.43-.69 1-2.13 1.26-1.74 2.65-3.04.22-.17.48-.43.56-.43.13 0 .3-.35.56-.35.04-.17.26-.22.48-.22h.39c.17 0 .52 0 .52-.17.04 0 .39.22.61.22.09 0 .26-.09.43-.09.26 0 .83.69.83.61h.09c.26 0 .48.22.52.26.09 0 .13-.09.13-.13.04 0 1.48 1.08 1.43 1.87 0 .3-.13.43-.26.43-.04 0-.09.56-.17.52v.13c0 .22-.13.26-.17.48 0 .04.04.09.04.13-.7 0-.83.39-.87.39-.09 0-.13-.04-.17-.04-.74.52-1.04 1.17-1.43 1.17-.04 0-.09-.04-.13-.04-.04.22-.13.35-.35.35h-.09c-.3.35-.48.78-.83 1.13-.26.22-.83.13-.87.56 0 .04-.04.13-.04.17-.65 0-1.95 1.35-2 1.39v.22h-.09c.04 0-.39.13-.43.26v.17c0 .17-.48.13-.52.52v.13c-.35.09-.96-.22-1 0 0 .26.13.52.13.74-.04.04-.17.22-.17.35 0 .26.35.13.3.48 0 .17-.04.3-.17.43l.39.52c-.04.09.04.26.04.3-.04.17.22.17.22.39v.13c.26.52 1.17.69 1.95.69 1.78 0 1.74-1.04 2.91-1.22.26-.09.35-.35.52-.61h.09c.7 0 .61-.74 1.3-.74 0-.04 0-.04.04-.09 0-.22.26-.17.26-.39-.04-.09.43-.48.43-.52.17-.48.78-.87.7-.83-.04-.04-.04-.09-.04-.13.04-.17.43-1.17 1-1.22.52.04.39.74.13 1.48 0 .13-.17.39-.04.39-.43.48-1.13 2.21-1.82 2.39-1 .82-1.39 1.04-1.43 1.43 0 .04-.65.39-.65.43-.96.22-1.74 1-1.78 1-.39 0-.96.35-1.35.35-.13 0-.26-.04-.35-.22-.09.09-.22.22-.26.35-.17-.09-.74-.22-.65-.22-.09 0-.13.09-.22.09-.04 0-.04-.09-.13-.09h-.09c-1-.56-1 .09-1.91-.96-.13-.17-.39-.17-.39-.35.04-.09.09-.17.09-.26s-.48-.26-.48-.65c-.26-.17-.13-.74-.52-.87-.09-.13.09-.78-.09-.78.04.02-.04-.89 0-.89zm6.43-9.47c-.04 0-.13-.04-.22-.04-.48.43-.91 1.22-1.52 1.87v.26c-.09 1.22-1.13.48-1.17 1.26-.04.22.04.35.04.61-.04.22-.22.22-.22.39 0 .04.04.13.04.17-.26.09-.91 1.13-.91 1.26 0 .04-.04.43.13.43.78 0 1.74-1.78 2.82-1.96.13-.26.26-.48.35-.82.09 0 .13.04.17.04.82 0 .65-.96 1.56-.96.04-.04.04-.04.04-.13.09-1.17 1.3-.56 1.39-1.69 0-.3-.04-1.13-.52-1.13-.69 0-1.43.17-1.65.3-.25.01-.2.14-.33.14z"/>
  </g>
</svg>
