<?xml version="1.0" encoding="utf-8"?>
<!-- Generator: Adobe Illustrator 24.3.0, SVG Export Plug-In . SVG Version: 6.00 Build 0)  -->
<svg version="1.1" id="Layer_1" xmlns="http://www.w3.org/2000/svg" xmlns:xlink="http://www.w3.org/1999/xlink" x="0px" y="0px"
	 viewBox="0 0 504 504" style="enable-background:new 0 0 504 504;" xml:space="preserve">
<style type="text/css">
	.st0{fill:#FFFFFF;}
</style>
<g>
	<path class="st0" d="M315.62,236.81c0,38.59-24.07,52.91-55.88,52.91s-57.57-14.19-57.57-52.78s25.77-86.97,57.57-86.97
		S315.62,198.22,315.62,236.81z"/>
	<g>
		<path d="M312.97,237.52c-0.03,12.72-2.78,26.05-11.33,35.88c-3.51,4.04-7.71,7.12-12.4,9.45c-4.65,2.31-9.95,3.78-15.24,4.61
			c-11.76,1.84-24.8,1.36-36.37-2.27c-10.74-3.37-20.34-9.98-26.01-19.88c-6.83-11.92-7.71-26.41-6.16-39.79
			c1.69-14.52,6.25-28.83,13.18-41.69c6.06-11.25,14.47-22.49,25.88-28.73c2.41-1.32,4.78-2.29,7.17-2.93
			c2.39-0.64,4.72-0.95,7.51-0.9c5.31,0.09,10.83,1.92,15.5,4.65c11.34,6.62,19.52,17.9,25.39,29.41
			c6.61,12.98,10.83,27.33,12.33,41.82C312.77,230.6,312.96,234.06,312.97,237.52c0,1.28,5.31,0.4,5.3-1.42
			c-0.03-15.06-3.39-30.18-9.14-44.07c-5.32-12.84-12.98-25.58-24.01-34.31c-4.77-3.78-10.25-6.73-16.2-8.12
			c-6.13-1.43-12.57-1.16-18.6,0.61c-13.05,3.82-23.36,13.61-30.95,24.57c-8.61,12.45-14.47,26.88-17.57,41.67
			c-2.96,14.12-3.78,29.72,1.33,43.45c4.23,11.37,12.72,20.14,23.73,25.14c11.69,5.32,25.18,6.58,37.88,5.79
			c12.52-0.77,25.43-3.93,35.53-11.69c10.05-7.73,15.53-19.36,17.26-31.74c0.52-3.75,0.73-7.53,0.74-11.31
			C318.27,234.82,312.97,235.7,312.97,237.52z"/>
	</g>
</g>
<g>
	<ellipse class="st0" cx="258.89" cy="245.28" rx="35.67" ry="34.23"/>
	<g>
		<path d="M291.91,245.59c-0.07,13.64-8.7,26.08-21.61,30.61c-6.14,2.15-13.32,2.27-19.82,0.44c-6.52-1.83-12.43-5.68-16.8-10.84
			c-8.93-10.54-10.3-26-3.04-37.81c7.19-11.69,20.87-17.44,34.18-14.7c13.44,2.77,24.4,13.64,26.66,27.27
			C291.74,242.23,291.9,243.91,291.91,245.59c0.01,1.19,1.36,1.33,2.31,1.22c0.78-0.09,3.01-0.71,3-1.85
			c-0.04-7.49-2.37-14.66-6.86-20.67c-4.47-5.99-10.82-10.35-17.87-12.75c-14.91-5.07-32.67-0.58-43.1,11.3
			c-4.9,5.58-8.09,12.58-8.71,20.02c-0.62,7.44,1.22,14.81,5.18,21.13c8.47,13.48,25.13,19.28,40.42,16.26
			c14.87-2.94,27.85-14.43,30.46-29.69c0.32-1.85,0.46-3.71,0.47-5.59c0.01-1.19-1.37-1.32-2.31-1.22
			C294.12,243.84,291.91,244.46,291.91,245.59z"/>
	</g>
</g>
<g>
	<path d="M68.03,317.69c0.18,0,0.23-0.24,0.47-0.24h0.12c0.06,0.64,1.93,1.11,1.75,0.99c0.29,0.18,1.52,1.28,1.52,1.28
		c0.23,0,0.23-0.23,0.53-0.23c0.06,0,1.28,1.75,1.64,2.16c-0.12,0.12-0.12,0.12-0.12,0.17c0,0.35,0.29,0.64,0.29,0.94
		c0,0.17-0.18,0.06-0.18,0.23c0.06,0.58,0.23,1.34,0.35,1.99c0,0.12-0.06,0.23-0.06,0.47c0,0.82,1.28,1.23,1.28,1.34
		c0.7,0.29,0.64,1.34,1.35,1.58c0,1.11,0.47,1.75,0.47,2.8c0,0.47-0.12,1.64-0.29,2.22c0,0.12-0.18,0-0.18,0.29
		c-0.06,0.88-0.88,2.92-0.88,3.04c0,0.12,0,0.23,0.06,0.47c-0.35,0.06-0.76,1.34-0.76,1.17c-0.06,0.41-0.64,0.47-0.64,1.05
		c0,0.12-0.59,1.52-1.11,1.58c0,0.12,0.06,0.12,0.06,0.23c0,0.99-1.23,1.7-1.23,1.7v0.23c0,0.18-0.52,0.23-0.52,0.7v0.23
		c-0.29,0-0.24,0.29-0.59,0.29h-0.12c0,1.23-1.52,1.99-1.93,2.69c-0.47,0.64-2.05,2.16-2.92,2.22c-0.29,0.06-0.35,0.35-0.35,0.64
		h-0.18c-0.41,0-0.64,0.76-1.05,0.76c-0.47,0.06-0.7,0.7-2.16,0.99h-0.23c-0.12,0-0.35,0.41-0.41,0.41
		c-0.53,0.18-1.4,0.23-2.22,0.23c-0.64,0-1.34-0.06-2.16-0.06h-0.06c-0.52,0-1.4-1.7-1.46-1.46v-0.12c-1.17,0-1.34-0.35-1.34-1.05
		h-0.18c-0.35,0-0.18-0.53-0.59-0.53h-0.18c0-0.99-0.76-1.99-0.76-1.99s-0.64-1.05-0.64-0.93c0-0.12,0.11-0.41,0.11-0.59
		c0,0.06-0.47-1.4-0.47-2.45c0-0.18,0.11-0.53,0.11-0.7c0-0.41-0.29-1.34-0.35-1.28c0.06-0.18,0.41-0.59,0.41-0.7
		c0-0.12-0.12-0.23-0.12-0.41c0-0.35,0.35-1.17,0.35-1.4c0-0.35-0.23-0.58-0.23-0.88c0.29,0,0.59-2.34,0.93-2.57v-0.35
		c0-0.23,0-0.41-0.23-0.41c0.35-0.41,0.76-1.28,0.76-1.69v-0.29c0-0.88,1.05-2.28,1.05-2.22v-0.24c0.41-0.53,0.64-0.99,0.64-1.63
		c0-0.06-0.06-0.18-0.06-0.35c0.47-0.06,1.11-1.75,1.11-1.69c0-0.7,0.7-0.7,0.7-1.23c0.06-0.29,0.76-0.82,1.05-1.05V324
		c0-1.46,1.87-1.69,1.87-2.92v-0.12c0.76-0.29,1.23-0.7,1.35-1.4c0.82,0,0.76-0.76,1.58-0.76c0.06,0,0.11,0,0.11,0.12
		c0.12-0.06,0.12-0.29,0.12-0.41v-0.35c0.06,0.06,0.11,0.06,0.17,0.06c0.29,0,0.82-0.93,1.52-0.93h0.35c0.47,0,0.52-0.18,0.99-0.18
		c0.53,0,1.23,0.12,1.46,0.53C67.79,317.69,67.96,317.69,68.03,317.69z M66.33,321.48h-0.24c-0.17,0-0.17,0.29-0.29,0.29h-0.23
		c-0.29,0-0.29,0.35-0.53,0.35h-0.11v0.12c0,0.64-1.52,1.87-1.81,1.99c0,0-0.29-0.29-0.47-0.29c-0.06,0-0.12,0.29-0.23,0.29
		c-0.18,0-0.41-0.18-0.64-0.18c-0.35,0-0.59,0-0.59,0.41c0,0.06,0.06,0.23,0.06,0.29c0,0.29-0.29,0.35-0.29,0.88
		c0,0.35-0.29,0.06-0.29,0.35c0.06,0.06,0.12,0.18,0.12,0.24c0,0.17-0.06,0.29-0.06,0.53c0,0,0,0.17,0.11,0.29
		c-0.52,0.12-0.47,0.64-0.52,0.99h-0.24c-1.22,0-1.69,3.27-1.87,3.68c-0.29-0.06-0.76-0.24-1.11-0.24c-0.52,0-0.64,1.34-0.64,2.11
		v0.41c-0.18,0-0.18,0.29-0.18,0.47c-0.23,0.41-0.88,0.35-0.88,0.99c0,0.12,0.23,0.17,0.23,0.53c0,0.17-0.41,0.06-0.41,0.82
		c0,0.24,0.06,0.53,0.06,0.82c0,0.47-0.23,0.35-0.23,0.7v0.47c0,0.23-0.18,0.23-0.18,0.53v0.47c0,0.41-0.41,1.23-0.41,2.1
		c0,1.87,0.41,3.51,0.88,5.2c0.47,0.17,0.88,0.58,1.11,0.93c0.41,0.99,0.47,0.41,0.7,0.82c0.12,0,0,0.41,0.18,0.47h1.23
		c0.23,0.53,1.05,0.41,1.52,0.64c0.65-0.64,1.93-0.64,2.28-0.64c0.06-0.59,0.94-0.41,1.05-0.88h0.18c0.99,0,2.22-1.81,3.33-2.8
		c0.12-0.12,0.35-0.06,0.53-0.17c0.06-0.06,0.99-1.05,0.99-1.23c0.06-0.35,0.59-0.41,0.76-0.64c0-0.06,0.41-0.99,0.47-1.05v-0.18
		c0.29-0.12,2.28-1.81,2.28-3.33c0,0.06,0.06,0.06,0.11,0.06c0.88,0,0.41-2.28,1.76-2.98c0-0.12-0.06-0.29-0.06-0.47
		c0-0.53,0.47-1.11,0.47-1.69v-0.59c0-0.47,0.11-0.47,0.17-0.93c0-0.88-0.17-1.34-0.17-1.52v-0.41c0-0.23-0.41-0.29-0.41-0.59v-0.41
		c0-0.12,0-0.18-0.06-0.18c-0.7,0-1.28,1.29-1.28,1.29c-0.06,0-1.28,1.52-1.58,1.69c-0.06,0.82-0.76,1.05-1.05,1.52
		c-0.52-0.12-0.35-1.23-0.81-1.23c-0.24,0-0.24,0.35-0.29,0.35s-0.06,0-0.11-0.12c0.11-0.88,0.11-1.64,0.93-1.75
		c0-0.7-0.12-0.76,0.29-1.46c0.35-0.53,0.41-0.41,0.53-0.88c0-0.29,0.12-0.41,0.12-0.53c0-0.12-0.12-0.18-0.12-0.29
		c0-0.18,0.23-0.53,0.23-0.82v-0.47c0-0.29,0-0.59,0.18-0.82c-0.41-0.12-0.41-0.24-0.41-0.24c-0.12,0-0.12,0-0.18,0.06
		c0-0.35-1.4-0.59-1.4-1.4c0.12-0.35,0.7-0.35,0.76-0.88c0.06,0,0.18,0.06,0.23,0.06c0.35,0,0.59-0.12,0.59-0.47v-0.17
		c0-0.47-0.53-0.24-0.53-0.64c0-0.06,0.06-0.12,0.06-0.17c0-0.35-0.35-0.29-0.35-0.7v-0.18c-0.76-0.23-1.81-0.12-2.51-0.35
		C66.91,321.02,66.39,321.48,66.33,321.48z M59.32,327.04c0.35,0,0.59-0.29,0.59-0.64c0-0.17-0.06-0.41-0.29-0.41
		c-0.06,0.29-0.52,0.47-0.52,0.76c0,0.06,0.06,0.17,0.11,0.29H59.32z M59.55,327.79c0.23,0,0.23-0.18,0.23-0.29
		c0-0.23,0-0.35-0.23-0.35s-0.12,0.41-0.12,0.58C59.5,327.79,59.55,327.79,59.55,327.79z"/>
	<path d="M103.39,335.86c-0.47-0.12-0.88-0.29-1.28-0.29c-1.23,0-0.99,1.17-1.76,1.17c-0.06,0.23-0.06,0.47-0.29,0.64
		c-0.06,0.12-0.47,0-0.64,0.53H99.3c-0.82,0-0.35,0.53-0.52,0.93c-0.35,0.23-0.59,0.35-0.53,0.82c-0.47,0.23-0.99,0.53-0.88,0.88
		v0.12c-0.06,0-0.11-0.06-0.11-0.06c-0.76,0-0.41,0.88-0.41,0.93c-0.12,0.06-0.53,0.06-0.47,0.41c0,0.06,0.06,0.12,0.12,0.18
		c0,0.12-0.12,0.17-0.29,0.17h-0.18c0.18,0.7-0.35,0.41-0.41,1.05h-0.23c-0.18,0-0.59,0.35-0.59,0.35c0.23,0.58-0.59,1.64-0.59,1.81
		c-0.23,0.06-0.41,0.29-0.41,0.41l0.06,0.12c-0.18,0.12-0.29,0.29-0.52,0.35v0.17c0.06,0.29-0.23,0.29-0.18,0.59
		c0,0.06,0.11,0.12,0.11,0.18c-0.23,0.12-0.47,0.12-0.41,0.58c0.12,0.47-0.06,0.29,0.12,0.7c0,0.35-1.05,1.52-1.69,1.99
		c0.06,0.12,0.06,0.24,0.06,0.24c0.18,0.53-0.52,1.81-0.93,1.93h-0.35c-0.35,0-0.64-0.12-0.88-0.12c-0.29,0-0.23,0.23-0.35,0.41
		c-0.18-0.06-0.35-0.06-0.47-0.06c-0.29,0-0.47,0-0.76,0.06c-0.41-0.41-0.93-0.64-1.52-0.82c-0.29-0.64-1.05-1.17-1.58-1.58
		l-0.11-0.29c-0.18-0.47-0.41-0.93-0.7-1.4c-0.06-0.53,0-0.94-0.29-1.64c-0.06-0.06-0.23-0.47-0.35-0.47
		c-0.06-0.12,0.18-0.29,0.12-0.53c0-0.58-0.35-1.28-0.53-2.05c0-0.06-0.18-1.05,0.06-1.17c-0.12-0.12-0.18-0.29-0.24-0.47
		c-0.17-0.29-0.06-0.76-0.23-1.29l-0.11-0.41c0,0,0.18,0,0.11-0.06c0-0.12-0.11-0.18-0.23-0.18h-0.06c0-0.41,0.29-0.35,0.06-0.88
		l-0.06-0.41c-0.23-0.47,0.18-0.7,0.11-0.88c0-0.06-0.29-0.35-0.35-0.53c-0.12-0.17,0.18-0.58,0.11-0.93
		c-0.11-0.17-0.29-0.23-0.29-0.29c-0.06-0.06,0-0.06-0.06-0.23c-0.06-0.35-0.23-0.64-0.29-0.88c-0.7-1.99,0.64-2.69,0.53-2.69
		c-0.06-0.12-0.12-0.18-0.12-0.23c-0.11-0.53,0.23-0.88,0.12-1.23l-0.12-0.18c0-0.18,0.29-0.18,0.18-0.29
		c-0.12-0.06-0.29-0.17-0.41-0.35c-0.06-0.35,0.64-0.7,0.64-0.76h0.06c0.06,0,0.06,0.12,0.06,0.12c0.29,0,0.52-0.06,0.82-0.06
		c0.76,0,1.17,0.53,1.34,0.53c0.29,0.18,0.76,0.18,1.11,0.29c0.24,0.18,0.41,0.41,0.82,0.53v0.12c0.12,0.18,0.24,0.24,0.24,0.35
		c0,0.12,0.06,0.12-0.18,0.17c0.18,0.29,0.64,0.29,0.7,0.47c0,0-0.12,0-0.12,0.12c0,0.06,0.24,0,0.29,0.12
		c0.11,0.41-0.29,0.53-0.06,1.05c-0.29,0.35-0.59,0.12-0.82,0.41l0.06,0.29c0.29,0.7-0.23,0.93,0,1.64
		c-0.18,0.17-0.7,0.23-0.53,0.64c0,0.12,0,0.12,0.06,0.18c-0.76,0-0.35,0.93-1.35,1.17c0.23,0.7,0.94,1.46,0.29,1.46l0.18,0.12
		c-0.06,0.12,0.11,0.29,0.11,0.41c0.18,0.47-0.52,0.23-0.41,0.53c-0.06,0.12,0.12,0.18,0.18,0.29c0.06,0.12-0.29,0.12-0.23,0.18
		c0.06,0.12,0.23,0.17,0.29,0.35c-0.06,0.18-0.18,0.23,0,0.29c0,0.12,0,0.23,0.23,0.35c-0.29,0.06,0,0.29-0.29,0.29
		c0.18,0.29,0.41,0.35,0.52,0.64c-0.06,0.35-0.29,0.59-0.06,1.05c0.06,0.18,0.12,0.41,0.35,0.64c-0.35,0-0.29,0.18-0.29,0.53
		l0.76,1.28c0,0.12-0.11,0.23-0.11,0.35c0.06,0,0.17,0.06,0.17,0.06c0,0.18-0.11,0.06-0.11,0.23c0.18,0.23,0.59,0.64,0.76,0.82
		c0,0.29,0.18,0.53,0.24,0.76c0.17,0.47,0.58,1.81,1.17,1.81c1.05,0,0.12-1.17,0.99-1.17c0-0.17,0.23-0.29,0.18-0.58l-0.18-0.06
		c0.29,0,0.18-0.29,0.41-0.29h0.18c0-0.12-0.12-0.76,0.06-0.76h0.18c0.23,0,0.06-0.47,0.06-0.53c0.35-0.06,0.41-0.29,0.7-0.47
		c-0.18-0.06-0.18-0.06-0.18-0.18c-0.06-0.41,0.41-0.82,0.35-0.93l0.06-0.06c-0.12-0.12,0.06,0.06,0-0.12v-0.12
		c0.06-0.12,0.41-0.7,0.41-0.7c0.11,0,0.18,0.12,0.29,0.12c-0.06-0.17,0.64-1.28,0.59-1.28c0.41,0,0.18-0.41,0.7-0.41
		c-0.06-0.06-0.06-0.06-0.06-0.12c-0.18-0.41,0.23-0.82,0.76-0.99v-0.12c-0.18-0.82,1.11-0.82,1.05-1.23l-0.18-0.35
		c-0.23-0.88,1.05-0.93,0.88-1.4c0-0.06-0.11-0.06-0.11-0.18c0.76-0.12,1.28-1.93,1.93-1.99c0-0.88,1.11-0.99,0.82-1.87
		c0.23-0.23,0.76-0.23,0.64-0.76l-0.06-0.12c0.17,0,0.58,0,0.64-0.17c-0.12-0.47,0.18-0.06,0.64-0.64c0.11-0.12,0.59-0.47,0.64-0.7
		c0,0.06,0.06,0.06,0.11,0.06c0.06,0,0.18,0,0.18-0.06c0.29-0.47,1.93-1.17,2.75-0.59c0.64,0.47,0.76,2.05,1.05,2.05
		c0.93,0.76,1.34,1.23,2.16,2.05c0.59,0,0.99,0.99,0.59,1.05c-0.12,0.06,0.41,0.35,0.23,0.41c-0.06,0.06-0.18,0.06-0.23,0.35
		c-0.35,0-1.52,0.76-1.81,0C105.03,336.79,103.68,336.56,103.39,335.86z"/>
	<path d="M123.09,343.92c0-0.23,0-0.41-0.18-0.47c0.11-0.41,0.47-0.7,0.52-1.05c0-0.06-0.11,0.12-0.23-0.12
		c-0.59,0.47-0.88,2.11-1.93,1.99c0,0.29-0.23,0.41-0.23,0.64v0.23c0,0.12-0.35-0.06-0.41,0.06c-0.12,0.06-0.06,0.35-0.23,0.47
		c-0.06,0-0.47,0.41-0.47,0.53c0,0.06,0.06,0.18,0.06,0.23c0,0.06,0,0.06-0.06,0.06h-0.17c-0.41,0-1.11,0.7-1.11,0.93
		c0,0.06,0,0.12,0.06,0.29c-0.52,0.58-1.17,0.53-1.22,1.34c0,0-0.47,0.41-0.35,0.47c-0.47,0.29-1.46,1.23-1.35,1.05
		c-0.11,0.18-0.35,0.41-0.47,0.7c0,0.35-2.22,1.17-2.22,0.99c0,0.17,0.18,0.29,0.18,0.41c0,0-0.06,0-0.18-0.06
		c-0.11,0-0.11,0-0.11,0.06c0,0.06-0.18,0.12-0.18,0.17c-0.06,0.12-0.99,0.41-1.05,0.35c-0.41-0.12-0.53-0.24-0.76-0.29
		c-0.59,0.17-1.34,0.41-1.98,0.47c-0.76-0.41-1.76-0.99-1.69-1.87c-0.7-0.06,0.58-2.28,0.06-2.57c0-1.11,0.35-1.05,0.47-1.93
		c0-0.59,0.35-0.64,0.35-1.4c0.35-0.12,1.11-1.34,0.52-1.81c0-0.29,0.35-0.93,0.41-2.05c-0.06,0-0.06-0.06-0.06-0.06
		c0.06-0.23,0.35-0.12,0.41-0.29c0-0.06-0.06-0.18-0.06-0.35c0-0.24,0.59-0.41,0.59-0.88c0-0.23,0.11-0.53,0.17-0.88
		c0.18,0,0.23-0.06,0.23-0.29c0-0.06-0.06-0.18-0.06-0.23c0.06-0.53,0.35-0.29,0.35-0.53c0-0.18,0.52-1.46,0.52-1.58
		c0.06-0.17,0.35-0.23,0.35-0.47c0-0.18-0.18-0.41-0.11-0.59c0.17-0.17,0.47-0.41,0.52-0.88c0-0.29,0.18-0.35,0.18-0.64
		c0-0.12,0.06-0.18,0.06-0.18c-0.06,0,0.53-1.05,0.47-1.05c0.12,0-0.11-0.35-0.06-0.35c0.29-0.12,0.23-0.47,0.35-0.99
		c0.99-0.12,0,0,0.82-0.35c0.41,0.12,0.59,0.35,1.17,0.35c0.06,0,0.12,0,0.24,0.06c0.52,0.93,1.63,1.29,1.52,3.04
		c0,0.41-0.47,0.53-0.82,1.63c0,0.18-1.28,1.52-1.35,1.58c-0.7,0.53-1.28,2.57-1.11,2.45c-0.47,0.35-0.41,0.88-0.88,1.64
		c0,0.06-0.06,0.7-0.06,0.76c0,0.35-0.35,0.64-0.35,0.93v0.29c0,0-0.18,0.35-0.53,0.64c0.12,0.12,0.12,0.29,0.12,0.41
		c0,0.24-0.06,0.47-0.35,0.59c0.12,0.06,0,1.64,0,1.87c0,0.29-0.18,0.7-0.18,0.93c-0.17,0.41-0.35,1.11,0.59,1.11
		c0.29,0,0.82,0.06,0.88-0.29V349c0.41,0.18,0.59-0.12,1.17-0.47c0.18-0.12,0.53-0.18,0.7-0.35c0.53-0.23,0.35,0,1.35-0.7
		c1.05-1.23,1.58-1.23,1.87-1.58c0.47-0.41,1.23-0.76,1.28-1.52v-0.18c0.64,0,1.76-1.34,1.87-1.81c0-0.29,0.82-0.58,0.88-0.93
		c0-0.06-0.06-0.12-0.06-0.18c0.06-0.29,0.88-0.88,0.88-1.17c0-0.06-0.06-0.12-0.06-0.18c1.28-0.53,0.59-1.17,1.23-1.69v-0.29
		c0.06-1.29,0.76-1.52,1.93-1.34c0.23,0,0.59,0.12,0.88,0.17c-0.06,0.06-0.06,0.12-0.06,0.18c0,0.23,0.47,0.23,0.47,0.59v0.06
		c0,0.41,0.7,0.29,0.64,0.64c0,0.29-0.23,0.17-0.29,0.41c0.18,0.12,0.29,0.35,0.23,0.64c-0.06,1.05-0.82,0.47-0.93,0.99
		c0,0.35,0.41,0.59,0.41,0.7c0,0.12-0.18,0.18-0.18,0.23c0,0.12,0.11,0.12,0.11,0.24c0,0.29-0.17,0.47-0.52,0.64
		c0.06,0.29,0.11,0.47,0.11,0.7c-0.06,0.18-0.29,0.12-0.29,0.24c0,0.06,0.12,0.23,0.12,0.41c0,0.06-0.06,0.12-0.12,0.23
		c0,0.12-0.29,0.18-0.29,0.35c0,0.18,0.11,0.76,0.11,1.05v0.53c0,0.18,0,0.41,0.18,0.53c-0.18,0.53-0.41,1.05-0.41,1.52
		c0,0.18,0.06,0.35,0.23,0.41c-0.11,0.18-0.18,0.47-0.18,0.64c0,0.59,0.41,1.05,0.64,1.52c0.7-0.12,1.52,0,1.99-0.29
		c0.12-0.12,1.4-0.64,1.28-0.64c1.28-0.41,0.53-0.23,1.87-1.05c0.94-0.59,1.81-1.17,2.75-2.11c0.06,0,0.12,0.06,0.24,0.06
		c0.11,0,0.17-0.18,0.23-0.29c0.64-0.35,0.64,0.12,1.28-0.88h0.23c0.29,0,0-0.7,0.35-0.7c0.17,0,0.23,0,0.23,0.18
		c1.05-0.7,2.1-1.93,2.45-1.93c0.35-0.23,0.58-0.64,0.88-0.99c0.11-0.18,1.23-0.82,1.17-0.82h0.12c-0.06-0.12-0.06-0.18-0.06-0.24
		c0-0.23,1.52-1.69,2.22-2.1v-0.17c0-0.35,0.53,0.17,0.53-0.12c0,0,0.52,0.18,0.52,0.12c-0.23,0.17-0.23,1.05-0.47,1.17
		c-0.23,0.18-0.23-0.06-0.35,0.06c-0.06,0-0.11,0.12-0.17,0.18c-0.12,0.12,0.11,0.41-0.35,0.7c-0.23,0.23-0.7,0.23-0.59,0.29
		c0,0.06-0.82,1.28-1.23,1.75c-0.52,0.7-1.69,1.4-1.64,1.4c-0.47,0-0.82,0.82-0.99,1.28c-0.24,0.06-0.99,0.47-0.82,0.47
		c-0.06,0-0.06,0-0.12-0.06c-0.52,0.64-0.82,0.64-1.34,1.23v0.12c0,0.29-0.59,0.24-0.59,0.35v0.12c-0.18,0.29-0.99,0.41-0.99,0.93
		c-0.12,0.35-0.88,0.58-0.99,0.7c-1.23,0.58-2.51,1.87-2.34,1.69c-0.12,0.12-0.18,0.18-0.18,0.23c-0.06,0-0.52,0.23-0.82,0.23
		c-0.11,0-0.23,0-0.29-0.06c-0.82,0.7-1.52,0.88-2.05,1.34h-0.18c0,0-0.64,0.47-1.81,0.47c-0.52,0-0.23-0.35-0.58-0.35
		c-0.12,0-0.24,0.06-0.41,0.06c0.06,0-0.99-0.64-0.99-0.64v-0.23c0-0.29-0.7-0.41-0.64-0.47h-0.12v-0.29c0-0.06-0.29-0.06-0.29-0.18
		v-0.23c0-0.12-0.23-0.12-0.23-0.18c-0.12-0.12-0.29-1.05-0.29-0.88l-0.06-0.06c0-0.06,0.06-0.06,0.06-0.12
		c-0.06,0-0.35-0.99-0.47-1.52c0-0.29,0.18-0.41,0.18-0.7c0-0.35-0.23-0.59-0.23-0.94c0-0.29,0.29-0.64,0.29-0.93v-0.64
		C122.8,344.45,123.03,344.45,123.09,343.92z"/>
	<path d="M171.55,349.71h0.12c0.41-0.18,0.76-0.41,0.88-0.93c0.06,0.06,0.18,0.06,0.23,0.06c0.88,0,1.05-1.23,1.58-1.58
		c0.7-0.17,1.11-0.53,1.52-0.93c0.59,0.12,0.59,0.59,0.99,0.82c-1.28,0.29-1.28,1.81-2.22,2.4c-0.99,0.41-0.41,1.34-1.46,1.34
		c-0.52,0-1.52,1.4-1.81,1.4c-0.41,0.35-1.4,0.7-1.98,0.7c-0.82,0-1.35-0.35-1.99-0.58v-0.18c0-0.12-0.29-0.29-0.35-0.35h-0.06
		c-0.23-0.41-0.29-1.23-0.29-1.64c0-0.06,0.11,0,0.11-0.23c0-0.06-0.11-0.35-0.11-0.35c0-0.17,0.23-0.06,0.29-0.17v-1.46
		c0-0.41,0.06-0.82,0.18-0.88c-0.06-0.35-0.18-0.82-0.18-1.28c0-0.18,0-0.29,0.06-0.47v-0.12c0-0.06-0.06-0.06-0.06-0.23
		c0-0.23,0.18-0.7,0.41-0.82c-0.11-0.12-0.18-0.59-0.18-0.88c0-0.7,0.18-1.23,0.24-1.81c0-0.06-0.06-0.12-0.06-0.23
		c0-0.12,0.12-0.18,0.12-0.29c0-0.41-0.12-0.53-0.12-0.7c0.06,0,0.18-0.93,0.18-1.34c0-0.35-0.18-0.76-0.18-1.05
		c0-0.17,0.06-0.35,0.23-0.41c-0.11-0.12-0.11-0.23-0.17-0.41l-0.06-0.7c-0.06-0.06-0.11-0.41-0.35-0.41
		c-0.06,0-0.47,0.53-0.41,0.53h-0.24c-0.7,0-0.88,0.99-0.88,1.11c0,0.12,0.12,0.24,0.23,0.47v0.12h-0.17c-0.7,0-0.65,0.59-1.17,0.7
		c0.11,0.12,0.18,0.06,0.18,0.23c0,0.82-1.4,1.64-1.93,2.1c0,0.29,0.12,0.35,0.12,0.35c0,0.06-0.52,0.41-0.52,0.99v0.47h-0.06
		c-0.29,0-0.18,0.17-0.47,0.17l-0.12-0.06c0,0.12-0.06,0.18-0.06,0.23c0.06,0.29,0.23,0.29,0.29,0.59h-0.06
		c-0.11,0-1.05,0.88-1.05,1.52c0,0.18,0.12,0.18,0.12,0.29c-1.35,0.18-1.58,3.21-1.64,3.45c-0.12,0.12-0.53,0.06-0.53,0.24
		c0,0.06,0.06,0.23,0.06,0.23c0,0.06-0.18,0.12-0.18,0.29c-0.64-0.12-0.76-0.76-1.46-0.76c-0.35,0-0.76,0.29-0.94,0.59
		c-0.29-0.12-0.64-0.18-0.76-0.53c-0.12,0-0.18,0.06-0.18,0.06c-0.94,0-0.88-0.99-0.88-0.88c0-0.12,0.06-0.29,0.06-0.41
		c-0.06-0.18-0.06-0.23-0.35-0.23c0.18-0.29,0.18-0.47,0.18-0.64v-0.35c0-0.35,0.23-0.35,0.23-0.53c0-0.29-0.11-0.99-0.11-1.28
		c0-1.11,0.29-2.05,0.29-2.34c0-0.47-0.12-0.99-0.12-1.4c0-0.29,0.24-0.59,0.24-0.76c0-0.17-0.29-0.29-0.29-0.53
		c0-0.17,0.18-0.35,0.23-0.82c0-0.12-0.11-0.18-0.11-0.24c0-0.23,0.11-0.53,0.11-1.34c0-0.06-0.11-0.12-0.11-0.17
		c0,0,0-0.41,0.18-0.59c-0.06,0-0.29-0.23-0.29-0.35v-0.12c0.06-0.06,0.12-0.24,0.12-0.41c0-0.47-0.23-1.17-0.23-1.58
		c-0.65,0-0.99,0.35-1.06,0.53h-0.06c-0.41,0-0.7,1.11-1.52,1.34c-0.99,2.22-1.81,1.64-1.81,2.34c0,0.06,0.06,0.23,0.12,0.35
		c-0.53,0-0.41,0.41-0.53,0.76c-0.64,0.35-1.23,1.05-1.23,1.34v0.06c0,0.18-0.23,0.35-0.23,0.64c0,0.06,0.12,0.12,0.12,0.18
		c-0.47,0-0.82,0.12-0.82,0.64v0.18c-0.53,0.35-1.52,2.28-1.52,2.63c0,0.23,0.06,0.41,0.06,0.59c0,0.23-0.41,0.76-0.41,0.7v0.17
		h-0.18l0.06,0.06h-0.29c-0.53,0.99-0.99,1.69-0.94,2.69c-0.35,0.47-1.05,0.82-1.05,1.52c0,0.18,0.06,0.41,0.12,0.53
		c-0.12,0.12-0.41,0.18-0.53,0.18c0,0.12,0.06,0.23,0.06,0.29c0,0.99-0.99,0.7-1.06,1.05c-0.23,0-0.4-0.18-0.47-0.41v-0.12h-0.06
		c-0.53,0-0.41,0.35-0.99,0.35c0-0.12-1.69-0.06-1.69-1.69c0-0.35,0.35-0.93,0.53-0.99c-0.06-0.23-0.06-0.29-0.06-0.47
		c0-0.35,0.12-0.64,0.35-0.82c-0.12-0.06-0.18-0.12-0.18-0.18v-0.64c0.47,0,0.23-0.53,0.64-0.58c-0.11-0.06-0.11-0.12-0.11-0.18
		c0-0.12,0.18-0.76,0.29-0.76c0-0.06-0.06-0.18-0.06-0.35c0-0.29,0.29-0.29,0.29-0.64c0-0.12-0.06-0.06-0.06-0.18
		c0-0.17,0.06-0.17,0.06-0.23c0-0.12,0.12-0.59,0.47-0.59c-0.11-0.06-0.11-0.17-0.11-0.17c0-0.24,0.18-0.29,0.18-0.35
		c0-0.06-0.06-0.06-0.12-0.06c0-0.06,0.12-0.35,0.12-0.41v-0.23c0.18-0.06,0.11-0.29,0.41-0.29h0.11v-0.18
		c0-0.64,0.53-0.93,0.53-1.52v-0.18c0.64-0.47,0.35-2.34,1.05-2.34c-0.06,0-0.06-0.12-0.06-0.12c0-0.18,0.17-0.23,0.23-0.29
		c0.29-1.17-0.18-1.11,0.59-1.4c0-0.06-0.06-0.18-0.06-0.29c0-0.88,0.59-1.87,0.88-2.22v-0.41c0-0.06,0.18,0.12,0.18-0.35v-0.47
		c0-0.64,0.29-0.23,0.35-0.53c0-0.06-0.06-0.18-0.06-0.18s0.41-0.58,0.58-0.64c0-0.7,0.06-0.59,0.53-1.52v-1.99
		c0.23-0.23,0.53-0.35,0.64-0.7c0.23,0.12,1.11,0.24,1.11,0.24c0.18,0.06,0.18,0.17,0.35,0.17c0.18,0.18,1.99,0.47,1.99,1.75
		c0.06,0.12,0.11,0.18,0.11,0.29c-0.11,0.47-0.99,2.92-1.11,2.92c-0.35,0-1.11,0.7-1.23,0.99v0.12c0,0.58-0.29,1.4-0.47,1.4
		c-0.88,0-1.11,1.23-1.11,1.4c0.06,0-0.17,1.34-0.17,1.46c-0.06,0.06-0.12,0.18-0.29,0.29c-0.82,0.7-1.23,1.17-1.23,1.93v0.29
		c0,0.29,0,0.47-0.18,0.47c-0.17,0-0.52,1.28-0.76,1.28c-0.29,2.28-1.46,1.58-1.58,3.15c-0.23,0.06-0.29,0.29-0.29,0.59
		c0,0.12-0.06,0.41,0.23,0.41c0.29,0,0.35-0.18,0.35-0.29c0-0.12-0.06-0.23-0.06-0.41c0.88-0.18,0.53-0.76,0.88-0.88
		c0.64,0,1.05-2.05,2.22-2.4c0-0.06-0.06-0.06-0.06-0.18c0-0.18,0.11-0.23,0.29-0.23c-0.06-0.06-0.06-0.12-0.06-0.24
		c0-0.47,0.59-0.58,0.59-1.11v-0.12c0.29-0.29,0.59-0.59,0.93-0.76c0-0.12-0.06-0.29-0.06-0.35c0-0.29,0.29-0.35,0.29-0.7h0.06
		c0.18,0,0.18-0.29,0.35-0.29h0.18c0.41-0.41,0.94-0.88,0.94-1.58c0-0.12,0-0.23-0.06-0.35c0.23,0,0.17-0.18,0.23-0.23
		c0.06,0,0.11,0.06,0.23,0.06c0,0,0.11,0,0.11-0.06c0-0.06-0.06-0.12-0.06-0.12c0-0.17,0.35-0.12,0.41-0.23
		c0.35-0.12,0.12-0.53,0.35-0.7h0.06c0,0,0.47-0.64,0.64-0.99c0-0.06,0.82-1.17,1.17-1.17c0.47-0.93,1.46-1.93,1.46-2.05v-0.23
		c0.11-0.12,0.7-0.06,0.88-0.06c0.35,0.12,0.64,0.18,0.64,0.23h0.23c0,0-0.06,0.06-0.06,0.12c0.06,0.06,0.11,0.06,0.11,0.06h0.24
		v0.12c0,0.06,0.93,0.41,1.05,0.47c0.23,0.64,1.05,1.11,1.05,1.64c0,0.17-0.18,0.17-0.18,0.29c0.18,0.24,0.59,1.52,0.59,1.52
		c0,0.12-0.12,0.06-0.12,0.18c0,0.47,0.12,0.82,0.12,0.99c0,0.47-0.29,0.18-0.47,0.53c0.06,0.12,0.06,0.29,0.06,0.35
		c0,0.29-0.23,0.41-0.23,0.58c0,1.17,0.23,0.82,0.23,2.28c0,0.47-0.18,0.93-0.18,1.29c0,0.29,0.47,1.05,0.47,1.05v0.12
		c0,0.41-0.41,0.53-0.41,0.7c0.06,0.06,0.06,0.29,0.06,0.29c-0.23,0.35-0.82,0.12-0.47,0.76c0.59-0.12,0.59-0.7,1.11-0.93
		c0-0.06-0.06-0.12-0.06-0.24c0-0.29,1.11-1.11,1.11-1.58c0-0.06-0.06-0.12-0.06-0.23c0.29,0,1.28-1.11,1.28-1.28v-0.35
		c0.18-0.06,0.12-0.35,0.29-0.35h0.18c0.06,0,0.11-0.06,0.11-0.18v-0.12c0-0.06,0-0.12,0.06-0.12h0.11c0.12,0,0.29-0.23,0.29-0.23
		c0-0.06,0-0.18-0.06-0.24c0-0.12,0.29-0.06,0.35-0.12c0.12-0.06,0.29-0.88,0.35-0.88h0.11c-0.29-0.12,0.88-1.11,0.88-1.05
		c0-0.12-0.06-0.18-0.06-0.24c0.7-0.17,1.05-0.64,1.23-1.11c0.06,0,0.12,0.06,0.12,0.06c0.58,0,0.93-1.52,1.28-1.52h0.18
		c0.11,0,0.11,0,0.11-0.06v-0.35h0.35c0,0,0.23-0.35,0.76-0.35c0.17,0,0.41,0.12,0.47,0.12c0,0,0-0.12,0.11-0.12
		c1.35,0,2.16,1.52,2.16,1.99v0.35c0,0.18,0.35,0.64,0.47,1.05c-0.12,0.18-0.12,0.18-0.23,0.18c-0.12,0-0.23-0.06-0.41-0.06
		c0,0-0.06,0-0.12,0.06c0.41,0.64,0.76,0.88,0.82,1.81c-0.11-0.12-0.52,1.4-0.11,2.8c0.06,0.18-0.06,0.29-0.59,0.99
		c0.23,0.17,0.23,0.41,0.35,0.53c0,0.12,0,0.53-0.06,0.53h-0.11c-0.06,0-0.06,0.06-0.06,0.18c0,0.35,0.06,0.53,0.06,0.53
		c-0.59,0.93-0.18,2.22-0.18,4.5c0,0.29-0.18,0.53-0.18,0.76c0,0.53,1.05,0.59,1.17,0.59c0.18,0,0.35-0.12,0.52-0.23
		C171.31,349.94,171.43,349.71,171.55,349.71z"/>
	<path d="M247.36,334.92h-0.41c-0.52-0.12-1.28-0.23-2.8-0.23c-1.05,0-1.87,0.35-3.1,0.35c-0.88,0-1.87-0.12-2.57-0.12
		c0.06,0-0.93,0.82-0.93,0.64c-0.12,0-0.23-0.06-0.29-0.06c-0.29,0-0.58,0.12-0.88,0.12c-0.23,0-0.41,0-0.52-0.41
		c-0.18,0-0.35,0.53-0.7,0.53c-0.06,0-0.11-0.17-0.23-0.17c-0.23,0,0,0.41-0.88,0.41c-0.99,0-1.64,0.58-1.64,1.28v0.23
		c0,0.59-1.64,2.22-1.64,2.22c-0.59,0.64-1.69,1.75-1.69,2.45c-1.05,0.41-1.64,1.81-2.34,1.81h-0.12c-1.05,1.63-1.64,1.34-1.98,2.16
		c-0.76,0.35-1.4,0.76-1.52,1.7h-0.23c-0.11,0-0.41,0.06-0.41,0.17v0.24c0,0.06,0,0.12-0.06,0.12s-0.06-0.06-0.12-0.06
		c-0.58,0.41-1.11,0.88-1.63,1.17c-0.53,0-1.23,1.05-1.23,1.17h-0.29v0.18h-0.23c-0.29,0-0.29,0.12-0.93,0.12
		c0,0-0.29,0.35-0.47,0.35c-0.06,0-0.17-0.06-0.17-0.18c-0.24,0.06-0.24,0.18-0.24,0.24v0.23c0,0.06-2.57,1.34-2.75,1.34
		c-0.35,0.06-1.52,1.11-3.51,1.11c-0.64,0-1.52-0.29-2.39-0.29c-0.29,0-0.59,0.06-0.88,0.17c-0.41-0.35-0.94-0.58-1.35-0.99
		c-0.11,0.12-0.18,0.17-0.29,0.17c-0.18,0-0.35-0.17-0.64-0.17h-0.18c-0.41-0.35-0.59-1.17-1.17-1.29v-0.12
		c0-0.29-0.18-0.35-0.18-0.53v-0.47c0-0.29-0.23-0.35-0.23-0.59c0-0.35,0.41-0.35,0.41-0.82c-0.18-0.29-0.35-0.41-0.59-0.41
		c-0.11,0-0.35,0.06-0.58,0.12v-0.12c0-0.17-0.99-0.47-0.99-1.58c0-2.34,2.63-2.28,2.63-4.56v-0.23c0.59-0.12,0.29-1.17,1.05-1.17
		h0.12c-0.12-0.18-0.12-0.29-0.12-0.41c0-0.88,0.99-1.34,0.99-2.28v-0.23c0-0.29,0.64-1.52,1.28-1.87
		c-0.11-0.18-0.11-0.35-0.11-0.47c0-0.29,0.35-1.87,1.28-2.51c0-1.4,1.4-3.04,1.81-3.8c0.29-0.64,0.64-2.34,1.64-2.63
		c0-0.93,0.29-2.16,0.64-2.16c0.11-0.17,0.52-0.82,0.52-1.05v-0.29c0,0,0.06,0.06,0.12,0.06c0.06,0,0.06-0.06,0.06-0.06
		c0-0.06-0.06-0.17-0.06-0.23c0-0.06,0.06-0.06,0.06-0.06h0.18c0-0.06-0.06-0.17-0.06-0.23c0-0.17,0.52-0.35,0.52-0.82v-0.23
		c0-0.12,0.12-0.06,0.18-0.06c0-0.06-0.06-0.17-0.06-0.23c0-0.06,0.06-0.12,0.06-0.12s0.06,0.06,0.12,0.06
		c0.06,0,0.06-0.06,0.06-0.06c0-0.06-0.06-0.18-0.06-0.23c0-0.06,0.06-0.06,0.06-0.06h0.18c0-0.06-0.06-0.17-0.06-0.23
		c0-0.18,0.18,0,0.18-0.23v-0.23c0.06,0,0.12,0.06,0.12,0.06c0.06,0,0.06-0.06,0.06-0.12v-0.18c0-0.58,0.35-0.58,0.53-0.76
		c0.11-0.23,0.06-0.59,0.18-0.82c0-0.12,0.29-0.06,0.29-0.23v-0.18c0-0.06,0-0.06,0.06-0.06h0.12c1.17-2.34,1.17-3.21,1.64-3.33
		c-0.12-0.18-0.59-0.47-0.88-0.47c-0.11,0-0.17,0.06-0.23,0.12c-0.35-0.18-0.58-0.41-0.88-0.64c-0.29,0-0.35,0.18-0.64,0.18
		c-0.12-0.41-1.93-1.11-1.69-0.99c-0.53-0.18-2.22-0.35-3.27-0.82h-0.29c-0.12-0.06-0.18-0.12-0.29-0.12h-0.18
		c-0.88,0-1.28-0.88-2.63-0.88h-0.23c0-0.12,0-0.18-0.06-0.18h-0.29c-0.12-0.12-1.69-0.53-1.99-0.64v0.06c0,0-0.06,0.12-0.11,0.12
		c-0.18,0-0.18-0.35-0.59-0.35h-0.29c-0.24-0.41-0.88-0.35-0.99-0.82c-0.29,0-0.53,0.18-0.88,0.18c-0.41,0-1.29-0.53-2.22-0.53
		h-0.18c-0.93-0.35-2.51-0.82-2.45-0.88c-0.18,0.06-0.29,0.24-0.52,0.24c-0.12-0.29-0.41-0.53-0.7-0.53c-0.29,0-0.29,0.17-0.64,0.17
		c-0.29-0.76-1.52-0.12-2.51-1.34c-0.11-0.47-0.82-0.35-1.11-0.64v-0.17c0-0.47-0.35-0.76-0.35-1.17c0-0.53,0.47-0.76,0.64-1.28
		c0,0.06,0.06,0.06,0.12,0.06c0.23,0,0.59-0.35,0.82-0.35c0.35,0,0.23,0.41,0.76,0.41h0.47c0.47,0,1.23,0.99,1.34,0.99
		c0.06-0.06,0.18-0.12,0.18-0.12c0.18,0,0.18,0.24,0.47,0.29c0.23,0,0.35-0.17,0.35-0.47v-0.18c0.23,0,0.29,0.23,0.29,0.47v0.35
		c0,0.18,1.52,1.05,1.58,1.05c0.11,0,0.23-0.06,0.29-0.06c0.35,0.17,0.18,0.23,0.47,0.23c0.29,0,0.58-0.06,0.88-0.06
		c0.76,0,1.34,0.53,1.75,0.82h0.41c1.11,0,1.52,0.64,2.57,0.64h0.35c0.12,0.18,0.35,0.18,0.35,0.47v0.06h0.23
		c0.53,0,0.64,0.29,0.99,0.29c0.11,0,0.23-0.06,0.41-0.12c0.64,0.53,1.75,0.53,2.8,0.64c0.41,0.53,2.51,1.58,2.81,1.58
		c0.29,0,0.47-0.23,0.7-0.23c0.06,0,0.23,0.18,0.35,0.18c0.11,0,0.06-0.18,0.23-0.18c0.41,0,0.35,0.41,0.7,0.47
		c2.69,0,2.86,0.99,3.22,0.99h0.29c0,0-0.06,0.06-0.06,0.12c0,0.18,0.76,0.29,0.88,0.29c0.18,0,0.82-0.12,0.82-0.47v-0.18
		c0-0.18,0.35-0.18,0.35-0.35v-0.47c0-0.29,0.35-0.12,0.35-0.7c0-0.23-0.06-0.47-0.06-0.7c0-0.29,0.18-0.12,0.18-0.47v-0.23
		c0.53-0.53,0.35-0.99,1.17-0.99c0.76,0,1.46,0.18,1.87,0.18h0.23c0.18,0,0.23,0.59,0.52,0.59c0.06,0,0.12,0,0.18-0.06
		c0,0.47,0.06,0.7,0.06,0.93c0,0.18-0.06,0.29-0.23,0.53c0.12,0.06,0.18,0.18,0.18,0.23c0,0.12-0.18,0.29-0.18,0.47
		c0,0,0.18,0.29,0.18,0.47c0,0.82-0.99,1.29-0.99,2.16h-0.17c-0.29,0-0.41,0.12-0.47,0.29c0,0.64,2.51,1.93,3.33,1.99
		c0.06,0.29,0.23,0.47,0.29,0.7h0.18c0.7,0,0.52,0.53,0.82,0.53c0.06,0,0.17-0.06,0.23-0.06c0.11,0,0.11,0.53,0.93,0.53
		c0,0.64,1.4,1.64,1.52,1.7c0.24,0.23,1.47,1.11,1.47,1.52v0.18c0,0.06,0,0.06,0.06,0.06h0.23c0.18,0,0.11,0.41,0.18,0.53
		c1.87,1.93,1.52,2.92,2.16,3.15c0.12,0.47,0.35,1.75,0.35,1.64c0,0.06-0.06,0.23-0.06,0.35c0,0.35,0.41,0.12,0.41,0.64v0.47
		c0,0.58,0.17,0.64,0.17,1.05c0,0.06-0.11,0.29-0.17,0.29c0,0,0.11,0.17,0.11,0.29c0,0.53-0.18,0.47-0.18,1.05
		c0,0.41,0.12,0.35,0.12,0.47c0,0.12-0.18,0.18-0.23,0.53c-0.18,0.7-0.06,1.52-0.35,2.28c0,0.18,0.23,0.23,0.53,0.23
		c1.17,0,1.34-0.64,3.5-0.64c0.12,0,0.24,0.06,0.29,0.23c0.23-0.17,0.76-0.41,1.64-0.41c0.06,0,0.11,0.12,0.52,0.12
		c0.35-0.06,0.76-0.29,1.11-0.35c1.93-0.23,3.39-0.29,3.44-0.29c0.7,0,1.4,0.12,2.1,0.12h0.29c0.06,0,0.11,0.06,0.18,0.06
		c0.29,0,0.81-0.35,0.88-0.35c0.18,0,0.29,0.18,0.59,0.18c0.23-0.06,0.29-0.18,0.47-0.18c0.18,0,0.29,0.23,0.64,0.23
		c0.23,0,0.41-0.18,0.47-0.18c0.76,0,2.28,1.17,2.05,1.05c0,0.24-0.18,0.47-0.18,0.76c0,0.18,0.18,0.29,0.18,0.53
		c0,0.35-1.46,0.29-1.99,0.41c-0.41,0.41-0.64,0.29-1.63,0.29C248.53,334.86,247.3,334.92,247.36,334.92z M231.23,333.4
		c0.17-0.35,0.17-0.7,0.35-0.82c0-0.06-0.06-0.18-0.06-0.23c0-0.53,0.35-0.99,0.35-1.52c0-0.29-0.06-0.47-0.06-0.58
		c0-0.06,0.06-0.12,0.06-0.24v-0.23c0.06-0.18,0.11-0.29,0.11-0.35c0-0.06-0.18-0.41-0.18-0.7c0-0.23,0.06-0.41,0.06-0.59
		c0-0.82-0.12-1.28-0.18-1.52v-0.24c0-0.41-0.88-1.23-0.88-1.69c0-0.06,0.06-0.18,0.06-0.23c-0.41-0.23-0.7-0.53-0.7-0.59
		c0-0.06,0.06-0.18,0.06-0.23c-0.29-0.93-1.05-1.23-1.05-1.52c0-0.12,0.06-0.23,0.06-0.35v-0.12c-0.59-0.06-1.58-1.34-1.52-1.34
		c-1.29-0.88-1.35-1.52-2.45-1.64c-0.29-0.64-0.99-1.17-1.11-1.17h-0.29c-0.18,0-0.18-0.29-0.23-0.29
		c-0.53-0.29-0.94-0.35-0.94-0.35h-0.23c0-0.06,0.06-0.18-0.06-0.18h-0.23c-0.35,0-0.06-0.41-0.82-0.41h-0.53h-0.17
		c-0.24,0.76-0.88,0.93-1.17,1.23c-0.47,1.28-0.59,2.63-2.16,3.51c0,1.23-0.7,2.16-0.7,2.57c0,0.06,0.06,0.18,0.06,0.24
		c-0.93,0.93-1.11,1.63-0.99,1.46c0,0.7-0.99,1.11-0.99,1.52c0,0.18-0.12,0.06-0.18,0.18c-0.41,0.88-0.12,2.16-1.34,2.8
		c0.06,0.12,0.06,0.18,0.06,0.29c0,0.23-0.64,1.69-0.7,1.69c0,0.47,0.11,1.4-0.18,1.46c-0.18-0.06-0.18-0.35-0.41-0.35
		c-0.53,0,0,1.17-0.76,1.17h-0.18c0.06,0.18,0.06,0.29,0.06,0.41c0,1.4-0.7,1.93-1.05,1.93h-0.11c0,0.58-0.41,0.88-0.41,1.46
		c0,0.12,0,0.23,0.06,0.35h-0.11c-0.59,0-0.88,2.16-0.88,3.15c-0.93,0.64-1.57,1.52-1.64,2.98c-0.11,0.53-0.52,0-0.52,1.34
		c1.23-0.12,3.51-2.22,3.8-2.8c0.06,0.06,0.12,0.06,0.18,0.06c0.12,0,1.35-0.93,1.4-0.93h0.18c0.23,0,0.7-0.64,0.93-0.64
		c0,0,0,0.24,0.06,0.24c0.41,0,1.58-1.34,1.4-1.23c0.18-0.12,0.76-0.47,1.46-0.47h0.53c0.18-0.76,1.87-0.99,1.52-0.99
		c1.05-0.7,2.28-0.59,3.27-1.34c0.52-0.35,0.99-0.23,1.34-0.53c0.29-0.12,0.12-0.47,0.47-0.47c1.22-0.17,3.04-1.17,3.68-1.17
		c0.59-0.18,1.28-0.12,1.46-0.35c0.06,0,0.18,0.06,0.23,0.06c0.24,0,0.12-0.23,0.29-0.35c0,0,0.99-0.35,0.88-0.35h0.29
		c0,0-0.06-0.06-0.06-0.12l0.06-0.06c0,0,0.12,0.06,0.18,0.06c0.53,0,1.11-0.41,1.11-0.7C231.06,333.4,231.17,333.52,231.23,333.4z
		 M225.1,338.25c0,0.35-2.57,0.99-2.98,1.28c-0.64,0.47-1.35,0.82-2.05,0.82h-0.23c-0.29,0.64-1.46,0.99-1.7,0.99
		c-1.17,0-2.34,1.05-2.16,0.99c-0.11,0.12-0.35,0.06-0.47,0.18c-0.53,0.41-1.52,1.34-2.34,1.34c-0.35,1.23-2.4,1.75-2.4,2.16
		c0,0.24,0.23,0.24,0.23,0.64c-0.23,0-0.47,0-0.64,0.17v0.12c0,0.24-0.99,1.34-0.82,1.17c0,0-0.06,0.06-0.11,0.06
		c-0.06,0-0.18-0.06-0.24-0.06c-0.06,0.06-0.35,0.53-0.35,0.58c0,0,0.06,0.06,0.06,0.12h-0.23c-0.47,0-0.76,0.88-0.76,1.05
		c0,0.29,0.29,0.47,0.29,0.88v0.18c0.18,0,0.29,0.06,0.47,0.06c0.29,0,0.59-0.06,0.88-0.06c0.12,0,0.12,0.17,0.23,0.17
		c0.06,0,0.12-0.17,0.12-0.17c0.23,0.06,0.41,0.06,0.52,0.06c2.22,0,2.34-0.41,2.45-0.53c0.12-0.12,0.88-0.35,0.88-0.35h0.18
		c0.64,0,4.21-2.8,4.79-2.8h0.12c0.06-0.59,2.45-2.34,2.98-2.34h0.12c0.41-0.76,1.57-1.81,2.34-2.1c0-0.06-0.06-0.12-0.06-0.18
		c0-0.29,0.23-0.35,0.23-0.7c0.18,0.06,0.29,0.17,0.52,0.17c0.41,0,0.82-1.28,1.64-1.28c0.06-0.29,0.41-1.17,0.7-1.17h0.23
		c0.06,0,0.06,0,0.06-0.06v-0.23c0-0.18,0.41-0.06,0.47-0.23c0.12-0.82,0.76-1.05,0.82-1.81c-0.47,0.12-0.99,0-1.28,0.18
		C227.14,337.84,225.1,337.84,225.1,338.25z M219.49,350.64c-0.06,0.06-0.06,0.06-0.06,0H219.49z M229.77,318.68
		c0.06,0.06,0.06,0.06,0,0.06V318.68z"/>
	<path d="M283.08,343.92c0-0.23,0-0.41-0.18-0.47c0.12-0.41,0.47-0.7,0.53-1.05c0-0.06-0.12,0.12-0.23-0.12
		c-0.59,0.47-0.88,2.11-1.93,1.99c0,0.29-0.24,0.41-0.24,0.64v0.23c0,0.12-0.35-0.06-0.41,0.06c-0.11,0.06-0.06,0.35-0.23,0.47
		c-0.06,0-0.47,0.41-0.47,0.53c0,0.06,0.06,0.18,0.06,0.23c0,0.06,0,0.06-0.06,0.06h-0.18c-0.41,0-1.11,0.7-1.11,0.93
		c0,0.06,0,0.12,0.06,0.29c-0.52,0.58-1.17,0.53-1.23,1.34c0,0-0.47,0.41-0.35,0.47c-0.47,0.29-1.46,1.23-1.35,1.05
		c-0.11,0.18-0.35,0.41-0.47,0.7c0,0.35-2.22,1.17-2.22,0.99c0,0.17,0.18,0.29,0.18,0.41c0,0-0.06,0-0.18-0.06
		c-0.11,0-0.11,0-0.11,0.06c0,0.06-0.18,0.12-0.18,0.17c-0.06,0.12-0.99,0.41-1.05,0.35c-0.41-0.12-0.53-0.24-0.76-0.29
		c-0.59,0.17-1.34,0.41-1.99,0.47c-0.76-0.41-1.75-0.99-1.69-1.87c-0.7-0.06,0.59-2.28,0.06-2.57c0-1.11,0.35-1.05,0.47-1.93
		c0-0.59,0.35-0.64,0.35-1.4c0.35-0.12,1.11-1.34,0.52-1.81c0-0.29,0.35-0.93,0.41-2.05c-0.06,0-0.06-0.06-0.06-0.06
		c0.06-0.23,0.35-0.12,0.41-0.29c0-0.06-0.06-0.18-0.06-0.35c0-0.24,0.59-0.41,0.59-0.88c0-0.23,0.12-0.53,0.18-0.88
		c0.18,0,0.23-0.06,0.23-0.29c0-0.06-0.06-0.18-0.06-0.23c0.06-0.53,0.35-0.29,0.35-0.53c0-0.12,0.29-0.93,0.47-1.34
		c-0.7,0.12-1.17,0.41-1.76,0.53c-0.35,0.12-0.76,0.06-1.05,0.17c-0.35,0.06-0.58,0.24-0.93,0.35c-0.23,0.06-0.53,0-0.82,0.06
		l-1.11,0.24l-0.29-0.12c-0.23,0.12-1.11,0-1.28,0.24c-0.06-0.06-0.29,0.23-0.35,0.17c0.06-0.06-0.29-0.12-0.35-0.12
		c-0.18-0.06-0.18,0.18-0.47,0.06h-0.06c0.12,0.64,0.18,1.4-0.29,1.81c0.11,0.99-0.76,0.7-0.59,1.52h-0.12
		c-0.18,0-0.23,0.64-0.52,0.64c-0.29,0-0.53,0.53-0.53,0.18c-0.29,0.35-1.23,1.17-0.93,1.17c-0.29,0.29-0.94-0.18-0.94,0.99
		c-0.35,0.06-1.46,1.81-1.46,1.52c-0.18,0.18-0.47,0.06-0.47,0.35c-0.99,0.41-2.05,1.75-2.05,2.4c0,0.06,0.12,0,0.12,0.12
		c0,0.35-0.64,0.64-0.94,0.64c0,0-0.11,0-0.18-0.06c-0.52,0.29,0.18,0.99-1.11,0.99c-0.29,0.06-0.53,0.82-0.59,0.82
		c-0.93,0-1.4,0.82-2.22,0.82c-0.52,0-0.88-0.12-1.4-0.18c-0.59,0-0.76,0.41-1.11,0.47c-0.47,0-0.82-0.47-0.93-0.47
		c-1.05-0.53-0.99-0.06-2.22-1.28v-0.24c0-0.12,0-0.17-0.06-0.17h-0.12v-0.35h-0.11v-0.41c0,0-0.12,0.06-0.18,0.06
		c-0.06,0-0.06-0.06-0.06-0.12v-0.23c0-0.12-0.12-0.18-0.12-0.18c0-0.12,0.12-0.18,0.12-0.35c-0.76-0.76-0.06-1.58-0.76-2.16
		c0.18-0.47,0.12-1.29,0.53-1.58c-0.18-0.35-0.35-0.64-0.35-0.88c0,0,0.18-0.12,0.18-0.23c0-0.23-0.06-0.23-0.18-0.29
		c0.11-0.12,0.93-1.87,0.93-1.87c0-0.18-0.11-0.29-0.11-0.41c0-0.29,1.4-1.87,1.4-1.93v-0.41c0-0.41,0.35-0.47,0.76-1.93
		c0-0.41,0.35-0.53,0.35-0.93c0-0.23-0.88-1.34-0.18-1.34c0-0.06-0.12-1.05,0.18-1.23c0.06-0.06,0.11-0.06,0.18-0.06v-0.12
		l-0.06-0.06c0.06-0.06,0.12-0.06,0.35-0.06c0.23-0.29,0-1.99,0.41-2.22c0,0,0.18-0.06,0.23-0.12c0.12-0.06,0.35-0.59,0.59-0.59
		c0.35,0,0.35,0.06,0.59,0.06c0.06,0,0.29-0.29,0.29-0.29c0.12,0,0.35,0.23,0.59,0.23c0.41,0,0.59-0.35,0.94-0.47
		c0-0.12,0-0.18,0.06-0.29c0-0.35,0.11-0.41,0.29-0.59c0.23,0,0.12-0.29,0.35-0.47c0.64-0.29,0.88-0.12,1.05,0.18
		c0.18,0,0.59,0.12,0.7,0.17c0.18,0.18,0.24,0.29,0.47,0.18c0.23,0.59,0.7,0.7,0.7,1.23c0.99,0.64,0.94,0.99,1.75,1.99
		c-0.06,0.23,0.24,0.23,0.41,0.35h0.12c0.88,0,1.28,1.4,2.16,1.4c0.18,0,0.24,0,0.41-0.06c0.12,0.23,0.53,0.76,0.76,0.76
		c1.17,0,1.11-0.76,1.69,0.06c0,0.29,0.64,0.29,0.35,0.47c-0.06,0.06,0,0.17,0.11,0.29c0.35,0.06,0.82,0.24,0.76,0.18
		c0.29,0.18,0.29,0.06,0.64,0.18h0.12c0.23,0,0.23-0.23,0.23-0.12c0.06,0,0.18,0,0.29,0.06l0.23-0.12c0.18-0.12,1.29-0.29,1.46-0.35
		c0.24-0.06,0.88,0.12,0.76,0.12c0.12,0,0.18-0.18,0.23-0.23c0.12,0,0.35,0.17,0.53,0.06c0.06,0,0.23-0.06,0.35-0.12
		c0.18,0,0.18,0.06,0.18,0.06s0.06-0.06,0.23-0.12c0.24,0,0.35,0.06,0.59-0.06c0.12,0,0.18-0.06,0.23-0.06
		c0.06,0,0.23,0.06,0.35,0.06c0.23-0.06,0.47-0.23,0.53-0.29c0.17-0.06,0.23,0.12,0.41,0.06c0.29,0,0.29-0.12,0.81-0.64
		c0,0.06,0,0.06,0.12,0.06c0.12,0,0.7-0.29,0.99-0.29c0.06,0,0,0.12,0.18,0.12v-0.17c0-0.12,0.06-0.18,0.06-0.18
		c-0.06,0,0.52-1.05,0.47-1.05c0.12,0-0.11-0.35-0.06-0.35c0.29-0.12,0.23-0.47,0.35-0.99c0.99-0.12,0,0,0.82-0.35
		c0.41,0.12,0.58,0.35,1.17,0.35c0.06,0,0.12,0,0.23,0.06c0.53,0.93,1.64,1.29,1.52,3.04c0,0.41-0.47,0.53-0.82,1.63
		c0,0.18-1.29,1.52-1.35,1.58c-0.7,0.53-1.28,2.57-1.11,2.45c-0.47,0.35-0.41,0.88-0.88,1.64c0,0.06-0.06,0.7-0.06,0.76
		c0,0.35-0.35,0.64-0.35,0.93v0.29c0,0-0.18,0.35-0.53,0.64c0.12,0.12,0.12,0.29,0.12,0.41c0,0.24-0.06,0.47-0.35,0.59
		c0.12,0.06,0,1.64,0,1.87c0,0.29-0.18,0.7-0.18,0.93c-0.18,0.41-0.35,1.11,0.59,1.11c0.29,0,0.82,0.06,0.88-0.29V349
		c0.41,0.18,0.59-0.12,1.17-0.47c0.18-0.12,0.52-0.18,0.7-0.35c0.53-0.23,0.35,0,1.35-0.7c1.05-1.23,1.57-1.23,1.87-1.58
		c0.47-0.41,1.23-0.76,1.28-1.52v-0.18c0.64,0,1.75-1.34,1.87-1.81c0-0.29,0.82-0.58,0.88-0.93c0-0.06-0.06-0.12-0.06-0.18
		c0.06-0.29,0.88-0.88,0.88-1.17c0-0.06-0.06-0.12-0.06-0.18c1.28-0.53,0.59-1.17,1.23-1.69v-0.29c0.06-1.29,0.76-1.52,1.93-1.34
		c0.23,0,0.59,0.12,0.88,0.17c-0.06,0.06-0.06,0.12-0.06,0.18c0,0.23,0.47,0.23,0.47,0.59v0.06c0,0.41,0.7,0.29,0.64,0.64
		c0,0.29-0.23,0.17-0.29,0.41c0.18,0.12,0.29,0.35,0.23,0.64c-0.06,1.05-0.82,0.47-0.94,0.99c0,0.35,0.41,0.59,0.41,0.7
		c0,0.12-0.17,0.18-0.17,0.23c0,0.12,0.11,0.12,0.11,0.24c0,0.29-0.18,0.47-0.52,0.64c0.06,0.29,0.11,0.47,0.11,0.7
		c-0.06,0.18-0.29,0.12-0.29,0.24c0,0.06,0.11,0.23,0.11,0.41c0,0.06-0.06,0.12-0.11,0.23c0,0.12-0.29,0.18-0.29,0.35
		c0,0.18,0.12,0.76,0.12,1.05v0.53c0,0.18,0,0.41,0.18,0.53c-0.18,0.53-0.41,1.05-0.41,1.52c0,0.18,0.06,0.35,0.23,0.41
		c-0.12,0.18-0.18,0.47-0.18,0.64c0,0.59,0.41,1.05,0.64,1.52c0.7-0.12,1.52,0,1.99-0.29c0.11-0.12,1.4-0.64,1.28-0.64
		c1.28-0.41,0.52-0.23,1.87-1.05c0.93-0.59,1.81-1.17,2.75-2.11c0.06,0,0.12,0.06,0.23,0.06c0.12,0,0.18-0.18,0.23-0.29
		c0.64-0.35,0.64,0.12,1.29-0.88h0.23c0.29,0,0-0.7,0.35-0.7c0.18,0,0.23,0,0.23,0.18c1.06-0.7,2.11-1.93,2.45-1.93
		c0.35-0.23,0.59-0.64,0.88-0.99c0.11-0.18,1.22-0.82,1.17-0.82h0.12c-0.06-0.12-0.06-0.18-0.06-0.24c0-0.23,1.52-1.69,2.22-2.1
		v-0.17c0-0.35,0.53,0.17,0.53-0.12c0,0,0.52,0.18,0.52,0.12c-0.23,0.17-0.23,1.05-0.47,1.17c-0.23,0.18-0.23-0.06-0.35,0.06
		c-0.06,0-0.11,0.12-0.18,0.18c-0.11,0.12,0.12,0.41-0.35,0.7c-0.23,0.23-0.7,0.23-0.59,0.29c0,0.06-0.82,1.28-1.23,1.75
		c-0.53,0.7-1.69,1.4-1.64,1.4c-0.47,0-0.82,0.82-0.99,1.28c-0.23,0.06-0.93,0.47-0.88,0.47c0,0-0.06,0-0.06-0.06
		c-0.53,0.64-0.82,0.64-1.35,1.23v0.12c0,0.29-0.58,0.24-0.58,0.35v0.12c-0.18,0.29-0.99,0.41-0.99,0.93
		c-0.12,0.35-0.88,0.58-0.99,0.7c-1.23,0.58-2.51,1.87-2.34,1.69c-0.12,0.12-0.18,0.18-0.18,0.23c-0.06,0-0.53,0.23-0.82,0.23
		c-0.12,0-0.23,0-0.29-0.06c-0.82,0.7-1.52,0.88-2.05,1.34h-0.18c0,0-0.64,0.47-1.81,0.47c-0.52,0-0.23-0.35-0.59-0.35
		c-0.11,0-0.23,0.06-0.41,0.06c0.06,0-0.99-0.64-0.99-0.64v-0.23c0-0.29-0.7-0.41-0.65-0.47h-0.11v-0.29c0-0.06-0.29-0.06-0.29-0.18
		v-0.23c0-0.12-0.23-0.12-0.23-0.18c-0.11-0.12-0.29-1.05-0.29-0.88l-0.06-0.06c0-0.06,0.06-0.06,0.06-0.12
		c-0.06,0-0.35-0.99-0.47-1.52c0-0.29,0.18-0.41,0.18-0.7c0-0.35-0.24-0.59-0.24-0.94c0-0.29,0.29-0.64,0.29-0.93v-0.64
		C282.79,344.45,283.02,344.45,283.08,343.92z M258.66,337.61c-0.35-0.17-0.7-0.47-1.17-0.41c0,0-2.1-0.82-2.1-0.88
		c0-0.47-0.7-0.53-0.82-0.59c-0.18,0.06-0.35-0.12-0.59-0.12c-0.06,0-0.23-0.06-0.41-0.17c-0.11,0-0.23-0.06-0.29-0.06
		c-0.18,0.12-0.41,0.12-0.64,0.12c-0.29-0.29-0.59-0.41-0.88-0.41c-0.35,0-1.23,2.1-1.29,2.1c-0.06,0.06-0.29,0.24-0.23,0.29
		c-0.52,0.18-0.23,0.53-0.76,0.76c0,0.47-0.24,0.7-0.24,0.88c0,0-1.28,3.15-2.34,4.09c0,0.35,0.06,0.59,0.18,0.82
		c-0.47,0.12-0.82,1.23-0.82,1.11c0,0.41,0.06,0.53,0.06,0.82c0,0.53-0.23,0.35-0.23,0.88c0-0.12,0.47,3.62,1.35,3.62
		c0.52,0,0.82-0.47,0.88-0.47c0.18,0,0.11,0.06,0.29,0.06c0.88,0,0.59-0.53,1.28-0.53c0.12,0,0.29,0.23,0.7,0.23v-0.29
		c0-1.05,1.46-1.05,1.75-1.29c1.4-0.99,1.64-2.4,3.68-3.39c0.23-0.29,0.29-0.59,0.29-0.93v-0.18c1.11-0.59,1.58-2.1,2.4-3.1
		c-0.23-0.18,0.18-0.82,0.18-1.34C258.89,338.6,258.6,338.08,258.66,337.61z"/>
	<path d="M304.32,353.04c-0.06,0-0.11,0.06-0.23,0c-0.06,0-0.7-0.53-1.23-0.53h-0.11c0-0.64-0.35-1.05-0.82-1.46
		c0-0.99-0.24-2.05-0.24-2.98c0-0.59,0.06-1.05,0.35-1.46c0-0.12-0.06-0.18-0.06-0.29c0-0.12,0.06-0.35,0.06-0.47
		c-0.06-0.18-0.11-0.06-0.11-0.18c0-0.06,0.11-0.06,0.11-0.06c0-0.17-0.06-0.76-0.06-1.17c0-0.23,0-0.41,0.11-0.41h0.12
		c0-0.06-0.06-0.17-0.06-0.29c0-0.76,0.29-0.53,0.29-1.05c0-0.23,0.18-1.63,0-1.87c0.18,0,0.29-1.11,0.41-1.11
		c0.23-0.82,0.47-1.58,0.59-2.45c0.29,0,0.41-0.12,0.41-0.29v-0.12c0-0.06,0.18-0.06,0.18-0.23c0-0.18-0.12-0.23-0.18-0.29
		c0.23-0.06,0.35-1.05,0.52-1.52c0-0.06-0.06-0.12-0.06-0.17c0-0.24,0.35-0.41,0.35-0.64c0-0.18-0.06-0.29-0.06-0.47
		c0-0.23,0.17-0.12,0.17-0.29c0-0.06-0.06-0.18-0.06-0.29c0-0.12,0.06-0.17,0.06-0.17c0.12-0.12,0.18-0.76,0.59-1.17v-0.23
		c0-0.82,0.82-2.4,0.82-2.34c0,0,0.06-0.06,0.06-0.12c0-0.24-0.06-0.41-0.06-0.59c0-0.35,0.12,0.12,0.47-1.28
		c0-0.12,0.12-0.41,0.29-0.59c0.06,0,0.06-0.12,0.11-0.12c0.06-0.23,0.24-1.46,0.29-1.4c0-0.35,0.52-0.88,0.59-1.17
		c0-0.76,0.82-2.92,1.28-3.21c-0.12,0-0.12-0.06-0.12-0.18c0-0.41,0.47-1.52,0.59-1.58v-0.12c0-0.76,0.99-1.52,0.99-1.58
		c0-0.12-0.18-0.06-0.18-0.18c0-0.35,0.7-1.17,0.7-1.11c0-0.64,0.35-0.99,0.35-1.52h0.06c0.29,0,0.18-0.47,0.35-0.47
		c0.12,0,0.29,0.06,0.41,0.06c0.18,0,0.29-0.18,0.29-0.18c0.06,0,0.12,0.12,0.41,0.12c0,0,0.23-0.12,0.29-0.12
		c0.41,0,0.76,0,0.88,0.47h0.23c0.18,0,0.41,0.06,0.47,0.12v0.18c0,0.47,0.35,0.82,0.35,1.28c0,0.41-0.06,1.4-0.64,1.87h-0.29v0.23
		c0,0.47-0.88-0.35-0.88,1.29c-0.7,0,0,1.34-1.23,1.58c-0.11,0.82-0.23,2.63-0.64,2.63h-0.06v0.29h-0.18l-0.06,0.06
		c0,0.06,0.06,0.18,0.06,0.18s-0.47,0.93-0.47,1.29v0.23c0,0.23-0.06,0.35-0.23,0.35c-0.23,0-0.29-0.06-0.29-0.29v-0.12
		c-0.93,0-0.7-0.06-1.05,0.88c0,0.12-0.23,0.17-0.23,0.23c-0.18,0.41-0.18,1.87-0.76,2.22v0.7c0,0.59-0.29,0.64-0.29,1.28v1.11
		c0,0.99-1.11-0.06-1.11,1.75v0.12c0,0.47-0.7,2.05-0.59,1.93h-0.12c-0.11,0-0.11,0.58-0.29,0.7v0.53c0,0.7-0.18,1.17-0.47,1.64
		v2.98c-0.35,0-0.64,0-0.88,0.18c0.11,0.53,0.29,1.4,0.29,1.99c0,0.29,0,0.7-0.12,0.99v0.24c0,0.06,0,0.06-0.11,0.06h-0.18
		c-0.06,0-0.06,0.06-0.06,0.12c0,0.18,0.06,0.29,0.06,0.35c0,0.29-0.35,0.64-0.47,0.82c0,0.47,0.52,0.76,0.76,0.94l-0.47,0.88
		c0.35,1.93,0.47,2.28,0.7,2.28c0.52,0.18,1.63,0.41,2.16-0.06c0.12-0.12,1.34-0.76,1.23-0.76c1.28-0.41,0.59-0.06,1.98-1.05
		c0.82-0.64,1.64-1.28,2.51-2.34c0.06-0.06,0.12,0,0.24,0.06c0.11,0,0.17-0.18,0.23-0.29c0.64-0.41,0.64,0.06,1.17-0.93h0.24
		c0.29,0-0.06-0.7,0.29-0.64c0.23-0.06,0.29-0.12,0.23,0.12c1.05-0.82,2.22-2.16,2.57-2.22c0.35-0.29,0.35-0.7,0.59-1.11
		c0.12-0.18,1.17-0.82,1.11-0.82h0.11c-0.06-0.12-0.06-0.18-0.06-0.23c0-0.23,1.4-1.87,2.05-2.28c0-0.06,0.06-0.18,0.06-0.18
		c-0.12-0.35,0.47,0.12,0.53-0.17c0,0,0.52,0.17,0.52,0.12c-0.29,0.17-0.23,1.34-0.47,1.46c-0.18,0.23-0.23,0-0.35,0.12
		c-0.06,0-0.06,0.12-0.11,0.18c-0.12,0.12,0.11,0.76-0.24,1.05c-0.29,0.23-0.76,0.23-0.64,0.29c0,0.06-0.7,1.46-1.11,1.93
		c-0.53,0.7-1.4,1.46-1.34,1.46c-0.47,0.06-0.82,0.59-0.94,1.05c-0.23,0-0.88,0.47-0.82,0.47c0,0-0.06,0-0.06-0.06
		c-0.47,0.7-0.94,0.82-1.46,1.52v0.12c0.06,0.29-0.53,0.18-0.47,0.29v0.12c-0.18,0.35-0.99,0.47-0.88,0.99
		c-0.23,0.35-0.93,0.59-1.05,0.7c-1.17,0.7-2.39,2.1-2.22,1.93c-0.12,0.12-0.18,0.17-0.18,0.23c-0.06,0-0.7,0.47-0.99,0.53
		c-0.12,0-0.23,0-0.29-0.06c-0.76,0.7-1.28,0.59-1.86,1.17h-0.18c0,0-0.59,0.17-1.76,0.23c-0.52,0.06-0.59,0-0.93,0
		C304.44,353.09,304.38,353.04,304.32,353.04z"/>
	<path d="M330.8,334.8c-0.59,0-1.11-0.41-1.23-0.93c-0.06-0.06-0.06-0.12-0.06-0.17c-0.35,0-0.41-0.35-0.76-0.35
		c-0.76,0-0.53,0.47-0.82,0.7c-0.47,0.12-1.46,1.05-1.4,1.58h-0.11c-0.41,0-0.18,0.41-0.59,0.41h-0.12
		c-0.11,0.06,0.06,1.81-0.59,1.58c0.06,1.34-1.63,0.59-1.46,1.87c-0.47,0.35-0.52,0.29-0.52,0.99c0,0.12,0,0.12,0.06,0.23
		c0,1.05-1.58,1.11-1.58,1.87c0,0.06,0.12,0.23,0.12,0.35c0.06,0.17-0.12,0.23-0.12,0.35c-0.35,0.47-0.17,1.64-0.52,2.22
		c-0.12,0.24-0.23,1.87-0.23,1.93c0,0.12,0.11,0.29,0.11,0.47c0.06,0.41-0.06,0.88-0.06,1.23c0.06,0.23,0.29,0.64,0.59,0.64
		c0.18,0,0.23-0.29,0.35-0.41c0.17-0.47,1.05-0.35,1.11-1.23c0.06-0.18,0.35-0.24,0.7-0.41c-0.06,0-0.11-0.06-0.11-0.12
		c-0.12-0.93,1.28-1.4,0.93-1.4l0.29-0.7c-0.06-0.06,0.58-0.76,0.76-0.76c0,0,0-0.18-0.06-0.23c-0.06-0.29,0.47-0.47,0.41-0.7v-0.18
		c0-0.06,0.23,0.06,0.23-0.06c-0.06-0.06-0.06-0.12-0.06-0.18c-0.06-0.12,0.11-0.12,0.18-0.18c0-0.06-0.06-0.17-0.06-0.17
		c0-0.18,0.29-0.18,0.29-0.24c0-0.12-0.06-0.29,0.23-0.29h0.12c-0.12-0.76,0.76-0.99,0.64-1.4c-0.12-0.76,1.23-0.99,1.17-1.58v-0.18
		l-0.06-0.06c0.12-0.06,0.18-0.47,0.23-0.76c0-0.06,0-0.12-0.06-0.23v-0.06c0.11-0.7,0.52-1.64,0.7-1.64h0.29
		c0.17,0,0.23-0.06,0.29-0.06c0.18,0,0.41,0.06,0.7,0.06h0.53c-0.06,0,1.4,0.64,1.52,1.05c0,0.18,0,0.35,0.06,0.41
		c0.06,0.47,0.53,0.58,0.53,0.82c0,0.12,0.06,0.23,0.06,0.35c0,0.29,0.12,0.29,0.18,0.59c0,0.29-0.23,0.47-0.11,0.99
		c0,0.24,0.17,0.64,0.23,0.99c0,0,0.11,0.06,0.11,0.12c0,0.18,0,0.59,0.06,1.11c0.06,0.06,0.06,0.12,0.06,0.12s-0.06,0-0.06,0.06
		c0.11,0.64,0.64,1.05,0.82,2.11c0.11,0.41,0.17,0.76,0.47,1.11c0,0.18,0.06,0.35,0.06,0.53c0.06,0.35,0.29,0.7,0.35,1.11
		c0.06,0.18,0.06,0.23-0.06,0.41c0.24,0.18,0.35,0.47,0.7,0.53c0.23,0.12,0.23,0.41,0.47,0.53c0.88,0.47,1.23,0.59,1.52,0.59
		c0.24,0,0.35-0.12,0.53-0.12c0.35,0,0.47,0.06,0.76,0.06c0.35,0,2.16-0.29,2.22-0.53c0.41,0.18,0.82,0.41,1.11,0.59
		c0,0.35-0.41,0.47-0.76,0.53c0.06,0.12,0.18,0.18,0.18,0.23c0.06,0.7-0.59,0.47-0.82,0.64v0.06c0,0.06-2.63,0.35-2.86,0.41
		c-0.06,0-0.11-0.06-0.18-0.06h-0.41c-0.59,0-3.04-0.41-3.27-1.4c-1.17-0.06-1.35-1.23-2.16-1.7l-0.11-0.23
		c-0.12-0.99-1.06-2.28-0.94-2.16c-0.12-0.41-0.41-1.28-0.47-1.63c0-0.06,0-0.12-0.06-0.47c0-0.23-0.12-0.23-0.12-0.41
		c0,0,0.06-0.06,0.06-0.12c0,0-0.11,0-0.11-0.06c-0.06-0.29-0.06-0.53-0.06-0.76c0-0.18-0.11-0.35-0.29-0.47
		c-0.7,0.17-1.05,1.11-1.46,1.81c-0.59,0.18-1.4,0.64-1.4,1.11c0.12,0.35,0.59,0.23,0.64,0.58c-0.18,0-0.11,0.35-0.11,0.41
		c-0.06,0.06-0.23,0.06-0.23,0.12v0.12c0,0.12-0.24,0.12-0.35,0.17c-0.7,0.64-1.05,1.52-1.69,1.99c0.18,0.93-0.59,0.59-0.41,1.46
		v0.18c-0.64,0.29-1.4,1.52-1.93,1.52c-0.12,0-0.18-0.12-0.41-0.18c-0.29,0-0.76,0.53-0.76,0.47c-0.35,0-1.23,0-1.17,0.23
		c0,0-0.29-0.12-0.41-0.12c-0.23,0-0.29,0.12-0.47,0.12c-0.18-0.06-0.29-0.23-0.47-0.23h-0.23c-0.94,0-1.58-1.4-1.58-1.4
		c0-0.06-0.06-0.12-0.06-0.23c-0.18-0.12-0.47-0.18-0.47-0.35c-0.06-0.35,0.17-0.58,0.11-0.93c-0.06-0.23-0.06-0.41-0.06-0.53
		c-0.06-0.17,0.06-0.23,0.06-0.35c0,0-0.18-0.06-0.18-0.18c-0.06-0.29,0.29-1.28,0.29-1.63v-0.06c-0.06-0.18,0.17-0.23,0.17-0.41
		v-0.18c-0.06-0.29,0.24-0.53,0.12-1.28c0-0.06-0.06-0.23-0.06-0.23c0.7-0.29,0.35-1.23,0.76-1.46c-0.06,0.12,0.35-1.4,0.7-1.46
		c0.06-0.06,0.06-0.12,0.06-0.12c-0.06-0.18-0.29-0.29-0.29-0.29c0-0.47,0.99-1.46,0.88-1.34c0.06-0.23,0.23-0.53,0.23-0.82h0.12
		c0.93,0,0.06-1.64,1.22-1.75c0,0-0.06-0.06-0.06-0.12c-0.06-0.18,0.29-0.18,0.29-0.53c0,0,0-0.12-0.06-0.18
		c0.18,0,0.18-0.12,0.41-0.12h0.12c0-0.06-0.06-0.12-0.06-0.12c0-0.12,0-0.18-0.06-0.29c0,0,0.18-0.41,0.35-0.41h0.18
		c0.11,0,0-0.41,0.11-0.59c0.82-0.53,0.06,0.18,1.17-1.58c-0.06-0.12,0.64-0.35,0.88-0.93c0.99-0.47,1.35-1.46,2.16-1.46
		c0.06,0,0.23,0.06,0.29,0.06c0-0.18,0.53-0.47,0.76-0.47c0.11,0,0.11,0.12,0.18,0.12c0-0.06,0.58-0.17,0.88-0.17
		c0.35,0,0.18,0.17,0.29,0.17h0.29c1.4,0.29,1.98,1.29,1.93,1.23c0,0.06-0.06,0.06-0.06,0.12c0.06,0.12,0.41,0.53,0.41,0.7
		c0.06,0.35-0.18,0.59-0.12,0.93c0,0.12,0,0.18,0.12,0.23c-0.65,0.18-0.94,0.88-0.99,0.88C330.98,334.8,330.92,334.8,330.8,334.8z
		 M338.63,352.04c-0.11,0-0.11-0.06-0.06-0.06L338.63,352.04z"/>
	<path d="M400.59,349.3c-0.18-0.41,0.23-0.35,0.18-0.82c-0.18-0.06-0.12-0.29-0.18-0.59c0,0-0.41-0.76-0.12-1.11h0.18
		c-0.06-0.24-0.29-0.35-0.35-0.53c-0.17-0.76,0.18-1.4,0.35-2.05c0.12-0.47,0.12-0.99,0.23-1.28c0-0.06,0.12,0,0.12-0.18
		c0-0.12,0.29-0.47,0.35-0.76c0.06-0.41-0.17-0.41-0.17-0.59c0,0.06,0.11-0.12,0.17-0.18c0-0.12,0.41-0.93,0.47-1.17
		c-0.29,0-0.53,0-0.53,0.23c0,0.35-0.41,0.06-0.64,0.35c-0.23,0.06-0.06,0.29-0.29,0.47c0,0.18-0.7,0.41-0.53,0.99
		c-1.05,0.12-0.7,1.52-1.69,1.63c-0.06,0.82-0.59,1.23-1.05,1.64c-0.29,0.23-0.41,0.47-0.7,0.47c0.17,0.64-0.35,0.7-0.41,1.17
		c-0.47,0.18-0.88,0.47-1.35,0.7v1.17c-0.18,0.18-0.29,0.64-0.82,0.76c-0.29,0-0.23,0.35-0.29,0.53c-0.12,0.12-0.59,0-0.53,0.35
		c-0.76,0.06-1.28,0.53-2.05,0.88c-0.11,0.06-0.58-0.23-0.58,0.23c-0.53-0.12-1.06-0.35-1.46-0.82c-0.29,0-0.29,0.23-0.65,0.17
		c-0.52-0.47-0.64-1.4-1.11-2.1c-0.23-0.35-0.23-0.99-0.35-1.64c-0.06-0.12-0.11-0.23-0.11-0.41c0-0.35,0.29-0.82,0.35-1.11
		c0-0.24-0.24-0.59-0.18-0.82c0,0.06,0.18-0.12,0.18-0.18c0,0-0.06-0.18,0-0.23c0.06-0.35,0.23-0.76,0.35-1.11
		c0.06-0.12,0.06-0.29,0.06-0.41v0.06c-0.06,0.12-0.94,1.17-1.4,1.11l-0.06,0.24c-0.23,0.93-1.57,1.23-1.57,1.23
		c0,0.06,0,0.18-0.06,0.24c0,0.12-0.53,0.06-0.64,0.47l-0.12,0.23c-0.23-0.06-0.29,0.24-0.59,0.18l-0.06-0.06
		c-0.35,1.11-1.93,1.4-2.51,1.87c-0.59,0.53-1.87,1.63-2.69,1.46c-0.7,0.47-3.8,1.28-3.56,1.28h-0.64
		c-0.12,0.06-0.24,0.29-0.41,0.29c-0.12,0-0.24-0.29-0.59-0.23c-0.06,0-0.18,0.12-0.18,0.17l0.12,0.12c-0.12,0-0.12,0.06-0.24,0.06
		c-0.11,0.06-0.23,0-0.35,0c-0.06,0.06-0.06,0.12-0.06,0.12c-0.17,0.06-0.41-0.23-0.93-0.18c-0.12,0.06-0.64,0.24-0.64,0.47
		c-0.47,0-0.88-0.47-1.69-0.35c-0.18,0-0.29,0-0.47,0.12c-0.35-0.41-1.17-0.76-1.28-0.76c-0.23,0-0.35,0.29-0.41,0.35
		c-0.41,0-0.23-0.7-0.52-0.64h-0.23c-0.06-0.29-2.45-0.59-2.63-1.87v-0.29c-0.59-0.35-0.94-0.76-1.11-1.64
		c0-0.47-0.76-0.23-0.7-0.93c-0.18-0.29-0.11-0.64-0.41-1.46c-0.29-0.99-0.52-0.35-0.82-2.92c-0.11-0.82,0.12-0.7,0.12-0.82
		c0-0.06-0.18-0.06-0.23-0.35c-0.12-1.23,0.35-3.15,0.52-4.38c0.23,0,0.53-2.51,0.53-2.69c0-0.29,0.35-0.7,0.64-1.17
		c0-0.06-0.18-0.17-0.23-0.17c0-0.35,0.35-0.18,0.52-0.47c0.06-0.23,0-0.59,0.06-0.93c0.17-0.18,0.7-0.29,0.64-0.53v-0.29
		c-0.06-0.47,1.52-2.34,1.57-2.51v-0.23c-0.06-0.29,0.82-1.34,1.17-1.34h0.29c0.41-1.34,1.46-2.69,2.57-2.86
		c-0.06-0.12-0.06-0.12-0.06-0.23c-0.11-0.64,1.29-0.76,1.35-1.4c1.34-0.17,1.69-0.82,2.05-1.81c2.22-1.87,2.28-0.99,3.68-1.52
		c0.06,0,0.29,0.06,0.35,0.06c0.12,0,0-0.23,0.12-0.23c0.23-0.06,0.41,0.12,0.41,0.12c0.7-0.18,0.23-0.41,1.17-0.53
		c1.17-0.12,3.63,0.23,3.39,0.23h0.47c0.11,0,0.11,0.12,0.11,0.12c0,0.06,0.06,0.12,0.06,0.12h0.06c0.12-0.06,0.23-0.06,0.35-0.06
		c0.06,0,0.23,0.12,0.52,0.17c0.47-0.23,0.59,0.59,1.58,0.47h0.18c0.58,0.64,0.47,1.58,2.1,1.58c0.52,0.99,1.69,1.58,1.81,2.63
		c0.12,0.53-0.52,0.59-0.52,1.11V324c0.29,2.34-0.53,2.86-1.17,5.08c0,0.35-0.52,0.47-0.7,0.53c-0.7,0.06-1.4-0.29-1.87-0.41
		c0-0.29,0.06-0.47,0-0.64c-0.06-0.58-0.29-1.11-0.35-1.81c0-0.18-0.06-0.41,0-0.64v-0.12c-0.06-0.41,0.35-0.29,0.29-0.64
		c0-0.06-0.06-0.29-0.06-0.35c0-0.18,0.41-0.18,0.35-0.29c0-0.29-0.41-0.35-0.41-0.47c0-0.06,0.18-0.35,0.12-0.59
		c-0.06-0.29-0.23-0.35-0.23-0.53s0.11-0.41,0.11-0.64c-0.11-1.11-1.28-1.93-2.1-2.45c-0.47,0.18-0.64,0.53-0.99,0.76
		c-0.35,0-0.59,0-0.99,0.06c-0.64,0.06-1.4-0.12-2.39,0c-0.23,0.06-1.52,0.93-1.46,0.7c-0.12,0-0.12-0.06-0.12-0.06
		c-0.06-0.12,0.06-0.18,0.06-0.35c-0.06-0.29-0.94,0.53-0.99,0.17c-0.64,0.53-0.7,2.4-1.35,2.4c-0.18,0.06-0.52,0-0.76,0h-0.18v0.18
		c0,0-1.17,0.53-1.35,0.7c-0.23,0.18-1.64,2.1-2.39,2.16c-0.7,0.58-0.29,1.81-1.52,1.93v0.29c0.12,0.59-0.29,2.22-1.22,2.28
		c-0.06,1.4-1.64,2.45-1.52,2.98v0.7c0.12,0.88-0.35,0.7-0.29,1.52c0,0.35,0.11,0.53,0.11,0.93c0.18,1.23-0.76,1.17-0.93,1.99
		c0.29,0.76,0.76,1.7,0.76,2.22c0.06,0.35-0.29,0.7-0.29,0.93c0.06,0.29,0.41,0.17,0.41,0.23c0.06,0.35-0.18,0.41-0.18,0.41
		c0.41,1.87,1.81,4.15,1.87,3.97v0.18c0.06,0.23,0.88,0.12,1.17,0.29c0.35,0.23,0.59,0.88,0.93,0.82c0.12,0,0.35-0.06,0.47-0.06
		c0.23,0.06,0.64,0.7,2.51,0.53c0.23-0.06,0.52-0.06,0.99-0.12c0.17,0,0.41-0.06,0.58-0.06c0.24,0,0.24-0.17,0.24-0.23
		c0.17,0,0.4,0.18,0.52,0.12c0.47-0.18,0.94-0.53,1.4-0.53h0.47c0.94,0.23,2.28-0.93,3.56-1.58c0.12-0.06,0.35,0.06,0.53,0
		c0.06-0.06,1.17-0.7,1.23-0.88c0.17-0.29,0.7-0.23,0.88-0.41c0-0.06,0.76-0.99,0.76-0.82v-0.18c0.29,0,2.52-0.93,2.93-2.4
		c0,0.06,0.06,0.06,0.11,0.06c0.82,0.24,0.99-1.99,2.45-2.28c0-0.12,0-0.24,0.06-0.41c0.12-0.53,1.46-0.76,1.64-1.34
		c0-0.06,0.12-0.06,0.29-0.06v-0.06c0.06-0.29,0.35-0.41,0.35-0.59c0,0,0.12-0.41,0.18-0.47l0.29-0.17
		c0.12-0.18,0.06-0.41,0.18-0.64c0.06-0.12,0.47-0.06,0.53-0.18c0.06-0.12,0.06-0.35,0.11-0.41c0.24-0.23,0.47-0.47,0.82-0.59
		c-0.11-0.47,0.18-0.47,0.12-0.99c0.52,0.06,0.35-0.53,0.99-0.53c0.11-0.12,0.11-0.53,0.23-0.76c0.47,0,0.64-0.23,0.76-0.53
		c1.76-0.17,2.69-0.47,4.15,0c0.18-0.06,1.35,0.47,1.52,0.24c0.11,0.17,0.99,0.17,1.28,0.35c-0.06,0.35,0.59-0.18,0.64,0.18
		c0.06,0.17,0.23,0.41,0.47,0.47c0,0,0.23-0.06,0.29,0c0.11,0.06,0.11,0.41,0.23,0.47c0.59,0,0.64,0,0.88-0.24
		c0,0,0.41-0.12,0.41-0.17c0,0-0.06-0.18,0-0.24c0.18-0.29,0.47-0.7,0.64-1.05c0.12-0.06,0.18,0.12,0.18-0.17v-0.18
		c0.11-0.35,0-0.23,0.23-0.82c0.53,0.06,0.82-0.23,1.23-0.29c0.23,0,0.23,0.12,0.47,0.18c0.29,0.06,0.64,0,0.82,0.12
		c0.12,0.18,0.29,0.41,0.59,0.64c0.11,0.06,0.29-0.06,0.35,0c0.06,0.18,0.23,0.53,0.58,0.7c-0.11,0.88-0.64,1.46-0.76,2.22
		c-0.18,0.12-0.35,0.24-0.53,0.24c-0.06,0.76-0.88,1.17-0.47,1.81c-0.35,0.18-0.41,0.53-0.99,0.35c-0.06,0.24,0,0.41-0.18,0.64
		c-0.06,0.06-0.29,0.17-0.29,0.23c-0.06,0.35,0,0.76,0,1.05c-0.06,0.18-0.47,0.47,0,0.53c-0.41,0.35-0.64,0.76-0.53,1.52
		c-0.41,0.23-0.52,0.76-0.76,0.99c0.06,0.47-0.18,0.99-0.23,1.34c-0.06,0.35-0.29,0.47-0.29,0.7c-0.06,0.29,0.12,0.53,0.18,0.88
		c0,0.12-0.06,0.29,0,0.47c0.06,0.23-0.06,0.76,0,1.28c0,0.18-0.06,0.93,0.06,0.99c0.06,0.47,0.35,0.29,0.47,0.82
		c0.06,0.17,0.35,0.17,0.52,0.29c0.59,0,1.35-0.35,1.69-0.58c1.46-0.53,3.1-1.75,3.1-1.64c0.82-1.05,1.4-0.59,1.64-1.46
		c0-0.06,0.06-0.12,0.06-0.12c0.64-0.12,0.7-0.41,1.46-0.93h0.18c0.18,0.06,0.29-0.35,0.35-0.35c0.59-0.41,1.46-0.7,1.75-1.34
		c0.23-0.06,0.35-0.18,0.53-0.12h0.11c0.18-0.12,0.35-0.64,0.59-0.53c0.12,0,0.06-0.06,0.12-0.17c0-0.06,0.06-0.06,0.06,0v0.12
		c0.06-0.06,0.06-0.18,0.06-0.23v-0.12c0,0,0.06,0.06,0.12,0.06s0.41-0.53,0.53-0.64c0.06-0.06,0.35-0.23,0.47-0.41v-0.12
		c0.93-0.23,1.46-0.99,1.98-1.4c0.06,0,0.59-0.64,0.64-0.7c0.24-0.24,0.88-0.94,0.94-1.11v-0.29h0.06c0.23,0.12,0.64-0.82,0.88-0.59
		h0.12v-0.17c0.12,0,0.29,0.06,0.47,0.17c0.59,0.12,0.94,0.35,0.59,1.4c-1.05,0.82,0.23,0.88-0.76,0.93
		c-0.17,0.23-0.17,0.41-0.29,0.58c-0.12,0.18-0.82,0.41-1.17,0.76c-0.23,0.18-0.82,0.47-0.64,0.64c0.23,0.12-0.29,0.23-0.76,0.64
		c-0.06-0.06-0.12,0.29-0.24,0.23c-0.06-0.06-0.23-0.12-0.29-0.12V341c-0.29,0.23-0.7,0.7-1.34,1.17c-0.06,0.06-0.06,0.12-0.06,0.18
		c-0.06,0.18-0.64,0.23-0.76,0.7v0.06c-0.41,0-1.05,0.41-1.05,0.64l-0.12,0.06c0,0.12-0.18,0-0.18,0c-0.18-0.06-0.23,0.47-0.41,0.59
		c-0.23,0.17-0.64,0.06-0.88,0.47c0.06,0.18,0,0.23-0.06,0.18c0,0-0.06,0.06-0.12-0.06c-0.06,0.29-0.29,0.18-0.35,0.35v0.17
		c-0.52,0-0.64,0.47-0.99,0.64c-0.53,0.47-1.93,1.7-1.99,1.52c-0.11,0.23-0.52,0.29-0.64,0.7c0-0.06-0.18,0-0.18,0
		c-0.35-0.12-0.06,0.41-0.41,0.23l-0.06-0.12v0.12c0,0.12-0.18,0.23-0.18,0.29c-0.11,0.35-2.05,1.11-2.39,1.11
		c0,0.06-0.06,0.12-0.06,0.12c-0.18,0.35-0.23,0.35-0.35,0.7c0-0.06-0.06-0.12-0.06-0.12c-0.35-0.06-0.93,0.53-1.05,0.7
		c-0.06,0.06-0.18,0-0.23,0.12c0.06,0.12-0.06,0.06-0.18,0c-0.06-0.06,0,0.06-0.18-0.06c-0.35,0-1.34,0.41-1.81,0.29
		c-0.29-0.12-0.47-0.17-0.76-0.35c-0.11-0.35-0.52-0.29-0.7-0.35C401.7,350.17,401,349.88,400.59,349.3z M387.68,342.64h0.06H387.68
		z M399.95,335.62c-0.12-0.06-0.06-0.53-0.06-0.58c-0.29-0.06-0.58,0.06-0.82,0c0,0-0.06-0.18-0.11-0.24h-0.18
		c-0.11,0-0.06-0.17-0.11-0.17c-0.59-0.12-1.17-0.12-1.58-0.18c-0.47-0.06-0.47,0.29-0.76,0.35c-0.35,0.24-0.64,0.24-0.99,0.24
		c-0.35,0.76-1.22,0.93-1.28,1.81c-0.23,0.23-0.64,0.18-0.59,0.82c-0.29,0-0.23,0.35-0.35,0.59c-0.47,0.17-0.47,0.7-0.64,0.93
		c-0.35,0.47-0.59,0.64-0.76,1.17c-0.06,0.23,0.06,0.53-0.06,0.93c-0.59,0.35-0.29,1.23-0.64,1.58c-0.41,0.7-0.35,2.05-0.53,2.92
		c-0.35,0.12-0.18,0.47-0.18,0.76h-0.52c0.06,0.18,0,0.29-0.06,0.35c0.06,0.18,0.12,0.12,0.12,0.18c0.23,0.7,0.23,1.63,1.05,1.63
		c0.53-0.29,0.76-0.93,1.4-1.05c-0.18-0.7,0.35-0.76,0.52-0.88c0.18-0.18,0-0.47,0.18-0.41c0.41-0.18,0.64-0.29,1.17-0.35
		c-0.35-0.35,0.23-0.53,0.35-0.76c0.06,0,0-0.12,0-0.12c0.06-0.23,0.11-0.12,0.11-0.18c0.06-0.12,0.06-0.47,0.29-0.64
		c0.4-0.53,1.05-0.76,1.46-1.23c0.06-0.06,0-0.29,0-0.41c0-0.06,0.29-0.12,0.35-0.17c0.12-0.18,0.06-0.47,0.18-0.7
		c0-0.06,0.12-0.12,0.18-0.23c0.18-0.18,0.59-0.35,0.64-0.47v-0.59c0.23-0.29,0.88-0.58,0.94-0.76c0.11-0.17,0.11-0.41,0.17-0.58
		c0.12-0.12,0.41-0.12,0.47-0.18c0.17-0.06,0.17-0.35,0.52-0.23c0.06-0.59,0.35-0.99,0.59-1.4c0.47-0.35,0.7-0.59,0.88-1.28
		c-0.35,0-0.52-0.35-0.88-0.47C400.36,335.51,400.06,335.62,399.95,335.62z"/>
	<path d="M423.82,341.93c0.06-0.35-0.18-0.29,0.11-0.41c0.29-0.12,1.17-1.17,1.4-1.23c0.12-0.35-0.23-0.58,0.47-0.58
		c0.18-0.35,0.94-0.82,1.58-0.88c0.06-0.41,0.7-1.05,1.23-1.11c0.52-0.59,1.34-0.88,1.75-1.64c0.64-0.12,0.88-0.64,1.35-0.82
		c0.06-0.23,0.18-0.23,0.35-0.29c0.24-0.18,0.59-0.41,0.76-0.76c0.18,0,0.18-0.12,0.23-0.12c0.35-0.24,0.59-0.47,0.88-0.64
		l0.76-0.35l1.05-0.7c0.06,0,0.23,0.06,0.23,0c0.18-0.06,0.35-0.23,0.53-0.41c0.23,0,0.41,0.12,0.7,0.06
		c0.18-0.06,0.18-0.29,0.23-0.35c0.18-0.06,0.41,0.06,0.53,0c0.35-0.12,0.64,0.7,0.88,0.41c0.29-0.12,0.35,0.35,0.59,0.53
		c0,0,0.23-0.06,0.29,0v0.06h0.23c0.06,0,0,0.12,0,0.12c0.35,0.35,0.53,0.88,1.06,0.93c-0.29,0.24,0.06,0.47,0.23,0.76
		c0.06,0.23,0.06,0.58,0.17,0.82c0.12,0.35-0.17,0.47-0.17,0.7c-0.18,0.53,0.06,1.05-0.23,1.4c-0.12,0.12-0.53,0.29-0.59,0.64
		c-0.88-0.06-0.94-0.06-1.69,0c0-0.23-0.47-0.12-0.65-0.23c-0.06,0,0-0.12,0-0.12c-0.11-0.18-0.35-0.41-0.52-0.47
		c0-0.76-0.35-1.17-0.64-1.46c-0.64-0.06-0.76-0.47-0.94-0.06c-0.59-0.06-0.76,0.29-0.99,0.64c-0.65-0.06-0.94,0.29-1.11,0.58h-0.82
		c-0.35,0.12,0.18,0.35,0,0.64c-0.41,0-0.82,0.53-1.17,0.29c-0.12,0,0,0.41-0.18,0.47c-0.47,0.12-0.82,0.58-1.17,0.88
		c-0.23,0.18-0.41,0.29-0.7,0.23c-0.18,0.53-0.7,0-0.7,0.53c-0.41,0.12-0.58,0.41-0.88,0.59c0.06,0.47-1.05,0.64-0.93,1.17
		c-0.41,0.06-1.11,0.88-1.4,1.17c-0.12,0.23-0.88,0.76-0.99,0.88c0,0.06-0.18,0.06-0.18,0.12c-0.35,0.29-0.64,0.82-0.76,0.93
		l-0.59,0.64c-0.23,0.24-0.35,0.47-0.59,0.76c-0.06,0-0.06,0.17-0.29,0.23c-0.06,0.29-0.12,0.47-0.23,0.59v0.06
		c0,0.06-0.18,0.53-0.18,0.59c-0.47,0.47-0.35,0.7-0.35,1.28c-0.23,0.12-0.23,0.47-0.53,0.53c0,0.88-0.41,1.29-0.52,1.99
		c-0.23,0.23-0.18-0.06-0.59,0c0.06,0.23-0.29,0.18-0.47,0.23c0,0.12-0.06,0.18-0.29,0.12c0.06,0-0.06-0.18-0.17-0.12
		c0,0.12-0.12,0.35-0.35,0.41c-0.47-0.35-0.99-0.64-1.28-1.23c-0.06-0.06-0.12,0.06-0.12-0.18c0-0.18,0-0.35-0.11-0.35l0.23-0.76
		c0-0.06,0.23-0.17,0.29-0.23c0,0-0.06-0.18,0-0.23c0.12-0.18,0-0.41,0.12-0.59c0.23-0.18,0.18-0.7,0.64-1.11
		c0-0.41,0-0.64,0.06-0.93l0.35-0.76c0-0.06,0.11,0,0.11-0.18v-0.35c0-0.06,0.23-0.06,0.23-0.12c0.06-0.18-0.06-0.29,0-0.35
		c0-0.06,0.18-0.06,0.18-0.18c0-0.29,0-0.41,0.06-0.59c0.06-0.17,0.23-0.35,0.35-0.58c0-0.24,0-0.41,0.18-0.7
		c0.06-0.12,0.06-0.35,0.12-0.41c0.06-0.06,0.41-0.29,0.41-0.47c0.06-0.35,0.41-0.82,0.58-1.11c-0.17-0.47,0.18-0.76-0.11-1.29
		c0.29,0,0.11-0.53,0.35-0.53c0-0.7,0.29-1.23,0.41-1.87c0.06-0.29,0-0.7,0.17-0.99c0-0.06-0.06-0.23,0-0.29
		c0.18-0.06-0.11-0.06,0-0.35l0.24-0.7v-0.23c0-0.24,0.23-0.29,0.23-0.41c0.11-0.29,0-0.64,0.17-0.99
		c-0.17-0.53-0.11-0.64,0.18-0.93c0-0.35,0.18-0.47-0.29-0.76l-0.12-0.35c0,0-0.17-0.41-0.17-0.47c0.23-0.06-0.06-0.12,0.17-0.18
		c0.35-0.17,0.12-0.35,0.64-0.47c0.06,0,0.18,0.06,0.24,0v-0.12c0.47-0.12,0.64-0.18,1.22,0c0.12,0,0.35,0.06,0.53,0.12
		c0.06,0.06,0.06,0.23,0.12,0.29c0.06,0,0.23-0.06,0.23,0c0.06,0.06,0.06,0.23,0.29,0.23c0.41,0.06,0.23,0.41,0.76,0.47
		c0.06,0.12,0,0.29,0,0.41c0.06,0.12,0.18,0.23,0.11,0.64c0,0-0.18,0.06-0.11,0.06c0.18,0.18,0,0.12,0,0.41c0,0,0.11,0,0.11,0.18
		c0,0-0.11,0.12-0.11,0.35c0,0.18-0.06,0.35-0.12,0.47c0,0.12-0.18,0.35-0.41,0.47c0,0.59,0,0.7-0.11,1.05c0,0.06,0.06,0.29,0,0.29
		c-0.29,0.12,0,0,0,0.47l-0.12,0.06v0.47c0.12,0.24-0.23,0.18-0.35,0.24c0.06,0.7-0.58,1.69-0.99,2.45c0,0.12-0.7,1.87-0.53,1.87
		C423.7,340.82,422.88,343.04,423.82,341.93z"/>
	<path d="M442.35,345.73c0-0.29,0.06-1.11,0.06-1.4l0.29-1.99c0.06-0.64,0.29-0.99,0.47-1.64V340c0-0.06,0.53-0.99,1.23-2.57
		c0-0.06-0.06-0.18-0.06-0.24c0-0.06,0.06-0.06,0.12-0.06h0.11c0-0.06-0.06-0.18,0-0.23c0-0.18,0.12-0.12,0.23-0.12
		c0-0.06-0.06-0.17-0.06-0.23c0-0.12,0.41-0.35,0.59-0.93c1.34-2.86,1.69-2.34,3.56-4.09c0.29-0.23,0.64-0.59,0.76-0.59
		c0.17,0,0.41-0.47,0.76-0.47c0.06-0.23,0.35-0.29,0.64-0.29h0.53c0.23,0,0.7,0,0.7-0.23c0.06,0,0.53,0.29,0.82,0.29
		c0.12,0,0.35-0.12,0.59-0.12c0.35,0,1.11,0.93,1.11,0.82h0.12c0.35,0,0.64,0.29,0.7,0.35c0.12,0,0.18-0.12,0.18-0.18
		c0.06,0,1.99,1.46,1.93,2.51c0,0.41-0.17,0.59-0.35,0.59c-0.06,0-0.12,0.76-0.23,0.7v0.18c0,0.29-0.18,0.35-0.24,0.64
		c0,0.06,0.06,0.12,0.06,0.18c-0.94,0-1.11,0.53-1.17,0.53c-0.11,0-0.18-0.06-0.23-0.06c-0.99,0.7-1.4,1.58-1.93,1.58
		c-0.06,0-0.12-0.06-0.18-0.06c-0.06,0.29-0.18,0.47-0.47,0.47h-0.12c-0.41,0.47-0.64,1.05-1.11,1.52
		c-0.35,0.29-1.11,0.18-1.17,0.76c0,0.06-0.06,0.17-0.06,0.23c-0.88,0-2.63,1.81-2.69,1.87v0.29h-0.12c0.06,0-0.52,0.17-0.59,0.35
		v0.23c0,0.24-0.64,0.18-0.7,0.7v0.18c-0.47,0.12-1.28-0.29-1.34,0c0,0.35,0.17,0.7,0.17,0.99c-0.06,0.06-0.23,0.29-0.23,0.47
		c0,0.35,0.47,0.17,0.41,0.64c0,0.23-0.06,0.41-0.23,0.59l0.53,0.7c-0.06,0.12,0.06,0.35,0.06,0.41c-0.06,0.24,0.29,0.24,0.29,0.53
		V349c0.35,0.7,1.58,0.93,2.63,0.93c2.4,0,2.34-1.4,3.92-1.64c0.35-0.12,0.47-0.47,0.7-0.82h0.12c0.93,0,0.82-0.99,1.75-0.99
		c0-0.06,0-0.06,0.06-0.12c0-0.29,0.35-0.24,0.35-0.53c-0.06-0.12,0.59-0.64,0.59-0.7c0.23-0.64,1.05-1.17,0.94-1.11
		c-0.06-0.06-0.06-0.12-0.06-0.17c0.06-0.24,0.59-1.58,1.35-1.64c0.7,0.06,0.52,0.99,0.18,1.99c0,0.18-0.24,0.53-0.06,0.53
		c-0.58,0.64-1.52,2.98-2.45,3.21c-1.34,1.11-1.86,1.4-1.93,1.93c0,0.06-0.88,0.53-0.88,0.59c-1.28,0.29-2.34,1.34-2.4,1.34
		c-0.52,0-1.28,0.47-1.81,0.47c-0.18,0-0.35-0.06-0.47-0.29c-0.11,0.12-0.29,0.29-0.35,0.47c-0.23-0.12-0.99-0.29-0.88-0.29
		c-0.12,0-0.18,0.12-0.29,0.12c-0.06,0-0.06-0.12-0.18-0.12h-0.11c-1.35-0.76-1.35,0.12-2.57-1.28c-0.17-0.23-0.52-0.23-0.52-0.47
		c0.06-0.12,0.11-0.24,0.11-0.35s-0.64-0.35-0.64-0.88c-0.35-0.23-0.17-0.99-0.7-1.17c-0.12-0.17,0.12-1.05-0.12-1.05
		C442.41,346.96,442.29,345.73,442.35,345.73z M450.99,332.99c-0.06,0-0.18-0.06-0.29-0.06c-0.64,0.59-1.23,1.64-2.05,2.51v0.35
		c-0.12,1.64-1.52,0.64-1.58,1.69c-0.06,0.29,0.06,0.47,0.06,0.82c-0.06,0.29-0.29,0.29-0.29,0.53c0,0.06,0.06,0.18,0.06,0.23
		c-0.35,0.12-1.23,1.52-1.23,1.7c0,0.06-0.06,0.58,0.18,0.58c1.05,0,2.34-2.4,3.8-2.63c0.17-0.35,0.35-0.64,0.47-1.11
		c0.11,0,0.18,0.06,0.23,0.06c1.11,0,0.88-1.28,2.1-1.28c0.06-0.06,0.06-0.06,0.06-0.18c0.12-1.58,1.76-0.76,1.87-2.28
		c0-0.41-0.06-1.52-0.7-1.52c-0.94,0-1.93,0.24-2.22,0.41C451.11,332.82,451.17,332.99,450.99,332.99z"/>
</g>
</svg>
