<?xml version="1.0" encoding="utf-8"?>
<!-- Generator: Adobe Illustrator 24.3.0, SVG Export Plug-In . SVG Version: 6.00 Build 0)  -->
<svg version="1.1" id="Layer_1" xmlns="http://www.w3.org/2000/svg" xmlns:xlink="http://www.w3.org/1999/xlink" x="0px" y="0px"
	 viewBox="0 0 504 504" style="enable-background:new 0 0 504 504;" xml:space="preserve">
<style type="text/css">
	.st0{fill:#FFFFFF;}
</style>
<g>
	<path class="st0" d="M326.09,300.13c0,46.91-29.26,64.31-67.92,64.31s-69.98-17.25-69.98-64.15s31.32-105.71,69.98-105.71
		S326.09,253.22,326.09,300.13z"/>
	<g>
		<path d="M323.61,299.82c-0.03,15.45-3.23,31.73-13.68,43.68c-8.95,10.22-21.79,15.7-34.85,17.84c-14.71,2.4-30.63,1.89-44.71-2.36
			c-12.97-3.91-24.48-11.64-31.48-23.66c-8.34-14.32-9.28-31.83-7.43-47.94c2.03-17.71,7.6-35.12,16.11-50.78
			c7.48-13.78,17.74-27.32,31.72-34.99c6.04-3.32,12.51-5.24,19.34-5.24c6.29,0,12.82,1.98,18.58,5.22
			c13.74,7.72,23.56,21.36,30.66,35.1c8.11,15.7,13.23,33.14,15.09,50.71C323.38,291.52,323.6,295.67,323.61,299.82
			c0,1.22,1.14,1.94,2.26,2.08c0.88,0.11,2.7-0.24,2.7-1.46c-0.03-18.26-3.99-36.56-10.89-53.43c-6.46-15.8-15.68-31.39-29.06-42.29
			c-5.81-4.73-12.48-8.59-19.77-10.49c-7.26-1.89-14.85-1.9-22.1,0.08c-15.51,4.23-27.71,16.27-36.68,29.1
			c-10.53,15.05-17.62,32.63-21.46,50.55c-3.68,17.17-4.73,36.15,1.29,52.92c5.02,14,15.21,25.12,28.65,31.47
			c14.32,6.76,30.66,8.54,46.33,7.73c14.78-0.76,29.88-4.4,41.84-13.49c12.2-9.27,18.77-23.52,20.92-38.44
			c0.65-4.54,0.92-9.12,0.93-13.7c0-1.22-1.14-1.94-2.26-2.08C325.43,298.25,323.61,298.6,323.61,299.82z"/>
	</g>
</g>
<g>
	<ellipse class="st0" cx="257.14" cy="310.43" rx="43.36" ry="41.61"/>
	<g>
		<path d="M298.87,309.3c-0.07,17.13-11.74,32.12-27.63,37.88c-16.12,5.84-35.2,1.6-46.69-11.3c-11.04-12.4-11.88-31.05-3.08-45.01
			c9.3-14.75,27.23-22.06,44.26-19.13c16.12,2.78,29.88,15.04,32.65,31.34C298.73,305.14,298.86,307.22,298.87,309.3
			c0,1.12,0.77,2.49,1.71,3.1c0.87,0.56,1.55,0.18,1.54-0.85c-0.08-18.63-12.47-35.69-29.85-42.14c-17.4-6.46-37.73-1.6-49.93,12.48
			c-5.76,6.65-9.35,15.11-10.03,23.88c-0.72,9.3,1.59,18.72,6.53,26.63c9.94,15.91,28.85,24.58,47.4,21.16
			c17.67-3.26,32.43-17.16,35.33-35.12c0.37-2.27,0.54-4.58,0.54-6.88c0-1.11-0.77-2.5-1.71-3.1
			C299.54,307.89,298.88,308.27,298.87,309.3z"/>
	</g>
</g>
<g>
	<path d="M93.66,223.38c0.07-0.15-0.1-0.29,0-0.49l0.05-0.1c0.57,0.22,1.75-1.15,1.57-1.06C95.55,221.56,97,221,97,221
		c0.1-0.2-0.1-0.29,0.03-0.54c0.02-0.05,2.02-0.34,2.51-0.46c0.05,0.15,0.05,0.15,0.1,0.17c0.29,0.15,0.66,0.03,0.91,0.15
		c0.15,0.07-0.02,0.17,0.12,0.25c0.52,0.2,1.23,0.37,1.82,0.54c0.1,0.05,0.17,0.15,0.37,0.25c0.69,0.35,1.57-0.56,1.67-0.51
		c0.54-0.47,1.4,0.03,1.89-0.47c0.93,0.47,1.67,0.35,2.56,0.79c0.39,0.2,1.33,0.79,1.75,1.18c0.1,0.05-0.07,0.15,0.17,0.27
		c0.71,0.42,2.09,1.97,2.19,2.02s0.2,0.1,0.42,0.15c-0.1,0.32,0.81,1.21,0.66,1.13c0.32,0.22,0.12,0.74,0.61,0.98
		c0.1,0.05,1.03,1.13,0.86,1.6c0.1,0.05,0.12,0,0.22,0.05c0.84,0.42,0.91,1.75,0.91,1.75l0.2,0.1c0.15,0.07-0.02,0.54,0.37,0.74
		l0.2,0.1c-0.12,0.25,0.15,0.32,0,0.61l-0.05,0.1c1.03,0.52,1.03,2.12,1.45,2.76c0.34,0.66,0.96,2.63,0.64,3.39
		c-0.07,0.27,0.15,0.44,0.39,0.57l-0.07,0.15c-0.17,0.34,0.37,0.86,0.2,1.21c-0.15,0.42,0.29,0.89-0.08,2.24l-0.1,0.2
		c-0.05,0.1,0.2,0.47,0.17,0.52c-0.07,0.52-0.39,1.28-0.74,1.97c-0.27,0.54-0.62,1.11-0.96,1.79l-0.02,0.05
		c-0.22,0.44-2.02,0.47-1.84,0.61l-0.1-0.05c-0.49,0.98-0.86,0.98-1.45,0.69l-0.07,0.15c-0.15,0.29-0.52-0.07-0.69,0.27l-0.07,0.15
		c-0.84-0.42-1.99-0.2-1.99-0.2s-1.16,0.1-1.06,0.15c-0.1-0.05-0.29-0.27-0.44-0.34c0.05,0.02-1.38-0.2-2.26-0.64
		c-0.15-0.07-0.39-0.32-0.54-0.39c-0.34-0.17-1.25-0.32-1.23-0.25c-0.12-0.12-0.32-0.59-0.42-0.64c-0.1-0.05-0.25,0-0.39-0.07
		c-0.3-0.15-0.84-0.79-1.03-0.89c-0.29-0.15-0.59-0.05-0.84-0.17c0.12-0.25-1.72-1.48-1.77-1.87l-0.29-0.15
		c-0.2-0.1-0.34-0.17-0.44,0.02c-0.2-0.47-0.76-1.18-1.11-1.35l-0.25-0.12c-0.74-0.37-1.47-1.85-1.42-1.82l-0.2-0.1
		c-0.27-0.57-0.56-0.96-1.11-1.23c-0.05-0.02-0.17-0.02-0.32-0.1c0.15-0.42-1.01-1.67-0.96-1.65c-0.59-0.3-0.29-0.89-0.74-1.11
		c-0.22-0.17-0.37-0.98-0.44-1.33l-0.05-0.02c-1.23-0.62-0.64-2.29-1.67-2.81l-0.1-0.05c0.07-0.76-0.07-1.33-0.61-1.72
		c0.34-0.69-0.32-0.96,0.03-1.65c0.02-0.05,0.05-0.1,0.15-0.05c0-0.12-0.2-0.22-0.29-0.27l-0.29-0.15c0.07-0.02,0.1-0.07,0.12-0.12
		c0.12-0.25-0.44-1.08-0.15-1.67l0.15-0.29c0.2-0.39,0.07-0.52,0.27-0.91c0.22-0.44,0.62-0.98,1.06-1.01
		C93.56,223.58,93.63,223.43,93.66,223.38z M96.14,226.41l-0.1,0.2c-0.07,0.15,0.17,0.27,0.12,0.37l-0.1,0.2
		c-0.12,0.25,0.17,0.39,0.07,0.59l-0.05,0.1l0.1,0.05c0.54,0.27,0.93,2.07,0.91,2.36c0,0-0.37,0.12-0.44,0.27
		c-0.02,0.05,0.2,0.22,0.15,0.32c-0.07,0.15-0.32,0.27-0.42,0.47c-0.15,0.29-0.25,0.49,0.1,0.66c0.05,0.02,0.22,0.05,0.27,0.07
		c0.25,0.12,0.17,0.39,0.61,0.62c0.29,0.15-0.07,0.27,0.17,0.39c0.07-0.02,0.2-0.02,0.25,0c0.15,0.07,0.22,0.17,0.42,0.27
		c0,0,0.15,0.07,0.29,0.02c-0.12,0.49,0.34,0.66,0.61,0.86l-0.1,0.2c-0.52,1.03,2.04,2.81,2.31,3.13c-0.17,0.22-0.52,0.54-0.67,0.84
		c-0.22,0.44,0.86,1.11,1.5,1.43l0.34,0.17c-0.07,0.15,0.17,0.27,0.32,0.34c0.25,0.37-0.07,0.89,0.47,1.16
		c0.1,0.05,0.25-0.12,0.54,0.03c0.15,0.07-0.12,0.37,0.52,0.69c0.2,0.1,0.47,0.17,0.71,0.3c0.39,0.2,0.2,0.34,0.49,0.49l0.39,0.2
		c0.2,0.1,0.12,0.25,0.37,0.37l0.39,0.2c0.34,0.17,0.86,0.86,1.6,1.23c1.57,0.79,3.12,1.13,4.75,1.46c0.34-0.32,0.86-0.49,1.25-0.54
		c1.01,0.07,0.54-0.22,0.98-0.25c0.05-0.1,0.34,0.17,0.47,0.05l0.52-1.03c0.54,0.03,0.79-0.71,1.18-1.01
		c-0.27-0.81,0.27-1.89,0.42-2.19c-0.47-0.3,0.05-0.96-0.29-1.25l0.07-0.15c0.42-0.84-0.59-2.63-0.96-3.99
		c-0.05-0.15,0.1-0.32,0.08-0.52c-0.03-0.07-0.47-1.28-0.61-1.35c-0.27-0.2-0.1-0.66-0.22-0.91c-0.05-0.02-0.66-0.76-0.69-0.84
		l-0.15-0.07c0.03-0.3-0.56-2.68-1.84-3.32c0.05,0.02,0.07-0.02,0.1-0.07c0.37-0.74-1.75-1.31-1.77-2.73
		c-0.1-0.05-0.27-0.07-0.42-0.15c-0.44-0.22-0.74-0.86-1.23-1.11l-0.49-0.25c-0.39-0.2-0.34-0.3-0.71-0.54
		c-0.74-0.37-1.21-0.42-1.35-0.49l-0.34-0.17c-0.2-0.1-0.42,0.22-0.66,0.1l-0.34-0.17c-0.1-0.05-0.15-0.07-0.17-0.02
		c-0.3,0.59,0.54,1.62,0.54,1.62c-0.02,0.05,0.74,1.72,0.76,2.04c0.66,0.39,0.56,1.08,0.83,1.53c-0.32,0.39-1.18-0.22-1.38,0.17
		c-0.1,0.2,0.2,0.34,0.17,0.39c-0.02,0.05-0.02,0.05-0.15,0.05c-0.69-0.47-1.33-0.79-1.08-1.53c-0.59-0.3-0.69-0.22-1.11-0.86
		c-0.29-0.52-0.17-0.52-0.52-0.81c-0.25-0.12-0.29-0.27-0.39-0.32c-0.1-0.05-0.2,0.02-0.29-0.02c-0.15-0.07-0.34-0.42-0.59-0.54
		l-0.39-0.2c-0.25-0.12-0.49-0.25-0.62-0.49c-0.27,0.29-0.37,0.25-0.37,0.25c-0.05,0.1-0.05,0.1-0.02,0.17
		c-0.29-0.15-1.08,0.93-1.77,0.59c-0.25-0.25,0-0.74-0.42-1.01c0.02-0.05,0.12-0.12,0.15-0.17c0.15-0.29,0.15-0.54-0.15-0.69
		l-0.15-0.07c-0.39-0.2-0.42,0.34-0.76,0.17c-0.05-0.02-0.07-0.1-0.12-0.12c-0.29-0.15-0.39,0.17-0.74,0l-0.15-0.07
		c-0.52,0.54-0.86,1.48-1.35,1.97C95.99,225.72,96.16,226.36,96.14,226.41z M97.85,234.65c0.15-0.3,0-0.62-0.29-0.76
		c-0.15-0.07-0.37-0.12-0.47,0.07c0.22,0.17,0.17,0.64,0.42,0.76c0.05,0.02,0.17,0.02,0.29,0.02L97.85,234.65z M98.59,234.77
		c0.1-0.2-0.05-0.27-0.15-0.32c-0.2-0.1-0.29-0.15-0.39,0.05s0.29,0.27,0.44,0.34C98.57,234.82,98.59,234.77,98.59,234.77z"/>
	<path d="M127.06,202.27c-0.34,0.3-0.7,0.52-0.92,0.83c-0.66,0.95,0.37,1.4-0.04,1.98c0.15,0.17,0.33,0.3,0.34,0.57
		c0.06,0.11-0.25,0.36,0.06,0.78l-0.06,0.09c-0.44,0.63,0.22,0.55,0.44,0.91c-0.01,0.4-0.04,0.64,0.35,0.85
		c-0.07,0.49-0.13,1.05,0.2,1.15l0.09,0.06c-0.03,0.04-0.11,0.06-0.11,0.06c-0.41,0.59,0.46,0.79,0.5,0.82
		c-0.02,0.12-0.24,0.44,0.06,0.58c0.04,0.03,0.12,0.02,0.2,0c0.09,0.06,0.07,0.19-0.02,0.32l-0.09,0.14
		c0.64,0.24,0.13,0.49,0.59,0.88l-0.13,0.18c-0.09,0.14-0.04,0.64-0.04,0.64c0.58,0.13,0.95,1.33,1.08,1.43
		c-0.08,0.21,0,0.47,0.09,0.54l0.12,0.02c0,0.2,0.07,0.38-0.01,0.59l0.14,0.09c0.26,0.11,0.1,0.34,0.36,0.45
		c0.04,0.03,0.15-0.03,0.2,0c-0.04,0.24-0.16,0.42,0.23,0.63c0.42,0.16,0.19,0.2,0.6,0.29c0.27,0.19,0.61,1.63,0.62,2.38
		c0.12,0.02,0.21,0.08,0.21,0.08c0.5,0.15,1.12,1.38,0.99,1.76l-0.19,0.27c-0.19,0.27-0.44,0.43-0.56,0.61
		c-0.16,0.23,0.05,0.31,0.13,0.49c-0.14,0.1-0.23,0.24-0.3,0.33c-0.16,0.23-0.25,0.36-0.36,0.62c-0.54,0.1-1,0.38-1.45,0.73
		c-0.65-0.12-1.47,0.18-2.07,0.37l-0.29-0.07c-0.46-0.12-0.94-0.19-1.46-0.21c-0.44-0.24-0.72-0.5-1.42-0.66
		c-0.08,0.01-0.49-0.07-0.55,0.02c-0.12-0.02-0.13-0.29-0.34-0.37c-0.45-0.31-1.18-0.42-1.86-0.7c-0.04-0.03-0.91-0.43-0.87-0.67
		c-0.15,0.03-0.32-0.02-0.49-0.07c-0.32-0.02-0.62-0.36-1.12-0.51l-0.38-0.13c0,0,0.09-0.14,0.02-0.12c-0.09-0.06-0.2,0-0.26,0.09
		l-0.03,0.04c-0.32-0.22-0.11-0.41-0.64-0.52l-0.35-0.17c-0.49-0.07-0.45-0.51-0.61-0.56c-0.04-0.03-0.43,0.04-0.59-0.01
		c-0.2,0-0.36-0.45-0.66-0.59c-0.2,0-0.34,0.1-0.38,0.07c-0.08,0.01-0.04-0.03-0.21-0.08c-0.3-0.14-0.62-0.17-0.83-0.25
		c-1.91-0.53-1.73-1.94-1.79-1.85c-0.12-0.02-0.2,0-0.24-0.04c-0.47-0.19-0.55-0.65-0.88-0.75l-0.2,0
		c-0.14-0.09,0.02-0.32-0.13-0.29c-0.11,0.06-0.29,0.13-0.49,0.13c-0.3-0.14-0.2-0.87-0.24-0.91l0.03-0.04
		c0.03-0.04,0.12,0.02,0.12,0.02c0.16-0.23,0.24-0.44,0.4-0.66c0.41-0.59,1.04-0.62,1.13-0.75c0.29-0.13,0.54-0.49,0.82-0.7
		c0.26-0.09,0.54-0.1,0.85-0.35l0.09,0.06c0.2,0,0.31-0.05,0.4,0.01c0.09,0.06,0.12,0.02,0.04,0.23c0.32,0.02,0.57-0.34,0.74-0.29
		c0,0-0.06,0.09,0.03,0.15c0.05,0.03,0.13-0.18,0.25-0.16c0.38,0.13,0.25,0.51,0.78,0.61c0.11,0.41-0.22,0.51-0.12,0.85l0.26,0.11
		c0.7,0.15,0.6,0.68,1.26,0.88c0.04,0.23-0.2,0.67,0.21,0.75c0.09,0.06,0.09,0.06,0.17,0.05c-0.41,0.59,0.53,0.77,0.18,1.67
		c0.67,0.2,1.63,0.06,1.29,0.56l0.18-0.07c0.06,0.11,0.29,0.07,0.38,0.13c0.46,0.12-0.1,0.53,0.19,0.6c0.06,0.11,0.2,0,0.32,0.02
		c0.12,0.02-0.07,0.29,0.01,0.27c0.12,0.02,0.26-0.09,0.43-0.04c0.1,0.14,0.09,0.26,0.23,0.16c0.09,0.06,0.18,0.13,0.4,0.01
		c-0.11,0.26,0.22,0.16,0.07,0.38c0.32,0.02,0.49-0.13,0.78-0.06c0.24,0.23,0.29,0.54,0.78,0.61c0.17,0.05,0.38,0.13,0.68,0.08
		c-0.19,0.27-0.02,0.32,0.25,0.51l1.4,0.11c0.09,0.06,0.12,0.22,0.21,0.28c0.03-0.04,0.14-0.1,0.14-0.1
		c0.14,0.09-0.02,0.12,0.12,0.22c0.28-0.01,0.81-0.1,1.04-0.15c0.23,0.16,0.5,0.15,0.71,0.23c0.46,0.12,1.71,0.52,2.03,0.07
		c0.57-0.81-0.84-0.72-0.37-1.4c-0.13-0.09-0.1-0.34-0.36-0.45l-0.14,0.1c0.16-0.23-0.13-0.29,0-0.47l0.09-0.14
		c-0.09-0.06-0.65-0.32-0.55-0.45l0.09-0.14c0.13-0.18-0.33-0.3-0.38-0.33c0.14-0.3,0-0.47,0.02-0.79c-0.14,0.1-0.14,0.1-0.23,0.04
		c-0.35-0.18-0.41-0.76-0.53-0.77l-0.01-0.08c-0.15,0.03,0.08-0.01-0.09-0.06l-0.09-0.06c-0.06-0.11-0.32-0.69-0.32-0.69
		c0.06-0.09,0.18-0.07,0.25-0.16c-0.17-0.05-0.65-1.19-0.68-1.14c0.22-0.32-0.22-0.36,0.06-0.76c-0.08,0.01-0.08,0.01-0.12-0.02
		c-0.41-0.08-0.5-0.62-0.36-1.12l-0.09-0.06c-0.73-0.31-0.03-1.3-0.38-1.47l-0.37-0.05c-0.8-0.29-0.16-1.32-0.61-1.43
		c-0.04-0.03-0.11,0.06-0.2,0c0.32-0.65-0.8-2.03-0.5-2.56c-0.68-0.47-0.17-1.39-1-1.64c-0.05-0.31,0.23-0.71-0.24-0.91l-0.12-0.02
		c0.09-0.14,0.31-0.45,0.21-0.59c-0.42-0.16,0.05-0.17-0.15-0.84c-0.03-0.15-0.05-0.7-0.2-0.87c0.05,0.03,0.08-0.01,0.11-0.06
		c0.03-0.04,0.09-0.14,0.05-0.17c-0.2-0.48,0.14-2.12,1.03-2.43c0.71-0.24,1.99,0.51,2.14,0.29c1.09-0.31,1.67-0.38,2.74-0.57
		c0.31-0.45,1.3-0.23,1.13,0.12c-0.02,0.12,0.49-0.13,0.44,0.04c0.01,0.08-0.05,0.17,0.14,0.37c-0.19,0.27-0.23,1.58-0.98,1.4
		C128.67,201.51,127.76,202.42,127.06,202.27z"/>
	<path d="M145.32,192.94c-0.16-0.15-0.28-0.26-0.44-0.18c-0.21-0.34-0.19-0.77-0.39-1.04c-0.04-0.04,0.01,0.16-0.23,0.09
		c-0.05,0.7,0.89,1.95,0.14,2.6c0.2,0.19,0.13,0.42,0.29,0.57l0.16,0.15c0.08,0.07-0.26,0.21-0.22,0.32
		c-0.04,0.12,0.2,0.26,0.17,0.46c-0.04,0.04-0.02,0.58,0.06,0.66c0.04,0.04,0.16,0.07,0.2,0.11c0.04,0.04,0.04,0.04,0,0.08
		l-0.11,0.12c-0.26,0.28-0.23,1.22-0.06,1.36c0.04,0.04,0.08,0.07,0.24,0.15c0.07,0.74-0.38,1.14,0.14,1.71c0,0-0.02,0.58,0.1,0.54
		c-0.1,0.51-0.09,1.79-0.13,1.6c0.05,0.19,0.06,0.5,0.19,0.77c0.24,0.22-0.61,2.28-0.73,2.17c0.12,0.11,0.31,0.07,0.39,0.14
		c0,0-0.04,0.04-0.15,0.08c-0.08,0.08-0.08,0.08-0.03,0.12c0.04,0.04-0.03,0.2,0.01,0.23c0.04,0.12-0.35,0.95-0.43,0.95
		c-0.34,0.21-0.5,0.21-0.69,0.34c-0.25,0.52-0.58,1.19-0.95,1.67c-0.77,0.26-1.81,0.58-2.38-0.03c-0.49,0.45-1.2-1.86-1.74-1.68
		c-0.77-0.71-0.5-0.91-1.03-1.56c-0.4-0.37-0.22-0.65-0.75-1.14c0.14-0.32-0.22-1.63-0.91-1.52c-0.2-0.19-0.42-0.84-1.15-1.59
		c-0.04,0.04-0.08,0-0.08,0c-0.12-0.19,0.14-0.32,0.06-0.47c-0.04-0.04-0.16-0.07-0.28-0.18c-0.16-0.15,0.09-0.67-0.23-0.96
		c-0.16-0.15-0.29-0.42-0.49-0.68c0.11-0.12,0.11-0.2-0.05-0.35c-0.04-0.04-0.16-0.07-0.2-0.11c-0.33-0.38,0.02-0.43-0.14-0.58
		c-0.12-0.11-0.67-1.3-0.75-1.37c-0.08-0.15,0.06-0.39-0.1-0.54c-0.12-0.11-0.39-0.14-0.48-0.29c-0.01-0.23,0.02-0.58-0.27-0.92
		c-0.2-0.19-0.13-0.35-0.33-0.53c-0.08-0.07-0.08-0.15-0.08-0.15c-0.04,0.04-0.39-1.04-0.43-1c0.08-0.08-0.32-0.14-0.28-0.18
		c0.11-0.28-0.17-0.46-0.46-0.88c0.55-0.76,0,0,0.28-0.79c0.34-0.21,0.62-0.18,0.99-0.58c0.04-0.04,0.08-0.08,0.19-0.12
		c0.98,0.23,1.93-0.31,3.07,0.89c0.28,0.26,0.06,0.66,0.61,1.61c0.12,0.11,0.23,1.86,0.23,1.94c-0.09,0.82,0.95,2.53,0.98,2.34
		c-0.06,0.55,0.34,0.84,0.57,1.65c0.04,0.04,0.45,0.49,0.49,0.53c0.24,0.22,0.22,0.65,0.42,0.84l0.2,0.19c0,0,0.13,0.35,0.11,0.77
		c0.16-0.01,0.28,0.11,0.36,0.18c0.16,0.15,0.29,0.34,0.18,0.62c0.11-0.04,1.13,1.05,1.29,1.2c0.2,0.19,0.37,0.57,0.53,0.72
		c0.17,0.38,0.54,0.95,1.14,0.31c0.19-0.2,0.56-0.53,0.36-0.79l-0.12-0.11c0.38-0.17,0.29-0.48,0.42-1.11
		c0.03-0.2,0.21-0.48,0.21-0.71c0.17-0.51,0.22-0.24,0.38-1.38c-0.17-1.51,0.16-1.87,0.11-2.3c0.02-0.58,0.26-1.33-0.23-1.86
		l-0.12-0.11c0.41-0.44,0.19-2.07-0.06-2.45c-0.2-0.19,0.12-0.94-0.08-1.2c-0.04-0.04-0.12-0.03-0.16-0.07
		c-0.17-0.23-0.04-1.17-0.25-1.35c-0.04-0.04-0.12-0.03-0.16-0.07c0.46-1.22-0.43-1.15-0.39-1.93l-0.2-0.19
		c-0.85-0.86-0.56-1.5,0.3-2.19c0.15-0.16,0.46-0.33,0.68-0.49c0,0.08,0.04,0.12,0.08,0.15c0.16,0.15,0.46-0.17,0.7,0.05l0.04,0.04
		c0.28,0.26,0.65-0.3,0.85-0.03c0.2,0.19-0.03,0.27,0.1,0.46c0.19-0.05,0.43,0.02,0.59,0.25c0.69,0.71-0.2,0.86,0.09,1.28
		c0.24,0.22,0.67,0.09,0.75,0.17c0.08,0.07,0.01,0.23,0.05,0.27c0.08,0.07,0.16-0.01,0.24,0.07c0.2,0.19,0.21,0.42,0.11,0.77
		c0.24,0.15,0.4,0.22,0.56,0.37c0.08,0.15-0.11,0.28-0.03,0.35c0.04,0.04,0.24,0.07,0.36,0.18c0.04,0.04,0.04,0.12,0.09,0.23
		c0.08,0.07-0.07,0.31,0.05,0.43c0.12,0.11,0.6,0.41,0.8,0.59l0.36,0.34c0.12,0.11,0.28,0.26,0.48,0.22
		c0.25,0.46,0.46,0.96,0.79,1.25c0.12,0.11,0.28,0.18,0.43,0.1c0.05,0.19,0.21,0.42,0.33,0.53c0.4,0.37,0.99,0.39,1.46,0.53
		c0.37-0.56,0.97-1.05,1.07-1.56c-0.01-0.16,0.45-1.38,0.38-1.3c0.54-1.15,0.17-0.51,0.47-1.96c0.19-1.02,0.35-2,0.3-3.24
		c0.04-0.04,0.12-0.04,0.19-0.12c0.08-0.08-0.01-0.23-0.05-0.35c0.17-0.67,0.49-0.37,0.22-1.45l0.15-0.16
		c0.19-0.2-0.48-0.45-0.26-0.69c0.11-0.12,0.15-0.16,0.27-0.05c0.19-1.18,0.01-2.69,0.24-2.93c0.06-0.39-0.07-0.81-0.13-1.24
		c-0.05-0.19,0.22-1.37,0.18-1.33l0.07-0.08c-0.12-0.03-0.16-0.07-0.2-0.11c-0.16-0.15-0.2-2.13-0.03-2.88l-0.12-0.11
		c-0.24-0.22,0.46-0.25,0.26-0.44c0,0,0.46-0.25,0.42-0.29c-0.03,0.27,0.58,0.83,0.51,1.07c-0.03,0.27-0.19,0.12-0.18,0.28
		c-0.04,0.04,0.01,0.16,0.01,0.23c0.01,0.16,0.36,0.18,0.26,0.69c0.01,0.31-0.29,0.63-0.17,0.59c0.04,0.04,0.37,1.39,0.43,1.97
		c0.15,0.81-0.12,2.07-0.08,2.03c-0.3,0.32,0.04,1.09,0.25,1.51c-0.11,0.2-0.31,0.98-0.2,0.86c-0.04,0.04-0.04,0.04-0.12,0.04
		c0.11,0.77-0.08,0.98-0.01,1.71l0.08,0.07c0.2,0.19-0.21,0.55-0.13,0.63l0.08,0.07c0.09,0.31-0.35,0.95,0.01,1.28
		c0.17,0.3-0.16,0.98-0.15,1.13c-0.38,1.22-0.32,2.93-0.33,2.7c0.01,0.16,0.01,0.23,0.05,0.27c-0.04,0.04-0.17,0.51-0.36,0.71
		c-0.08,0.08-0.15,0.16-0.23,0.16c-0.04,1.01-0.37,1.61-0.38,2.27l-0.11,0.12c0,0-0.09,0.74-0.83,1.55
		c-0.34,0.36-0.39-0.06-0.62,0.18c-0.07,0.08-0.11,0.2-0.22,0.32c0.04-0.04-1.08,0.27-1.08,0.27l-0.16-0.15
		c-0.2-0.19-0.73,0.22-0.73,0.15l-0.08,0.08l-0.2-0.19c-0.04-0.04-0.23,0.16-0.31,0.09l-0.16-0.15c-0.08-0.07-0.23,0.09-0.27,0.05
		c-0.16,0.01-0.91-0.47-0.79-0.36l-0.08,0c-0.04-0.04,0-0.08-0.04-0.11c-0.04,0.04-0.91-0.39-1.35-0.65
		c-0.2-0.19-0.17-0.38-0.37-0.57c-0.24-0.22-0.55-0.21-0.8-0.44c-0.2-0.19-0.26-0.61-0.46-0.8l-0.44-0.41
		C145.49,193.48,145.64,193.32,145.32,192.94z"/>
	<path d="M182.88,168.18l0.09-0.07c0.21-0.36,0.35-0.73,0.14-1.2c0.08,0.01,0.17-0.05,0.21-0.09c0.66-0.49,0.11-1.52,0.31-2.08
		c0.43-0.52,0.55-1.02,0.63-1.56c0.51-0.24,0.77,0.12,1.21,0.06c-0.81,0.94,0.04,2.09-0.34,3.06c-0.52,0.86,0.44,1.25-0.36,1.83
		c-0.4,0.29-0.37,1.91-0.59,2.07c-0.11,0.49-0.67,1.31-1.11,1.64c-0.62,0.46-1.21,0.49-1.83,0.67l-0.1-0.13
		c-0.07-0.09-0.38-0.06-0.46-0.07l-0.04,0.03c-0.41-0.18-0.91-0.77-1.14-1.08c-0.03-0.04,0.09-0.06-0.04-0.24
		c-0.03-0.04-0.28-0.2-0.28-0.2c-0.1-0.13,0.14-0.17,0.12-0.3l-0.82-1.11c-0.23-0.31-0.41-0.65-0.36-0.76
		c-0.24-0.23-0.59-0.52-0.85-0.88c-0.1-0.13-0.16-0.22-0.22-0.39l-0.07-0.09c-0.03-0.04-0.08-0.01-0.17-0.14
		c-0.13-0.18-0.26-0.63-0.15-0.85c-0.15-0.02-0.46-0.34-0.62-0.57c-0.39-0.53-0.55-1.03-0.84-1.5c-0.03-0.04-0.11-0.06-0.17-0.14
		s-0.01-0.2-0.08-0.29c-0.23-0.31-0.38-0.33-0.48-0.47c0.04-0.03-0.39-0.81-0.62-1.12c-0.2-0.27-0.56-0.48-0.72-0.7
		c-0.1-0.13-0.15-0.3-0.05-0.44c-0.15-0.02-0.22-0.11-0.36-0.21l-0.44-0.5c-0.08-0.01-0.32-0.24-0.49-0.11
		c-0.04,0.03-0.06,0.66-0.02,0.63l-0.18,0.13c-0.53,0.39-0.11,1.24-0.04,1.33c0.07,0.09,0.22,0.11,0.44,0.22l0.07,0.09l-0.13,0.1
		c-0.53,0.39-0.16,0.8-0.49,1.18c0.15,0.02,0.17-0.05,0.26,0.08c0.46,0.62-0.15,2.02-0.28,2.67c0.16,0.22,0.29,0.2,0.29,0.2
		c0.03,0.04-0.17,0.6,0.16,1.05l0.26,0.35l-0.04,0.03c-0.22,0.16-0.04,0.23-0.26,0.39l-0.12,0.02c0.06,0.09,0.05,0.17,0.09,0.21
		c0.21,0.19,0.34,0.09,0.55,0.28l-0.04,0.03c-0.09,0.06-0.31,1.25,0.05,1.74c0.1,0.13,0.19,0.07,0.25,0.16
		c-0.92,0.88,0.6,3.32,0.69,3.53c-0.02,0.15-0.37,0.34-0.27,0.47c0.03,0.04,0.17,0.14,0.17,0.14c0.03,0.04-0.07,0.19,0.03,0.32
		c-0.55,0.27-1-0.15-1.53,0.24c-0.27,0.2-0.41,0.65-0.38,0.97c-0.29,0.07-0.58,0.23-0.87,0.03c-0.09,0.07-0.1,0.14-0.1,0.14
		c-0.71,0.52-1.22-0.26-1.15-0.17c-0.07-0.09-0.12-0.25-0.18-0.34c-0.14-0.1-0.17-0.14-0.4,0.02c-0.03-0.32-0.13-0.45-0.23-0.58
		l-0.2-0.27c-0.2-0.27-0.02-0.4-0.12-0.53c-0.16-0.22-0.64-0.69-0.81-0.91c-0.62-0.84-0.92-1.71-1.08-1.93
		c-0.26-0.35-0.64-0.69-0.87-1c-0.16-0.22-0.15-0.57-0.25-0.71c-0.1-0.13-0.38-0.06-0.52-0.24c-0.1-0.13-0.06-0.36-0.28-0.75
		c-0.07-0.09-0.19-0.07-0.22-0.11c-0.13-0.18-0.21-0.46-0.66-1.08c-0.03-0.04-0.15-0.02-0.19-0.07c0,0-0.23-0.31-0.19-0.54
		c-0.04,0.03-0.35-0.01-0.42-0.1l-0.07-0.09c0.01-0.08-0.04-0.24-0.14-0.38c-0.26-0.35-0.83-0.75-1.06-1.06
		c-0.49,0.36-0.56,0.82-0.5,0.99l-0.04,0.03c-0.31,0.23,0.09,1.23-0.4,1.87c0.49,2.24-0.46,2.25-0.06,2.78
		c0.03,0.04,0.17,0.14,0.28,0.2c-0.4,0.29-0.08,0.54,0.03,0.87c-0.29,0.62-0.34,1.48-0.18,1.7l0.03,0.04
		c0.1,0.13,0.02,0.4,0.18,0.62c0.03,0.04,0.15,0.02,0.19,0.07c-0.35,0.26-0.55,0.55-0.26,0.94l0.1,0.13
		c-0.2,0.56,0.12,2.58,0.32,2.84c0.13,0.18,0.27,0.28,0.37,0.41c0.13,0.18,0.12,0.8,0.08,0.76l0.1,0.13l-0.13,0.1l0.08,0.01
		l-0.22,0.16c0.16,1.05,0.2,1.84,0.79,2.56c0,0.55-0.34,1.21,0.05,1.74c0.1,0.13,0.27,0.28,0.38,0.33c-0.02,0.15-0.21,0.36-0.3,0.43
		c0.07,0.09,0.18,0.14,0.21,0.19c0.56,0.75-0.36,1.09-0.21,1.38c-0.18,0.13-0.41,0.1-0.58-0.05l-0.07-0.09l-0.04,0.03
		c-0.4,0.29-0.11,0.49-0.56,0.82c-0.07-0.09-1.32,0.9-2.23-0.34c-0.2-0.27-0.26-0.9-0.16-1.05c-0.17-0.14-0.21-0.19-0.31-0.32
		c-0.2-0.27-0.27-0.55-0.19-0.82c-0.12,0.02-0.2,0.01-0.23-0.03l-0.36-0.49c0.35-0.26-0.12-0.53,0.16-0.8
		c-0.12,0.02-0.15-0.02-0.19-0.07c-0.07-0.09-0.29-0.67-0.2-0.74c-0.03-0.04-0.14-0.1-0.24-0.23c-0.16-0.22,0.06-0.38-0.14-0.65
		c-0.07-0.09-0.08-0.01-0.14-0.1c-0.1-0.13-0.05-0.17-0.09-0.21c-0.07-0.09-0.24-0.51,0.03-0.7c-0.12,0.02-0.19-0.07-0.19-0.07
		c-0.13-0.18-0.03-0.32-0.06-0.36c-0.03-0.04-0.08-0.01-0.12,0.02c-0.03-0.04-0.11-0.33-0.14-0.38l-0.13-0.18
		c0.1-0.14-0.08-0.29,0.15-0.45l0.09-0.07l-0.1-0.13c-0.36-0.49-0.12-1-0.45-1.44l-0.1-0.13c0.23-0.71-1.04-1.97-0.51-2.36
		c-0.04,0.03-0.11-0.06-0.11-0.06c-0.1-0.13,0-0.27,0.01-0.35c-0.43-1.05-0.75-0.74-0.34-1.39c-0.03-0.04-0.14-0.1-0.21-0.19
		c-0.49-0.66-0.6-1.74-0.58-2.17l-0.23-0.31c-0.03-0.04,0.2-0.01-0.06-0.36l-0.26-0.35c-0.36-0.49,0.09-0.34-0.03-0.59
		c-0.03-0.04-0.14-0.1-0.14-0.1s-0.02-0.67,0.08-0.81c-0.39-0.53-0.28-0.48-0.45-1.44l-1.11-1.5c0.05-0.31,0.2-0.56,0.09-0.89
		c0.24-0.04,0.97-0.44,0.97-0.44c0.17-0.05,0.23,0.03,0.36-0.06c0.23,0.04,1.77-0.76,2.48,0.22c0.11,0.06,0.19,0.07,0.25,0.16
		c0.17,0.42,0.88,2.77,0.79,2.83c-0.27,0.2-0.45,1.15-0.37,1.44l0.07,0.09c0.33,0.44,0.56,1.23,0.43,1.32
		c-0.66,0.49-0.16,1.55-0.06,1.68c0.04-0.03,0.62,1.12,0.68,1.2c-0.01,0.08,0.01,0.2-0.06,0.38c-0.23,0.99-0.28,1.57,0.15,2.15
		l0.16,0.22c0.16,0.22,0.26,0.35,0.13,0.45s0.32,1.27,0.14,1.4c1.05,1.89-0.22,2.01,0.57,3.27c-0.14,0.17-0.06,0.38,0.11,0.61
		c0.07,0.09,0.18,0.34,0.41,0.18c0.22-0.16,0.17-0.33,0.1-0.42s-0.17-0.14-0.27-0.28c0.57-0.62-0.03-0.87,0.17-1.15
		c0.49-0.36-0.35-2.14,0.34-3.06c-0.03-0.04-0.08-0.01-0.14-0.1c-0.1-0.13-0.04-0.24,0.09-0.34c-0.08-0.01-0.11-0.06-0.17-0.14
		c-0.26-0.35,0.12-0.77-0.18-1.17l-0.07-0.09c0.06-0.38,0.12-0.77,0.28-1.1c-0.06-0.09-0.21-0.19-0.24-0.23
		c-0.16-0.22,0.03-0.43-0.17-0.69l0.04-0.03c0.13-0.1-0.03-0.32,0.1-0.42l0.13-0.1c0.08-0.54,0.22-1.19-0.17-1.72
		c-0.07-0.09-0.13-0.18-0.24-0.23c0.18-0.13,0.04-0.23,0.05-0.31c0.04-0.03,0.12-0.02,0.21-0.09c0,0,0.09-0.06,0.06-0.11
		c-0.03-0.04-0.11-0.06-0.11-0.06c-0.1-0.13,0.2-0.28,0.18-0.41c0.2-0.28-0.21-0.46-0.13-0.73l0.04-0.03c0,0,0-0.75-0.07-1.11
		c-0.03-0.04-0.03-1.34,0.23-1.54c-0.17-0.97,0.03-2.28-0.04-2.37l-0.13-0.18c0.02-0.15,0.5-0.44,0.63-0.53
		c0.33-0.11,0.58-0.23,0.62-0.18l0.18-0.13c0,0-0.01,0.08,0.02,0.12c0.08,0.01,0.12-0.02,0.12-0.02l0.18-0.13l0.07,0.09
		c0.03,0.04,0.94-0.21,1.06-0.23c0.54,0.36,1.42,0.25,1.71,0.65c0.1,0.13-0.04,0.23,0.03,0.32c0.26,0.08,1.29,0.82,1.29,0.82
		c0.07,0.09-0.06,0.11,0.01,0.2c0.26,0.35,0.55,0.55,0.64,0.69c0.26,0.35-0.12,0.3-0.06,0.66c0.11,0.06,0.21,0.19,0.24,0.23
		c0.16,0.22,0.05,0.44,0.15,0.57c0.65,0.89,0.63,0.49,1.45,1.6c0.26,0.35,0.39,0.81,0.59,1.07c0.16,0.22,0.94,0.54,0.94,0.54
		l0.07,0.09c0.23,0.31-0.02,0.63,0.08,0.76c0.08,0.01,0.21,0.19,0.21,0.19c0.02,0.4-0.55,0.55,0.07,0.84
		c0.38-0.42,0.05-0.86,0.32-1.33c-0.03-0.04-0.11-0.06-0.17-0.14c-0.16-0.22,0.22-1.46-0.04-1.82c-0.03-0.04-0.11-0.06-0.17-0.14
		c0.22-0.16,0.35-1.56,0.25-1.69l-0.2-0.27c0.1-0.14-0.11-0.33,0.03-0.43l0.13-0.1c0.04-0.03,0.06-0.11-0.01-0.2l-0.07-0.09
		c-0.03-0.04-0.07-0.09-0.02-0.12l0.09-0.07c0.09-0.07,0.09-0.34,0.09-0.34c-0.03-0.04-0.1-0.13-0.17-0.14
		c-0.07-0.09,0.19-0.21,0.2-0.28c0.06-0.11-0.27-0.83-0.22-0.86l0.09-0.07c-0.29,0.07,0.04-1.33,0.08-1.29
		c-0.07-0.09-0.14-0.1-0.17-0.14c0.43-0.52,0.44-1.07,0.31-1.53c0.04-0.03,0.12-0.02,0.12-0.02c0.44-0.33-0.14-1.67,0.12-1.87
		l0.13-0.1c0.09-0.07,0.09-0.07,0.06-0.11l-0.2-0.27l0.27-0.2c0,0-0.02-0.4,0.38-0.69c0.13-0.1,0.38-0.14,0.42-0.17
		c0,0-0.07-0.09,0.02-0.15c1.02-0.75,2.49-0.06,2.75,0.3l0.2,0.27c0.1,0.13,0.62,0.29,0.94,0.54c0.01,0.2,0.01,0.2-0.08,0.26
		c-0.09,0.07-0.21,0.09-0.34,0.18c0,0-0.04,0.03-0.06,0.11c0.67,0.26,1.07,0.24,1.63,0.91c-0.15-0.02,0.39,1.36,1.48,2.19
		c0.14,0.1,0.12,0.25,0.11,1.08c0.28,0,0.41,0.18,0.56,0.2c0.07,0.09,0.29,0.4,0.25,0.43l-0.09,0.06c-0.04,0.03-0.01,0.08,0.05,0.17
		c0.2,0.27,0.34,0.37,0.34,0.37c0.08,1.03,1.11,1.78,2.38,3.51c0.16,0.22,0.16,0.5,0.29,0.67c0.29,0.4,1.12-0.15,1.21-0.21
		c0.13-0.1,0.2-0.28,0.27-0.47C182.83,168.49,182.79,168.24,182.88,168.18z"/>
	<path d="M243.27,131.35l-0.37,0.1c-0.51,0.03-1.22,0.11-2.6,0.49c-0.95,0.26-1.61,0.79-2.72,1.1c-0.79,0.22-1.73,0.36-2.36,0.54
		c0.05-0.01-0.64,0.98-0.69,0.82c-0.11,0.03-0.23,0.01-0.28,0.02c-0.26,0.07-0.5,0.25-0.77,0.33c-0.21,0.06-0.37,0.1-0.58-0.24
		c-0.16,0.04-0.19,0.57-0.5,0.65c-0.05,0.01-0.15-0.13-0.26-0.1c-0.21,0.06,0.1,0.37-0.69,0.59c-0.9,0.25-1.34,0.94-1.16,1.58
		l0.06,0.21c0.15,0.53-0.93,2.42-0.93,2.42c-0.37,0.73-1.1,2.02-0.92,2.65c-0.85,0.63-1.03,2.05-1.67,2.23l-0.11,0.03
		c-0.54,1.75-1.15,1.63-1.26,2.46c-0.6,0.51-1.08,1.04-0.95,1.92l-0.21,0.06c-0.11,0.03-0.36,0.16-0.33,0.26l0.06,0.21
		c0.01,0.05,0.03,0.11-0.02,0.12c-0.05,0.01-0.07-0.04-0.12-0.02c-0.43,0.52-0.79,1.07-1.19,1.47c-0.48,0.13-0.85,1.26-0.82,1.37
		l-0.27,0.07l0.04,0.16l-0.21,0.06c-0.26,0.07-0.24,0.18-0.82,0.34c0,0-0.18,0.39-0.34,0.44c-0.05,0.01-0.17-0.01-0.2-0.12
		c-0.2,0.11-0.17,0.22-0.15,0.27l0.06,0.21c0.01,0.05-2,1.86-2.15,1.91c-0.3,0.14-1.1,1.39-2.9,1.89c-0.58,0.16-1.45,0.12-2.25,0.34
		c-0.26,0.07-0.51,0.2-0.75,0.38c-0.46-0.22-0.99-0.3-1.47-0.56c-0.08,0.14-0.12,0.2-0.22,0.23c-0.16,0.04-0.36-0.07-0.63,0
		l-0.16,0.04c-0.46-0.22-0.82-0.91-1.38-0.87l-0.03-0.11c-0.07-0.26-0.25-0.27-0.29-0.43l-0.12-0.42c-0.07-0.27-0.3-0.26-0.36-0.47
		c-0.09-0.32,0.28-0.42,0.17-0.84c-0.23-0.22-0.42-0.28-0.63-0.22c-0.11,0.03-0.3,0.14-0.5,0.25l-0.03-0.11
		c-0.04-0.16-1.02-0.17-1.3-1.18c-0.59-2.12,1.81-2.73,1.24-4.79l-0.06-0.21c0.5-0.25-0.03-1.13,0.66-1.32l0.11-0.03
		c-0.15-0.13-0.18-0.24-0.21-0.34c-0.22-0.79,0.56-1.47,0.33-2.32l-0.06-0.21c-0.07-0.26,0.2-1.54,0.7-2.02
		c-0.15-0.13-0.19-0.29-0.22-0.4c-0.07-0.27-0.15-1.78,0.54-2.6c-0.35-1.27,0.51-3.11,0.69-3.9c0.1-0.66,0-2.28,0.82-2.8
		c-0.23-0.85-0.28-2.03,0.04-2.12c0.06-0.19,0.27-0.87,0.21-1.09l-0.07-0.27c0,0,0.07,0.04,0.12,0.02c0.05-0.01,0.04-0.07,0.04-0.07
		c-0.01-0.05-0.1-0.14-0.11-0.2c-0.01-0.05,0.04-0.07,0.04-0.07l0.16-0.04c-0.01-0.05-0.1-0.14-0.11-0.2
		c-0.04-0.16,0.39-0.45,0.27-0.87l-0.06-0.21c-0.03-0.11,0.09-0.08,0.14-0.1c-0.01-0.05-0.1-0.14-0.11-0.2
		c-0.01-0.05,0.02-0.12,0.02-0.12s0.07,0.04,0.12,0.02c0.05-0.01,0.04-0.07,0.04-0.07c-0.01-0.05-0.1-0.14-0.11-0.2
		c-0.01-0.05,0.04-0.07,0.04-0.07l0.16-0.04c-0.01-0.05-0.1-0.14-0.11-0.2c-0.04-0.16,0.16-0.04,0.1-0.26l-0.06-0.21
		c0.05-0.01,0.12,0.02,0.12,0.02c0.05-0.01,0.04-0.07,0.02-0.12l-0.04-0.16c-0.15-0.53,0.17-0.62,0.29-0.82
		c0.05-0.24-0.09-0.54-0.05-0.79c-0.03-0.11,0.25-0.13,0.21-0.29l-0.04-0.16c-0.01-0.05-0.01-0.05,0.04-0.07l0.11-0.03
		c0.47-2.41,0.25-3.21,0.65-3.43c-0.15-0.13-0.65-0.28-0.91-0.2c-0.11,0.03-0.14,0.1-0.18,0.16c-0.36-0.07-0.63-0.22-0.96-0.36
		c-0.26,0.07-0.27,0.25-0.54,0.32c-0.21-0.34-2.03-0.52-1.79-0.48c-0.52-0.03-2.1,0.24-3.17,0.08l-0.27,0.07
		c-0.12-0.02-0.19-0.06-0.29-0.03l-0.16,0.04c-0.79,0.22-1.39-0.47-2.61-0.14l-0.21,0.06c-0.03-0.11-0.04-0.16-0.1-0.14l-0.27,0.07
		c-0.13-0.08-1.67-0.05-1.96-0.08l0.01,0.05c0,0-0.02,0.12-0.08,0.14c-0.16,0.04-0.25-0.27-0.62-0.17l-0.26,0.07
		c-0.32-0.31-0.88-0.1-1.11-0.49c-0.27,0.07-0.43,0.29-0.75,0.38c-0.37,0.1-1.3-0.15-2.15,0.08l-0.16,0.04
		c-0.94-0.08-2.49-0.11-2.45-0.18c-0.14,0.1-0.21,0.29-0.42,0.34c-0.18-0.24-0.5-0.37-0.77-0.3c-0.27,0.07-0.22,0.23-0.54,0.32
		c-0.46-0.62-1.41,0.28-2.62-0.59c-0.22-0.4-0.83-0.11-1.17-0.3l-0.04-0.16c-0.12-0.42-0.51-0.6-0.61-0.97
		c-0.13-0.48,0.23-0.81,0.26-1.33c0.01,0.05,0.07,0.04,0.12,0.02c0.21-0.06,0.44-0.46,0.65-0.52c0.32-0.09,0.31,0.31,0.79,0.18
		l0.42-0.12c0.42-0.12,1.36,0.59,1.47,0.56c0.04-0.07,0.13-0.15,0.13-0.15c0.16-0.04,0.22,0.17,0.5,0.15
		c0.21-0.06,0.27-0.25,0.2-0.51l-0.04-0.16c0.21-0.06,0.32,0.14,0.38,0.35l0.09,0.32c0.04,0.16,1.64,0.57,1.7,0.56
		c0.11-0.03,0.2-0.11,0.25-0.13c0.36,0.07,0.22,0.17,0.48,0.09c0.26-0.07,0.51-0.2,0.78-0.27c0.69-0.19,1.35,0.14,1.79,0.3l0.37-0.1
		c1.01-0.28,1.54,0.2,2.49-0.06l0.32-0.09c0.15,0.13,0.36,0.07,0.43,0.34l0.01,0.05l0.21-0.06c0.48-0.13,0.66,0.1,0.97,0.02
		c0.11-0.03,0.2-0.11,0.34-0.21c0.72,0.32,1.72,0.04,2.71-0.12c0.5,0.37,2.67,0.8,2.94,0.73c0.26-0.07,0.37-0.33,0.58-0.39
		c0.05-0.01,0.26,0.1,0.36,0.07s0.01-0.17,0.17-0.22c0.37-0.1,0.42,0.28,0.75,0.25c2.44-0.67,2.85,0.18,3.16,0.09l0.27-0.07
		c0,0-0.04,0.07-0.02,0.12c0.04,0.16,0.76,0.07,0.87,0.04c0.16-0.04,0.71-0.31,0.62-0.63l-0.04-0.16c-0.04-0.16,0.27-0.25,0.23-0.41
		l-0.12-0.42c-0.07-0.27,0.29-0.19,0.14-0.72c-0.06-0.21-0.17-0.41-0.23-0.62c-0.07-0.27,0.13-0.15,0.04-0.47l-0.06-0.21
		c0.34-0.61,0.07-0.99,0.81-1.19c0.69-0.19,1.37-0.21,1.74-0.31l0.21-0.06c0.16-0.04,0.36,0.47,0.62,0.4
		c0.05-0.01,0.11-0.03,0.14-0.1c0.12,0.42,0.23,0.62,0.29,0.83c0.04,0.16,0.02,0.28-0.08,0.54c0.12,0.02,0.2,0.12,0.22,0.17
		c0.03,0.11-0.09,0.31-0.04,0.47c0,0,0.23,0.22,0.28,0.38c0.21,0.74-0.58,1.42-0.36,2.21l-0.16,0.04c-0.26,0.07-0.34,0.21-0.35,0.38
		c0.16,0.58,2.76,1.12,3.52,0.97c0.13,0.25,0.33,0.37,0.44,0.56l0.16-0.04c0.64-0.18,0.61,0.35,0.87,0.27
		c0.05-0.01,0.14-0.1,0.2-0.11c0.11-0.03,0.24,0.45,0.98,0.24c0.16,0.58,1.68,1.13,1.8,1.16c0.27,0.15,1.6,0.64,1.71,1.01l0.04,0.16
		c0.01,0.05,0.01,0.05,0.07,0.04l0.21-0.06c0.16-0.04,0.21,0.34,0.29,0.43c2.18,1.28,2.11,2.27,2.75,2.32
		c0.22,0.4,0.76,1.5,0.73,1.4c0.01,0.05,0.01,0.23,0.04,0.33c0.09,0.32,0.4,0,0.53,0.48l0.12,0.42c0.15,0.53,0.32,0.54,0.42,0.91
		c0.01,0.05-0.03,0.29-0.09,0.31c0,0,0.15,0.13,0.18,0.24c0.13,0.48-0.04,0.47,0.11,1c0.1,0.37,0.19,0.29,0.22,0.4
		s-0.12,0.2-0.08,0.54c0.02,0.68,0.33,1.39,0.25,2.16c0.04,0.16,0.27,0.15,0.54,0.08c1.06-0.29,1.06-0.92,3.02-1.46
		c0.11-0.03,0.23-0.01,0.32,0.14c0.17-0.22,0.59-0.56,1.38-0.78c0.05-0.01,0.13,0.08,0.51-0.03c0.3-0.14,0.62-0.46,0.92-0.6
		c1.69-0.7,3-1.12,3.05-1.13c0.64-0.18,1.3-0.25,1.94-0.42l0.27-0.07c0.05-0.01,0.12,0.02,0.17,0.01c0.27-0.07,0.65-0.52,0.71-0.54
		c0.16-0.04,0.31,0.09,0.57,0.01c0.2-0.11,0.22-0.23,0.38-0.28c0.16-0.04,0.32,0.14,0.64,0.05c0.21-0.06,0.33-0.26,0.38-0.28
		c0.69-0.19,2.36,0.49,2.12,0.44c0.06,0.21-0.04,0.47,0.03,0.73c0.04,0.16,0.23,0.22,0.29,0.43c0.09,0.32-1.25,0.63-1.7,0.87
		c-0.27,0.47-0.51,0.43-1.41,0.68C244.32,131.01,243.22,131.37,243.27,131.35z M228.26,134.02c0.07-0.36-0.02-0.68,0.11-0.83
		c-0.01-0.05-0.1-0.14-0.11-0.2c-0.13-0.48,0.07-0.99-0.06-1.47c-0.07-0.27-0.17-0.41-0.2-0.52c-0.01-0.05,0.02-0.12-0.01-0.23
		l-0.06-0.21c0.01-0.17,0.03-0.29,0.02-0.35c-0.01-0.05-0.26-0.33-0.33-0.59c-0.06-0.21-0.05-0.39-0.09-0.54
		c-0.21-0.74-0.43-1.14-0.54-1.33l-0.06-0.21c-0.1-0.37-1.1-0.89-1.22-1.32c-0.01-0.05,0.01-0.17,0-0.23
		c-0.43-0.11-0.77-0.3-0.78-0.35c-0.01-0.05,0.01-0.17-0.01-0.23c-0.5-0.77-1.26-0.85-1.33-1.11c-0.03-0.11-0.01-0.23-0.04-0.33
		l-0.03-0.11c-0.54,0.09-1.77-0.82-1.72-0.84c-1.39-0.47-1.6-1.04-2.64-0.87c-0.43-0.51-1.19-0.81-1.3-0.78l-0.26,0.07
		c-0.16,0.04-0.23-0.22-0.29-0.21c-0.55-0.13-0.94-0.08-0.94-0.08l-0.21,0.06c-0.01-0.05,0.01-0.17-0.1-0.14l-0.21,0.06
		c-0.32,0.09-0.16-0.36-0.84-0.17l-0.48,0.13l-0.16,0.04c-0.02,0.75-0.56,1.07-0.75,1.41c-0.1,1.28,0.13,2.53-1.08,3.72
		c0.31,1.11-0.09,2.14,0.01,2.51c0.01,0.05,0.1,0.14,0.11,0.2c-0.61,1.08-0.6,1.76-0.53,1.57c0.18,0.64-0.62,1.26-0.52,1.63
		c0.04,0.16-0.09,0.08-0.11,0.2c-0.15,0.9,0.44,1.99-0.52,2.88c0.08,0.09,0.1,0.14,0.13,0.25c0.06,0.21-0.16,1.7-0.21,1.71
		c0.12,0.42,0.46,1.24,0.21,1.37c-0.17-0.01-0.25-0.27-0.46-0.22c-0.48,0.13,0.29,1.06-0.4,1.25l-0.16,0.04
		c0.1,0.14,0.13,0.25,0.16,0.36c0.35,1.27-0.15,1.93-0.47,2.01l-0.11,0.03c0.15,0.53-0.15,0.9,0,1.43c0.03,0.11,0.06,0.21,0.14,0.3
		l-0.11,0.03c-0.53,0.15-0.25,2.18,0,3.08c-0.69,0.82-1.05,1.77-0.74,3.11c0.03,0.51-0.48,0.13-0.14,1.35
		c1.08-0.41,2.62-2.89,2.74-3.5c0.07,0.04,0.12,0.02,0.17,0.01c0.11-0.03,0.98-1.19,1.04-1.2l0.16-0.04
		c0.21-0.06,0.47-0.76,0.69-0.82c0,0,0.06,0.21,0.11,0.2c0.37-0.1,1.09-1.62,0.96-1.47c0.13-0.15,0.57-0.61,1.21-0.79l0.48-0.13
		c-0.03-0.73,1.45-1.37,1.13-1.28c0.78-0.9,1.92-1.1,2.63-2.04c0.39-0.45,0.84-0.46,1.09-0.81c0.24-0.18-0.01-0.45,0.31-0.54
		c1.07-0.47,2.46-1.82,3.05-1.98c0.49-0.31,1.14-0.43,1.24-0.68c0.05-0.01,0.17,0.01,0.23-0.01c0.21-0.06,0.05-0.24,0.18-0.39
		c0,0,0.81-0.57,0.71-0.54l0.26-0.07c0,0-0.07-0.04-0.08-0.09l0.04-0.07c0,0,0.12,0.02,0.17,0.01c0.48-0.13,0.9-0.65,0.83-0.92
		C228.1,134.07,228.24,134.15,228.26,134.02z M223.91,139.96c0.09,0.32-2.08,1.55-2.38,1.91c-0.46,0.59-1.01,1.08-1.65,1.26
		l-0.21,0.06c-0.1,0.66-1.08,1.27-1.29,1.33c-1.06,0.29-1.86,1.54-1.71,1.44c-0.08,0.14-0.3,0.14-0.38,0.28
		c-0.37,0.5-1.04,1.6-1.78,1.81c-0.01,1.2-1.73,2.19-1.63,2.56c0.06,0.21,0.27,0.15,0.37,0.52c-0.21,0.06-0.42,0.12-0.54,0.32
		l0.03,0.11c0.06,0.21-0.56,1.47-0.45,1.27c0,0-0.04,0.07-0.09,0.08c-0.05,0.01-0.17-0.01-0.23,0.01c-0.04,0.07-0.19,0.56-0.17,0.62
		c0,0,0.07,0.04,0.08,0.09l-0.21,0.06c-0.42,0.12-0.47,0.99-0.42,1.14c0.07,0.27,0.38,0.35,0.49,0.72l0.04,0.16
		c0.16-0.04,0.28-0.02,0.44-0.06c0.26-0.07,0.52-0.2,0.78-0.27c0.11-0.03,0.15,0.13,0.26,0.1c0.05-0.01,0.06-0.19,0.06-0.19
		c0.23-0.01,0.39-0.05,0.49-0.08c2.01-0.56,2.02-0.96,2.09-1.09c0.08-0.14,0.71-0.54,0.71-0.54l0.16-0.04
		c0.58-0.16,3.11-3.6,3.64-3.75l0.11-0.03c-0.09-0.54,1.64-2.74,2.12-2.87l0.11-0.03c0.18-0.79,0.98-2.04,1.59-2.5
		c-0.01-0.05-0.08-0.09-0.1-0.14c-0.07-0.27,0.12-0.38,0.04-0.69c0.17,0.01,0.31,0.09,0.52,0.03c0.37-0.1,0.42-1.37,1.16-1.58
		c-0.02-0.28,0.08-1.16,0.34-1.24l0.21-0.06c0.05-0.01,0.05-0.01,0.04-0.07l-0.06-0.21c-0.04-0.16,0.36-0.16,0.37-0.33
		c-0.1-0.77,0.42-1.15,0.29-1.85c-0.4,0.22-0.9,0.25-1.12,0.48C225.67,139.08,223.81,139.59,223.91,139.96z M221.93,152.61
		c-0.04,0.07-0.04,0.07-0.05,0.01L221.93,152.61z M223.24,121.03c0.07,0.04,0.07,0.04,0.01,0.05L223.24,121.03z"/>
	<path d="M278.77,142.96c0.02-0.22,0.03-0.38-0.13-0.45c0.14-0.38,0.49-0.63,0.57-0.95c0-0.05-0.12,0.1-0.21-0.13
		c-0.58,0.4-0.96,1.92-1.94,1.73c-0.02,0.27-0.25,0.37-0.26,0.59l-0.02,0.22c-0.01,0.11-0.33-0.08-0.39,0.03
		c-0.11,0.05-0.08,0.33-0.25,0.42c-0.05,0-0.47,0.35-0.47,0.46c0,0.06,0.04,0.17,0.04,0.22c0,0.05,0,0.05-0.06,0.05l-0.16-0.01
		c-0.38-0.03-1.09,0.58-1.11,0.8c0,0.05-0.01,0.11,0.04,0.28c-0.53,0.51-1.13,0.41-1.24,1.18c0,0-0.47,0.35-0.36,0.42
		c-0.46,0.24-1.46,1.05-1.33,0.9c-0.12,0.16-0.36,0.36-0.49,0.63c-0.02,0.33-2.16,0.95-2.15,0.78c-0.01,0.17,0.14,0.29,0.14,0.4
		c0,0-0.05,0-0.16-0.07c-0.11-0.01-0.11-0.01-0.11,0.05c0,0.05-0.17,0.1-0.18,0.15c-0.06,0.11-0.96,0.32-1.01,0.26
		c-0.38-0.14-0.48-0.25-0.69-0.33c-0.56,0.12-1.29,0.29-1.9,0.3c-0.69-0.44-1.58-1.05-1.46-1.87c-0.65-0.1,0.7-2.1,0.23-2.41
		c0.08-1.04,0.4-0.96,0.57-1.78c0.04-0.55,0.37-0.58,0.42-1.29c0.34-0.09,1.13-1.19,0.62-1.67c0.02-0.27,0.39-0.85,0.52-1.89
		c-0.05,0-0.05-0.06-0.05-0.06c0.07-0.22,0.34-0.09,0.4-0.25c0-0.06-0.04-0.17-0.03-0.33c0.02-0.22,0.58-0.34,0.61-0.78
		c0.02-0.22,0.15-0.49,0.22-0.81c0.17,0.01,0.22-0.04,0.24-0.26c0-0.06-0.04-0.17-0.04-0.22c0.09-0.49,0.35-0.25,0.37-0.47
		c0.01-0.11,0.34-0.86,0.53-1.23c-0.67,0.06-1.12,0.3-1.68,0.37c-0.34,0.09-0.72,0-1,0.09c-0.33,0.03-0.56,0.18-0.9,0.27
		c-0.22,0.04-0.49-0.04-0.77,0l-1.06,0.14l-0.27-0.13c-0.23,0.09-1.04-0.08-1.22,0.13c-0.05-0.06-0.29,0.2-0.34,0.14
		c0.06-0.05-0.27-0.13-0.32-0.13c-0.16-0.07-0.18,0.15-0.44,0.02l-0.05,0c0.07,0.61,0.07,1.33-0.4,1.68
		c0.04,0.94-0.76,0.61-0.65,1.39l-0.11-0.01c-0.17-0.01-0.26,0.59-0.54,0.57c-0.27-0.02-0.53,0.46-0.5,0.13
		c-0.3,0.31-1.23,1.01-0.96,1.03c-0.29,0.25-0.87-0.23-0.95,0.87c-0.33,0.03-1.49,1.6-1.47,1.33c-0.18,0.15-0.44,0.02-0.46,0.3
		c-0.96,0.32-2.04,1.51-2.08,2.11c0,0.06,0.11,0.01,0.1,0.12c-0.02,0.33-0.65,0.56-0.92,0.54c0,0-0.11-0.01-0.16-0.07
		c-0.51,0.24,0.1,0.94-1.11,0.86c-0.28,0.04-0.55,0.73-0.6,0.73c-0.88-0.06-1.37,0.67-2.14,0.62c-0.49-0.04-0.82-0.17-1.3-0.26
		c-0.55-0.04-0.74,0.33-1.07,0.36c-0.44-0.03-0.74-0.49-0.85-0.5c-0.95-0.56-0.93-0.12-2-1.36l0.02-0.22
		c0.01-0.11,0.01-0.16-0.04-0.17l-0.11-0.01l0.02-0.33l-0.11-0.01l0.03-0.38c0,0-0.11,0.05-0.17,0.04s-0.05-0.06-0.05-0.11
		l0.02-0.22c0.01-0.11-0.1-0.17-0.1-0.17c0.01-0.11,0.12-0.16,0.13-0.32c-0.66-0.76,0.05-1.48-0.57-2.08c0.2-0.43,0.2-1.2,0.6-1.45
		c-0.14-0.34-0.29-0.63-0.27-0.85c0,0,0.17-0.1,0.18-0.21c0.02-0.22-0.04-0.22-0.14-0.29c0.12-0.1,1-1.69,1-1.69
		c0.01-0.17-0.09-0.28-0.08-0.39c0.02-0.27,1.44-1.66,1.45-1.72l0.03-0.38c0.03-0.38,0.36-0.42,0.84-1.76
		c0.03-0.38,0.36-0.47,0.39-0.85c0.02-0.22-0.73-1.32-0.07-1.27c0-0.05-0.04-1,0.25-1.14c0.06-0.05,0.11-0.05,0.17-0.04l0.01-0.11
		l-0.05-0.06c0.06-0.05,0.11-0.05,0.33-0.03c0.24-0.26,0.13-1.87,0.54-2.06c0,0,0.17-0.04,0.23-0.09c0.11-0.05,0.37-0.52,0.59-0.51
		c0.33,0.02,0.33,0.08,0.54,0.09c0.06,0,0.29-0.25,0.29-0.25c0.11,0.01,0.31,0.24,0.53,0.26c0.38,0.03,0.57-0.29,0.91-0.38
		c0.01-0.11,0.01-0.16,0.08-0.27c0.02-0.33,0.14-0.38,0.31-0.53c0.22,0.02,0.13-0.27,0.36-0.42c0.62-0.23,0.83-0.05,0.98,0.24
		c0.16,0.01,0.54,0.15,0.65,0.21c0.15,0.18,0.2,0.29,0.43,0.2c0.18,0.56,0.61,0.71,0.58,1.2c0.89,0.67,0.81,1,1.51,1.98
		c-0.07,0.22,0.2,0.24,0.36,0.36l0.11,0.01c0.82,0.06,1.11,1.4,1.93,1.46c0.16,0.01,0.22,0.02,0.39-0.03
		c0.09,0.23,0.44,0.75,0.66,0.76c1.1,0.08,1.09-0.64,1.59,0.17c-0.02,0.27,0.58,0.32,0.3,0.46c-0.06,0.05-0.01,0.16,0.09,0.28
		c0.33,0.08,0.75,0.27,0.7,0.22c0.26,0.18,0.27,0.07,0.59,0.21l0.11,0.01c0.22,0.02,0.24-0.2,0.23-0.09c0.05,0,0.16,0.01,0.27,0.07
		l0.23-0.09c0.17-0.1,1.23-0.19,1.4-0.23c0.22-0.04,0.81,0.17,0.71,0.16c0.11,0.01,0.18-0.15,0.24-0.2
		c0.11,0.01,0.32,0.19,0.49,0.09c0.06,0,0.22-0.04,0.34-0.09c0.16,0.01,0.16,0.07,0.16,0.07s0.06-0.05,0.23-0.09
		c0.22,0.02,0.33,0.08,0.55-0.02c0.11,0.01,0.17-0.04,0.22-0.04c0.06,0,0.22,0.07,0.33,0.08c0.22-0.04,0.46-0.19,0.51-0.24
		c0.17-0.04,0.21,0.13,0.38,0.08c0.27,0.02,0.28-0.09,0.81-0.55c0,0.05,0,0.05,0.11,0.06c0.11,0.01,0.68-0.23,0.95-0.21
		c0.05,0-0.01,0.11,0.16,0.12l0.01-0.16c0.01-0.11,0.07-0.16,0.07-0.16c-0.05,0,0.57-0.95,0.51-0.96c0.11,0.01-0.08-0.34-0.03-0.33
		c0.28-0.09,0.25-0.42,0.4-0.91c0.94-0.04,0,0,0.79-0.27c0.38,0.14,0.52,0.37,1.07,0.41c0.05,0,0.11,0.01,0.21,0.07
		c0.43,0.91,1.45,1.32,1.22,2.96c-0.03,0.38-0.47,0.46-0.88,1.48c-0.01,0.16-1.31,1.34-1.37,1.39c-0.69,0.45-1.38,2.33-1.21,2.23
		c-0.46,0.3-0.44,0.79-0.93,1.48c0,0.06-0.1,0.65-0.11,0.71c-0.02,0.33-0.37,0.58-0.39,0.85l-0.02,0.27c0,0-0.19,0.32-0.54,0.57
		c0.1,0.12,0.09,0.28,0.08,0.39c-0.02,0.22-0.09,0.43-0.37,0.52c0.11,0.06-0.11,1.54-0.13,1.76c-0.02,0.27-0.21,0.65-0.23,0.87
		c-0.19,0.37-0.41,1.02,0.47,1.08c0.27,0.02,0.76,0.11,0.84-0.21l0.01-0.16c0.37,0.19,0.56-0.07,1.13-0.36
		c0.17-0.1,0.51-0.13,0.68-0.28c0.51-0.18,0.33,0.02,1.31-0.57c1.07-1.08,1.56-1.04,1.86-1.35c0.47-0.35,1.2-0.63,1.31-1.34
		l0.01-0.16c0.6,0.04,1.74-1.14,1.88-1.57c0.02-0.27,0.81-0.49,0.89-0.82c0-0.06-0.05-0.11-0.04-0.17c0.08-0.27,0.88-0.76,0.9-1.04
		c0-0.05-0.05-0.11-0.04-0.17c1.24-0.41,0.63-1.06,1.27-1.51l0.02-0.27c0.14-1.2,0.82-1.37,1.9-1.13c0.22,0.02,0.54,0.15,0.81,0.22
		c-0.06,0.05-0.06,0.11-0.07,0.16c-0.02,0.22,0.42,0.25,0.4,0.58l0,0.05c-0.03,0.38,0.64,0.32,0.56,0.65
		c-0.02,0.27-0.23,0.15-0.3,0.36c0.16,0.12,0.25,0.35,0.18,0.62c-0.13,0.98-0.8,0.38-0.94,0.87c-0.02,0.33,0.34,0.58,0.34,0.69
		s-0.18,0.15-0.18,0.21c-0.01,0.11,0.1,0.12,0.09,0.23c-0.02,0.27-0.2,0.43-0.54,0.57c0.04,0.28,0.08,0.45,0.06,0.67
		c-0.07,0.16-0.28,0.09-0.29,0.2c0,0.06,0.09,0.23,0.08,0.39c0,0.05-0.06,0.11-0.13,0.21c-0.01,0.11-0.29,0.15-0.3,0.31
		s0.06,0.72,0.04,1l-0.04,0.49c-0.01,0.16-0.03,0.38,0.13,0.51c-0.2,0.48-0.46,0.96-0.49,1.4c-0.01,0.16,0.03,0.33,0.19,0.4
		c-0.12,0.16-0.2,0.43-0.21,0.59c-0.04,0.55,0.31,1.02,0.5,1.47c0.67-0.06,1.43,0.1,1.88-0.14c0.12-0.1,1.36-0.51,1.25-0.52
		c1.24-0.3,0.51-0.18,1.83-0.86c0.92-0.49,1.78-0.97,2.72-1.79c0.06,0,0.11,0.06,0.22,0.07s0.18-0.15,0.24-0.26
		c0.63-0.29,0.6,0.15,1.27-0.74l0.22,0.02c0.27,0.02,0.05-0.66,0.38-0.63c0.17,0.01,0.22,0.02,0.21,0.18
		c1.04-0.59,2.11-1.67,2.43-1.64c0.34-0.2,0.59-0.56,0.89-0.87c0.12-0.16,1.21-0.68,1.15-0.69l0.11,0.01
		c-0.05-0.11-0.04-0.17-0.04-0.22c0.02-0.22,1.54-1.49,2.23-1.82l0.01-0.16c0.02-0.33,0.48,0.2,0.5-0.07c0,0,0.48,0.2,0.49,0.15
		c-0.23,0.15-0.29,0.97-0.52,1.07c-0.23,0.15-0.22-0.07-0.33,0.03c-0.05,0-0.12,0.1-0.18,0.15c-0.12,0.1,0.08,0.39-0.38,0.63
		c-0.24,0.2-0.67,0.17-0.57,0.23c0,0.05-0.86,1.15-1.27,1.56c-0.54,0.62-1.69,1.2-1.63,1.21c-0.44-0.03-0.82,0.71-1.02,1.14
		c-0.22,0.04-0.91,0.38-0.85,0.38c0,0-0.05,0-0.05-0.06c-0.54,0.57-0.81,0.55-1.34,1.06l-0.01,0.11c-0.02,0.27-0.56,0.18-0.57,0.29
		l-0.01,0.11c-0.18,0.26-0.96,0.32-1,0.81c-0.13,0.32-0.86,0.49-0.98,0.59c-1.19,0.47-2.49,1.58-2.31,1.43
		c-0.12,0.1-0.18,0.15-0.18,0.21c-0.05,0-0.51,0.18-0.78,0.16c-0.11-0.01-0.22-0.02-0.27-0.07c-0.82,0.6-1.49,0.72-2.01,1.12
		l-0.16-0.01c0,0-0.64,0.4-1.73,0.32c-0.49-0.04-0.2-0.35-0.52-0.37c-0.11-0.01-0.22,0.04-0.39,0.03c0.06,0-0.89-0.67-0.89-0.67
		l0.02-0.22c0.02-0.27-0.63-0.43-0.57-0.48l-0.11-0.01l0.02-0.27c0-0.06-0.27-0.07-0.26-0.18l0.02-0.22
		c0.01-0.11-0.21-0.13-0.21-0.18c-0.1-0.12-0.2-1.01-0.21-0.84l-0.05-0.06c0-0.06,0.06-0.05,0.06-0.11c-0.05,0-0.26-0.96-0.33-1.46
		c0.02-0.27,0.19-0.37,0.21-0.65c0.02-0.33-0.18-0.56-0.16-0.89c0.02-0.27,0.32-0.58,0.34-0.86l0.04-0.6
		C278.46,143.44,278.68,143.45,278.77,142.96z M256.27,135.38c-0.32-0.19-0.63-0.49-1.07-0.46c0,0-1.92-0.91-1.92-0.97
		c0.03-0.44-0.62-0.54-0.73-0.6c-0.17,0.04-0.32-0.13-0.54-0.15c-0.06,0-0.22-0.07-0.37-0.19c-0.11-0.01-0.22-0.07-0.27-0.07
		c-0.17,0.1-0.39,0.08-0.61,0.07c-0.25-0.29-0.52-0.42-0.79-0.44c-0.33-0.02-1.29,1.89-1.35,1.89c-0.06,0.05-0.29,0.2-0.24,0.26
		c-0.51,0.13-0.26,0.48-0.77,0.66c-0.03,0.44-0.27,0.64-0.28,0.81c0,0-1.42,2.88-2.47,3.68c-0.02,0.33,0.01,0.55,0.11,0.78
		c-0.45,0.08-0.85,1.1-0.84,0.99c-0.03,0.38,0.02,0.5,0,0.77c-0.04,0.49-0.24,0.31-0.28,0.81c0.01-0.11,0.19,3.43,1.02,3.49
		c0.49,0.04,0.8-0.38,0.85-0.38c0.17,0.01,0.11,0.06,0.27,0.07c0.82,0.06,0.58-0.45,1.24-0.41c0.11,0.01,0.26,0.24,0.64,0.27
		l0.02-0.27c0.07-0.99,1.44-0.89,1.73-1.09c1.38-0.84,1.7-2.14,3.69-2.93c0.24-0.26,0.31-0.53,0.34-0.86l0.01-0.16
		c1.08-0.47,1.62-1.87,2.46-2.74c-0.21-0.18,0.22-0.76,0.26-1.25C256.42,136.33,256.18,135.82,256.27,135.38z"/>
	<path d="M294.94,155.96c-0.05-0.02-0.12,0.02-0.21-0.07c-0.05-0.02-0.47-0.68-0.95-0.83l-0.1-0.03c0.19-0.58-0.01-1.04-0.31-1.55
		c0.29-0.89,0.39-1.9,0.66-2.73c0.17-0.52,0.36-0.92,0.74-1.21c0.03-0.1,0-0.17,0.03-0.28s0.15-0.3,0.19-0.4
		c0-0.17-0.09-0.09-0.05-0.19c0.02-0.05,0.12-0.02,0.12-0.02c0.05-0.16,0.17-0.7,0.29-1.06c0.07-0.21,0.12-0.37,0.22-0.33l0.1,0.03
		c0.02-0.05,0-0.17,0.03-0.28c0.22-0.68,0.42-0.39,0.57-0.86c0.07-0.21,0.63-1.41,0.55-1.67c0.16,0.05,0.59-0.91,0.69-0.87
		c0.45-0.66,0.88-1.28,1.24-2.03c0.26,0.08,0.4,0.01,0.45-0.14l0.03-0.1c0.02-0.05,0.17,0,0.23-0.16c0.05-0.16-0.04-0.24-0.07-0.31
		c0.23,0.02,0.62-0.84,0.92-1.21c0.02-0.05-0.02-0.12,0-0.17c0.07-0.21,0.43-0.26,0.5-0.47c0.05-0.16,0.03-0.28,0.08-0.44
		c0.07-0.21,0.19-0.05,0.24-0.21c0.02-0.05,0-0.17,0.03-0.28c0.03-0.1,0.1-0.14,0.1-0.14c0.14-0.07,0.38-0.63,0.86-0.88l0.07-0.21
		c0.24-0.73,1.43-1.91,1.41-1.85c0,0,0.07-0.04,0.09-0.09c0.07-0.21,0.07-0.38,0.12-0.54c0.1-0.31,0.07,0.14,0.79-1.01
		c0.03-0.1,0.22-0.33,0.43-0.44c0.05,0.02,0.09-0.09,0.14-0.07c0.12-0.19,0.64-1.24,0.67-1.17c0.1-0.31,0.73-0.63,0.86-0.88
		c0.22-0.68,1.58-2.38,2.09-2.5c-0.1-0.03-0.09-0.09-0.05-0.19c0.12-0.37,0.86-1.22,0.98-1.24l0.03-0.1
		c0.22-0.68,1.33-1.07,1.35-1.12c0.03-0.1-0.14-0.1-0.11-0.21c0.1-0.31,0.97-0.84,0.95-0.79c0.19-0.58,0.6-0.79,0.76-1.26l0.05,0.02
		c0.26,0.09,0.29-0.37,0.45-0.32c0.1,0.03,0.24,0.14,0.35,0.17c0.16,0.05,0.31-0.07,0.31-0.07c0.05,0.02,0.07,0.14,0.33,0.22
		c0,0,0.24-0.04,0.3-0.02c0.37,0.12,0.68,0.22,0.65,0.67l0.21,0.07c0.16,0.05,0.35,0.17,0.38,0.24l-0.05,0.16
		c-0.14,0.42,0.07,0.83-0.06,1.25c-0.12,0.37-0.46,1.24-1.12,1.49l-0.26-0.09l-0.07,0.21c-0.14,0.42-0.68-0.57-1.16,0.89
		c-0.63-0.2-0.39,1.2-1.56,1.05c-0.34,0.7-0.98,2.28-1.34,2.17l-0.05-0.02l-0.09,0.26l-0.16-0.05l-0.07,0.04
		c-0.02,0.05,0,0.17,0,0.17s-0.69,0.7-0.79,1.01l-0.07,0.21c-0.07,0.21-0.15,0.3-0.31,0.25c-0.21-0.07-0.24-0.14-0.18-0.35l0.03-0.1
		c-0.84-0.27-0.61-0.26-1.2,0.48c-0.03,0.1-0.26,0.09-0.28,0.14c-0.28,0.31-0.7,1.62-1.33,1.77l-0.21,0.63
		c-0.17,0.52-0.45,0.49-0.64,1.06l-0.32,0.99c-0.29,0.89-0.98-0.38-1.5,1.24l-0.03,0.1c-0.14,0.42-1.22,1.63-1.09,1.56l-0.1-0.03
		c-0.1-0.03-0.28,0.49-0.47,0.54l-0.15,0.47c-0.2,0.63-0.5,0.99-0.9,1.33l-0.87,2.67c-0.31-0.1-0.58-0.19-0.84-0.1
		c-0.05,0.5-0.15,1.34-0.32,1.86c-0.08,0.26-0.2,0.63-0.39,0.85l-0.07,0.21c-0.02,0.05-0.02,0.05-0.12,0.02l-0.16-0.05
		c-0.05-0.02-0.07,0.04-0.09,0.09c-0.05,0.16-0.03,0.28-0.05,0.33c-0.08,0.26-0.5,0.47-0.66,0.6c-0.14,0.42,0.25,0.83,0.41,1.06
		l-0.67,0.65c-0.25,1.83-0.25,2.18-0.04,2.24c0.42,0.31,1.34,0.84,1.95,0.58c0.14-0.07,1.42-0.29,1.32-0.32
		c1.27,0.01,0.54,0.12,2.08-0.36c0.92-0.34,1.84-0.67,2.93-1.36c0.07-0.04,0.11,0.03,0.19,0.12c0.1,0.03,0.21-0.11,0.29-0.19
		c0.69-0.18,0.56,0.24,1.32-0.5l0.21,0.07c0.26,0.08,0.15-0.64,0.45-0.49c0.23,0.02,0.3-0.02,0.17,0.17
		c1.18-0.42,2.62-1.29,2.95-1.24c0.4-0.16,0.52-0.53,0.85-0.82c0.16-0.12,1.28-0.39,1.23-0.41l0.1,0.03c-0.02-0.12,0-0.17,0.02-0.23
		c0.07-0.21,1.8-1.26,2.5-1.44c0.02-0.05,0.1-0.14,0.1-0.14c0-0.35,0.38,0.24,0.52,0c0,0,0.42,0.31,0.44,0.26
		c-0.31,0.07-0.6,1.13-0.84,1.17c-0.23,0.16-0.21-0.07-0.35,0c-0.05-0.02-0.09,0.09-0.16,0.12c-0.14,0.07-0.12,0.71-0.52,0.87
		c-0.33,0.12-0.75-0.01-0.66,0.07c-0.02,0.05-1.05,1.1-1.56,1.4c-0.67,0.47-1.68,0.9-1.63,0.92c-0.44-0.08-0.9,0.28-1.14,0.67
		c-0.21-0.07-0.92,0.16-0.87,0.18c0,0-0.05-0.02-0.04-0.07c-0.62,0.49-1.08,0.46-1.75,0.93l-0.03,0.1c-0.03,0.28-0.52,0-0.5,0.12
		l-0.03,0.1c-0.26,0.26-1.03,0.13-1.07,0.63c-0.31,0.25-1.01,0.25-1.15,0.32c-1.25,0.29-2.76,1.18-2.55,1.08
		c-0.14,0.07-0.21,0.11-0.23,0.16c-0.05-0.02-0.76,0.21-1.04,0.18c-0.1-0.03-0.21-0.07-0.25-0.14c-0.88,0.41-1.32,0.15-2.01,0.5
		l-0.16-0.05c0,0-0.57-0.01-1.64-0.3c-0.49-0.1-0.52-0.17-0.84-0.27C295.03,156.05,294.99,155.98,294.94,155.96z"/>
	<path d="M324.13,149c-0.5-0.23-0.78-0.79-0.67-1.29c-0.03-0.07,0-0.12,0.02-0.17c-0.3-0.14-0.21-0.46-0.51-0.6
		c-0.65-0.3-0.64,0.19-0.98,0.27c-0.45-0.09-1.67,0.31-1.83,0.78l-0.1-0.05c-0.35-0.16-0.31,0.28-0.66,0.11l-0.1-0.05
		c-0.12,0-0.67,1.57-1.13,1.11c-0.49,1.17-1.63-0.16-1.99,1.01c-0.54,0.11-0.57,0.04-0.85,0.64c-0.05,0.1-0.05,0.1-0.04,0.22
		c-0.42,0.9-1.79,0.31-2.09,0.96c-0.02,0.05,0.01,0.25-0.04,0.35c-0.02,0.17-0.19,0.15-0.24,0.25c-0.49,0.26-0.8,1.32-1.34,1.68
		c-0.19,0.15-0.95,1.5-0.97,1.55c-0.05,0.1-0.02,0.3-0.09,0.44c-0.11,0.37-0.4,0.72-0.54,1.02c-0.04,0.22-0.01,0.66,0.24,0.78
		c0.15,0.07,0.32-0.16,0.46-0.21c0.34-0.33,1.04,0.12,1.44-0.6c0.12-0.13,0.39-0.06,0.76-0.07c-0.05-0.02-0.08-0.1-0.05-0.15
		c0.27-0.84,1.66-0.68,1.36-0.82l0.53-0.48c-0.03-0.07,0.8-0.41,0.95-0.34c0,0,0.07-0.15,0.04-0.22c0.07-0.27,0.59-0.21,0.63-0.43
		l0.07-0.15c0.02-0.05,0.18,0.14,0.22,0.04c-0.03-0.07,0-0.12,0.02-0.17c0-0.12,0.15-0.05,0.22-0.08c0.02-0.05,0.02-0.17,0.02-0.17
		c0.07-0.15,0.32-0.03,0.34-0.08c0.05-0.1,0.07-0.27,0.32-0.16l0.1,0.05c0.2-0.69,1.04-0.54,1.11-0.94
		c0.21-0.69,1.44-0.36,1.63-0.88l0.07-0.15l-0.03-0.07c0.12,0,0.34-0.33,0.5-0.55c0.02-0.05,0.05-0.1,0.04-0.22l0.02-0.05
		c0.38-0.55,1.1-1.18,1.25-1.11l0.25,0.12c0.15,0.07,0.22,0.04,0.27,0.07c0.15,0.07,0.33,0.21,0.57,0.33l0.45,0.21
		c-0.05-0.02,0.94,1.11,0.87,1.5c-0.07,0.15-0.14,0.3-0.11,0.37c-0.14,0.42,0.21,0.71,0.12,0.91c-0.05,0.1-0.04,0.22-0.09,0.32
		c-0.12,0.25-0.02,0.3-0.08,0.57c-0.12,0.25-0.39,0.3-0.5,0.8c-0.09,0.2-0.11,0.62-0.2,0.94c0,0,0.08,0.1,0.05,0.15
		c-0.07,0.15-0.23,0.5-0.39,0.97c0.03,0.07,0,0.12,0,0.12s-0.05-0.02-0.07,0.03c-0.16,0.59,0.13,1.15-0.14,2.12
		c-0.06,0.4-0.15,0.72-0.05,1.13c-0.07,0.15-0.09,0.32-0.16,0.47c-0.09,0.32-0.03,0.71-0.14,1.09c-0.02,0.17-0.04,0.22-0.21,0.33
		c0.13,0.24,0.11,0.54,0.39,0.73c0.15,0.19,0.04,0.44,0.19,0.64c0.56,0.75,0.81,0.99,1.06,1.11c0.2,0.09,0.35,0.04,0.5,0.11
		c0.3,0.14,0.38,0.24,0.62,0.35c0.3,0.14,1.96,0.62,2.1,0.44c0.28,0.31,0.53,0.68,0.71,0.94c-0.14,0.3-0.54,0.23-0.86,0.14
		c0,0.12,0.08,0.22,0.06,0.27c-0.23,0.62-0.69,0.16-0.95,0.22l-0.02,0.05c-0.02,0.05-2.38-0.75-2.6-0.8
		c-0.05-0.02-0.08-0.1-0.13-0.12l-0.35-0.16c-0.5-0.23-2.43-1.56-2.23-2.5c-0.97-0.52-0.65-1.58-1.16-2.31l-0.01-0.25
		c0.3-0.89,0.02-2.36,0.07-2.22c0.06-0.4,0.17-1.26,0.26-1.58c0.02-0.05,0.05-0.1,0.14-0.42c0.09-0.2-0.01-0.25,0.06-0.4
		c0,0,0.07-0.03,0.1-0.08c0,0-0.1-0.05-0.08-0.1c0.07-0.27,0.16-0.47,0.25-0.67c0.07-0.15,0.04-0.35-0.06-0.52
		c-0.67-0.13-1.34,0.52-1.97,0.96c-0.57-0.08-1.45-0.01-1.64,0.38c-0.04,0.35,0.4,0.43,0.31,0.76c-0.15-0.07-0.24,0.25-0.26,0.3
		c-0.07,0.03-0.22-0.04-0.25,0.01l-0.05,0.1c-0.05,0.1-0.25,0.01-0.37,0.01c-0.85,0.27-1.5,0.87-2.24,1.01
		c-0.22,0.87-0.73,0.26-0.93,1.08l-0.07,0.15c-0.67-0.01-1.8,0.73-2.25,0.52c-0.1-0.05-0.1-0.17-0.28-0.31
		c-0.25-0.12-0.86,0.14-0.83,0.09c-0.3-0.14-1.05-0.49-1.09-0.27c0,0-0.2-0.22-0.3-0.26c-0.2-0.09-0.3-0.02-0.45-0.09
		c-0.13-0.12-0.16-0.32-0.3-0.39l-0.2-0.09c-0.8-0.37-0.78-1.83-0.78-1.83c0.02-0.05,0-0.12,0.04-0.22
		c-0.1-0.17-0.33-0.34-0.26-0.49c0.09-0.32,0.38-0.43,0.47-0.75c0.04-0.22,0.11-0.37,0.16-0.47c0.02-0.17,0.14-0.18,0.19-0.28
		c0,0-0.13-0.12-0.08-0.22c0.07-0.27,0.76-0.98,0.9-1.28l0.02-0.05c0.02-0.17,0.24-0.13,0.31-0.28l0.07-0.15
		c0.07-0.27,0.41-0.35,0.61-1.05c0.02-0.05,0.04-0.22,0.04-0.22c0.71,0.03,0.79-0.91,1.23-0.94c-0.1,0.08,0.86-1.05,1.18-0.96
		c0.07-0.03,0.1-0.08,0.1-0.08c0.02-0.17-0.13-0.37-0.13-0.37c0.19-0.4,1.43-0.85,1.28-0.79c0.14-0.18,0.41-0.35,0.53-0.6l0.1,0.05
		c0.8,0.37,0.7-1.37,1.75-1c0,0-0.03-0.07,0-0.12c0.02-0.17,0.32-0.03,0.46-0.33c0,0,0.05-0.1,0.02-0.17
		c0.15,0.07,0.2-0.03,0.4,0.06l0.1,0.05c0.02-0.05,0-0.12,0-0.12c0.05-0.1,0.07-0.15,0.07-0.27c0,0,0.31-0.28,0.46-0.21l0.15,0.07
		c0.1,0.05,0.16-0.35,0.33-0.45c0.91-0.12-0.02,0.17,1.63-0.88c0-0.12,0.69-0.04,1.12-0.45c1.03,0,1.73-0.71,2.43-0.38
		c0.05,0.02,0.18,0.14,0.23,0.17c0.07-0.15,0.63-0.19,0.83-0.09c0.1,0.05,0.05,0.15,0.1,0.17c0.02-0.05,0.57,0.08,0.82,0.2
		c0.3,0.14,0.08,0.22,0.18,0.27l0.25,0.12c1.08,0.81,1.18,1.89,1.15,1.82c-0.02,0.05-0.07,0.03-0.1,0.08c0,0.12,0.14,0.61,0.07,0.76
		c-0.09,0.32-0.38,0.43-0.47,0.75c-0.05,0.1-0.07,0.15,0.01,0.25c-0.62-0.11-1.15,0.37-1.2,0.35
		C324.28,149.07,324.23,149.05,324.13,149z M323.91,166.82c-0.1-0.05-0.08-0.1-0.03-0.07L323.91,166.82z"/>
	<path d="M369.86,198.06c0.13-0.4,0.38-0.1,0.63-0.47c-0.09-0.15,0.1-0.28,0.24-0.52c0,0,0.19-0.79,0.61-0.85l0.12,0.11
		c0.11-0.2,0.01-0.43,0.08-0.59c0.35-0.64,1-0.88,1.52-1.22c0.37-0.26,0.7-0.63,0.97-0.76c0.04-0.04,0.08,0.07,0.19-0.05
		c0.07-0.08,0.5-0.15,0.72-0.32c0.3-0.25,0.13-0.4,0.24-0.52c-0.04,0.04,0.16-0.01,0.23-0.01c0.07-0.08,0.87-0.4,1.06-0.53
		c-0.21-0.18-0.37-0.33-0.52-0.16c-0.22,0.25-0.33-0.21-0.67-0.15c-0.2-0.1-0.22,0.17-0.5,0.15c-0.11,0.12-0.75-0.15-0.99,0.37
		c-0.81-0.57-1.44,0.63-2.21,0.09c-0.55,0.54-1.18,0.5-1.76,0.5c-0.35-0.02-0.58,0.07-0.79-0.11c-0.28,0.56-0.68,0.27-1.02,0.57
		c-0.44-0.17-0.91-0.22-1.38-0.35l-0.73,0.82c-0.23,0.01-0.61,0.27-1.05,0.02c-0.21-0.18-0.38,0.1-0.53,0.19
		c-0.16,0.01-0.41-0.36-0.59-0.08c-0.57-0.43-1.23-0.43-1.99-0.66c-0.12-0.03-0.26-0.53-0.56-0.2c-0.3-0.41-0.52-0.9-0.52-1.49
		c-0.21-0.18-0.35-0.02-0.56-0.28c-0.08-0.66,0.42-1.39,0.53-2.17c0.05-0.39,0.46-0.85,0.77-1.37c0.03-0.12,0.06-0.24,0.17-0.36
		c0.22-0.25,0.72-0.39,0.94-0.56c0.15-0.16,0.2-0.56,0.39-0.69c-0.04,0.04,0.2,0.03,0.23-0.01c0,0,0.07-0.16,0.15-0.16
		c0.26-0.21,0.64-0.39,0.94-0.56c0.11-0.05,0.22-0.17,0.3-0.25l-0.04,0.04c-0.11,0.05-1.39,0.24-1.68-0.09l-0.19,0.13
		c-0.75,0.51-1.88-0.12-1.88-0.12c-0.04,0.04-0.11,0.12-0.19,0.13c-0.07,0.08-0.41-0.29-0.75-0.07l-0.23,0.09
		c-0.13-0.19-0.35-0.02-0.52-0.24l0-0.08c-0.94,0.56-2.23-0.22-2.94-0.25c-0.74,0.01-2.34-0.02-2.81-0.65
		c-0.79-0.11-3.48-1.47-3.31-1.32l-0.45-0.4c-0.12-0.03-0.35,0.06-0.47-0.05c-0.08-0.07,0.02-0.35-0.26-0.53
		c-0.04-0.04-0.2-0.03-0.23,0.01l0.01,0.16c-0.08-0.07-0.12-0.03-0.2-0.1c-0.12-0.03-0.17-0.15-0.25-0.22
		c-0.08,0-0.11,0.05-0.11,0.05c-0.16-0.07-0.14-0.42-0.55-0.71c-0.12-0.03-0.6-0.24-0.75-0.07c-0.33-0.29-0.33-0.88-0.97-1.3
		c-0.12-0.11-0.21-0.18-0.4-0.21c0.01-0.51-0.35-1.26-0.43-1.34c-0.16-0.15-0.43-0.01-0.51-0.01c-0.29-0.26,0.27-0.64,0.03-0.78
		l-0.17-0.15c0.14-0.24-1.36-1.94-0.68-2.96l0.18-0.21c-0.19-0.61-0.18-1.12,0.24-1.85c0.29-0.33-0.39-0.64,0.09-1.1
		c0.06-0.32,0.32-0.53,0.62-1.28c0.41-0.88-0.15-0.58,1.25-2.57c0.43-0.65,0.52-0.42,0.59-0.5c0.04-0.04-0.09-0.15,0.05-0.39
		c0.68-0.94,2.22-2,3.11-2.76c0.16,0.15,1.94-1.44,2.05-1.56c0.18-0.21,0.68-0.27,1.18-0.42c0.04-0.04-0.01-0.23-0.05-0.27
		c0.22-0.25,0.36,0.1,0.66,0c0.19-0.13,0.36-0.41,0.62-0.62c0.23-0.01,0.68,0.23,0.78,0.03l0.18-0.21c0.25-0.37,2.53-0.7,2.68-0.78
		l0.15-0.16c0.14-0.24,1.42-0.44,1.66-0.22l0.21,0.18c1.13-0.69,2.71-0.98,3.6-0.41c0.03-0.12,0.03-0.12,0.1-0.2
		c0.32-0.53,1.38,0.27,1.82-0.15c1.06,0.72,1.7,0.48,2.57,0c2.73,0.07,2.22,0.72,3.54,1.23c0.04,0.04,0.17,0.22,0.21,0.26
		c0.08,0.07,0.15-0.16,0.23-0.09c0.2,0.1,0.22,0.34,0.22,0.34c0.6,0.31,0.42-0.14,1.15,0.36c0.9,0.65,2.41,2.43,2.24,2.28l0.33,0.29
		c0.08,0.07,0.01,0.16,0.01,0.16c-0.04,0.04-0.03,0.12-0.03,0.12l0.04,0.04c0.12,0.03,0.2,0.1,0.28,0.18
		c0.04,0.04,0.09,0.23,0.26,0.45c0.47,0.13,0.05,0.78,0.82,1.31l0.12,0.11c0.01,0.82-0.66,1.4,0.5,2.42
		c-0.25,1.03,0.21,2.17-0.37,2.98c-0.25,0.44-0.74,0.08-1.06,0.45l-0.15,0.16c-1.25,1.83-2.16,1.69-4,2.85
		c-0.22,0.25-0.66,0-0.82-0.07c-0.53-0.4-0.8-1.08-1.06-1.46c0.18-0.21,0.33-0.29,0.4-0.45c0.32-0.45,0.49-0.96,0.88-1.49
		c0.11-0.12,0.21-0.32,0.4-0.45l0.07-0.08c0.21-0.32,0.43,0.01,0.61-0.27c0.04-0.04,0.14-0.24,0.18-0.28
		c0.11-0.12,0.4,0.13,0.43,0.01c0.18-0.21-0.07-0.5,0-0.58c0.04-0.04,0.34-0.14,0.45-0.34c0.14-0.24,0.05-0.39,0.16-0.52
		s0.34-0.22,0.48-0.38c0.61-0.85,0.3-2.16,0.05-3.04c-0.44-0.17-0.78-0.03-1.17-0.09c-0.25-0.22-0.41-0.36-0.74-0.58
		c-0.49-0.36-0.91-0.96-1.69-1.5c-0.2-0.1-1.65-0.29-1.47-0.42c-0.08-0.07-0.05-0.11-0.05-0.11c0.03-0.12,0.15-0.09,0.26-0.21
		c0.14-0.24-0.99-0.21-0.81-0.5c-0.78-0.03-1.99,1.25-2.44,0.85c-0.16-0.07-0.37-0.33-0.54-0.47l-0.12-0.11l-0.11,0.12
		c0,0-1.15-0.36-1.38-0.35c-0.27-0.02-2.47,0.46-3.04,0.03c-0.86-0.03-1.34,1.09-2.27,0.41l-0.18,0.21
		c-0.28,0.48-1.59,1.38-2.29,0.84c-0.92,0.95-2.68,0.71-2.93,1.15l-0.44,0.49c-0.46,0.69-0.68,0.27-1.15,0.89
		c-0.22,0.25-0.25,0.44-0.5,0.73c-0.64,0.97-1.26,0.35-1.9,0.82c-0.27,0.72-0.52,1.67-0.85,2.04c-0.18,0.28-0.64,0.31-0.79,0.48
		c-0.14,0.24,0.18,0.38,0.14,0.42c-0.18,0.28-0.38,0.18-0.38,0.18c-0.88,1.57-1.32,4.05-1.16,3.97l-0.11,0.12
		c-0.11,0.2,0.54,0.63,0.64,0.94c0.1,0.38-0.14,0.98,0.15,1.16c0.08,0.07,0.28,0.18,0.37,0.25c0.13,0.19,0.02,0.9,1.44,1.94
		c0.2,0.1,0.41,0.29,0.77,0.54c0.12,0.11,0.33,0.21,0.45,0.32c0.17,0.15,0.27,0.02,0.31-0.02c0.12,0.11,0.18,0.38,0.3,0.41
		c0.44,0.17,0.99,0.21,1.32,0.51l0.33,0.29c0.51,0.75,2.19,0.76,3.5,1.11c0.12,0.03,0.21,0.26,0.37,0.33c0.08,0,1.26,0.24,1.41,0.15
		c0.31-0.1,0.64,0.27,0.87,0.26c0.04-0.04,1.16-0.23,1.05-0.1l0.11-0.12c0.21,0.18,2.35,0.91,3.55,0.14c-0.04,0.04,0,0.08,0.04,0.11
		c0.43,0.68,1.94-0.78,3.15-0.07c0.07-0.08,0.15-0.16,0.3-0.25c0.41-0.3,1.5,0.38,1.99,0.07c0.04-0.04,0.12,0.03,0.24,0.14
		l0.04-0.04c0.22-0.17,0.5-0.07,0.61-0.19c0,0,0.34-0.22,0.42-0.22l0.32,0.06c0.19-0.05,0.3-0.25,0.53-0.34
		c0.11-0.05,0.37,0.25,0.48,0.21s0.26-0.21,0.34-0.21c0.31-0.02,0.62-0.04,0.94,0.1c0.21-0.4,0.42-0.22,0.7-0.63
		c0.33,0.37,0.58-0.15,1.03,0.25c0.16-0.01,0.41-0.3,0.64-0.39c0.33,0.29,0.6,0.24,0.86,0.1c1.34,0.97,2.18,1.35,2.92,2.59
		c0.16,0.07,0.65,1.17,0.92,1.11c-0.03,0.2,0.59,0.74,0.69,1.05c-0.26,0.21,0.52,0.24,0.34,0.52c-0.07,0.16-0.09,0.43,0.04,0.62
		c0,0,0.2,0.1,0.21,0.18c0.05,0.11-0.17,0.36-0.13,0.48c0.41,0.36,0.45,0.4,0.76,0.38c0,0,0.36,0.17,0.4,0.13
		c0,0,0.07-0.16,0.15-0.16c0.31-0.1,0.77-0.2,1.11-0.34c0.12,0.03,0.05,0.19,0.23-0.01l0.11-0.12c0.3-0.17,0.15-0.16,0.68-0.43
		c0.33,0.37,0.72,0.35,1.05,0.56c0.16,0.15,0.09,0.23,0.22,0.42c0.17,0.22,0.45,0.4,0.5,0.59c-0.03,0.2-0.05,0.47,0.01,0.82
		c0.04,0.11,0.24,0.14,0.25,0.22c-0.07,0.16-0.16,0.52-0.03,0.86c-0.63,0.54-1.36,0.63-1.92,1.09c-0.2-0.03-0.39-0.05-0.52-0.16
		c-0.52,0.5-1.35,0.28-1.46,0.98c-0.36-0.1-0.62,0.11-0.92-0.37c-0.19,0.13-0.25,0.29-0.52,0.34c-0.08,0-0.32-0.06-0.35-0.02
		c-0.26,0.21-0.47,0.54-0.66,0.74c-0.15,0.09-0.62,0.04-0.33,0.37c-0.51-0.01-0.93,0.13-1.32,0.74c-0.43-0.09-0.84,0.21-1.16,0.23
		c-0.25,0.37-0.74,0.59-1,0.8s-0.5,0.15-0.64,0.31c-0.22,0.17-0.25,0.44-0.42,0.73c-0.07,0.08-0.22,0.17-0.29,0.33
		c-0.1,0.2-0.52,0.5-0.8,0.91c-0.11,0.12-0.62,0.62-0.58,0.74c-0.25,0.37,0.06,0.42-0.18,0.87c-0.07,0.16,0.14,0.34,0.19,0.53
		c0.41,0.36,1.17,0.59,1.56,0.65c1.36,0.54,3.28,0.7,3.2,0.78c1.23-0.23,1.35,0.46,2.06-0.01c0.04-0.04,0.11-0.05,0.11-0.05
		c0.53,0.32,0.75,0.15,1.61,0.25l0.12,0.11c0.09,0.15,0.42-0.06,0.47-0.03c0.67,0.08,1.47,0.42,2.07,0.15
		c0.2,0.1,0.36,0.1,0.44,0.25l0.08,0.07c0.2,0.03,0.65-0.23,0.74-0.01c0.08,0.07,0.08,0,0.19-0.05c0.04-0.04,0.08,0,0.04,0.04
		l-0.07,0.08c0.08,0,0.15-0.09,0.19-0.13l0.07-0.08c0,0,0,0.08,0.05,0.11c0.04,0.04,0.62-0.12,0.77-0.12c0.08,0,0.39,0.05,0.58,0
		l0.07-0.08c0.8,0.42,1.65,0.21,2.28,0.25c0.04,0.04,0.81-0.09,0.89-0.09c0.31-0.02,1.2-0.11,1.35-0.2l0.18-0.21l0.04,0.04
		c0.09,0.23,0.96-0.17,0.98,0.14l0.08,0.07l0.11-0.12c0.08,0.07,0.17,0.22,0.22,0.42c0.34,0.45,0.44,0.83-0.46,1.35
		c-1.25-0.08-0.38,0.76-1.12,0.18c-0.27,0.06-0.38,0.18-0.57,0.23c-0.19,0.05-0.83-0.22-1.3-0.19c-0.27-0.02-0.87-0.18-0.85,0.05
		c0.09,0.23-0.35-0.02-0.94-0.02c0-0.08-0.26,0.13-0.31,0.02c0-0.08-0.09-0.23-0.13-0.26l-0.11,0.12c-0.35-0.02-0.93,0.06-1.68-0.02
		c-0.08,0-0.11,0.05-0.15,0.09c-0.15,0.09-0.6-0.24-0.97,0.02l-0.04,0.04c-0.29-0.26-1-0.37-1.14-0.2l-0.12-0.03
		c-0.07,0.08-0.12-0.11-0.12-0.11c-0.09-0.15-0.46,0.18-0.65,0.16c-0.27-0.02-0.49-0.36-0.91-0.22c-0.07,0.16-0.15,0.16-0.15,0.09
		c0,0-0.08,0-0.05-0.11c-0.22,0.17-0.31-0.06-0.47,0.03l-0.11,0.12c-0.37-0.33-0.74-0.07-1.1-0.17c-0.66,0-2.42-0.01-2.35-0.17
		c-0.23,0.09-0.55-0.12-0.89,0.09c0.04-0.04-0.12-0.11-0.12-0.11c-0.17-0.3-0.3,0.25-0.43-0.09l0.03-0.12l-0.07,0.08
		c-0.07,0.08-0.27,0.06-0.31,0.1c-0.3,0.17-2.13-0.49-2.38-0.71c-0.04,0.04-0.11,0.05-0.11,0.05c-0.34,0.14-0.38,0.1-0.68,0.27
		c0.04-0.04,0.03-0.12,0.03-0.12c-0.21-0.26-0.99-0.21-1.18-0.16c-0.08,0-0.12-0.11-0.24-0.06c-0.03,0.12-0.08,0-0.12-0.11
		c0-0.08-0.04,0.04-0.09-0.15c-0.25-0.22-1.2-0.55-1.46-0.92c-0.13-0.27-0.22-0.42-0.32-0.72c0.14-0.32-0.19-0.53-0.27-0.69
		C370.1,199.37,369.79,198.72,369.86,198.06z M377.95,188.03c-0.05-0.11,0.29-0.41,0.32-0.45c-0.17-0.22-0.45-0.32-0.58-0.51
		c0,0,0.07-0.16,0.06-0.24l-0.12-0.11c-0.08-0.07,0.07-0.16,0.03-0.2c-0.34-0.45-0.75-0.81-1-1.11c-0.29-0.33-0.51-0.09-0.75-0.23
		c-0.39-0.05-0.6-0.24-0.84-0.46c-0.72,0.32-1.45-0.11-2.04,0.47c-0.31,0.02-0.56-0.28-0.92,0.21c-0.21-0.18-0.38,0.1-0.61,0.19
		c-0.44-0.17-0.77,0.2-1.04,0.26c-0.54,0.11-0.81,0.09-1.26,0.35c-0.19,0.13-0.29,0.41-0.62,0.62c-0.63-0.12-0.97,0.68-1.44,0.71
		c-0.73,0.24-1.52,1.22-2.19,1.73c-0.32-0.14-0.42,0.22-0.6,0.43l-0.37-0.33c-0.07,0.16-0.18,0.21-0.26,0.21
		c-0.07,0.16,0.01,0.16-0.03,0.2c-0.27,0.64-0.86,1.3-0.28,1.81c0.55,0.12,1.12-0.18,1.64,0.13c0.31-0.6,0.72-0.32,0.92-0.29
		c0.23-0.01,0.29-0.33,0.38-0.18c0.4,0.13,0.64,0.2,1.04,0.48c-0.03-0.47,0.49-0.22,0.72-0.32c0.04,0.04,0.07-0.08,0.07-0.08
		c0.19-0.13,0.15-0.01,0.19-0.05c0.11-0.05,0.33-0.29,0.61-0.27c0.62-0.11,1.21,0.12,1.79,0.05c0.08,0,0.18-0.21,0.25-0.29
		c0.04-0.04,0.28,0.1,0.36,0.1c0.19-0.05,0.33-0.29,0.56-0.38c0.04-0.04,0.16-0.01,0.27-0.06c0.23-0.01,0.63,0.12,0.74,0.07
		l0.37-0.41c0.35-0.06,0.98,0.14,1.13,0.05c0.19-0.05,0.34-0.21,0.49-0.3c0.16-0.01,0.36,0.17,0.44,0.17
		c0.16,0.07,0.34-0.14,0.52,0.16c0.41-0.38,0.87-0.48,1.29-0.62c0.55,0.04,0.86,0.03,1.42-0.36c-0.25-0.22-0.15-0.58-0.33-0.88
		C378.31,188.2,378.03,188.1,377.95,188.03z M364.93,185.3l0.04,0.04L364.93,185.3z"/>
	<path d="M388.49,209.47c0.3-0.14,0.13-0.29,0.38-0.13c0.25,0.16,1.53,0.27,1.7,0.42c0.33-0.1,0.32-0.5,0.7,0.04
		c0.37-0.05,1.14,0.28,1.53,0.74c0.35-0.18,1.19-0.03,1.52,0.35c0.73,0.09,1.4,0.56,2.21,0.47c0.44,0.43,0.97,0.33,1.36,0.59
		c0.21-0.08,0.27,0.01,0.41,0.11c0.26,0.08,0.63,0.23,1,0.17c0.09,0.13,0.19,0.07,0.22,0.12c0.37,0.14,0.68,0.2,0.97,0.33l0.68,0.4
		l1.11,0.43c0.03,0.04,0.08,0.21,0.13,0.18c0.14,0.1,0.37,0.14,0.6,0.18c0.13,0.18,0.13,0.38,0.33,0.57c0.14,0.1,0.32-0.02,0.4-0.01
		c0.14,0.1,0.18,0.35,0.28,0.4c0.28,0.21-0.19,0.87,0.16,0.9c0.25,0.16-0.08,0.46-0.09,0.73c0,0,0.17,0.15,0.16,0.23l-0.04,0.03
		l0.13,0.18c0.03,0.04-0.09,0.06-0.09,0.06c-0.08,0.46-0.39,0.88-0.15,1.32c-0.34-0.1-0.33,0.3-0.46,0.59
		c-0.15,0.17-0.42,0.36-0.54,0.58c-0.21,0.28-0.45,0.12-0.63,0.24c-0.5,0.15-0.78,0.61-1.21,0.58c-0.15-0.03-0.51-0.25-0.81-0.1
		c-0.43-0.71-0.46-0.75-0.92-1.31c0.18-0.13-0.16-0.42-0.17-0.62c-0.03-0.04,0.09-0.06,0.09-0.06c0.07-0.19,0.13-0.49,0.08-0.66
		c0.58-0.41,0.71-0.9,0.78-1.29c-0.3-0.53-0.05-0.84-0.46-0.75c-0.27-0.48-0.64-0.43-1.03-0.42c-0.3-0.53-0.73-0.56-1.05-0.54
		l-0.44-0.63c-0.28-0.21-0.17,0.32-0.5,0.35c-0.22-0.31-0.85-0.35-0.86-0.74c-0.06-0.09-0.32,0.22-0.46,0.12
		c-0.34-0.3-0.89-0.31-1.31-0.43c-0.26-0.08-0.45-0.16-0.56-0.41c-0.5,0.15-0.38-0.54-0.79-0.26c-0.31-0.25-0.63-0.23-0.92-0.36
		c-0.33,0.3-1.06-0.46-1.41-0.09c-0.27-0.28-1.28-0.38-1.66-0.45c-0.24,0.04-1.06-0.26-1.21-0.29c-0.04,0.03-0.14-0.1-0.18-0.07
		c-0.41-0.11-0.98-0.05-1.13-0.08l-0.81-0.1c-0.31-0.05-0.55-0.02-0.9-0.04c-0.03-0.04-0.17,0.05-0.34-0.1
		c-0.26,0.11-0.42,0.16-0.58,0.14l-0.04,0.03c-0.04,0.03-0.5,0.15-0.54,0.18c-0.61-0.11-0.73,0.11-1.18,0.42
		c-0.22-0.12-0.49,0.07-0.69-0.12c-0.68,0.47-1.21,0.38-1.82,0.67c-0.31-0.05-0.05-0.17-0.32-0.45c-0.15,0.17-0.29-0.13-0.43-0.23
		c-0.09,0.06-0.17,0.05-0.25-0.16c0.03,0.04,0.1-0.14,0-0.2c-0.09,0.06-0.33,0.1-0.5-0.05c0.02-0.55-0.04-1.11,0.25-1.65
		c0.01-0.08-0.11-0.06,0.07-0.18c0.14-0.09,0.27-0.19,0.21-0.28l0.71-0.23c0.04-0.03,0.26,0.08,0.34,0.1c0,0,0.1-0.14,0.18-0.13
		c0.2,0,0.32-0.22,0.51-0.23c0.26,0.09,0.63-0.24,1.2-0.11c0.31-0.22,0.5-0.35,0.75-0.46l0.77-0.14c0.04-0.03,0.06,0.09,0.2,0
		l0.27-0.19c0.05-0.03,0.17,0.15,0.22,0.12c0.17-0.05,0.19-0.2,0.27-0.19c0.04-0.03,0.14,0.1,0.23,0.04
		c0.23-0.16,0.32-0.22,0.48-0.27c0.17-0.05,0.4-0.01,0.64-0.05c0.18-0.13,0.32-0.22,0.64-0.24c0.12-0.02,0.3-0.14,0.38-0.13
		c0.08,0.01,0.45,0.16,0.58,0.06c0.3-0.14,0.85-0.13,1.17-0.15c0.26-0.39,0.68-0.28,0.93-0.79c0.16,0.23,0.47-0.19,0.59-0.01
		c0.54-0.38,1.1-0.44,1.66-0.7c0.26-0.11,0.54-0.38,0.86-0.4c0.04-0.03,0.15-0.17,0.23-0.16c0.14,0.1-0.02-0.12,0.27-0.19l0.67-0.2
		l0.18-0.13c0.18-0.13,0.35,0.02,0.44-0.04c0.29-0.07,0.5-0.35,0.86-0.4c0.31-0.42,0.43-0.44,0.81-0.37
		c0.27-0.19,0.46-0.12,0.43-0.64l0.21-0.28c0,0,0.22-0.36,0.26-0.39c0.17,0.15,0.06-0.11,0.23,0.04c0.32,0.18,0.33-0.1,0.71,0.24
		c0.03,0.04,0.05,0.17,0.13,0.18l0.09-0.06c0.34,0.3,0.48,0.4,0.66,0.95c0.06,0.09,0.14,0.3,0.19,0.47
		c-0.01,0.08-0.15,0.17-0.16,0.25c0.03,0.04,0.17,0.15,0.13,0.18c-0.01,0.08-0.15,0.17-0.02,0.35c0.18,0.35-0.19,0.4,0.05,0.84
		c-0.06,0.11-0.23,0.16-0.32,0.22c-0.06,0.11-0.08,0.26-0.43,0.44c0,0-0.14-0.1-0.11-0.06c-0.04,0.23-0.09,0.06-0.32,0.22
		c0,0,0.06,0.09-0.07,0.19c0,0-0.15-0.03-0.33,0.1c-0.13,0.09-0.3,0.14-0.42,0.16c-0.09,0.06-0.37,0.05-0.58-0.06
		c-0.45,0.32-0.54,0.38-0.87,0.48c-0.04,0.03-0.19,0.2-0.22,0.16c-0.25-0.16,0,0-0.36,0.25l-0.11-0.06l-0.36,0.25
		c-0.12,0.22-0.26-0.08-0.37-0.14c-0.51,0.42-1.62,0.47-2.43,0.56c-0.09,0.06-1.82,0.47-1.72,0.61
		C389.28,208.78,387.13,209.35,388.49,209.47z"/>
	<path d="M394.99,225.55c0.24-0.13,0.95-0.44,1.19-0.56l1.78-0.62c0.56-0.23,0.96-0.19,1.57-0.33l0.58-0.31
		c0.05-0.03,1.06,0,2.68-0.1c0.05-0.03,0.12-0.13,0.17-0.15s0.07,0.02,0.1,0.07l0.05,0.1c0.05-0.03,0.12-0.13,0.2-0.1
		c0.15-0.08,0.15,0.05,0.2,0.14c0.05-0.03,0.12-0.13,0.17-0.15c0.1-0.05,0.47,0.19,1.03,0.08c2.97-0.13,2.69,0.39,4.97,1.18
		c0.32,0.14,0.77,0.28,0.82,0.38c0.08,0.15,0.57,0.14,0.72,0.43c0.22-0.05,0.4,0.16,0.52,0.41l0.23,0.44
		c0.1,0.19,0.31,0.58,0.5,0.48c0.03,0.05-0.01,0.57,0.11,0.81c0.05,0.1,0.25,0.24,0.35,0.44c0.15,0.29-0.29,1.33-0.2,1.28l0.05,0.1
		c0.15,0.29,0.04,0.66,0.01,0.74c0.05,0.1,0.17,0.1,0.22,0.07c0.03,0.05-0.35,2.29-1.25,2.71c-0.34,0.18-0.56,0.11-0.64-0.04
		c-0.03-0.05-0.68,0.23-0.69,0.11l-0.15,0.08c-0.24,0.13-0.37,0.01-0.64,0.09c-0.05,0.03-0.07,0.1-0.12,0.13
		c-0.41-0.78-0.92-0.7-0.95-0.74c-0.05-0.1-0.03-0.17-0.05-0.22c-1.02-0.52-1.93-0.48-2.16-0.92c-0.03-0.05,0-0.12-0.03-0.17
		c-0.27,0.08-0.47,0.06-0.59-0.19l-0.05-0.1c-0.57-0.14-1.16-0.08-1.75-0.26c-0.4-0.16-0.63-0.85-1.14-0.64
		c-0.05,0.03-0.17,0.03-0.22,0.05c-0.38-0.73-2.66-1.4-2.73-1.42l-0.24,0.13l-0.05-0.1c0.03,0.05-0.38-0.36-0.55-0.33l-0.2,0.1
		c-0.19,0.1-0.43-0.46-0.89-0.28l-0.15,0.08c-0.3-0.34-0.32-1.2-0.59-1.12c-0.29,0.15-0.51,0.45-0.75,0.58
		c-0.07-0.02-0.35-0.07-0.49,0.01c-0.29,0.15,0.06,0.47-0.36,0.62c-0.19,0.1-0.37,0.13-0.59,0.06l-0.35,0.74
		c-0.12,0-0.27,0.2-0.32,0.23c-0.22,0.05-0.07,0.35-0.31,0.47l-0.15,0.08c-0.43,0.6-0.09,1.72,0.37,2.6c1.05,2,2.19,1.34,3.08,2.55
		c0.25,0.24,0.59,0.19,0.99,0.23l0.05,0.1c0.41,0.78,1.19,0.25,1.59,1.03c0.05-0.03,0.05-0.03,0.12,0c0.24-0.13,0.35,0.19,0.59,0.06
		c0.07-0.1,0.79,0.21,0.84,0.18c0.64-0.09,1.43,0.37,1.33,0.29c0.02-0.07,0.07-0.1,0.12-0.13c0.22-0.05,1.57-0.2,1.95,0.41
		c0.26,0.61-0.6,0.87-1.58,1.01c-0.15,0.08-0.54,0.04-0.46,0.18c-0.79-0.21-3.15,0.04-3.75-0.64c-1.51-0.63-1.99-0.95-2.45-0.76
		c-0.05,0.03-0.82-0.5-0.87-0.48c-0.81-0.94-2.14-1.36-2.17-1.41c-0.23-0.44-0.95-0.87-1.18-1.31c-0.08-0.15-0.1-0.32,0.04-0.52
		c-0.15-0.05-0.37-0.12-0.54-0.09c0-0.25-0.19-0.96-0.14-0.86c-0.05-0.1-0.17-0.1-0.22-0.19c-0.03-0.05,0.07-0.1,0.02-0.2l-0.05-0.1
		c0.04-1.45-0.69-1.07-0.05-2.7c0.12-0.25-0.04-0.54,0.16-0.64c0.12,0,0.25,0,0.34-0.06s0.01-0.69,0.45-0.92
		c0.04-0.39,0.75-0.58,0.67-1.1c0.09-0.17,0.93-0.36,0.83-0.56C393.99,226.14,394.96,225.5,394.99,225.55z M409.39,227.19
		c-0.03-0.05-0.03-0.17-0.08-0.27c-0.77-0.28-1.9-0.31-2.99-0.61l-0.29,0.15c-1.42,0.62-1.2-0.99-2.1-0.57
		c-0.27,0.08-0.36,0.25-0.66,0.41c-0.27,0.08-0.37-0.12-0.57-0.01c-0.05,0.03-0.12,0.13-0.17,0.15c-0.25-0.24-1.8-0.36-1.95-0.28
		c-0.05,0.03-0.51,0.21-0.41,0.4c0.46,0.88,3.02,0.9,3.85,2.02c0.37-0.01,0.69,0.01,1.13-0.1c0.05,0.1,0.03,0.17,0.05,0.22
		c0.49,0.93,1.46,0.17,1.99,1.19c0.07,0.02,0.07,0.02,0.17-0.03c1.37-0.59,1.4,1.13,2.72,0.56c0.34-0.18,1.24-0.71,0.96-1.25
		c-0.41-0.78-1.04-1.5-1.31-1.67C409.58,227.21,409.46,227.34,409.39,227.19z"/>
</g>
</svg>
