<?xml version="1.0" encoding="utf-8"?>
<!-- Generator: Adobe Illustrator 24.3.0, SVG Export Plug-In . SVG Version: 6.00 Build 0)  -->
<svg version="1.1" id="Layer_1" xmlns="http://www.w3.org/2000/svg" xmlns:xlink="http://www.w3.org/1999/xlink" x="0px" y="0px"
	 viewBox="0 0 504 504" style="enable-background:new 0 0 504 504;" xml:space="preserve">
<style type="text/css">
	.st0{fill:#FFFFFF;}
</style>
<g>
	<path class="st0" d="M257.87,268.94c0,38.59-24.07,52.91-55.88,52.91s-57.57-14.19-57.57-52.78s25.77-86.97,57.57-86.97
		S257.87,230.35,257.87,268.94z"/>
	<g>
		<path d="M255.21,269.65c-0.03,12.72-2.78,26.05-11.33,35.88c-3.51,4.04-7.71,7.12-12.4,9.45c-4.65,2.31-9.95,3.78-15.24,4.61
			c-11.76,1.84-24.8,1.36-36.37-2.27c-10.74-3.37-20.34-9.98-26.01-19.88c-6.83-11.92-7.71-26.41-6.16-39.79
			c1.69-14.52,6.25-28.83,13.18-41.69c6.06-11.25,14.47-22.49,25.88-28.73c2.41-1.32,4.78-2.29,7.17-2.93
			c2.39-0.64,4.72-0.95,7.51-0.9c5.31,0.09,10.83,1.92,15.5,4.65c11.34,6.62,19.52,17.9,25.39,29.41
			c6.61,12.98,10.83,27.33,12.33,41.82C255.02,262.73,255.21,266.19,255.21,269.65c0,1.28,5.31,0.39,5.3-1.42
			c-0.03-15.06-3.39-30.18-9.14-44.07c-5.32-12.84-12.98-25.58-24.01-34.31c-4.77-3.78-10.25-6.73-16.2-8.12
			c-6.13-1.43-12.57-1.16-18.6,0.61c-13.05,3.82-23.36,13.61-30.95,24.57c-8.61,12.45-14.47,26.88-17.57,41.67
			c-2.96,14.12-3.78,29.72,1.33,43.45c4.23,11.37,12.72,20.14,23.73,25.14c11.69,5.32,25.18,6.58,37.88,5.79
			c12.52-0.77,25.43-3.93,35.53-11.69c10.05-7.73,15.53-19.36,17.26-31.74c0.52-3.75,0.73-7.53,0.74-11.31
			C260.52,266.96,255.22,267.83,255.21,269.65z"/>
	</g>
</g>
<g>
	<ellipse class="st0" cx="201.14" cy="277.41" rx="35.67" ry="34.23"/>
	<g>
		<path d="M234.15,277.73c-0.07,13.64-8.7,26.08-21.61,30.61c-6.14,2.15-13.32,2.27-19.82,0.44c-6.52-1.83-12.43-5.68-16.8-10.84
			c-8.93-10.54-10.3-26-3.04-37.81c7.19-11.69,20.87-17.44,34.18-14.7c13.44,2.77,24.4,13.64,26.66,27.27
			C233.99,274.36,234.15,276.05,234.15,277.73c0.01,1.19,1.36,1.33,2.31,1.22c0.78-0.09,3.01-0.71,3-1.85
			c-0.04-7.49-2.37-14.66-6.86-20.67c-4.47-5.99-10.82-10.35-17.87-12.75c-14.91-5.07-32.67-0.58-43.1,11.3
			c-4.9,5.58-8.09,12.58-8.71,20.02c-0.62,7.44,1.22,14.81,5.18,21.13c8.47,13.48,25.13,19.28,40.42,16.26
			c14.87-2.94,27.85-14.43,30.46-29.69c0.32-1.85,0.46-3.71,0.47-5.59c0.01-1.19-1.37-1.32-2.31-1.22
			C236.36,275.97,234.16,276.59,234.15,277.73z"/>
	</g>
</g>
<g>
	<path d="M44.48,288.11c0.13,0,0.17-0.17,0.35-0.17h0.09c0.04,0.48,1.43,0.83,1.3,0.74c0.22,0.13,1.13,0.96,1.13,0.96
		c0.17,0,0.17-0.17,0.39-0.17c0.04,0,0.96,1.3,1.22,1.61c-0.09,0.09-0.09,0.09-0.09,0.13c0,0.26,0.22,0.48,0.22,0.69
		c0,0.13-0.13,0.04-0.13,0.17c0.04,0.43,0.17,1,0.26,1.48c0,0.09-0.04,0.17-0.04,0.35c0,0.61,0.96,0.91,0.96,1
		c0.52,0.22,0.48,1,1,1.17c0,0.83,0.35,1.3,0.35,2.08c0,0.35-0.09,1.22-0.22,1.65c0,0.09-0.13,0-0.13,0.22
		c-0.04,0.65-0.65,2.17-0.65,2.26c0,0.09,0,0.17,0.04,0.35c-0.26,0.04-0.56,1-0.56,0.87c-0.04,0.3-0.48,0.35-0.48,0.78
		c0,0.09-0.43,1.13-0.82,1.17c0,0.09,0.04,0.09,0.04,0.17c0,0.74-0.91,1.26-0.91,1.26v0.17c0,0.13-0.39,0.17-0.39,0.52v0.17
		c-0.22,0-0.17,0.22-0.43,0.22h-0.09c0,0.91-1.13,1.48-1.43,2c-0.35,0.48-1.52,1.61-2.17,1.65c-0.22,0.04-0.26,0.26-0.26,0.48h-0.13
		c-0.3,0-0.48,0.57-0.78,0.57c-0.35,0.04-0.52,0.52-1.61,0.74h-0.17c-0.09,0-0.26,0.3-0.3,0.3c-0.39,0.13-1.04,0.17-1.65,0.17
		c-0.48,0-1-0.04-1.61-0.04h-0.04c-0.39,0-1.04-1.26-1.09-1.09v-0.09c-0.87,0-1-0.26-1-0.78h-0.13c-0.26,0-0.13-0.39-0.43-0.39
		h-0.13c0-0.74-0.56-1.48-0.56-1.48s-0.48-0.78-0.48-0.7c0-0.09,0.09-0.3,0.09-0.43c0,0.04-0.35-1.04-0.35-1.82
		c0-0.13,0.09-0.39,0.09-0.52c0-0.3-0.22-1-0.26-0.96c0.04-0.13,0.3-0.43,0.3-0.52c0-0.09-0.09-0.17-0.09-0.3
		c0-0.26,0.26-0.87,0.26-1.04c0-0.26-0.17-0.43-0.17-0.65c0.22,0,0.43-1.74,0.69-1.91v-0.26c0-0.17,0-0.3-0.17-0.3
		c0.26-0.3,0.56-0.96,0.56-1.26v-0.22c0-0.65,0.78-1.69,0.78-1.65v-0.17c0.3-0.39,0.48-0.74,0.48-1.22c0-0.04-0.04-0.13-0.04-0.26
		c0.35-0.04,0.83-1.3,0.83-1.26c0-0.52,0.52-0.52,0.52-0.91c0.04-0.22,0.56-0.61,0.78-0.78v-0.04c0-1.08,1.39-1.26,1.39-2.17v-0.09
		c0.56-0.22,0.91-0.52,1-1.04c0.61,0,0.56-0.56,1.17-0.56c0.04,0,0.09,0,0.09,0.09c0.09-0.04,0.09-0.22,0.09-0.3v-0.26
		c0.04,0.04,0.09,0.04,0.13,0.04c0.22,0,0.61-0.7,1.13-0.7h0.26c0.35,0,0.39-0.13,0.74-0.13c0.39,0,0.91,0.09,1.09,0.39
		C44.31,288.11,44.44,288.11,44.48,288.11z M43.22,290.93h-0.17c-0.13,0-0.13,0.22-0.22,0.22h-0.17c-0.22,0-0.22,0.26-0.39,0.26
		h-0.09v0.09c0,0.48-1.13,1.39-1.35,1.48c0,0-0.22-0.22-0.35-0.22c-0.04,0-0.09,0.22-0.17,0.22c-0.13,0-0.3-0.13-0.48-0.13
		c-0.26,0-0.43,0-0.43,0.3c0,0.04,0.04,0.17,0.04,0.22c0,0.22-0.22,0.26-0.22,0.65c0,0.26-0.22,0.04-0.22,0.26
		c0.04,0.04,0.09,0.13,0.09,0.17c0,0.13-0.04,0.22-0.04,0.39c0,0,0,0.13,0.09,0.22c-0.39,0.09-0.35,0.48-0.39,0.74h-0.17
		c-0.91,0-1.26,2.43-1.39,2.74c-0.22-0.04-0.56-0.17-0.83-0.17c-0.39,0-0.48,1-0.48,1.56v0.3c-0.13,0-0.13,0.22-0.13,0.35
		c-0.17,0.3-0.65,0.26-0.65,0.74c0,0.09,0.17,0.13,0.17,0.39c0,0.13-0.3,0.04-0.3,0.61c0,0.17,0.04,0.39,0.04,0.61
		c0,0.35-0.17,0.26-0.17,0.52v0.35c0,0.17-0.13,0.17-0.13,0.39v0.35c0,0.3-0.3,0.91-0.3,1.56c0,1.39,0.3,2.61,0.65,3.86
		c0.35,0.13,0.65,0.43,0.83,0.7c0.3,0.74,0.35,0.3,0.52,0.61c0.09,0,0,0.3,0.13,0.35h0.91c0.17,0.39,0.78,0.3,1.13,0.48
		c0.48-0.48,1.43-0.48,1.69-0.48c0.04-0.43,0.7-0.3,0.78-0.65h0.13c0.74,0,1.65-1.35,2.48-2.08c0.09-0.09,0.26-0.04,0.39-0.13
		c0.04-0.04,0.74-0.78,0.74-0.91c0.04-0.26,0.43-0.3,0.56-0.48c0-0.04,0.3-0.74,0.35-0.78v-0.13c0.22-0.09,1.69-1.35,1.69-2.48
		c0,0.04,0.04,0.04,0.09,0.04c0.65,0,0.3-1.69,1.3-2.21c0-0.09-0.04-0.22-0.04-0.35c0-0.39,0.35-0.83,0.35-1.26v-0.43
		c0-0.35,0.09-0.35,0.13-0.69c0-0.65-0.13-1-0.13-1.13v-0.3c0-0.17-0.3-0.22-0.3-0.43v-0.3c0-0.09,0-0.13-0.04-0.13
		c-0.52,0-0.96,0.96-0.96,0.96c-0.04,0-0.96,1.13-1.17,1.26c-0.04,0.61-0.56,0.78-0.78,1.13c-0.39-0.09-0.26-0.91-0.61-0.91
		c-0.17,0-0.17,0.26-0.22,0.26c-0.04,0-0.04,0-0.09-0.09c0.09-0.65,0.09-1.22,0.7-1.3c0-0.52-0.09-0.56,0.22-1.09
		c0.26-0.39,0.3-0.3,0.39-0.65c0-0.22,0.09-0.3,0.09-0.39s-0.09-0.13-0.09-0.22c0-0.13,0.17-0.39,0.17-0.61v-0.35
		c0-0.22,0-0.43,0.13-0.61c-0.3-0.09-0.3-0.17-0.3-0.17c-0.09,0-0.09,0-0.13,0.04c0-0.26-1.04-0.43-1.04-1.04
		c0.09-0.26,0.52-0.26,0.56-0.65c0.04,0,0.13,0.04,0.17,0.04c0.26,0,0.43-0.09,0.43-0.35v-0.13c0-0.35-0.39-0.17-0.39-0.48
		c0-0.04,0.04-0.09,0.04-0.13c0-0.26-0.26-0.22-0.26-0.52v-0.13c-0.56-0.17-1.35-0.09-1.87-0.26
		C43.65,290.58,43.26,290.93,43.22,290.93z M38.01,295.06c0.26,0,0.43-0.22,0.43-0.48c0-0.13-0.04-0.3-0.22-0.3
		c-0.04,0.22-0.39,0.35-0.39,0.56c0,0.04,0.04,0.13,0.09,0.22H38.01z M38.18,295.62c0.17,0,0.17-0.13,0.17-0.22
		c0-0.17,0-0.26-0.17-0.26c-0.17,0-0.09,0.3-0.09,0.43C38.14,295.62,38.18,295.62,38.18,295.62z"/>
	<path d="M70.75,301.61c-0.35-0.09-0.65-0.22-0.96-0.22c-0.91,0-0.74,0.87-1.3,0.87c-0.04,0.17-0.04,0.35-0.22,0.48
		c-0.04,0.09-0.35,0-0.48,0.39h-0.09c-0.61,0-0.26,0.39-0.39,0.69c-0.26,0.17-0.43,0.26-0.39,0.61c-0.35,0.17-0.74,0.39-0.65,0.65
		v0.09c-0.04,0-0.09-0.04-0.09-0.04c-0.56,0-0.3,0.65-0.3,0.7c-0.09,0.04-0.39,0.04-0.35,0.3c0,0.04,0.04,0.09,0.09,0.13
		c0,0.09-0.09,0.13-0.22,0.13h-0.13c0.13,0.52-0.26,0.3-0.3,0.78H64.8c-0.13,0-0.43,0.26-0.43,0.26c0.17,0.43-0.43,1.22-0.43,1.35
		c-0.17,0.04-0.3,0.22-0.3,0.3l0.04,0.09c-0.13,0.09-0.22,0.22-0.39,0.26v0.13c0.04,0.22-0.17,0.22-0.13,0.43
		c0,0.04,0.09,0.09,0.09,0.13c-0.17,0.09-0.35,0.09-0.3,0.43c0.09,0.35-0.04,0.22,0.09,0.52c0,0.26-0.78,1.13-1.26,1.48
		c0.04,0.09,0.04,0.17,0.04,0.17c0.13,0.39-0.39,1.35-0.7,1.43h-0.26c-0.26,0-0.48-0.09-0.65-0.09c-0.22,0-0.17,0.17-0.26,0.3
		c-0.13-0.04-0.26-0.04-0.35-0.04c-0.22,0-0.35,0-0.56,0.04c-0.3-0.3-0.7-0.48-1.13-0.61c-0.22-0.48-0.78-0.87-1.17-1.17l-0.09-0.22
		c-0.13-0.35-0.3-0.7-0.52-1.04c-0.04-0.39,0-0.69-0.22-1.22c-0.04-0.04-0.17-0.35-0.26-0.35c-0.04-0.09,0.13-0.22,0.09-0.39
		c0-0.43-0.26-0.96-0.39-1.52c0-0.04-0.13-0.78,0.04-0.87c-0.09-0.09-0.13-0.22-0.17-0.35c-0.13-0.22-0.04-0.56-0.17-0.96l-0.09-0.3
		c0,0,0.13,0,0.09-0.04c0-0.09-0.09-0.13-0.17-0.13h-0.04c0-0.3,0.22-0.26,0.04-0.65l-0.04-0.3c-0.17-0.35,0.13-0.52,0.09-0.65
		c0-0.04-0.22-0.26-0.26-0.39c-0.09-0.13,0.13-0.43,0.09-0.7c-0.09-0.13-0.22-0.17-0.22-0.22c-0.04-0.04,0-0.04-0.04-0.17
		c-0.04-0.26-0.17-0.48-0.22-0.65c-0.52-1.48,0.48-2,0.39-2c-0.04-0.09-0.09-0.13-0.09-0.17c-0.09-0.39,0.17-0.65,0.09-0.91
		l-0.09-0.13c0-0.13,0.22-0.13,0.13-0.22c-0.09-0.04-0.22-0.13-0.3-0.26c-0.04-0.26,0.48-0.52,0.48-0.56h0.04
		c0.04,0,0.04,0.09,0.04,0.09c0.22,0,0.39-0.04,0.61-0.04c0.56,0,0.87,0.39,1,0.39c0.22,0.13,0.56,0.13,0.83,0.22
		c0.17,0.13,0.3,0.3,0.61,0.39v0.09c0.09,0.13,0.17,0.17,0.17,0.26s0.04,0.09-0.13,0.13c0.13,0.22,0.48,0.22,0.52,0.35
		c0,0-0.09,0-0.09,0.09c0,0.04,0.17,0,0.22,0.09c0.09,0.3-0.22,0.39-0.04,0.78c-0.22,0.26-0.43,0.09-0.61,0.3l0.04,0.22
		c0.22,0.52-0.17,0.7,0,1.22c-0.13,0.13-0.52,0.17-0.39,0.48c0,0.09,0,0.09,0.04,0.13c-0.57,0-0.26,0.69-1,0.87
		c0.17,0.52,0.69,1.09,0.22,1.09l0.13,0.09c-0.04,0.09,0.09,0.22,0.09,0.3c0.13,0.35-0.39,0.17-0.3,0.39
		c-0.04,0.09,0.09,0.13,0.13,0.22c0.04,0.09-0.22,0.09-0.17,0.13c0.04,0.09,0.17,0.13,0.22,0.26c-0.04,0.13-0.13,0.17,0,0.22
		c0,0.09,0,0.17,0.17,0.26c-0.22,0.04,0,0.22-0.22,0.22c0.13,0.22,0.3,0.26,0.39,0.48c-0.04,0.26-0.22,0.43-0.04,0.78
		c0.04,0.13,0.09,0.3,0.26,0.48c-0.26,0-0.22,0.13-0.22,0.39l0.56,0.96c0,0.09-0.09,0.17-0.09,0.26c0.04,0,0.13,0.04,0.13,0.04
		c0,0.13-0.09,0.04-0.09,0.17c0.13,0.17,0.43,0.48,0.57,0.61c0,0.22,0.13,0.39,0.17,0.56c0.13,0.35,0.43,1.35,0.87,1.35
		c0.78,0,0.09-0.87,0.74-0.87c0-0.13,0.17-0.22,0.13-0.43l-0.13-0.04c0.22,0,0.13-0.22,0.3-0.22h0.13c0-0.09-0.09-0.56,0.04-0.56
		h0.13c0.17,0,0.04-0.35,0.04-0.39c0.26-0.04,0.3-0.22,0.52-0.35c-0.13-0.04-0.13-0.04-0.13-0.13c-0.04-0.3,0.3-0.61,0.26-0.7
		l0.04-0.04c-0.09-0.09,0.04,0.04,0-0.09v-0.09c0.04-0.09,0.3-0.52,0.3-0.52c0.09,0,0.13,0.09,0.22,0.09
		c-0.04-0.13,0.48-0.96,0.43-0.96c0.3,0,0.13-0.3,0.52-0.3c-0.04-0.04-0.04-0.04-0.04-0.09c-0.13-0.3,0.17-0.61,0.56-0.74V306
		c-0.13-0.61,0.83-0.61,0.78-0.91l-0.13-0.26c-0.17-0.65,0.78-0.69,0.65-1.04c0-0.04-0.09-0.04-0.09-0.13
		c0.56-0.09,0.96-1.43,1.43-1.48c0-0.65,0.83-0.74,0.61-1.39c0.17-0.17,0.56-0.17,0.48-0.57l-0.04-0.09c0.13,0,0.43,0,0.48-0.13
		c-0.09-0.35,0.13-0.04,0.48-0.48c0.09-0.09,0.43-0.35,0.48-0.52c0,0.04,0.04,0.04,0.09,0.04c0.04,0,0.13,0,0.13-0.04
		c0.22-0.35,1.43-0.87,2.04-0.43c0.48,0.35,0.57,1.52,0.78,1.52c0.69,0.56,1,0.91,1.61,1.52c0.43,0,0.74,0.74,0.43,0.78
		c-0.09,0.04,0.3,0.26,0.17,0.3c-0.04,0.04-0.13,0.04-0.17,0.26c-0.26,0-1.13,0.56-1.35,0C71.97,302.31,70.97,302.13,70.75,301.61z"
		/>
	<path d="M85.39,307.61c0-0.17,0-0.3-0.13-0.35c0.09-0.3,0.35-0.52,0.39-0.78c0-0.04-0.09,0.09-0.17-0.09
		c-0.43,0.35-0.65,1.56-1.43,1.48c0,0.22-0.17,0.3-0.17,0.48v0.17c0,0.09-0.26-0.04-0.3,0.04c-0.09,0.04-0.04,0.26-0.17,0.35
		c-0.04,0-0.35,0.3-0.35,0.39c0,0.04,0.04,0.13,0.04,0.17c0,0.04,0,0.04-0.04,0.04h-0.13c-0.3,0-0.83,0.52-0.83,0.69
		c0,0.04,0,0.09,0.04,0.22c-0.39,0.43-0.87,0.39-0.91,1c0,0-0.35,0.3-0.26,0.35c-0.35,0.22-1.08,0.91-1,0.78
		c-0.09,0.13-0.26,0.3-0.35,0.52c0,0.26-1.65,0.87-1.65,0.74c0,0.13,0.13,0.22,0.13,0.3c0,0-0.04,0-0.13-0.04
		c-0.09,0-0.09,0-0.09,0.04c0,0.04-0.13,0.09-0.13,0.13c-0.04,0.09-0.74,0.3-0.78,0.26c-0.3-0.09-0.39-0.17-0.56-0.22
		c-0.43,0.13-1,0.3-1.48,0.35c-0.56-0.3-1.3-0.74-1.26-1.39c-0.52-0.04,0.43-1.69,0.04-1.91c0-0.82,0.26-0.78,0.35-1.43
		c0-0.43,0.26-0.48,0.26-1.04c0.26-0.09,0.83-1,0.39-1.35c0-0.22,0.26-0.69,0.3-1.52c-0.04,0-0.04-0.04-0.04-0.04
		c0.04-0.17,0.26-0.09,0.3-0.22c0-0.04-0.04-0.13-0.04-0.26c0-0.17,0.43-0.3,0.43-0.65c0-0.17,0.09-0.39,0.13-0.65
		c0.13,0,0.17-0.04,0.17-0.22c0-0.04-0.04-0.13-0.04-0.17c0.04-0.39,0.26-0.22,0.26-0.39c0-0.13,0.39-1.09,0.39-1.17
		c0.04-0.13,0.26-0.17,0.26-0.35c0-0.13-0.13-0.3-0.09-0.43c0.13-0.13,0.35-0.3,0.39-0.65c0-0.22,0.13-0.26,0.13-0.48
		c0-0.09,0.04-0.13,0.04-0.13c-0.04,0,0.39-0.78,0.35-0.78c0.09,0-0.09-0.26-0.04-0.26c0.22-0.09,0.17-0.35,0.26-0.74
		c0.74-0.09,0,0,0.61-0.26c0.3,0.09,0.43,0.26,0.87,0.26c0.04,0,0.09,0,0.17,0.04c0.39,0.7,1.22,0.96,1.13,2.26
		c0,0.3-0.35,0.39-0.61,1.22c0,0.13-0.96,1.13-1,1.17c-0.52,0.39-0.96,1.91-0.83,1.82c-0.35,0.26-0.3,0.65-0.65,1.22
		c0,0.04-0.04,0.52-0.04,0.56c0,0.26-0.26,0.48-0.26,0.7v0.22c0,0-0.13,0.26-0.39,0.48c0.09,0.09,0.09,0.22,0.09,0.3
		c0,0.17-0.04,0.35-0.26,0.43c0.09,0.04,0,1.22,0,1.39c0,0.22-0.13,0.52-0.13,0.7c-0.13,0.3-0.26,0.83,0.43,0.83
		c0.22,0,0.61,0.04,0.65-0.22v-0.13c0.3,0.13,0.43-0.09,0.87-0.35c0.13-0.09,0.39-0.13,0.52-0.26c0.39-0.17,0.26,0,1-0.52
		c0.78-0.91,1.17-0.91,1.39-1.17c0.35-0.3,0.91-0.56,0.96-1.13v-0.13c0.48,0,1.3-1,1.39-1.35c0-0.22,0.61-0.43,0.65-0.7
		c0-0.04-0.04-0.09-0.04-0.13c0.04-0.22,0.65-0.65,0.65-0.87c0-0.04-0.04-0.09-0.04-0.13c0.96-0.39,0.43-0.87,0.91-1.26v-0.22
		c0.04-0.96,0.56-1.13,1.43-1c0.17,0,0.43,0.09,0.65,0.13c-0.04,0.04-0.04,0.09-0.04,0.13c0,0.17,0.35,0.17,0.35,0.43v0.04
		c0,0.3,0.52,0.22,0.48,0.48c0,0.22-0.17,0.13-0.22,0.3c0.13,0.09,0.22,0.26,0.17,0.48c-0.04,0.78-0.61,0.35-0.69,0.74
		c0,0.26,0.3,0.43,0.3,0.52s-0.13,0.13-0.13,0.17c0,0.09,0.09,0.09,0.09,0.17c0,0.22-0.13,0.35-0.39,0.48
		c0.04,0.22,0.09,0.35,0.09,0.52c-0.04,0.13-0.22,0.09-0.22,0.17c0,0.04,0.09,0.17,0.09,0.3c0,0.04-0.04,0.09-0.09,0.17
		c0,0.09-0.22,0.13-0.22,0.26c0,0.13,0.09,0.56,0.09,0.78v0.39c0,0.13,0,0.3,0.13,0.39c-0.13,0.39-0.3,0.78-0.3,1.13
		c0,0.13,0.04,0.26,0.17,0.3c-0.09,0.13-0.13,0.35-0.13,0.48c0,0.43,0.3,0.78,0.48,1.13c0.52-0.09,1.13,0,1.48-0.22
		c0.09-0.09,1.04-0.48,0.96-0.48c0.96-0.3,0.39-0.17,1.39-0.78c0.69-0.43,1.35-0.87,2.04-1.56c0.04,0,0.09,0.04,0.17,0.04
		c0.09,0,0.13-0.13,0.17-0.22c0.48-0.26,0.48,0.09,0.96-0.65h0.17c0.22,0,0-0.52,0.26-0.52c0.13,0,0.17,0,0.17,0.13
		c0.78-0.52,1.56-1.43,1.82-1.43c0.26-0.17,0.43-0.48,0.65-0.74c0.09-0.13,0.91-0.61,0.87-0.61h0.09c-0.04-0.09-0.04-0.13-0.04-0.17
		c0-0.17,1.13-1.26,1.65-1.56v-0.13c0-0.26,0.39,0.13,0.39-0.09c0,0,0.39,0.13,0.39,0.09c-0.17,0.13-0.17,0.78-0.35,0.87
		c-0.17,0.13-0.17-0.04-0.26,0.04c-0.04,0-0.09,0.09-0.13,0.13c-0.09,0.09,0.09,0.3-0.26,0.52c-0.17,0.17-0.52,0.17-0.43,0.22
		c0,0.04-0.61,0.96-0.91,1.3c-0.39,0.52-1.26,1.04-1.22,1.04c-0.35,0-0.61,0.61-0.74,0.96c-0.17,0.04-0.74,0.35-0.61,0.35
		c-0.04,0-0.04,0-0.09-0.04c-0.39,0.48-0.61,0.48-1,0.91v0.09c0,0.22-0.43,0.17-0.43,0.26v0.09c-0.13,0.22-0.74,0.3-0.74,0.7
		c-0.09,0.26-0.65,0.43-0.74,0.52c-0.91,0.43-1.87,1.39-1.74,1.26c-0.09,0.09-0.13,0.13-0.13,0.17c-0.04,0-0.39,0.17-0.61,0.17
		c-0.09,0-0.17,0-0.22-0.04c-0.61,0.52-1.13,0.65-1.52,1h-0.13c0,0-0.48,0.35-1.35,0.35c-0.39,0-0.17-0.26-0.43-0.26
		c-0.09,0-0.17,0.04-0.3,0.04c0.04,0-0.74-0.48-0.74-0.48v-0.17c0-0.22-0.52-0.3-0.48-0.35h-0.09v-0.22c0-0.04-0.22-0.04-0.22-0.13
		v-0.17c0-0.09-0.17-0.09-0.17-0.13c-0.09-0.09-0.22-0.78-0.22-0.65l-0.04-0.04c0-0.04,0.04-0.04,0.04-0.09
		c-0.04,0-0.26-0.74-0.35-1.13c0-0.22,0.13-0.3,0.13-0.52c0-0.26-0.17-0.43-0.17-0.69c0-0.22,0.22-0.48,0.22-0.7v-0.48
		C85.17,308,85.35,308,85.39,307.61z"/>
	<path d="M121.39,311.91h0.09c0.3-0.13,0.56-0.3,0.65-0.7c0.04,0.04,0.13,0.04,0.17,0.04c0.65,0,0.78-0.91,1.17-1.17
		c0.52-0.13,0.82-0.39,1.13-0.7c0.43,0.09,0.43,0.43,0.74,0.61c-0.96,0.22-0.96,1.35-1.65,1.78c-0.74,0.3-0.3,1-1.09,1
		c-0.39,0-1.13,1.04-1.35,1.04c-0.3,0.26-1.04,0.52-1.48,0.52c-0.61,0-1-0.26-1.48-0.43v-0.13c0-0.09-0.22-0.22-0.26-0.26H118
		c-0.17-0.3-0.22-0.91-0.22-1.22c0-0.04,0.09,0,0.09-0.17c0-0.04-0.09-0.26-0.09-0.26c0-0.13,0.17-0.04,0.22-0.13v-1.09
		c0-0.3,0.04-0.61,0.13-0.65c-0.04-0.26-0.13-0.61-0.13-0.96c0-0.13,0-0.22,0.04-0.35v-0.09c0-0.04-0.04-0.04-0.04-0.17
		c0-0.17,0.13-0.52,0.3-0.61c-0.09-0.09-0.13-0.43-0.13-0.65c0-0.52,0.13-0.91,0.17-1.35c0-0.04-0.04-0.09-0.04-0.17
		s0.09-0.13,0.09-0.22c0-0.3-0.09-0.39-0.09-0.52c0.04,0,0.13-0.69,0.13-1c0-0.26-0.13-0.56-0.13-0.78c0-0.13,0.04-0.26,0.17-0.3
		c-0.09-0.09-0.09-0.17-0.13-0.3l-0.04-0.52c-0.04-0.04-0.09-0.3-0.26-0.3c-0.04,0-0.35,0.39-0.3,0.39h-0.17
		c-0.52,0-0.65,0.74-0.65,0.83c0,0.09,0.09,0.17,0.17,0.35v0.09h-0.13c-0.52,0-0.48,0.43-0.87,0.52c0.09,0.09,0.13,0.04,0.13,0.17
		c0,0.61-1.04,1.22-1.43,1.56c0,0.22,0.09,0.26,0.09,0.26c0,0.04-0.39,0.3-0.39,0.74v0.35h-0.04c-0.22,0-0.13,0.13-0.35,0.13
		l-0.09-0.04c0,0.09-0.04,0.13-0.04,0.17c0.04,0.22,0.17,0.22,0.22,0.43h-0.04c-0.09,0-0.78,0.65-0.78,1.13
		c0,0.13,0.09,0.13,0.09,0.22c-1,0.13-1.17,2.39-1.22,2.56c-0.09,0.09-0.39,0.04-0.39,0.17c0,0.04,0.04,0.17,0.04,0.17
		c0,0.04-0.13,0.09-0.13,0.22c-0.48-0.09-0.56-0.56-1.09-0.56c-0.26,0-0.56,0.22-0.69,0.43c-0.22-0.09-0.48-0.13-0.56-0.39
		c-0.09,0-0.13,0.04-0.13,0.04c-0.69,0-0.65-0.74-0.65-0.65c0-0.09,0.04-0.22,0.04-0.3c-0.04-0.13-0.04-0.17-0.26-0.17
		c0.13-0.22,0.13-0.35,0.13-0.48v-0.26c0-0.26,0.17-0.26,0.17-0.39c0-0.22-0.09-0.74-0.09-0.96c0-0.83,0.22-1.52,0.22-1.74
		c0-0.35-0.09-0.74-0.09-1.04c0-0.22,0.17-0.43,0.17-0.56s-0.22-0.22-0.22-0.39c0-0.13,0.13-0.26,0.17-0.61
		c0-0.09-0.09-0.13-0.09-0.17c0-0.17,0.09-0.39,0.09-1c0-0.04-0.09-0.09-0.09-0.13c0,0,0-0.3,0.13-0.43c-0.04,0-0.22-0.17-0.22-0.26
		V302c0.04-0.04,0.09-0.17,0.09-0.3c0-0.35-0.17-0.87-0.17-1.17c-0.48,0-0.74,0.26-0.78,0.39h-0.04c-0.3,0-0.52,0.83-1.13,1
		c-0.74,1.65-1.35,1.22-1.35,1.74c0,0.04,0.04,0.17,0.09,0.26c-0.39,0-0.3,0.3-0.39,0.56c-0.48,0.26-0.91,0.78-0.91,1v0.04
		c0,0.13-0.17,0.26-0.17,0.48c0,0.04,0.09,0.09,0.09,0.13c-0.35,0-0.61,0.09-0.61,0.48v0.13c-0.39,0.26-1.13,1.69-1.13,1.95
		c0,0.17,0.04,0.3,0.04,0.43c0,0.17-0.3,0.56-0.3,0.52v0.13h-0.13l0.04,0.04h-0.22c-0.39,0.74-0.74,1.26-0.7,2
		c-0.26,0.35-0.78,0.61-0.78,1.13c0,0.13,0.04,0.3,0.09,0.39c-0.09,0.09-0.3,0.13-0.39,0.13c0,0.09,0.04,0.17,0.04,0.22
		c0,0.74-0.74,0.52-0.78,0.78c-0.17,0-0.3-0.13-0.35-0.3v-0.09h-0.04c-0.39,0-0.3,0.26-0.74,0.26c0-0.09-1.26-0.04-1.26-1.26
		c0-0.26,0.26-0.69,0.39-0.74c-0.04-0.17-0.04-0.22-0.04-0.35c0-0.26,0.09-0.48,0.26-0.61c-0.09-0.04-0.13-0.09-0.13-0.13v-0.48
		c0.35,0,0.17-0.39,0.48-0.43c-0.09-0.04-0.09-0.09-0.09-0.13c0-0.09,0.13-0.56,0.22-0.56c0-0.04-0.04-0.13-0.04-0.26
		c0-0.22,0.22-0.22,0.22-0.48c0-0.09-0.04-0.04-0.04-0.13c0-0.13,0.04-0.13,0.04-0.17c0-0.09,0.09-0.43,0.35-0.43
		c-0.09-0.04-0.09-0.13-0.09-0.13c0-0.17,0.13-0.22,0.13-0.26c0-0.04-0.04-0.04-0.09-0.04c0-0.04,0.09-0.26,0.09-0.3v-0.17
		c0.13-0.04,0.09-0.22,0.3-0.22h0.09v-0.13c0-0.48,0.39-0.7,0.39-1.13v-0.13c0.48-0.35,0.26-1.74,0.78-1.74
		c-0.04,0-0.04-0.09-0.04-0.09c0-0.13,0.13-0.17,0.17-0.22c0.22-0.87-0.13-0.83,0.43-1.04c0-0.04-0.04-0.13-0.04-0.22
		c0-0.65,0.43-1.39,0.65-1.65v-0.3c0-0.04,0.13,0.09,0.13-0.26v-0.35c0-0.48,0.22-0.17,0.26-0.39c0-0.04-0.04-0.13-0.04-0.13
		s0.3-0.43,0.43-0.48c0-0.52,0.04-0.43,0.39-1.13v-1.48c0.17-0.17,0.39-0.26,0.48-0.52c0.17,0.09,0.83,0.17,0.83,0.17
		c0.13,0.04,0.13,0.13,0.26,0.13c0.13,0.13,1.48,0.35,1.48,1.3c0.04,0.09,0.09,0.13,0.09,0.22c-0.09,0.35-0.74,2.17-0.82,2.17
		c-0.26,0-0.83,0.52-0.91,0.74v0.09c0,0.43-0.22,1.04-0.35,1.04c-0.65,0-0.83,0.91-0.83,1.04c0.04,0-0.13,1-0.13,1.09
		c-0.04,0.04-0.09,0.13-0.22,0.22c-0.61,0.52-0.91,0.87-0.91,1.43v0.22c0,0.22,0,0.35-0.13,0.35s-0.39,0.96-0.56,0.96
		c-0.22,1.69-1.09,1.17-1.17,2.34c-0.17,0.04-0.22,0.22-0.22,0.43c0,0.09-0.04,0.3,0.17,0.3c0.22,0,0.26-0.13,0.26-0.22
		s-0.04-0.17-0.04-0.3c0.65-0.13,0.39-0.56,0.65-0.65c0.48,0,0.78-1.52,1.65-1.78c0-0.04-0.04-0.04-0.04-0.13
		c0-0.13,0.09-0.17,0.22-0.17c-0.04-0.04-0.04-0.09-0.04-0.17c0-0.35,0.43-0.43,0.43-0.83v-0.09c0.22-0.22,0.43-0.43,0.7-0.56
		c0-0.09-0.04-0.22-0.04-0.26c0-0.22,0.22-0.26,0.22-0.52h0.04c0.13,0,0.13-0.22,0.26-0.22h0.13c0.3-0.3,0.7-0.65,0.7-1.17
		c0-0.09,0-0.17-0.04-0.26c0.17,0,0.13-0.13,0.17-0.17c0.04,0,0.09,0.04,0.17,0.04c0,0,0.09,0,0.09-0.04c0-0.04-0.04-0.09-0.04-0.09
		c0-0.13,0.26-0.09,0.3-0.17c0.26-0.09,0.09-0.39,0.26-0.52h0.04c0,0,0.35-0.48,0.48-0.74c0-0.04,0.61-0.87,0.87-0.87
		c0.35-0.69,1.08-1.43,1.08-1.52v-0.17c0.09-0.09,0.52-0.04,0.65-0.04c0.26,0.09,0.48,0.13,0.48,0.17h0.17c0,0-0.04,0.04-0.04,0.09
		c0.04,0.04,0.09,0.04,0.09,0.04h0.17v0.09c0,0.04,0.69,0.3,0.78,0.35c0.17,0.48,0.78,0.83,0.78,1.22c0,0.13-0.13,0.13-0.13,0.22
		c0.13,0.17,0.43,1.13,0.43,1.13c0,0.09-0.09,0.04-0.09,0.13c0,0.35,0.09,0.61,0.09,0.74c0,0.35-0.22,0.13-0.35,0.39
		c0.04,0.09,0.04,0.22,0.04,0.26c0,0.22-0.17,0.3-0.17,0.43c0,0.87,0.17,0.61,0.17,1.69c0,0.35-0.13,0.7-0.13,0.96
		c0,0.22,0.35,0.78,0.35,0.78v0.09c0,0.3-0.3,0.39-0.3,0.52c0.04,0.04,0.04,0.22,0.04,0.22c-0.17,0.26-0.61,0.09-0.35,0.56
		c0.43-0.09,0.43-0.52,0.83-0.69c0-0.04-0.04-0.09-0.04-0.17c0-0.22,0.83-0.83,0.83-1.17c0-0.04-0.04-0.09-0.04-0.17
		c0.22,0,0.96-0.83,0.96-0.96v-0.26c0.13-0.04,0.09-0.26,0.22-0.26h0.13c0.04,0,0.09-0.04,0.09-0.13v-0.09c0-0.04,0-0.09,0.04-0.09
		h0.09c0.09,0,0.22-0.17,0.22-0.17c0-0.04,0-0.13-0.04-0.17c0-0.09,0.22-0.04,0.26-0.09c0.09-0.04,0.22-0.65,0.26-0.65h0.09
		c-0.22-0.09,0.65-0.83,0.65-0.78c0-0.09-0.04-0.13-0.04-0.17c0.52-0.13,0.78-0.48,0.91-0.83c0.04,0,0.09,0.04,0.09,0.04
		c0.43,0,0.7-1.13,0.96-1.13h0.13c0.09,0,0.09,0,0.09-0.04v-0.26h0.26c0,0,0.17-0.26,0.56-0.26c0.13,0,0.3,0.09,0.35,0.09
		c0,0,0-0.09,0.09-0.09c1,0,1.61,1.13,1.61,1.48v0.26c0,0.13,0.26,0.48,0.35,0.78c-0.09,0.13-0.09,0.13-0.17,0.13
		s-0.17-0.04-0.3-0.04c0,0-0.04,0-0.09,0.04c0.3,0.48,0.56,0.65,0.61,1.35c-0.09-0.09-0.39,1.04-0.09,2.08
		c0.04,0.13-0.04,0.22-0.43,0.74c0.17,0.13,0.17,0.3,0.26,0.39c0,0.09,0,0.39-0.04,0.39h-0.09c-0.04,0-0.04,0.04-0.04,0.13
		c0,0.26,0.04,0.39,0.04,0.39c-0.43,0.69-0.13,1.65-0.13,3.34c0,0.22-0.13,0.39-0.13,0.56c0,0.39,0.78,0.43,0.87,0.43
		c0.13,0,0.26-0.09,0.39-0.17C121.22,312.08,121.3,311.91,121.39,311.91z"/>
	<path d="M314.41,303.77h-0.3c-0.39-0.09-0.96-0.17-2.08-0.17c-0.78,0-1.39,0.26-2.3,0.26c-0.65,0-1.39-0.09-1.91-0.09
		c0.04,0-0.7,0.61-0.7,0.48c-0.09,0-0.17-0.04-0.22-0.04c-0.22,0-0.43,0.09-0.65,0.09c-0.17,0-0.3,0-0.39-0.3
		c-0.13,0-0.26,0.39-0.52,0.39c-0.04,0-0.09-0.13-0.17-0.13c-0.17,0,0,0.3-0.65,0.3c-0.74,0-1.22,0.43-1.22,0.96v0.17
		c0,0.43-1.22,1.65-1.22,1.65c-0.43,0.48-1.26,1.3-1.26,1.82c-0.78,0.3-1.22,1.35-1.74,1.35h-0.09c-0.78,1.22-1.22,1-1.48,1.61
		c-0.57,0.26-1.04,0.56-1.13,1.26h-0.17c-0.09,0-0.3,0.04-0.3,0.13v0.17c0,0.04,0,0.09-0.04,0.09c-0.04,0-0.04-0.04-0.09-0.04
		c-0.43,0.3-0.83,0.65-1.22,0.87c-0.39,0-0.91,0.78-0.91,0.87h-0.22v0.13h-0.17c-0.22,0-0.22,0.09-0.7,0.09c0,0-0.22,0.26-0.35,0.26
		c-0.04,0-0.13-0.04-0.13-0.13c-0.17,0.04-0.17,0.13-0.17,0.17v0.17c0,0.04-1.91,1-2.04,1c-0.26,0.04-1.13,0.83-2.61,0.83
		c-0.48,0-1.13-0.22-1.78-0.22c-0.22,0-0.43,0.04-0.65,0.13c-0.3-0.26-0.7-0.43-1-0.74c-0.09,0.09-0.13,0.13-0.22,0.13
		c-0.13,0-0.26-0.13-0.48-0.13h-0.13c-0.3-0.26-0.43-0.87-0.87-0.96v-0.09c0-0.22-0.13-0.26-0.13-0.39v-0.35
		c0-0.22-0.17-0.26-0.17-0.43c0-0.26,0.3-0.26,0.3-0.61c-0.13-0.22-0.26-0.3-0.43-0.3c-0.09,0-0.26,0.04-0.43,0.09v-0.09
		c0-0.13-0.74-0.35-0.74-1.17c0-1.74,1.95-1.69,1.95-3.39v-0.17c0.43-0.09,0.22-0.87,0.78-0.87h0.09c-0.09-0.13-0.09-0.22-0.09-0.3
		c0-0.65,0.74-1,0.74-1.69v-0.17c0-0.22,0.48-1.13,0.96-1.39c-0.09-0.13-0.09-0.26-0.09-0.35c0-0.22,0.26-1.39,0.96-1.87
		c0-1.04,1.04-2.26,1.35-2.82c0.22-0.48,0.48-1.74,1.22-1.95c0-0.69,0.22-1.61,0.48-1.61c0.09-0.13,0.39-0.61,0.39-0.78v-0.22
		c0,0,0.04,0.04,0.09,0.04c0.04,0,0.04-0.04,0.04-0.04c0-0.04-0.04-0.13-0.04-0.17c0-0.04,0.04-0.04,0.04-0.04h0.13
		c0-0.04-0.04-0.13-0.04-0.17c0-0.13,0.39-0.26,0.39-0.61v-0.17c0-0.09,0.09-0.04,0.13-0.04c0-0.04-0.04-0.13-0.04-0.17
		c0-0.04,0.04-0.09,0.04-0.09s0.04,0.04,0.09,0.04c0.04,0,0.04-0.04,0.04-0.04c0-0.04-0.04-0.13-0.04-0.17
		c0-0.04,0.04-0.04,0.04-0.04h0.13c0-0.04-0.04-0.13-0.04-0.17c0-0.13,0.13,0,0.13-0.17v-0.17c0.04,0,0.09,0.04,0.09,0.04
		c0.04,0,0.04-0.04,0.04-0.09v-0.13c0-0.43,0.26-0.43,0.39-0.56c0.09-0.17,0.04-0.43,0.13-0.61c0-0.09,0.22-0.04,0.22-0.17v-0.13
		c0-0.04,0-0.04,0.04-0.04h0.09c0.87-1.74,0.87-2.39,1.22-2.48c-0.09-0.13-0.43-0.35-0.65-0.35c-0.09,0-0.13,0.04-0.17,0.09
		c-0.26-0.13-0.43-0.3-0.65-0.48c-0.22,0-0.26,0.13-0.48,0.13c-0.09-0.3-1.43-0.83-1.26-0.74c-0.39-0.13-1.65-0.26-2.43-0.61h-0.22
		c-0.09-0.04-0.13-0.09-0.22-0.09h-0.13c-0.65,0-0.96-0.65-1.95-0.65h-0.17c0-0.09,0-0.13-0.04-0.13h-0.22
		c-0.09-0.09-1.26-0.39-1.48-0.48v0.04c0,0-0.04,0.09-0.09,0.09c-0.13,0-0.13-0.26-0.43-0.26h-0.22c-0.17-0.3-0.65-0.26-0.74-0.61
		c-0.22,0-0.39,0.13-0.65,0.13c-0.3,0-0.96-0.39-1.65-0.39h-0.13c-0.69-0.26-1.87-0.61-1.82-0.65c-0.13,0.04-0.22,0.17-0.39,0.17
		c-0.09-0.22-0.3-0.39-0.52-0.39c-0.22,0-0.22,0.13-0.48,0.13c-0.22-0.56-1.13-0.09-1.87-1c-0.09-0.35-0.61-0.26-0.83-0.48v-0.13
		c0-0.35-0.26-0.56-0.26-0.87c0-0.39,0.35-0.56,0.48-0.96c0,0.04,0.04,0.04,0.09,0.04c0.17,0,0.43-0.26,0.61-0.26
		c0.26,0,0.17,0.3,0.56,0.3h0.35c0.35,0,0.91,0.74,1,0.74c0.04-0.04,0.13-0.09,0.13-0.09c0.13,0,0.13,0.17,0.35,0.22
		c0.17,0,0.26-0.13,0.26-0.35v-0.13c0.17,0,0.22,0.17,0.22,0.35v0.26c0,0.13,1.13,0.78,1.17,0.78c0.09,0,0.17-0.04,0.22-0.04
		c0.26,0.13,0.13,0.17,0.35,0.17s0.43-0.04,0.65-0.04c0.56,0,1,0.39,1.3,0.61h0.3c0.83,0,1.13,0.48,1.91,0.48h0.26
		c0.09,0.13,0.26,0.13,0.26,0.35v0.04h0.17c0.39,0,0.48,0.22,0.74,0.22c0.09,0,0.17-0.04,0.3-0.09c0.48,0.39,1.3,0.39,2.08,0.48
		c0.3,0.39,1.87,1.17,2.08,1.17c0.22,0,0.35-0.17,0.52-0.17c0.04,0,0.17,0.13,0.26,0.13s0.04-0.13,0.17-0.13
		c0.3,0,0.26,0.3,0.52,0.35c2,0,2.13,0.74,2.39,0.74h0.22c0,0-0.04,0.04-0.04,0.09c0,0.13,0.56,0.22,0.65,0.22
		c0.13,0,0.61-0.09,0.61-0.35v-0.13c0-0.13,0.26-0.13,0.26-0.26v-0.35c0-0.22,0.26-0.09,0.26-0.52c0-0.17-0.04-0.35-0.04-0.52
		c0-0.22,0.13-0.09,0.13-0.35v-0.17c0.39-0.39,0.26-0.74,0.87-0.74c0.56,0,1.09,0.13,1.39,0.13h0.17c0.13,0,0.17,0.43,0.39,0.43
		c0.04,0,0.09,0,0.13-0.04c0,0.35,0.04,0.52,0.04,0.7c0,0.13-0.04,0.22-0.17,0.39c0.09,0.04,0.13,0.13,0.13,0.17
		c0,0.09-0.13,0.22-0.13,0.35c0,0,0.13,0.22,0.13,0.35c0,0.61-0.74,0.96-0.74,1.61h-0.13c-0.22,0-0.3,0.09-0.35,0.22
		c0,0.48,1.87,1.43,2.48,1.48c0.04,0.22,0.17,0.35,0.22,0.52h0.13c0.52,0,0.39,0.39,0.61,0.39c0.04,0,0.13-0.04,0.17-0.04
		c0.09,0,0.09,0.39,0.7,0.39c0,0.48,1.04,1.22,1.13,1.26c0.17,0.17,1.09,0.83,1.09,1.13V293c0,0.04,0,0.04,0.04,0.04h0.17
		c0.13,0,0.09,0.3,0.13,0.39c1.39,1.43,1.13,2.17,1.61,2.35c0.09,0.35,0.26,1.3,0.26,1.22c0,0.04-0.04,0.17-0.04,0.26
		c0,0.26,0.3,0.09,0.3,0.48v0.35c0,0.43,0.13,0.48,0.13,0.78c0,0.04-0.09,0.22-0.13,0.22c0,0,0.09,0.13,0.09,0.22
		c0,0.39-0.13,0.35-0.13,0.78c0,0.3,0.09,0.26,0.09,0.35s-0.13,0.13-0.17,0.39c-0.13,0.52-0.04,1.13-0.26,1.69
		c0,0.13,0.17,0.17,0.39,0.17c0.87,0,1-0.48,2.61-0.48c0.09,0,0.17,0.04,0.22,0.17c0.17-0.13,0.56-0.3,1.22-0.3
		c0.04,0,0.09,0.09,0.39,0.09c0.26-0.04,0.56-0.22,0.83-0.26c1.43-0.17,2.52-0.22,2.56-0.22c0.52,0,1.04,0.09,1.56,0.09h0.22
		c0.04,0,0.09,0.04,0.13,0.04c0.22,0,0.61-0.26,0.65-0.26c0.13,0,0.22,0.13,0.43,0.13c0.17-0.04,0.22-0.13,0.35-0.13
		c0.13,0,0.22,0.17,0.48,0.17c0.17,0,0.3-0.13,0.35-0.13c0.56,0,1.69,0.87,1.52,0.78c0,0.17-0.13,0.35-0.13,0.56
		c0,0.13,0.13,0.22,0.13,0.39c0,0.26-1.09,0.22-1.48,0.3c-0.3,0.3-0.48,0.22-1.22,0.22C315.28,303.72,314.36,303.77,314.41,303.77z
		 M302.42,302.64c0.13-0.26,0.13-0.52,0.26-0.61c0-0.04-0.04-0.13-0.04-0.17c0-0.39,0.26-0.74,0.26-1.13c0-0.22-0.04-0.35-0.04-0.43
		c0-0.04,0.04-0.09,0.04-0.17v-0.17c0.04-0.13,0.09-0.22,0.09-0.26c0-0.04-0.13-0.3-0.13-0.52c0-0.17,0.04-0.3,0.04-0.43
		c0-0.61-0.09-0.96-0.13-1.13v-0.17c0-0.3-0.65-0.91-0.65-1.26c0-0.04,0.04-0.13,0.04-0.17c-0.3-0.17-0.52-0.39-0.52-0.43
		c0-0.04,0.04-0.13,0.04-0.17c-0.22-0.7-0.78-0.91-0.78-1.13c0-0.09,0.04-0.17,0.04-0.26v-0.09c-0.43-0.04-1.17-1-1.13-1
		c-0.96-0.65-1-1.13-1.82-1.22c-0.22-0.48-0.74-0.87-0.83-0.87h-0.22c-0.13,0-0.13-0.22-0.17-0.22c-0.39-0.22-0.7-0.26-0.7-0.26
		h-0.17c0-0.04,0.04-0.13-0.04-0.13h-0.17c-0.26,0-0.04-0.3-0.61-0.3h-0.39h-0.13c-0.17,0.57-0.65,0.7-0.87,0.91
		c-0.35,0.96-0.43,1.95-1.61,2.61c0,0.91-0.52,1.61-0.52,1.91c0,0.04,0.04,0.13,0.04,0.17c-0.7,0.69-0.83,1.22-0.74,1.09
		c0,0.52-0.74,0.83-0.74,1.13c0,0.13-0.09,0.04-0.13,0.13c-0.3,0.65-0.09,1.61-1,2.08c0.04,0.09,0.04,0.13,0.04,0.22
		c0,0.17-0.48,1.26-0.52,1.26c0,0.35,0.09,1.04-0.13,1.08c-0.13-0.04-0.13-0.26-0.3-0.26c-0.39,0,0,0.87-0.56,0.87h-0.13
		c0.04,0.13,0.04,0.22,0.04,0.3c0,1.04-0.52,1.43-0.78,1.43h-0.09c0,0.43-0.3,0.65-0.3,1.08c0,0.09,0,0.17,0.04,0.26h-0.09
		c-0.43,0-0.65,1.61-0.65,2.35c-0.7,0.48-1.17,1.13-1.22,2.21c-0.09,0.39-0.39,0-0.39,1c0.91-0.09,2.61-1.65,2.82-2.08
		c0.04,0.04,0.09,0.04,0.13,0.04c0.09,0,1-0.69,1.04-0.69h0.13c0.17,0,0.52-0.48,0.69-0.48c0,0,0,0.17,0.04,0.17
		c0.3,0,1.17-1,1.04-0.91c0.13-0.09,0.56-0.35,1.09-0.35h0.39c0.13-0.56,1.39-0.74,1.13-0.74c0.78-0.52,1.69-0.43,2.43-1
		c0.39-0.26,0.74-0.17,1-0.39c0.22-0.09,0.09-0.35,0.35-0.35c0.91-0.13,2.26-0.87,2.74-0.87c0.43-0.13,0.96-0.09,1.09-0.26
		c0.04,0,0.13,0.04,0.17,0.04c0.17,0,0.09-0.17,0.22-0.26c0,0,0.74-0.26,0.65-0.26h0.22c0,0-0.04-0.04-0.04-0.09l0.04-0.04
		c0,0,0.09,0.04,0.13,0.04c0.39,0,0.83-0.3,0.83-0.52C302.29,302.64,302.38,302.73,302.42,302.64z M297.86,306.24
		c0,0.26-1.91,0.74-2.21,0.96c-0.48,0.35-1,0.61-1.52,0.61h-0.17c-0.22,0.48-1.09,0.74-1.26,0.74c-0.87,0-1.74,0.78-1.61,0.74
		c-0.09,0.09-0.26,0.04-0.35,0.13c-0.39,0.3-1.13,1-1.74,1c-0.26,0.91-1.78,1.3-1.78,1.61c0,0.17,0.17,0.17,0.17,0.48
		c-0.17,0-0.35,0-0.48,0.13v0.09c0,0.17-0.74,1-0.61,0.87c0,0-0.04,0.04-0.09,0.04c-0.04,0-0.13-0.04-0.17-0.04
		c-0.04,0.04-0.26,0.39-0.26,0.43c0,0,0.04,0.04,0.04,0.09h-0.17c-0.35,0-0.57,0.65-0.57,0.78c0,0.22,0.22,0.35,0.22,0.65v0.13
		c0.13,0,0.22,0.04,0.35,0.04c0.22,0,0.43-0.04,0.65-0.04c0.09,0,0.09,0.13,0.17,0.13c0.04,0,0.09-0.13,0.09-0.13
		c0.17,0.04,0.3,0.04,0.39,0.04c1.65,0,1.74-0.3,1.82-0.39s0.65-0.26,0.65-0.26h0.13c0.48,0,3.13-2.08,3.56-2.08h0.09
		c0.04-0.43,1.82-1.74,2.21-1.74h0.09c0.3-0.56,1.17-1.35,1.74-1.56c0-0.04-0.04-0.09-0.04-0.13c0-0.22,0.17-0.26,0.17-0.52
		c0.13,0.04,0.22,0.13,0.39,0.13c0.3,0,0.61-0.96,1.22-0.96c0.04-0.22,0.3-0.87,0.52-0.87h0.17c0.04,0,0.04,0,0.04-0.04v-0.17
		c0-0.13,0.3-0.04,0.35-0.17c0.09-0.61,0.56-0.78,0.61-1.35c-0.35,0.09-0.74,0-0.96,0.13C299.38,305.94,297.86,305.94,297.86,306.24
		z M293.69,315.45c-0.04,0.04-0.04,0.04-0.04,0H293.69z M301.34,291.7c0.04,0.04,0.04,0.04,0,0.04V291.7z"/>
	<path d="M340.95,310.46c0-0.17,0-0.3-0.13-0.35c0.09-0.3,0.35-0.52,0.39-0.78c0-0.04-0.09,0.09-0.17-0.09
		c-0.43,0.35-0.65,1.56-1.43,1.48c0,0.22-0.17,0.3-0.17,0.48v0.17c0,0.09-0.26-0.04-0.3,0.04c-0.09,0.04-0.04,0.26-0.17,0.35
		c-0.04,0-0.35,0.3-0.35,0.39c0,0.04,0.04,0.13,0.04,0.17c0,0.04,0,0.04-0.04,0.04h-0.13c-0.3,0-0.83,0.52-0.83,0.69
		c0,0.04,0,0.09,0.04,0.22c-0.39,0.43-0.87,0.39-0.91,1c0,0-0.35,0.3-0.26,0.35c-0.35,0.22-1.09,0.91-1,0.78
		c-0.09,0.13-0.26,0.3-0.35,0.52c0,0.26-1.65,0.87-1.65,0.74c0,0.13,0.13,0.22,0.13,0.3c0,0-0.04,0-0.13-0.04
		c-0.09,0-0.09,0-0.09,0.04c0,0.04-0.13,0.09-0.13,0.13c-0.04,0.09-0.74,0.3-0.78,0.26c-0.3-0.09-0.39-0.17-0.56-0.22
		c-0.43,0.13-1,0.3-1.48,0.35c-0.56-0.3-1.3-0.74-1.26-1.39c-0.52-0.04,0.43-1.69,0.04-1.91c0-0.82,0.26-0.78,0.35-1.43
		c0-0.43,0.26-0.48,0.26-1.04c0.26-0.09,0.83-1,0.39-1.35c0-0.22,0.26-0.69,0.3-1.52c-0.04,0-0.04-0.04-0.04-0.04
		c0.04-0.17,0.26-0.09,0.3-0.22c0-0.04-0.04-0.13-0.04-0.26c0-0.17,0.43-0.3,0.43-0.65c0-0.17,0.09-0.39,0.13-0.65
		c0.13,0,0.17-0.04,0.17-0.22c0-0.04-0.04-0.13-0.04-0.17c0.04-0.39,0.26-0.22,0.26-0.39c0-0.09,0.22-0.7,0.35-1
		c-0.52,0.09-0.87,0.3-1.3,0.39c-0.26,0.09-0.56,0.04-0.78,0.13c-0.26,0.04-0.43,0.17-0.7,0.26c-0.17,0.04-0.39,0-0.61,0.04
		l-0.83,0.17l-0.22-0.09c-0.17,0.09-0.83,0-0.96,0.17c-0.04-0.04-0.22,0.17-0.26,0.13c0.04-0.04-0.22-0.09-0.26-0.09
		c-0.13-0.04-0.13,0.13-0.35,0.04h-0.04c0.09,0.48,0.13,1.04-0.22,1.35c0.09,0.74-0.56,0.52-0.43,1.13h-0.09
		c-0.13,0-0.17,0.48-0.39,0.48s-0.39,0.39-0.39,0.13c-0.22,0.26-0.91,0.87-0.7,0.87c-0.22,0.22-0.69-0.13-0.69,0.74
		c-0.26,0.04-1.09,1.35-1.09,1.13c-0.13,0.13-0.35,0.04-0.35,0.26c-0.74,0.3-1.52,1.3-1.52,1.78c0,0.04,0.09,0,0.09,0.09
		c0,0.26-0.48,0.48-0.7,0.48c0,0-0.09,0-0.13-0.04c-0.39,0.22,0.13,0.74-0.83,0.74c-0.22,0.04-0.39,0.61-0.43,0.61
		c-0.69,0-1.04,0.61-1.65,0.61c-0.39,0-0.65-0.09-1.04-0.13c-0.43,0-0.56,0.3-0.83,0.35c-0.35,0-0.61-0.35-0.69-0.35
		c-0.78-0.39-0.74-0.04-1.65-0.96v-0.17c0-0.09,0-0.13-0.04-0.13h-0.09v-0.26h-0.09v-0.3c0,0-0.09,0.04-0.13,0.04
		c-0.04,0-0.04-0.04-0.04-0.09v-0.17c0-0.09-0.09-0.13-0.09-0.13c0-0.09,0.09-0.13,0.09-0.26c-0.56-0.56-0.04-1.17-0.56-1.61
		c0.13-0.35,0.09-0.96,0.39-1.17c-0.13-0.26-0.26-0.48-0.26-0.65c0,0,0.13-0.09,0.13-0.17c0-0.17-0.04-0.17-0.13-0.22
		c0.09-0.09,0.7-1.39,0.7-1.39c0-0.13-0.09-0.22-0.09-0.3c0-0.22,1.04-1.39,1.04-1.43v-0.3c0-0.3,0.26-0.35,0.56-1.43
		c0-0.3,0.26-0.39,0.26-0.7c0-0.17-0.65-1-0.13-1c0-0.04-0.09-0.78,0.13-0.91c0.04-0.04,0.09-0.04,0.13-0.04v-0.09l-0.04-0.04
		c0.04-0.04,0.09-0.04,0.26-0.04c0.17-0.22,0-1.48,0.3-1.65c0,0,0.13-0.04,0.17-0.09c0.09-0.04,0.26-0.43,0.43-0.43
		c0.26,0,0.26,0.04,0.43,0.04c0.04,0,0.22-0.22,0.22-0.22c0.09,0,0.26,0.17,0.43,0.17c0.3,0,0.43-0.26,0.7-0.35
		c0-0.09,0-0.13,0.04-0.22c0-0.26,0.09-0.3,0.22-0.43c0.17,0,0.09-0.22,0.26-0.35c0.48-0.22,0.65-0.09,0.78,0.13
		c0.13,0,0.43,0.09,0.52,0.13c0.13,0.13,0.17,0.22,0.35,0.13c0.17,0.43,0.52,0.52,0.52,0.91c0.74,0.48,0.69,0.74,1.3,1.48
		c-0.04,0.17,0.17,0.17,0.3,0.26h0.09c0.65,0,0.96,1.04,1.61,1.04c0.13,0,0.17,0,0.3-0.04c0.09,0.17,0.39,0.56,0.56,0.56
		c0.87,0,0.83-0.56,1.26,0.04c0,0.22,0.48,0.22,0.26,0.35c-0.04,0.04,0,0.13,0.09,0.22c0.26,0.04,0.61,0.17,0.56,0.13
		c0.22,0.13,0.22,0.04,0.48,0.13h0.09c0.17,0,0.17-0.17,0.17-0.09c0.04,0,0.13,0,0.22,0.04l0.17-0.09c0.13-0.09,0.96-0.22,1.09-0.26
		c0.17-0.04,0.65,0.09,0.56,0.09c0.09,0,0.13-0.13,0.17-0.17c0.09,0,0.26,0.13,0.39,0.04c0.04,0,0.17-0.04,0.26-0.09
		c0.13,0,0.13,0.04,0.13,0.04s0.04-0.04,0.17-0.09c0.17,0,0.26,0.04,0.43-0.04c0.09,0,0.13-0.04,0.17-0.04
		c0.04,0,0.17,0.04,0.26,0.04c0.17-0.04,0.35-0.17,0.39-0.22c0.13-0.04,0.17,0.09,0.3,0.04c0.22,0,0.22-0.09,0.61-0.48
		c0,0.04,0,0.04,0.09,0.04s0.52-0.22,0.74-0.22c0.04,0,0,0.09,0.13,0.09v-0.13c0-0.09,0.04-0.13,0.04-0.13
		c-0.04,0,0.39-0.78,0.35-0.78c0.09,0-0.09-0.26-0.04-0.26c0.22-0.09,0.17-0.35,0.26-0.74c0.74-0.09,0,0,0.61-0.26
		c0.3,0.09,0.43,0.26,0.87,0.26c0.04,0,0.09,0,0.17,0.04c0.39,0.7,1.22,0.96,1.13,2.26c0,0.3-0.35,0.39-0.61,1.22
		c0,0.13-0.96,1.13-1,1.17c-0.52,0.39-0.96,1.91-0.83,1.82c-0.35,0.26-0.3,0.65-0.65,1.22c0,0.04-0.04,0.52-0.04,0.56
		c0,0.26-0.26,0.48-0.26,0.7v0.22c0,0-0.13,0.26-0.39,0.48c0.09,0.09,0.09,0.22,0.09,0.3c0,0.17-0.04,0.35-0.26,0.43
		c0.09,0.04,0,1.22,0,1.39c0,0.22-0.13,0.52-0.13,0.7c-0.13,0.3-0.26,0.83,0.43,0.83c0.22,0,0.61,0.04,0.65-0.22v-0.13
		c0.3,0.13,0.43-0.09,0.87-0.35c0.13-0.09,0.39-0.13,0.52-0.26c0.39-0.17,0.26,0,1-0.52c0.78-0.91,1.17-0.91,1.39-1.17
		c0.35-0.3,0.91-0.56,0.96-1.13v-0.13c0.48,0,1.3-1,1.39-1.35c0-0.22,0.61-0.43,0.65-0.7c0-0.04-0.04-0.09-0.04-0.13
		c0.04-0.22,0.65-0.65,0.65-0.87c0-0.04-0.04-0.09-0.04-0.13c0.96-0.39,0.43-0.87,0.91-1.26v-0.22c0.04-0.96,0.56-1.13,1.43-1
		c0.17,0,0.43,0.09,0.65,0.13c-0.04,0.04-0.04,0.09-0.04,0.13c0,0.17,0.35,0.17,0.35,0.43v0.04c0,0.3,0.52,0.22,0.48,0.48
		c0,0.22-0.17,0.13-0.22,0.3c0.13,0.09,0.22,0.26,0.17,0.48c-0.04,0.78-0.61,0.35-0.7,0.74c0,0.26,0.3,0.43,0.3,0.52
		s-0.13,0.13-0.13,0.17c0,0.09,0.09,0.09,0.09,0.17c0,0.22-0.13,0.35-0.39,0.48c0.04,0.22,0.09,0.35,0.09,0.52
		c-0.04,0.13-0.22,0.09-0.22,0.17c0,0.04,0.09,0.17,0.09,0.3c0,0.04-0.04,0.09-0.09,0.17c0,0.09-0.22,0.13-0.22,0.26
		c0,0.13,0.09,0.56,0.09,0.78v0.39c0,0.13,0,0.3,0.13,0.39c-0.13,0.39-0.3,0.78-0.3,1.13c0,0.13,0.04,0.26,0.17,0.3
		c-0.09,0.13-0.13,0.35-0.13,0.48c0,0.43,0.3,0.78,0.48,1.13c0.52-0.09,1.13,0,1.48-0.22c0.09-0.09,1.04-0.48,0.96-0.48
		c0.96-0.3,0.39-0.17,1.39-0.78c0.7-0.43,1.35-0.87,2.04-1.56c0.04,0,0.09,0.04,0.17,0.04s0.13-0.13,0.17-0.22
		c0.48-0.26,0.48,0.09,0.96-0.65h0.17c0.22,0,0-0.52,0.26-0.52c0.13,0,0.17,0,0.17,0.13c0.78-0.52,1.56-1.43,1.82-1.43
		c0.26-0.17,0.43-0.48,0.65-0.74c0.09-0.13,0.91-0.61,0.87-0.61h0.09c-0.04-0.09-0.04-0.13-0.04-0.17c0-0.17,1.13-1.26,1.65-1.56
		v-0.13c0-0.26,0.39,0.13,0.39-0.09c0,0,0.39,0.13,0.39,0.09c-0.17,0.13-0.17,0.78-0.35,0.87c-0.17,0.13-0.17-0.04-0.26,0.04
		c-0.04,0-0.09,0.09-0.13,0.13c-0.09,0.09,0.09,0.3-0.26,0.52c-0.17,0.17-0.52,0.17-0.43,0.22c0,0.04-0.61,0.96-0.91,1.3
		c-0.39,0.52-1.26,1.04-1.22,1.04c-0.35,0-0.61,0.61-0.74,0.96c-0.17,0.04-0.69,0.35-0.65,0.35c0,0-0.04,0-0.04-0.04
		c-0.39,0.48-0.61,0.48-1,0.91v0.09c0,0.22-0.43,0.17-0.43,0.26v0.09c-0.13,0.22-0.74,0.3-0.74,0.7c-0.09,0.26-0.65,0.43-0.74,0.52
		c-0.91,0.43-1.87,1.39-1.74,1.26c-0.09,0.09-0.13,0.13-0.13,0.17c-0.04,0-0.39,0.17-0.61,0.17c-0.09,0-0.17,0-0.22-0.04
		c-0.61,0.52-1.13,0.65-1.52,1h-0.13c0,0-0.48,0.35-1.35,0.35c-0.39,0-0.17-0.26-0.43-0.26c-0.09,0-0.17,0.04-0.3,0.04
		c0.04,0-0.74-0.48-0.74-0.48v-0.17c0-0.22-0.52-0.3-0.48-0.35h-0.09v-0.22c0-0.04-0.22-0.04-0.22-0.13v-0.17
		c0-0.09-0.17-0.09-0.17-0.13c-0.09-0.09-0.22-0.78-0.22-0.65l-0.04-0.04c0-0.04,0.04-0.04,0.04-0.09c-0.04,0-0.26-0.74-0.35-1.13
		c0-0.22,0.13-0.3,0.13-0.52c0-0.26-0.17-0.43-0.17-0.69c0-0.22,0.22-0.48,0.22-0.7v-0.48C340.73,310.85,340.9,310.85,340.95,310.46
		z M322.79,305.77c-0.26-0.13-0.52-0.35-0.87-0.3c0,0-1.56-0.61-1.56-0.65c0-0.35-0.52-0.39-0.61-0.43
		c-0.13,0.04-0.26-0.09-0.43-0.09c-0.04,0-0.17-0.04-0.3-0.13c-0.09,0-0.17-0.04-0.22-0.04c-0.13,0.09-0.3,0.09-0.48,0.09
		c-0.22-0.22-0.43-0.3-0.65-0.3c-0.26,0-0.91,1.56-0.96,1.56c-0.04,0.04-0.22,0.17-0.17,0.22c-0.39,0.13-0.17,0.39-0.56,0.56
		c0,0.35-0.17,0.52-0.17,0.65c0,0-0.96,2.34-1.74,3.04c0,0.26,0.04,0.43,0.13,0.61c-0.35,0.09-0.61,0.91-0.61,0.83
		c0,0.3,0.04,0.39,0.04,0.61c0,0.39-0.17,0.26-0.17,0.65c0-0.09,0.35,2.69,1,2.69c0.39,0,0.61-0.35,0.65-0.35
		c0.13,0,0.09,0.04,0.22,0.04c0.65,0,0.43-0.39,0.96-0.39c0.09,0,0.22,0.17,0.52,0.17v-0.22c0-0.78,1.09-0.78,1.3-0.96
		c1.04-0.74,1.22-1.78,2.74-2.52c0.17-0.22,0.22-0.43,0.22-0.69v-0.13c0.83-0.43,1.17-1.56,1.78-2.3c-0.17-0.13,0.13-0.61,0.13-1
		C322.97,306.5,322.75,306.11,322.79,305.77z"/>
	<path d="M356.71,317.23c-0.04,0-0.09,0.04-0.17,0c-0.04,0-0.52-0.39-0.91-0.39h-0.09c0-0.48-0.26-0.78-0.61-1.09
		c0-0.74-0.17-1.52-0.17-2.21c0-0.43,0.04-0.78,0.26-1.08c0-0.09-0.04-0.13-0.04-0.22s0.04-0.26,0.04-0.35
		c-0.04-0.13-0.09-0.04-0.09-0.13c0-0.04,0.09-0.04,0.09-0.04c0-0.13-0.04-0.56-0.04-0.87c0-0.17,0-0.3,0.09-0.3h0.09
		c0-0.04-0.04-0.13-0.04-0.22c0-0.56,0.22-0.39,0.22-0.78c0-0.17,0.13-1.22,0-1.39c0.13,0,0.22-0.83,0.3-0.83
		c0.17-0.61,0.35-1.17,0.43-1.82c0.22,0,0.3-0.09,0.3-0.22v-0.09c0-0.04,0.13-0.04,0.13-0.17c0-0.13-0.09-0.17-0.13-0.22
		c0.17-0.04,0.26-0.78,0.39-1.13c0-0.04-0.04-0.09-0.04-0.13c0-0.17,0.26-0.3,0.26-0.48c0-0.13-0.04-0.22-0.04-0.35
		c0-0.17,0.13-0.09,0.13-0.22c0-0.04-0.04-0.13-0.04-0.22s0.04-0.13,0.04-0.13c0.09-0.09,0.13-0.56,0.43-0.87v-0.17
		c0-0.61,0.61-1.78,0.61-1.74c0,0,0.04-0.04,0.04-0.09c0-0.17-0.04-0.3-0.04-0.43c0-0.26,0.09,0.09,0.35-0.96
		c0-0.09,0.09-0.3,0.22-0.43c0.04,0,0.04-0.09,0.09-0.09c0.04-0.17,0.17-1.09,0.22-1.04c0-0.26,0.39-0.65,0.43-0.87
		c0-0.56,0.61-2.17,0.96-2.39c-0.09,0-0.09-0.04-0.09-0.13c0-0.3,0.35-1.13,0.43-1.17v-0.09c0-0.56,0.74-1.13,0.74-1.17
		c0-0.09-0.13-0.04-0.13-0.13c0-0.26,0.52-0.87,0.52-0.83c0-0.48,0.26-0.74,0.26-1.13h0.04c0.22,0,0.13-0.35,0.26-0.35
		c0.09,0,0.22,0.04,0.3,0.04c0.13,0,0.22-0.13,0.22-0.13c0.04,0,0.09,0.09,0.3,0.09c0,0,0.17-0.09,0.22-0.09c0.3,0,0.56,0,0.65,0.35
		h0.17c0.13,0,0.3,0.04,0.35,0.09v0.13c0,0.35,0.26,0.61,0.26,0.96c0,0.3-0.04,1.04-0.48,1.39h-0.22v0.17
		c0,0.35-0.65-0.26-0.65,0.96c-0.52,0,0,1-0.91,1.17c-0.09,0.61-0.17,1.95-0.48,1.95h-0.04v0.22h-0.13l-0.04,0.04
		c0,0.04,0.04,0.13,0.04,0.13s-0.35,0.7-0.35,0.96v0.17c0,0.17-0.04,0.26-0.17,0.26c-0.17,0-0.22-0.04-0.22-0.22v-0.09
		c-0.69,0-0.52-0.04-0.78,0.65c0,0.09-0.17,0.13-0.17,0.17c-0.13,0.3-0.13,1.39-0.56,1.65v0.52c0,0.43-0.22,0.48-0.22,0.96v0.83
		c0,0.74-0.83-0.04-0.83,1.3v0.09c0,0.35-0.52,1.52-0.43,1.43h-0.09c-0.09,0-0.09,0.43-0.22,0.52v0.39c0,0.52-0.13,0.87-0.35,1.22
		v2.21c-0.26,0-0.48,0-0.65,0.13c0.09,0.39,0.22,1.04,0.22,1.48c0,0.22,0,0.52-0.09,0.74v0.17c0,0.04,0,0.04-0.09,0.04h-0.13
		c-0.04,0-0.04,0.04-0.04,0.09c0,0.13,0.04,0.22,0.04,0.26c0,0.22-0.26,0.48-0.35,0.61c0,0.35,0.39,0.56,0.56,0.69l-0.35,0.65
		c0.26,1.43,0.35,1.69,0.52,1.69c0.39,0.13,1.22,0.3,1.61-0.04c0.09-0.09,1-0.56,0.91-0.56c0.96-0.3,0.43-0.04,1.48-0.78
		c0.61-0.48,1.22-0.96,1.87-1.74c0.04-0.04,0.09,0,0.17,0.04c0.09,0,0.13-0.13,0.17-0.22c0.48-0.3,0.48,0.04,0.87-0.69h0.17
		c0.22,0-0.04-0.52,0.22-0.48c0.17-0.04,0.22-0.09,0.17,0.09c0.78-0.61,1.65-1.61,1.91-1.65c0.26-0.22,0.26-0.52,0.43-0.83
		c0.09-0.13,0.87-0.61,0.83-0.61h0.09c-0.04-0.09-0.04-0.13-0.04-0.17c0-0.17,1.04-1.39,1.52-1.69c0-0.04,0.04-0.13,0.04-0.13
		c-0.09-0.26,0.35,0.09,0.39-0.13c0,0,0.39,0.13,0.39,0.09c-0.22,0.13-0.17,1-0.35,1.09c-0.13,0.17-0.17,0-0.26,0.09
		c-0.04,0-0.04,0.09-0.09,0.13c-0.09,0.09,0.09,0.56-0.17,0.78c-0.22,0.17-0.56,0.17-0.48,0.22c0,0.04-0.52,1.09-0.83,1.43
		c-0.39,0.52-1.04,1.09-1,1.09c-0.35,0.04-0.61,0.43-0.7,0.78c-0.17,0-0.65,0.35-0.61,0.35c0,0-0.04,0-0.04-0.04
		c-0.35,0.52-0.7,0.61-1.09,1.13v0.09c0.04,0.22-0.39,0.13-0.35,0.22v0.09c-0.13,0.26-0.74,0.35-0.65,0.74
		c-0.17,0.26-0.69,0.43-0.78,0.52c-0.87,0.52-1.78,1.56-1.65,1.43c-0.09,0.09-0.13,0.13-0.13,0.17c-0.04,0-0.52,0.35-0.74,0.39
		c-0.09,0-0.17,0-0.22-0.04c-0.56,0.52-0.96,0.43-1.39,0.87h-0.13c0,0-0.43,0.13-1.3,0.17c-0.39,0.04-0.43,0-0.69,0
		C356.8,317.27,356.76,317.23,356.71,317.23z"/>
	<path d="M376.39,303.68c-0.43,0-0.83-0.3-0.91-0.69c-0.04-0.04-0.04-0.09-0.04-0.13c-0.26,0-0.3-0.26-0.56-0.26
		c-0.56,0-0.39,0.35-0.61,0.52c-0.35,0.09-1.09,0.78-1.04,1.17h-0.09c-0.3,0-0.13,0.3-0.43,0.3h-0.09
		c-0.09,0.04,0.04,1.35-0.43,1.17c0.04,1-1.22,0.43-1.09,1.39c-0.35,0.26-0.39,0.22-0.39,0.74c0,0.09,0,0.09,0.04,0.17
		c0,0.78-1.17,0.83-1.17,1.39c0,0.04,0.09,0.17,0.09,0.26c0.04,0.13-0.09,0.17-0.09,0.26c-0.26,0.35-0.13,1.22-0.39,1.65
		c-0.09,0.17-0.17,1.39-0.17,1.43c0,0.09,0.09,0.22,0.09,0.35c0.04,0.3-0.04,0.65-0.04,0.91c0.04,0.17,0.22,0.48,0.43,0.48
		c0.13,0,0.17-0.22,0.26-0.3c0.13-0.35,0.78-0.26,0.83-0.91c0.04-0.13,0.26-0.17,0.52-0.3c-0.04,0-0.09-0.04-0.09-0.09
		c-0.09-0.7,0.96-1.04,0.69-1.04l0.22-0.52c-0.04-0.04,0.43-0.56,0.56-0.56c0,0,0-0.13-0.04-0.17c-0.04-0.22,0.35-0.35,0.3-0.52
		v-0.13c0-0.04,0.17,0.04,0.17-0.04c-0.04-0.04-0.04-0.09-0.04-0.13c-0.04-0.09,0.09-0.09,0.13-0.13c0-0.04-0.04-0.13-0.04-0.13
		c0-0.13,0.22-0.13,0.22-0.17c0-0.09-0.04-0.22,0.17-0.22h0.09c-0.09-0.56,0.56-0.74,0.48-1.04c-0.09-0.56,0.91-0.74,0.87-1.17
		v-0.13l-0.04-0.04c0.09-0.04,0.13-0.35,0.17-0.56c0-0.04,0-0.09-0.04-0.17v-0.04c0.09-0.52,0.39-1.22,0.52-1.22h0.22
		c0.13,0,0.17-0.04,0.22-0.04c0.13,0,0.3,0.04,0.52,0.04h0.39c-0.04,0,1.04,0.48,1.13,0.78c0,0.13,0,0.26,0.04,0.3
		c0.04,0.35,0.39,0.43,0.39,0.61c0,0.09,0.04,0.17,0.04,0.26c0,0.22,0.09,0.22,0.13,0.43c0,0.22-0.17,0.35-0.09,0.74
		c0,0.17,0.13,0.48,0.17,0.74c0,0,0.09,0.04,0.09,0.09c0,0.13,0,0.43,0.04,0.83c0.04,0.04,0.04,0.09,0.04,0.09s-0.04,0-0.04,0.04
		c0.09,0.48,0.48,0.78,0.61,1.56c0.09,0.3,0.13,0.57,0.35,0.83c0,0.13,0.04,0.26,0.04,0.39c0.04,0.26,0.22,0.52,0.26,0.82
		c0.04,0.13,0.04,0.17-0.04,0.3c0.17,0.13,0.26,0.35,0.52,0.39c0.17,0.09,0.17,0.3,0.35,0.39c0.65,0.35,0.91,0.43,1.13,0.43
		c0.17,0,0.26-0.09,0.39-0.09c0.26,0,0.35,0.04,0.56,0.04c0.26,0,1.61-0.22,1.65-0.39c0.3,0.13,0.61,0.3,0.83,0.43
		c0,0.26-0.3,0.35-0.56,0.39c0.04,0.09,0.13,0.13,0.13,0.17c0.04,0.52-0.43,0.35-0.61,0.48v0.04c0,0.04-1.95,0.26-2.13,0.3
		c-0.04,0-0.09-0.04-0.13-0.04h-0.3c-0.43,0-2.26-0.3-2.43-1.04c-0.87-0.04-1-0.91-1.61-1.26l-0.09-0.17
		c-0.09-0.74-0.78-1.69-0.69-1.61c-0.09-0.3-0.3-0.96-0.35-1.22c0-0.04,0-0.09-0.04-0.35c0-0.17-0.09-0.17-0.09-0.3
		c0,0,0.04-0.04,0.04-0.09c0,0-0.09,0-0.09-0.04c-0.04-0.22-0.04-0.39-0.04-0.56c0-0.13-0.09-0.26-0.22-0.35
		c-0.52,0.13-0.78,0.83-1.08,1.35c-0.43,0.13-1.04,0.48-1.04,0.83c0.09,0.26,0.43,0.17,0.48,0.43c-0.13,0-0.09,0.26-0.09,0.3
		c-0.04,0.04-0.17,0.04-0.17,0.09v0.09c0,0.09-0.17,0.09-0.26,0.13c-0.52,0.48-0.78,1.13-1.26,1.48c0.13,0.69-0.43,0.43-0.3,1.08
		v0.13c-0.48,0.22-1.04,1.13-1.43,1.13c-0.09,0-0.13-0.09-0.3-0.13c-0.22,0-0.56,0.39-0.56,0.35c-0.26,0-0.91,0-0.87,0.17
		c0,0-0.22-0.09-0.3-0.09c-0.17,0-0.22,0.09-0.35,0.09c-0.13-0.04-0.22-0.17-0.35-0.17h-0.17c-0.69,0-1.17-1.04-1.17-1.04
		c0-0.04-0.04-0.09-0.04-0.17c-0.13-0.09-0.35-0.13-0.35-0.26c-0.04-0.26,0.13-0.43,0.09-0.69c-0.04-0.17-0.04-0.3-0.04-0.39
		c-0.04-0.13,0.04-0.17,0.04-0.26c0,0-0.13-0.04-0.13-0.13c-0.04-0.22,0.22-0.96,0.22-1.22v-0.04c-0.04-0.13,0.13-0.17,0.13-0.3
		v-0.13c-0.04-0.22,0.17-0.39,0.09-0.96c0-0.04-0.04-0.17-0.04-0.17c0.52-0.22,0.26-0.91,0.56-1.09c-0.04,0.09,0.26-1.04,0.52-1.09
		c0.04-0.04,0.04-0.09,0.04-0.09c-0.04-0.13-0.22-0.22-0.22-0.22c0-0.35,0.74-1.09,0.65-1c0.04-0.17,0.17-0.39,0.17-0.61h0.09
		c0.69,0,0.04-1.22,0.91-1.3c0,0-0.04-0.04-0.04-0.09c-0.04-0.13,0.22-0.13,0.22-0.39c0,0,0-0.09-0.04-0.13
		c0.13,0,0.13-0.09,0.3-0.09h0.09c0-0.04-0.04-0.09-0.04-0.09c0-0.09,0-0.13-0.04-0.22c0,0,0.13-0.3,0.26-0.3h0.13
		c0.09,0,0-0.3,0.09-0.43c0.61-0.39,0.04,0.13,0.87-1.17c-0.04-0.09,0.48-0.26,0.65-0.69c0.74-0.35,1-1.09,1.61-1.09
		c0.04,0,0.17,0.04,0.22,0.04c0-0.13,0.39-0.35,0.57-0.35c0.09,0,0.09,0.09,0.13,0.09c0-0.04,0.43-0.13,0.65-0.13
		c0.26,0,0.13,0.13,0.22,0.13h0.22c1.04,0.22,1.48,0.96,1.43,0.91c0,0.04-0.04,0.04-0.04,0.09c0.04,0.09,0.3,0.39,0.3,0.52
		c0.04,0.26-0.13,0.43-0.09,0.7c0,0.09,0,0.13,0.09,0.17c-0.48,0.13-0.7,0.65-0.74,0.65C376.52,303.68,376.47,303.68,376.39,303.68z
		 M382.2,316.49c-0.09,0-0.09-0.04-0.04-0.04L382.2,316.49z"/>
	<path d="M428.24,314.45c-0.13-0.3,0.17-0.26,0.13-0.61c-0.13-0.04-0.09-0.22-0.13-0.43c0,0-0.3-0.56-0.09-0.83h0.13
		c-0.04-0.17-0.22-0.26-0.26-0.39c-0.13-0.56,0.13-1.04,0.26-1.52c0.09-0.35,0.09-0.74,0.17-0.96c0-0.04,0.09,0,0.09-0.13
		c0-0.09,0.22-0.35,0.26-0.56c0.04-0.3-0.13-0.3-0.13-0.43c0,0.04,0.09-0.09,0.13-0.13c0-0.09,0.3-0.7,0.35-0.87
		c-0.22,0-0.39,0-0.39,0.17c0,0.26-0.3,0.04-0.48,0.26c-0.17,0.04-0.04,0.22-0.22,0.35c0,0.13-0.52,0.3-0.39,0.74
		c-0.78,0.09-0.52,1.13-1.26,1.22c-0.04,0.61-0.43,0.91-0.78,1.22c-0.22,0.17-0.3,0.35-0.52,0.35c0.13,0.48-0.26,0.52-0.3,0.87
		c-0.35,0.13-0.65,0.35-1,0.52v0.87c-0.13,0.13-0.22,0.48-0.61,0.56c-0.22,0-0.17,0.26-0.22,0.39c-0.09,0.09-0.43,0-0.39,0.26
		c-0.56,0.04-0.96,0.39-1.52,0.65c-0.09,0.04-0.43-0.17-0.43,0.17c-0.39-0.09-0.78-0.26-1.09-0.61c-0.22,0-0.22,0.17-0.48,0.13
		c-0.39-0.35-0.48-1.04-0.83-1.56c-0.17-0.26-0.17-0.74-0.26-1.22c-0.04-0.09-0.09-0.17-0.09-0.3c0-0.26,0.22-0.61,0.26-0.83
		c0-0.17-0.17-0.43-0.13-0.61c0,0.04,0.13-0.09,0.13-0.13c0,0-0.04-0.13,0-0.17c0.04-0.26,0.17-0.56,0.26-0.83
		c0.04-0.09,0.04-0.22,0.04-0.3v0.04c-0.04,0.09-0.7,0.87-1.04,0.83l-0.04,0.17c-0.17,0.69-1.17,0.91-1.17,0.91
		c0,0.04,0,0.13-0.04,0.17c0,0.09-0.39,0.04-0.48,0.35l-0.09,0.17c-0.17-0.04-0.22,0.17-0.43,0.13l-0.04-0.04
		c-0.26,0.83-1.43,1.04-1.87,1.39c-0.43,0.39-1.39,1.22-2,1.09c-0.52,0.35-2.82,0.96-2.65,0.96h-0.48c-0.09,0.04-0.17,0.22-0.3,0.22
		c-0.09,0-0.17-0.22-0.43-0.17c-0.04,0-0.13,0.09-0.13,0.13l0.09,0.09c-0.09,0-0.09,0.04-0.17,0.04c-0.09,0.04-0.17,0-0.26,0
		c-0.04,0.04-0.04,0.09-0.04,0.09c-0.13,0.04-0.3-0.17-0.69-0.13c-0.09,0.04-0.48,0.17-0.48,0.35c-0.35,0-0.65-0.35-1.26-0.26
		c-0.13,0-0.22,0-0.35,0.09c-0.26-0.3-0.87-0.56-0.96-0.56c-0.17,0-0.26,0.22-0.3,0.26c-0.3,0-0.17-0.52-0.39-0.48h-0.17
		c-0.04-0.22-1.82-0.43-1.95-1.39v-0.22c-0.43-0.26-0.7-0.56-0.83-1.22c0-0.35-0.56-0.17-0.52-0.69c-0.13-0.22-0.09-0.48-0.3-1.09
		c-0.22-0.74-0.39-0.26-0.61-2.17c-0.09-0.61,0.09-0.52,0.09-0.61c0-0.04-0.13-0.04-0.17-0.26c-0.09-0.91,0.26-2.34,0.39-3.26
		c0.17,0,0.39-1.87,0.39-2c0-0.22,0.26-0.52,0.48-0.87c0-0.04-0.13-0.13-0.17-0.13c0-0.26,0.26-0.13,0.39-0.35
		c0.04-0.17,0-0.43,0.04-0.7c0.13-0.13,0.52-0.22,0.48-0.39v-0.22c-0.04-0.35,1.13-1.74,1.17-1.87v-0.17c-0.04-0.22,0.61-1,0.87-1
		h0.22c0.3-1,1.09-2,1.91-2.13c-0.04-0.09-0.04-0.09-0.04-0.17c-0.09-0.48,0.96-0.56,1-1.04c1-0.13,1.26-0.61,1.52-1.35
		c1.65-1.39,1.69-0.74,2.74-1.13c0.04,0,0.22,0.04,0.26,0.04c0.09,0,0-0.17,0.09-0.17c0.17-0.04,0.3,0.09,0.3,0.09
		c0.52-0.13,0.17-0.3,0.87-0.39c0.87-0.09,2.69,0.17,2.52,0.17h0.35c0.09,0,0.09,0.09,0.09,0.09c0,0.04,0.04,0.09,0.04,0.09h0.04
		c0.09-0.04,0.17-0.04,0.26-0.04c0.04,0,0.17,0.09,0.39,0.13c0.35-0.17,0.43,0.43,1.17,0.35h0.13c0.43,0.48,0.35,1.17,1.56,1.17
		c0.39,0.74,1.26,1.17,1.35,1.96c0.09,0.39-0.39,0.43-0.39,0.82v0.17c0.22,1.74-0.39,2.13-0.87,3.78c0,0.26-0.39,0.35-0.52,0.39
		c-0.52,0.04-1.04-0.22-1.39-0.3c0-0.22,0.04-0.35,0-0.48c-0.04-0.43-0.22-0.83-0.26-1.35c0-0.13-0.04-0.3,0-0.48v-0.09
		c-0.04-0.3,0.26-0.22,0.22-0.48c0-0.04-0.04-0.22-0.04-0.26c0-0.13,0.3-0.13,0.26-0.22c0-0.22-0.3-0.26-0.3-0.35
		c0-0.04,0.13-0.26,0.09-0.43c-0.04-0.22-0.17-0.26-0.17-0.39c0-0.13,0.09-0.3,0.09-0.48c-0.09-0.83-0.96-1.43-1.56-1.82
		c-0.35,0.13-0.48,0.39-0.74,0.57c-0.26,0-0.43,0-0.74,0.04c-0.48,0.04-1.04-0.09-1.78,0c-0.17,0.04-1.13,0.7-1.09,0.52
		c-0.09,0-0.09-0.04-0.09-0.04c-0.04-0.09,0.04-0.13,0.04-0.26c-0.04-0.22-0.7,0.39-0.74,0.13c-0.48,0.39-0.52,1.78-1,1.78
		c-0.13,0.04-0.39,0-0.56,0h-0.13v0.13c0,0-0.87,0.39-1,0.52c-0.17,0.13-1.22,1.56-1.78,1.61c-0.52,0.43-0.22,1.35-1.13,1.43v0.22
		c0.09,0.43-0.22,1.65-0.91,1.69c-0.04,1.04-1.22,1.82-1.13,2.21v0.52c0.09,0.65-0.26,0.52-0.22,1.13c0,0.26,0.09,0.39,0.09,0.7
		c0.13,0.91-0.56,0.87-0.69,1.48c0.22,0.56,0.56,1.26,0.56,1.65c0.04,0.26-0.22,0.52-0.22,0.7c0.04,0.22,0.3,0.13,0.3,0.17
		c0.04,0.26-0.13,0.3-0.13,0.3c0.3,1.39,1.35,3.08,1.39,2.95v0.13c0.04,0.17,0.65,0.09,0.87,0.22c0.26,0.17,0.43,0.65,0.69,0.61
		c0.09,0,0.26-0.04,0.35-0.04c0.17,0.04,0.48,0.52,1.87,0.39c0.17-0.04,0.39-0.04,0.74-0.09c0.13,0,0.3-0.04,0.43-0.04
		c0.17,0,0.17-0.13,0.17-0.17c0.13,0,0.3,0.13,0.39,0.09c0.35-0.13,0.69-0.39,1.04-0.39h0.35c0.69,0.17,1.69-0.69,2.65-1.17
		c0.09-0.04,0.26,0.04,0.39,0c0.04-0.04,0.87-0.52,0.91-0.65c0.13-0.22,0.52-0.17,0.65-0.3c0-0.04,0.56-0.74,0.56-0.61v-0.13
		c0.22,0,1.87-0.7,2.17-1.78c0,0.04,0.04,0.04,0.09,0.04c0.61,0.17,0.74-1.48,1.82-1.69c0-0.09,0-0.17,0.04-0.3
		c0.09-0.39,1.09-0.56,1.22-1c0-0.04,0.09-0.04,0.22-0.04v-0.04c0.04-0.22,0.26-0.3,0.26-0.43c0,0,0.09-0.3,0.13-0.35l0.22-0.13
		c0.09-0.13,0.04-0.3,0.13-0.48c0.04-0.09,0.35-0.04,0.39-0.13c0.04-0.09,0.04-0.26,0.09-0.3c0.17-0.17,0.35-0.35,0.61-0.43
		c-0.09-0.35,0.13-0.35,0.09-0.74c0.39,0.04,0.26-0.39,0.74-0.39c0.09-0.09,0.09-0.39,0.17-0.56c0.35,0,0.48-0.17,0.56-0.39
		c1.3-0.13,2-0.35,3.08,0c0.13-0.04,1,0.35,1.13,0.17c0.09,0.13,0.74,0.13,0.96,0.26c-0.04,0.26,0.43-0.13,0.48,0.13
		c0.04,0.13,0.17,0.3,0.35,0.35c0,0,0.17-0.04,0.22,0c0.09,0.04,0.09,0.3,0.17,0.35c0.43,0,0.48,0,0.65-0.17c0,0,0.3-0.09,0.3-0.13
		c0,0-0.04-0.13,0-0.17c0.13-0.22,0.35-0.52,0.48-0.78c0.09-0.04,0.13,0.09,0.13-0.13v-0.13c0.09-0.26,0-0.17,0.17-0.61
		c0.39,0.04,0.61-0.17,0.91-0.22c0.17,0,0.17,0.09,0.35,0.13c0.22,0.04,0.48,0,0.61,0.09c0.09,0.13,0.22,0.3,0.43,0.48
		c0.09,0.04,0.22-0.04,0.26,0c0.04,0.13,0.17,0.39,0.43,0.52c-0.09,0.65-0.48,1.09-0.56,1.65c-0.13,0.09-0.26,0.17-0.39,0.17
		c-0.04,0.56-0.65,0.87-0.35,1.35c-0.26,0.13-0.3,0.39-0.74,0.26c-0.04,0.17,0,0.3-0.13,0.48c-0.04,0.04-0.22,0.13-0.22,0.17
		c-0.04,0.26,0,0.56,0,0.78c-0.04,0.13-0.35,0.35,0,0.39c-0.3,0.26-0.48,0.56-0.39,1.13c-0.3,0.17-0.39,0.56-0.56,0.74
		c0.04,0.35-0.13,0.74-0.17,1c-0.04,0.26-0.22,0.35-0.22,0.52c-0.04,0.22,0.09,0.39,0.13,0.65c0,0.09-0.04,0.22,0,0.35
		c0.04,0.17-0.04,0.56,0,0.96c0,0.13-0.04,0.7,0.04,0.74c0.04,0.35,0.26,0.22,0.35,0.61c0.04,0.13,0.26,0.13,0.39,0.22
		c0.43,0,1-0.26,1.26-0.43c1.09-0.39,2.3-1.3,2.3-1.22c0.61-0.78,1.04-0.43,1.22-1.08c0-0.04,0.04-0.09,0.04-0.09
		c0.48-0.09,0.52-0.3,1.08-0.7h0.13c0.13,0.04,0.22-0.26,0.26-0.26c0.43-0.3,1.08-0.52,1.3-1c0.17-0.04,0.26-0.13,0.39-0.09h0.09
		c0.13-0.09,0.26-0.48,0.43-0.39c0.09,0,0.04-0.04,0.09-0.13c0-0.04,0.04-0.04,0.04,0v0.09c0.04-0.04,0.04-0.13,0.04-0.17v-0.09
		c0,0,0.04,0.04,0.09,0.04c0.04,0,0.3-0.39,0.39-0.48c0.04-0.04,0.26-0.17,0.35-0.3v-0.09c0.7-0.17,1.09-0.74,1.48-1.04
		c0.04,0,0.43-0.48,0.48-0.52c0.17-0.17,0.65-0.69,0.7-0.82v-0.22h0.04c0.17,0.09,0.48-0.61,0.65-0.43h0.09v-0.13
		c0.09,0,0.22,0.04,0.35,0.13c0.43,0.09,0.7,0.26,0.43,1.04c-0.78,0.61,0.17,0.65-0.56,0.69c-0.13,0.17-0.13,0.3-0.22,0.43
		s-0.61,0.3-0.87,0.56c-0.17,0.13-0.61,0.35-0.48,0.48c0.17,0.09-0.22,0.17-0.56,0.48c-0.04-0.04-0.09,0.22-0.17,0.17
		c-0.04-0.04-0.17-0.09-0.22-0.09v0.13c-0.22,0.17-0.52,0.52-1,0.87c-0.04,0.04-0.04,0.09-0.04,0.13c-0.04,0.13-0.48,0.17-0.56,0.52
		v0.04c-0.3,0-0.78,0.3-0.78,0.48l-0.09,0.04c0,0.09-0.13,0-0.13,0c-0.13-0.04-0.17,0.35-0.3,0.43c-0.17,0.13-0.48,0.04-0.65,0.35
		c0.04,0.13,0,0.17-0.04,0.13c0,0-0.04,0.04-0.09-0.04c-0.04,0.22-0.22,0.13-0.26,0.26v0.13c-0.39,0-0.48,0.35-0.74,0.48
		c-0.39,0.35-1.43,1.26-1.48,1.13c-0.09,0.17-0.39,0.22-0.48,0.52c0-0.04-0.13,0-0.13,0c-0.26-0.09-0.04,0.3-0.3,0.17l-0.04-0.09
		v0.09c0,0.09-0.13,0.17-0.13,0.22c-0.09,0.26-1.52,0.83-1.78,0.83c0,0.04-0.04,0.09-0.04,0.09c-0.13,0.26-0.17,0.26-0.26,0.52
		c0-0.04-0.04-0.09-0.04-0.09c-0.26-0.04-0.69,0.39-0.78,0.52c-0.04,0.04-0.13,0-0.17,0.09c0.04,0.09-0.04,0.04-0.13,0
		c-0.04-0.04,0,0.04-0.13-0.04c-0.26,0-1,0.3-1.35,0.22c-0.22-0.09-0.35-0.13-0.57-0.26c-0.09-0.26-0.39-0.22-0.52-0.26
		C429.06,315.1,428.54,314.88,428.24,314.45z M418.64,309.5h0.04H418.64z M427.76,304.29c-0.09-0.04-0.04-0.39-0.04-0.43
		c-0.22-0.04-0.43,0.04-0.61,0c0,0-0.04-0.13-0.09-0.17h-0.13c-0.09,0-0.04-0.13-0.09-0.13c-0.43-0.09-0.87-0.09-1.17-0.13
		c-0.35-0.04-0.35,0.22-0.56,0.26c-0.26,0.17-0.48,0.17-0.74,0.17c-0.26,0.56-0.91,0.69-0.96,1.35c-0.17,0.17-0.48,0.13-0.43,0.61
		c-0.22,0-0.17,0.26-0.26,0.43c-0.35,0.13-0.35,0.52-0.48,0.69c-0.26,0.35-0.43,0.48-0.56,0.87c-0.04,0.17,0.04,0.39-0.04,0.69
		c-0.43,0.26-0.22,0.91-0.48,1.17c-0.3,0.52-0.26,1.52-0.39,2.17c-0.26,0.09-0.13,0.35-0.13,0.56h-0.39c0.04,0.13,0,0.22-0.04,0.26
		c0.04,0.13,0.09,0.09,0.09,0.13c0.17,0.52,0.17,1.22,0.78,1.22c0.39-0.22,0.56-0.7,1.04-0.78c-0.13-0.52,0.26-0.56,0.39-0.65
		c0.13-0.13,0-0.35,0.13-0.3c0.3-0.13,0.48-0.22,0.87-0.26c-0.26-0.26,0.17-0.39,0.26-0.56c0.04,0,0-0.09,0-0.09
		c0.04-0.17,0.09-0.09,0.09-0.13c0.04-0.09,0.04-0.35,0.22-0.48c0.3-0.39,0.78-0.56,1.08-0.91c0.04-0.04,0-0.22,0-0.3
		c0-0.04,0.22-0.09,0.26-0.13c0.09-0.13,0.04-0.35,0.13-0.52c0-0.04,0.09-0.09,0.13-0.17c0.13-0.13,0.43-0.26,0.48-0.35v-0.43
		c0.17-0.22,0.65-0.43,0.7-0.56c0.09-0.13,0.09-0.3,0.13-0.43c0.09-0.09,0.3-0.09,0.35-0.13c0.13-0.04,0.13-0.26,0.39-0.17
		c0.04-0.43,0.26-0.74,0.43-1.04c0.35-0.26,0.52-0.43,0.65-0.96c-0.26,0-0.39-0.26-0.65-0.35
		C428.06,304.2,427.85,304.29,427.76,304.29z"/>
	<path d="M445.48,308.98c0.04-0.26-0.13-0.22,0.09-0.3c0.22-0.09,0.87-0.87,1.04-0.91c0.09-0.26-0.17-0.43,0.35-0.43
		c0.13-0.26,0.69-0.61,1.17-0.65c0.04-0.3,0.52-0.78,0.91-0.83c0.39-0.43,1-0.65,1.3-1.22c0.48-0.09,0.65-0.48,1-0.61
		c0.04-0.17,0.13-0.17,0.26-0.22c0.17-0.13,0.43-0.3,0.56-0.56c0.13,0,0.13-0.09,0.17-0.09c0.26-0.17,0.43-0.35,0.65-0.48l0.56-0.26
		l0.78-0.52c0.04,0,0.17,0.04,0.17,0c0.13-0.04,0.26-0.17,0.39-0.3c0.17,0,0.3,0.09,0.52,0.04c0.13-0.04,0.13-0.22,0.17-0.26
		c0.13-0.04,0.3,0.04,0.39,0c0.26-0.09,0.48,0.52,0.65,0.3c0.22-0.09,0.26,0.26,0.43,0.39c0,0,0.17-0.04,0.22,0v0.04h0.17
		c0.04,0,0,0.09,0,0.09c0.26,0.26,0.39,0.65,0.78,0.7c-0.22,0.17,0.04,0.35,0.17,0.56c0.04,0.17,0.04,0.43,0.13,0.61
		c0.09,0.26-0.13,0.35-0.13,0.52c-0.13,0.39,0.04,0.78-0.17,1.04c-0.09,0.09-0.39,0.22-0.43,0.48c-0.65-0.04-0.7-0.04-1.26,0
		c0-0.17-0.35-0.09-0.48-0.17c-0.04,0,0-0.09,0-0.09c-0.09-0.13-0.26-0.3-0.39-0.35c0-0.56-0.26-0.87-0.48-1.09
		c-0.48-0.04-0.56-0.35-0.7-0.04c-0.43-0.04-0.56,0.22-0.74,0.48c-0.48-0.04-0.69,0.22-0.83,0.43h-0.61c-0.26,0.09,0.13,0.26,0,0.48
		c-0.3,0-0.61,0.39-0.87,0.22c-0.09,0,0,0.3-0.13,0.35c-0.35,0.09-0.61,0.43-0.87,0.65c-0.17,0.13-0.3,0.22-0.52,0.17
		c-0.13,0.39-0.52,0-0.52,0.39c-0.3,0.09-0.43,0.3-0.65,0.43c0.04,0.35-0.78,0.48-0.69,0.87c-0.3,0.04-0.83,0.65-1.04,0.87
		c-0.09,0.17-0.65,0.56-0.74,0.65c0,0.04-0.13,0.04-0.13,0.09c-0.26,0.22-0.48,0.61-0.56,0.7l-0.43,0.48
		c-0.17,0.17-0.26,0.35-0.43,0.56c-0.04,0-0.04,0.13-0.22,0.17c-0.04,0.22-0.09,0.35-0.17,0.43v0.04c0,0.04-0.13,0.39-0.13,0.43
		c-0.35,0.35-0.26,0.52-0.26,0.96c-0.17,0.09-0.17,0.35-0.39,0.39c0,0.65-0.3,0.96-0.39,1.48c-0.17,0.17-0.13-0.04-0.43,0
		c0.04,0.17-0.22,0.13-0.35,0.17c0,0.09-0.04,0.13-0.22,0.09c0.04,0-0.04-0.13-0.13-0.09c0,0.09-0.09,0.26-0.26,0.3
		c-0.35-0.26-0.74-0.48-0.96-0.91c-0.04-0.04-0.09,0.04-0.09-0.13c0-0.13,0-0.26-0.09-0.26l0.17-0.56c0-0.04,0.17-0.13,0.22-0.17
		c0,0-0.04-0.13,0-0.17c0.09-0.13,0-0.3,0.09-0.43c0.17-0.13,0.13-0.52,0.48-0.83c0-0.3,0-0.48,0.04-0.7l0.26-0.56
		c0-0.04,0.09,0,0.09-0.13v-0.26c0-0.04,0.17-0.04,0.17-0.09c0.04-0.13-0.04-0.22,0-0.26c0-0.04,0.13-0.04,0.13-0.13
		c0-0.22,0-0.3,0.04-0.43c0.04-0.13,0.17-0.26,0.26-0.43c0-0.17,0-0.3,0.13-0.52c0.04-0.09,0.04-0.26,0.09-0.3
		c0.04-0.04,0.3-0.22,0.3-0.35c0.04-0.26,0.3-0.61,0.43-0.83c-0.13-0.35,0.13-0.56-0.09-0.96c0.22,0,0.09-0.39,0.26-0.39
		c0-0.52,0.22-0.91,0.3-1.39c0.04-0.22,0-0.52,0.13-0.74c0-0.04-0.04-0.17,0-0.22c0.13-0.04-0.09-0.04,0-0.26l0.17-0.52v-0.17
		c0-0.17,0.17-0.22,0.17-0.3c0.09-0.22,0-0.48,0.13-0.74c-0.13-0.39-0.09-0.48,0.13-0.69c0-0.26,0.13-0.35-0.22-0.56l-0.09-0.26
		c0,0-0.13-0.3-0.13-0.35c0.17-0.04-0.04-0.09,0.13-0.13c0.26-0.13,0.09-0.26,0.48-0.35c0.04,0,0.13,0.04,0.17,0v-0.09
		c0.35-0.09,0.48-0.13,0.91,0c0.09,0,0.26,0.04,0.39,0.09c0.04,0.04,0.04,0.17,0.09,0.22c0.04,0,0.17-0.04,0.17,0
		c0.04,0.04,0.04,0.17,0.22,0.17c0.3,0.04,0.17,0.3,0.56,0.35c0.04,0.09,0,0.22,0,0.3c0.04,0.09,0.13,0.17,0.09,0.48
		c0,0-0.13,0.04-0.09,0.04c0.13,0.13,0,0.09,0,0.3c0,0,0.09,0,0.09,0.13c0,0-0.09,0.09-0.09,0.26c0,0.13-0.04,0.26-0.09,0.35
		c0,0.09-0.13,0.26-0.3,0.35c0,0.43,0,0.52-0.09,0.78c0,0.04,0.04,0.22,0,0.22c-0.22,0.09,0,0,0,0.35l-0.09,0.04v0.35
		c0.09,0.17-0.17,0.13-0.26,0.17c0.04,0.52-0.43,1.26-0.74,1.82c0,0.09-0.52,1.39-0.39,1.39
		C445.39,308.15,444.79,309.8,445.48,308.98z"/>
	<path d="M459.25,311.8c0-0.22,0.04-0.83,0.04-1.04l0.22-1.48c0.04-0.48,0.22-0.74,0.35-1.22v-0.52c0-0.04,0.39-0.74,0.91-1.91
		c0-0.04-0.04-0.13-0.04-0.17c0-0.04,0.04-0.04,0.09-0.04h0.09c0-0.04-0.04-0.13,0-0.17c0-0.13,0.09-0.09,0.17-0.09
		c0-0.04-0.04-0.13-0.04-0.17c0-0.09,0.3-0.26,0.43-0.69c1-2.13,1.26-1.74,2.65-3.04c0.22-0.17,0.48-0.43,0.56-0.43
		c0.13,0,0.3-0.35,0.56-0.35c0.04-0.17,0.26-0.22,0.48-0.22h0.39c0.17,0,0.52,0,0.52-0.17c0.04,0,0.39,0.22,0.61,0.22
		c0.09,0,0.26-0.09,0.43-0.09c0.26,0,0.83,0.69,0.83,0.61h0.09c0.26,0,0.48,0.22,0.52,0.26c0.09,0,0.13-0.09,0.13-0.13
		c0.04,0,1.48,1.08,1.43,1.87c0,0.3-0.13,0.43-0.26,0.43c-0.04,0-0.09,0.56-0.17,0.52v0.13c0,0.22-0.13,0.26-0.17,0.48
		c0,0.04,0.04,0.09,0.04,0.13c-0.7,0-0.83,0.39-0.87,0.39c-0.09,0-0.13-0.04-0.17-0.04c-0.74,0.52-1.04,1.17-1.43,1.17
		c-0.04,0-0.09-0.04-0.13-0.04c-0.04,0.22-0.13,0.35-0.35,0.35h-0.09c-0.3,0.35-0.48,0.78-0.83,1.13c-0.26,0.22-0.83,0.13-0.87,0.56
		c0,0.04-0.04,0.13-0.04,0.17c-0.65,0-1.95,1.35-2,1.39v0.22h-0.09c0.04,0-0.39,0.13-0.43,0.26v0.17c0,0.17-0.48,0.13-0.52,0.52
		v0.13c-0.35,0.09-0.96-0.22-1,0c0,0.26,0.13,0.52,0.13,0.74c-0.04,0.04-0.17,0.22-0.17,0.35c0,0.26,0.35,0.13,0.3,0.48
		c0,0.17-0.04,0.3-0.17,0.43l0.39,0.52c-0.04,0.09,0.04,0.26,0.04,0.3c-0.04,0.17,0.22,0.17,0.22,0.39v0.13
		c0.26,0.52,1.17,0.69,1.95,0.69c1.78,0,1.74-1.04,2.91-1.22c0.26-0.09,0.35-0.35,0.52-0.61h0.09c0.7,0,0.61-0.74,1.3-0.74
		c0-0.04,0-0.04,0.04-0.09c0-0.22,0.26-0.17,0.26-0.39c-0.04-0.09,0.43-0.48,0.43-0.52c0.17-0.48,0.78-0.87,0.7-0.83
		c-0.04-0.04-0.04-0.09-0.04-0.13c0.04-0.17,0.43-1.17,1-1.22c0.52,0.04,0.39,0.74,0.13,1.48c0,0.13-0.17,0.39-0.04,0.39
		c-0.43,0.48-1.13,2.21-1.82,2.39c-1,0.82-1.39,1.04-1.43,1.43c0,0.04-0.65,0.39-0.65,0.43c-0.96,0.22-1.74,1-1.78,1
		c-0.39,0-0.96,0.35-1.35,0.35c-0.13,0-0.26-0.04-0.35-0.22c-0.09,0.09-0.22,0.22-0.26,0.35c-0.17-0.09-0.74-0.22-0.65-0.22
		c-0.09,0-0.13,0.09-0.22,0.09c-0.04,0-0.04-0.09-0.13-0.09h-0.09c-1-0.56-1,0.09-1.91-0.96c-0.13-0.17-0.39-0.17-0.39-0.35
		c0.04-0.09,0.09-0.17,0.09-0.26s-0.48-0.26-0.48-0.65c-0.26-0.17-0.13-0.74-0.52-0.87c-0.09-0.13,0.09-0.78-0.09-0.78
		C459.29,312.71,459.21,311.8,459.25,311.8z M465.68,302.33c-0.04,0-0.13-0.04-0.22-0.04c-0.48,0.43-0.91,1.22-1.52,1.87v0.26
		c-0.09,1.22-1.13,0.48-1.17,1.26c-0.04,0.22,0.04,0.35,0.04,0.61c-0.04,0.22-0.22,0.22-0.22,0.39c0,0.04,0.04,0.13,0.04,0.17
		c-0.26,0.09-0.91,1.13-0.91,1.26c0,0.04-0.04,0.43,0.13,0.43c0.78,0,1.74-1.78,2.82-1.96c0.13-0.26,0.26-0.48,0.35-0.82
		c0.09,0,0.13,0.04,0.17,0.04c0.82,0,0.65-0.96,1.56-0.96c0.04-0.04,0.04-0.04,0.04-0.13c0.09-1.17,1.3-0.56,1.39-1.69
		c0-0.3-0.04-1.13-0.52-1.13c-0.69,0-1.43,0.17-1.65,0.3C465.76,302.2,465.81,302.33,465.68,302.33z"/>
</g>
</svg>
